<svg height="200.0" viewBox="-645.0 -25.0 1290.0 200.0" width="1290.0" xmlns="http://www.w3.org/2000/svg">
	<style type="text/css">
		<![CDATA[
			circle.leaf {
				text-anchor: middle;
			}
			circle.left_node {
				text-anchor: end;
			}
		]]>
	</style>
	<g class="edges" stroke="black" stroke-width="1px">
		<line x1="-600.0" x2="-620.0" y1="120.0" y2="150.0" />
		<line x1="-600.0" x2="-580.0" y1="120.0" y2="150.0" />
		<line x1="-560.0" x2="-600.0" y1="90.0" y2="120.0" />
		<line x1="-520.0" x2="-540.0" y1="120.0" y2="150.0" />
		<line x1="-520.0" x2="-500.0" y1="120.0" y2="150.0" />
		<line x1="-560.0" x2="-520.0" y1="90.0" y2="120.0" />
		<line x1="-480.0" x2="-560.0" y1="60.0" y2="90.0" />
		<line x1="-440.0" x2="-460.0" y1="120.0" y2="150.0" />
		<line x1="-440.0" x2="-420.0" y1="120.0" y2="150.0" />
		<line x1="-400.0" x2="-440.0" y1="90.0" y2="120.0" />
		<line x1="-360.0" x2="-380.0" y1="120.0" y2="150.0" />
		<line x1="-360.0" x2="-340.0" y1="120.0" y2="150.0" />
		<line x1="-400.0" x2="-360.0" y1="90.0" y2="120.0" />
		<line x1="-480.0" x2="-400.0" y1="60.0" y2="90.0" />
		<line x1="-320.0" x2="-480.0" y1="30.0" y2="60.0" />
		<line x1="-280.0" x2="-300.0" y1="120.0" y2="150.0" />
		<line x1="-280.0" x2="-260.0" y1="120.0" y2="150.0" />
		<line x1="-240.0" x2="-280.0" y1="90.0" y2="120.0" />
		<line x1="-200.0" x2="-220.0" y1="120.0" y2="150.0" />
		<line x1="-200.0" x2="-180.0" y1="120.0" y2="150.0" />
		<line x1="-240.0" x2="-200.0" y1="90.0" y2="120.0" />
		<line x1="-160.0" x2="-240.0" y1="60.0" y2="90.0" />
		<line x1="-120.0" x2="-140.0" y1="120.0" y2="150.0" />
		<line x1="-120.0" x2="-100.0" y1="120.0" y2="150.0" />
		<line x1="-80.0" x2="-120.0" y1="90.0" y2="120.0" />
		<line x1="-40.0" x2="-60.0" y1="120.0" y2="150.0" />
		<line x1="-40.0" x2="-20.0" y1="120.0" y2="150.0" />
		<line x1="-80.0" x2="-40.0" y1="90.0" y2="120.0" />
		<line x1="-160.0" x2="-80.0" y1="60.0" y2="90.0" />
		<line x1="-320.0" x2="-160.0" y1="30.0" y2="60.0" />
		<line x1="0.0" x2="-320.0" y1="0.0" y2="30.0" />
		<line x1="40.0" x2="20.0" y1="120.0" y2="150.0" />
		<line x1="40.0" x2="60.0" y1="120.0" y2="150.0" />
		<line x1="80.0" x2="40.0" y1="90.0" y2="120.0" />
		<line x1="120.0" x2="100.0" y1="120.0" y2="150.0" />
		<line x1="120.0" x2="140.0" y1="120.0" y2="150.0" />
		<line x1="80.0" x2="120.0" y1="90.0" y2="120.0" />
		<line x1="160.0" x2="80.0" y1="60.0" y2="90.0" />
		<line x1="200.0" x2="180.0" y1="120.0" y2="150.0" />
		<line x1="200.0" x2="220.0" y1="120.0" y2="150.0" />
		<line x1="240.0" x2="200.0" y1="90.0" y2="120.0" />
		<line x1="280.0" x2="260.0" y1="120.0" y2="150.0" />
		<line x1="280.0" x2="300.0" y1="120.0" y2="150.0" />
		<line x1="240.0" x2="280.0" y1="90.0" y2="120.0" />
		<line x1="160.0" x2="240.0" y1="60.0" y2="90.0" />
		<line x1="320.0" x2="160.0" y1="30.0" y2="60.0" />
		<line x1="360.0" x2="340.0" y1="120.0" y2="150.0" />
		<line x1="360.0" x2="380.0" y1="120.0" y2="150.0" />
		<line x1="400.0" x2="360.0" y1="90.0" y2="120.0" />
		<line x1="440.0" x2="420.0" y1="120.0" y2="150.0" />
		<line x1="440.0" x2="460.0" y1="120.0" y2="150.0" />
		<line x1="400.0" x2="440.0" y1="90.0" y2="120.0" />
		<line x1="480.0" x2="400.0" y1="60.0" y2="90.0" />
		<line x1="520.0" x2="500.0" y1="120.0" y2="150.0" />
		<line x1="520.0" x2="540.0" y1="120.0" y2="150.0" />
		<line x1="560.0" x2="520.0" y1="90.0" y2="120.0" />
		<line x1="600.0" x2="580.0" y1="120.0" y2="150.0" />
		<line x1="600.0" x2="620.0" y1="120.0" y2="150.0" />
		<line x1="560.0" x2="600.0" y1="90.0" y2="120.0" />
		<line x1="480.0" x2="560.0" y1="60.0" y2="90.0" />
		<line x1="320.0" x2="480.0" y1="30.0" y2="60.0" />
		<line x1="0.0" x2="320.0" y1="0.0" y2="30.0" />
	</g>
	<g class="vertices">
		<circle cx="0.0" cy="0.0" r="5.0" />
		<circle cx="-320.0" cy="30.0" r="5.0" />
		<circle cx="-480.0" cy="60.0" r="5.0" />
		<circle cx="-560.0" cy="90.0" r="5.0" />
		<circle cx="-600.0" cy="120.0" r="5.0" />
		<circle cx="-620.0" cy="150.0" r="5.0" />
		<circle cx="-580.0" cy="150.0" r="5.0" />
		<circle cx="-520.0" cy="120.0" r="5.0" />
		<circle cx="-540.0" cy="150.0" r="5.0" />
		<circle cx="-500.0" cy="150.0" r="5.0" />
		<circle cx="-400.0" cy="90.0" r="5.0" />
		<circle cx="-440.0" cy="120.0" r="5.0" />
		<circle cx="-460.0" cy="150.0" r="5.0" />
		<circle cx="-420.0" cy="150.0" r="5.0" />
		<circle cx="-360.0" cy="120.0" r="5.0" />
		<circle cx="-380.0" cy="150.0" r="5.0" />
		<circle cx="-340.0" cy="150.0" r="5.0" />
		<circle cx="-160.0" cy="60.0" r="5.0" />
		<circle cx="-240.0" cy="90.0" r="5.0" />
		<circle cx="-280.0" cy="120.0" r="5.0" />
		<circle cx="-300.0" cy="150.0" r="5.0" />
		<circle cx="-260.0" cy="150.0" r="5.0" />
		<circle cx="-200.0" cy="120.0" r="5.0" />
		<circle cx="-220.0" cy="150.0" r="5.0" />
		<circle cx="-180.0" cy="150.0" r="5.0" />
		<circle cx="-80.0" cy="90.0" r="5.0" />
		<circle cx="-120.0" cy="120.0" r="5.0" />
		<circle cx="-140.0" cy="150.0" r="5.0" />
		<circle cx="-100.0" cy="150.0" r="5.0" />
		<circle cx="-40.0" cy="120.0" r="5.0" />
		<circle cx="-60.0" cy="150.0" r="5.0" />
		<circle cx="-20.0" cy="150.0" r="5.0" />
		<circle cx="320.0" cy="30.0" r="5.0" />
		<circle cx="160.0" cy="60.0" r="5.0" />
		<circle cx="80.0" cy="90.0" r="5.0" />
		<circle cx="40.0" cy="120.0" r="5.0" />
		<circle cx="20.0" cy="150.0" r="5.0" />
		<circle cx="60.0" cy="150.0" r="5.0" />
		<circle cx="120.0" cy="120.0" r="5.0" />
		<circle cx="100.0" cy="150.0" r="5.0" />
		<circle cx="140.0" cy="150.0" r="5.0" />
		<circle cx="240.0" cy="90.0" r="5.0" />
		<circle cx="200.0" cy="120.0" r="5.0" />
		<circle cx="180.0" cy="150.0" r="5.0" />
		<circle cx="220.0" cy="150.0" r="5.0" />
		<circle cx="280.0" cy="120.0" r="5.0" />
		<circle cx="260.0" cy="150.0" r="5.0" />
		<circle cx="300.0" cy="150.0" r="5.0" />
		<circle cx="480.0" cy="60.0" r="5.0" />
		<circle cx="400.0" cy="90.0" r="5.0" />
		<circle cx="360.0" cy="120.0" r="5.0" />
		<circle cx="340.0" cy="150.0" r="5.0" />
		<circle cx="380.0" cy="150.0" r="5.0" />
		<circle cx="440.0" cy="120.0" r="5.0" />
		<circle cx="420.0" cy="150.0" r="5.0" />
		<circle cx="460.0" cy="150.0" r="5.0" />
		<circle cx="560.0" cy="90.0" r="5.0" />
		<circle cx="520.0" cy="120.0" r="5.0" />
		<circle cx="500.0" cy="150.0" r="5.0" />
		<circle cx="540.0" cy="150.0" r="5.0" />
		<circle cx="600.0" cy="120.0" r="5.0" />
		<circle cx="580.0" cy="150.0" r="5.0" />
		<circle cx="620.0" cy="150.0" r="5.0" />
	</g>
</svg>