<svg height="140.0" viewBox="-165.0 -25.0 330.0 140.0" width="330.0" xmlns="http://www.w3.org/2000/svg">
	<style type="text/css">
		<![CDATA[
			circle.leaf {
				text-anchor: middle;
			}
			circle.left_node {
				text-anchor: end;
			}
		]]>
	</style>
	<g class="edges" stroke="black" stroke-width="1px">
		<line x1="-120.0" x2="-140.0" y1="60.0" y2="90.0" />
		<line x1="-120.0" x2="-100.0" y1="60.0" y2="90.0" />
		<line x1="-80.0" x2="-120.0" y1="30.0" y2="60.0" />
		<line x1="-40.0" x2="-60.0" y1="60.0" y2="90.0" />
		<line x1="-40.0" x2="-20.0" y1="60.0" y2="90.0" />
		<line x1="-80.0" x2="-40.0" y1="30.0" y2="60.0" />
		<line x1="0.0" x2="-80.0" y1="0.0" y2="30.0" />
		<line x1="40.0" x2="20.0" y1="60.0" y2="90.0" />
		<line x1="40.0" x2="60.0" y1="60.0" y2="90.0" />
		<line x1="80.0" x2="40.0" y1="30.0" y2="60.0" />
		<line x1="120.0" x2="100.0" y1="60.0" y2="90.0" />
		<line x1="120.0" x2="140.0" y1="60.0" y2="90.0" />
		<line x1="80.0" x2="120.0" y1="30.0" y2="60.0" />
		<line x1="0.0" x2="80.0" y1="0.0" y2="30.0" />
	</g>
	<g class="vertices">
		<circle cx="0.0" cy="0.0" r="5.0" />
		<circle cx="-80.0" cy="30.0" r="5.0" />
		<circle cx="-120.0" cy="60.0" r="5.0" />
		<circle cx="-140.0" cy="90.0" r="5.0" />
		<text class="leaf" x="-155.0" y="110.0">-1.0</text>
		<circle cx="-100.0" cy="90.0" r="5.0" />
		<text class="leaf" x="-105.0" y="110.0">1.0</text>
		<text class="left_node" x="-140.0" y="50.0">-2.0</text>
		<circle cx="-40.0" cy="60.0" r="5.0" />
		<circle cx="-60.0" cy="90.0" r="5.0" />
		<text class="leaf" x="-75.0" y="110.0">-1.0</text>
		<circle cx="-20.0" cy="90.0" r="5.0" />
		<text class="leaf" x="-25.0" y="110.0">1.0</text>
		<text x="-40.0" y="50.0">2.0</text>
		<text class="left_node" x="-100.0" y="20.0">-4.0</text>
		<circle cx="80.0" cy="30.0" r="5.0" />
		<circle cx="40.0" cy="60.0" r="5.0" />
		<circle cx="20.0" cy="90.0" r="5.0" />
		<text class="leaf" x="5.0" y="110.0">-1.0</text>
		<circle cx="60.0" cy="90.0" r="5.0" />
		<text class="leaf" x="55.0" y="110.0">1.0</text>
		<text class="left_node" x="20.0" y="50.0">-2.0</text>
		<circle cx="120.0" cy="60.0" r="5.0" />
		<circle cx="100.0" cy="90.0" r="5.0" />
		<text class="leaf" x="85.0" y="110.0">-1.0</text>
		<circle cx="140.0" cy="90.0" r="5.0" />
		<text class="leaf" x="135.0" y="110.0">1.0</text>
		<text x="120.0" y="50.0">2.0</text>
		<text x="80.0" y="20.0">4.0</text>
	</g>
</svg>