<svg height="170.0" viewBox="-325.0 -25.0 650.0 170.0" width="650.0" xmlns="http://www.w3.org/2000/svg">
	<style type="text/css">
		<![CDATA[
			circle.leaf {
				text-anchor: middle;
			}
			circle.left_node {
				text-anchor: end;
			}
		]]>
	</style>
	<g class="edges" stroke="black" stroke-width="1px">
		<line x1="-280.0" x2="-300.0" y1="90.0" y2="120.0" />
		<line x1="-280.0" x2="-260.0" y1="90.0" y2="120.0" />
		<line x1="-240.0" x2="-280.0" y1="60.0" y2="90.0" />
		<line x1="-200.0" x2="-220.0" y1="90.0" y2="120.0" />
		<line x1="-200.0" x2="-180.0" y1="90.0" y2="120.0" />
		<line x1="-240.0" x2="-200.0" y1="60.0" y2="90.0" />
		<line x1="-160.0" x2="-240.0" y1="30.0" y2="60.0" />
		<line x1="-120.0" x2="-140.0" y1="90.0" y2="120.0" />
		<line x1="-120.0" x2="-100.0" y1="90.0" y2="120.0" />
		<line x1="-80.0" x2="-120.0" y1="60.0" y2="90.0" />
		<line x1="-40.0" x2="-60.0" y1="90.0" y2="120.0" />
		<line x1="-40.0" x2="-20.0" y1="90.0" y2="120.0" />
		<line x1="-80.0" x2="-40.0" y1="60.0" y2="90.0" />
		<line x1="-160.0" x2="-80.0" y1="30.0" y2="60.0" />
		<line x1="0.0" x2="-160.0" y1="0.0" y2="30.0" />
		<line x1="40.0" x2="20.0" y1="90.0" y2="120.0" />
		<line x1="40.0" x2="60.0" y1="90.0" y2="120.0" />
		<line x1="80.0" x2="40.0" y1="60.0" y2="90.0" />
		<line x1="120.0" x2="100.0" y1="90.0" y2="120.0" />
		<line x1="120.0" x2="140.0" y1="90.0" y2="120.0" />
		<line x1="80.0" x2="120.0" y1="60.0" y2="90.0" />
		<line x1="160.0" x2="80.0" y1="30.0" y2="60.0" />
		<line x1="200.0" x2="180.0" y1="90.0" y2="120.0" />
		<line x1="200.0" x2="220.0" y1="90.0" y2="120.0" />
		<line x1="240.0" x2="200.0" y1="60.0" y2="90.0" />
		<line x1="280.0" x2="260.0" y1="90.0" y2="120.0" />
		<line x1="280.0" x2="300.0" y1="90.0" y2="120.0" />
		<line x1="240.0" x2="280.0" y1="60.0" y2="90.0" />
		<line x1="160.0" x2="240.0" y1="30.0" y2="60.0" />
		<line x1="0.0" x2="160.0" y1="0.0" y2="30.0" />
	</g>
	<g class="vertices">
		<circle cx="0.0" cy="0.0" r="5.0" />
		<circle cx="-160.0" cy="30.0" r="5.0" />
		<circle cx="-240.0" cy="60.0" r="5.0" />
		<circle cx="-280.0" cy="90.0" r="5.0" />
		<circle cx="-300.0" cy="120.0" r="5.0" />
		<text class="leaf" x="-315.0" y="140.0">-1.0</text>
		<circle cx="-260.0" cy="120.0" r="5.0" />
		<text class="leaf" x="-265.0" y="140.0">1.0</text>
		<text class="left_node" x="-300.0" y="80.0">-2.0</text>
		<circle cx="-200.0" cy="90.0" r="5.0" />
		<circle cx="-220.0" cy="120.0" r="5.0" />
		<text class="leaf" x="-235.0" y="140.0">-1.0</text>
		<circle cx="-180.0" cy="120.0" r="5.0" />
		<text class="leaf" x="-185.0" y="140.0">1.0</text>
		<text x="-200.0" y="80.0">2.0</text>
		<text class="left_node" x="-260.0" y="50.0">-4.0</text>
		<circle cx="-80.0" cy="60.0" r="5.0" />
		<circle cx="-120.0" cy="90.0" r="5.0" />
		<circle cx="-140.0" cy="120.0" r="5.0" />
		<text class="leaf" x="-155.0" y="140.0">-1.0</text>
		<circle cx="-100.0" cy="120.0" r="5.0" />
		<text class="leaf" x="-105.0" y="140.0">1.0</text>
		<text class="left_node" x="-140.0" y="80.0">-2.0</text>
		<circle cx="-40.0" cy="90.0" r="5.0" />
		<circle cx="-60.0" cy="120.0" r="5.0" />
		<text class="leaf" x="-75.0" y="140.0">-1.0</text>
		<circle cx="-20.0" cy="120.0" r="5.0" />
		<text class="leaf" x="-25.0" y="140.0">1.0</text>
		<text x="-40.0" y="80.0">2.0</text>
		<text x="-80.0" y="50.0">4.0</text>
		<text class="left_node" x="-180.0" y="20.0">-8.0</text>
		<circle cx="160.0" cy="30.0" r="5.0" />
		<circle cx="80.0" cy="60.0" r="5.0" />
		<circle cx="40.0" cy="90.0" r="5.0" />
		<circle cx="20.0" cy="120.0" r="5.0" />
		<text class="leaf" x="5.0" y="140.0">-1.0</text>
		<circle cx="60.0" cy="120.0" r="5.0" />
		<text class="leaf" x="55.0" y="140.0">1.0</text>
		<text class="left_node" x="20.0" y="80.0">-2.0</text>
		<circle cx="120.0" cy="90.0" r="5.0" />
		<circle cx="100.0" cy="120.0" r="5.0" />
		<text class="leaf" x="85.0" y="140.0">-1.0</text>
		<circle cx="140.0" cy="120.0" r="5.0" />
		<text class="leaf" x="135.0" y="140.0">1.0</text>
		<text x="120.0" y="80.0">2.0</text>
		<text class="left_node" x="60.0" y="50.0">-4.0</text>
		<circle cx="240.0" cy="60.0" r="5.0" />
		<circle cx="200.0" cy="90.0" r="5.0" />
		<circle cx="180.0" cy="120.0" r="5.0" />
		<text class="leaf" x="165.0" y="140.0">-1.0</text>
		<circle cx="220.0" cy="120.0" r="5.0" />
		<text class="leaf" x="215.0" y="140.0">1.0</text>
		<text class="left_node" x="180.0" y="80.0">-2.0</text>
		<circle cx="280.0" cy="90.0" r="5.0" />
		<circle cx="260.0" cy="120.0" r="5.0" />
		<text class="leaf" x="245.0" y="140.0">-1.0</text>
		<circle cx="300.0" cy="120.0" r="5.0" />
		<text class="leaf" x="295.0" y="140.0">1.0</text>
		<text x="280.0" y="80.0">2.0</text>
		<text x="240.0" y="50.0">4.0</text>
		<text x="160.0" y="20.0">8.0</text>
	</g>
</svg>