<svg height="350.0" viewBox="-375.0 -25.0 650.0 350.0" width="650.0" xmlns="http://www.w3.org/2000/svg">
    <style type="text/css">
		<![CDATA[
			circle {
				fill: #ffffff;
				stroke: #000000;
			}
			line {
				stroke: #000000;
			}
			text {
				dominant-baseline: central;
				font-family: sans-serif;
				font-size: 10pt;
				text-anchor: middle;
			}
		]]>
	</style>
	<g>
		<line x1="0.0" x2="50.0" y1="100.0" y2="150.0" />
		<line x1="-250.0" x2="-300.0" y1="150.0" y2="200.0" />
		<line x1="-250.0" x2="-200.0" y1="150.0" y2="200.0" />
		<line x1="87.5" x2="-75.0" y1="0.0" y2="50.0" />
		<line x1="87.5" x2="250.0" y1="0.0" y2="50.0" />
		<line x1="-75.0" x2="-150.0" y1="50.0" y2="100.0" />
		<line x1="-75.0" x2="0.0" y1="50.0" y2="100.0" />
		<line x1="150.0" x2="100.0" y1="150.0" y2="200.0" />
		<line x1="-50.0" x2="-100.0" y1="150.0" y2="200.0" />
		<line x1="250.0" x2="200.0" y1="50.0" y2="100.0" />
		<line x1="-150.0" x2="-250.0" y1="100.0" y2="150.0" />
		<line x1="-150.0" x2="-50.0" y1="100.0" y2="150.0" />
		<line x1="-300.0" x2="-350.0" y1="200.0" y2="250.0" />
		<line x1="200.0" x2="150.0" y1="100.0" y2="150.0" />
		<line x1="200.0" x2="250.0" y1="100.0" y2="150.0" />
		<line x1="-200.0" x2="50.0" y1="200.0" y2="250.0" />
		<line x1="50.0" x2="0.0" y1="250.0" y2="300.0" />
	</g>
	<g>
		<circle cx="87.5" cy="0.0" r="15.0" />
		<circle cx="-75.0" cy="50.0" r="15.0" />
		<circle cx="250.0" cy="50.0" r="15.0" />
		<circle cx="-150.0" cy="100.0" r="15.0" />
		<circle cx="0.0" cy="100.0" r="15.0" />
		<circle cx="200.0" cy="100.0" r="15.0" />
		<circle cx="-250.0" cy="150.0" r="15.0" />
		<circle cx="-50.0" cy="150.0" r="15.0" />
		<circle cx="50.0" cy="150.0" r="15.0" />
		<circle cx="150.0" cy="150.0" r="15.0" />
		<circle cx="250.0" cy="150.0" r="15.0" />
		<circle cx="-300.0" cy="200.0" r="15.0" />
		<circle cx="-200.0" cy="200.0" r="15.0" />
		<circle cx="-100.0" cy="200.0" r="15.0" />
		<circle cx="100.0" cy="200.0" r="15.0" />
		<circle cx="-350.0" cy="250.0" r="15.0" />
		<circle cx="50.0" cy="250.0" r="15.0" />
		<circle cx="0.0" cy="300.0" r="15.0" />
	</g>
	<g>
		<text x="87.5" y="0.0">69</text>
		<text x="-75.0" y="50.0">50</text>
		<text x="250.0" y="50.0">90</text>
		<text x="-150.0" y="100.0">4</text>
		<text x="0.0" y="100.0">53</text>
		<text x="200.0" y="100.0">84</text>
		<text x="-250.0" y="150.0">19</text>
		<text x="-50.0" y="150.0">43</text>
		<text x="50.0" y="150.0">61</text>
		<text x="150.0" y="150.0">80</text>
		<text x="250.0" y="150.0">85</text>
		<text x="-300.0" y="200.0">12</text>
		<text x="-200.0" y="200.0">30</text>
		<text x="-100.0" y="200.0">42</text>
		<text x="100.0" y="200.0">72</text>
		<text x="-350.0" y="250.0">100</text>
		<text x="50.0" y="250.0">36</text>
		<text x="0.0" y="300.0">32</text>
	</g>
</svg>