<svg height="450.0" viewBox="-675.0 -25.0 1300.0 450.0" width="1300.0" xmlns="http://www.w3.org/2000/svg">
    <style type="text/css">
		<![CDATA[
			circle {
				fill: #ffffff;
				stroke: #000000;
			}
			line {
				stroke: #000000;
			}
			text {
				dominant-baseline: central;
				font-family: sans-serif;
				font-size: 10pt;
				text-anchor: middle;
			}
		]]>
	</style>
	<g>
		<line x1="-600.0" x2="-550.0" y1="300.0" y2="350.0" />
		<line x1="-81.3" x2="-312.5" y1="0.0" y2="50.0" />
		<line x1="-81.3" x2="150.0" y1="0.0" y2="50.0" />
		<line x1="-550.0" x2="-650.0" y1="200.0" y2="250.0" />
		<line x1="-550.0" x2="-450.0" y1="200.0" y2="250.0" />
		<line x1="-312.5" x2="-362.5" y1="50.0" y2="100.0" />
		<line x1="-312.5" x2="-262.5" y1="50.0" y2="100.0" />
		<line x1="-362.5" x2="-475.0" y1="100.0" y2="150.0" />
		<line x1="-362.5" x2="-250.0" y1="100.0" y2="150.0" />
		<line x1="-475.0" x2="-550.0" y1="150.0" y2="200.0" />
		<line x1="-475.0" x2="-400.0" y1="150.0" y2="200.0" />
		<line x1="150.0" x2="50.0" y1="50.0" y2="100.0" />
		<line x1="150.0" x2="250.0" y1="50.0" y2="100.0" />
		<line x1="250.0" x2="200.0" y1="100.0" y2="150.0" />
		<line x1="250.0" x2="300.0" y1="100.0" y2="150.0" />
		<line x1="-500.0" x2="-450.0" y1="300.0" y2="350.0" />
		<line x1="-250.0" x2="-300.0" y1="150.0" y2="200.0" />
		<line x1="50.0" x2="0.0" y1="100.0" y2="150.0" />
		<line x1="50.0" x2="100.0" y1="100.0" y2="150.0" />
		<line x1="0.0" x2="-100.0" y1="150.0" y2="200.0" />
		<line x1="0.0" x2="100.0" y1="150.0" y2="200.0" />
		<line x1="-300.0" x2="-250.0" y1="200.0" y2="250.0" />
		<line x1="200.0" x2="350.0" y1="150.0" y2="200.0" />
		<line x1="-450.0" x2="-500.0" y1="250.0" y2="300.0" />
		<line x1="300.0" x2="600.0" y1="150.0" y2="200.0" />
		<line x1="-400.0" x2="-350.0" y1="200.0" y2="250.0" />
		<line x1="-550.0" x2="-600.0" y1="350.0" y2="400.0" />
		<line x1="-50.0" x2="0.0" y1="250.0" y2="300.0" />
		<line x1="-100.0" x2="-150.0" y1="200.0" y2="250.0" />
		<line x1="-100.0" x2="-50.0" y1="200.0" y2="250.0" />
		<line x1="450.0" x2="400.0" y1="250.0" y2="300.0" />
		<line x1="450.0" x2="500.0" y1="250.0" y2="300.0" />
		<line x1="150.0" x2="100.0" y1="250.0" y2="300.0" />
		<line x1="150.0" x2="200.0" y1="250.0" y2="300.0" />
		<line x1="350.0" x2="250.0" y1="200.0" y2="250.0" />
		<line x1="350.0" x2="450.0" y1="200.0" y2="250.0" />
		<line x1="100.0" x2="150.0" y1="200.0" y2="250.0" />
		<line x1="600.0" x2="550.0" y1="200.0" y2="250.0" />
		<line x1="-650.0" x2="-600.0" y1="250.0" y2="300.0" />
		<line x1="-350.0" x2="-100.0" y1="250.0" y2="300.0" />
		<line x1="550.0" x2="600.0" y1="250.0" y2="300.0" />
		<line x1="200.0" x2="250.0" y1="300.0" y2="350.0" />
		<line x1="-100.0" x2="-50.0" y1="300.0" y2="350.0" />
		<line x1="100.0" x2="150.0" y1="300.0" y2="350.0" />
		<line x1="400.0" x2="350.0" y1="300.0" y2="350.0" />
	</g>
	<g>
		<circle cx="-81.3" cy="0.0" r="15.0" />
		<circle cx="-312.5" cy="50.0" r="15.0" />
		<circle cx="150.0" cy="50.0" r="15.0" />
		<circle cx="-362.5" cy="100.0" r="15.0" />
		<circle cx="-262.5" cy="100.0" r="15.0" />
		<circle cx="50.0" cy="100.0" r="15.0" />
		<circle cx="250.0" cy="100.0" r="15.0" />
		<circle cx="-475.0" cy="150.0" r="15.0" />
		<circle cx="-250.0" cy="150.0" r="15.0" />
		<circle cx="0.0" cy="150.0" r="15.0" />
		<circle cx="100.0" cy="150.0" r="15.0" />
		<circle cx="200.0" cy="150.0" r="15.0" />
		<circle cx="300.0" cy="150.0" r="15.0" />
		<circle cx="-550.0" cy="200.0" r="15.0" />
		<circle cx="-400.0" cy="200.0" r="15.0" />
		<circle cx="-300.0" cy="200.0" r="15.0" />
		<circle cx="-100.0" cy="200.0" r="15.0" />
		<circle cx="100.0" cy="200.0" r="15.0" />
		<circle cx="350.0" cy="200.0" r="15.0" />
		<circle cx="600.0" cy="200.0" r="15.0" />
		<circle cx="-650.0" cy="250.0" r="15.0" />
		<circle cx="-450.0" cy="250.0" r="15.0" />
		<circle cx="-350.0" cy="250.0" r="15.0" />
		<circle cx="-250.0" cy="250.0" r="15.0" />
		<circle cx="-150.0" cy="250.0" r="15.0" />
		<circle cx="-50.0" cy="250.0" r="15.0" />
		<circle cx="150.0" cy="250.0" r="15.0" />
		<circle cx="250.0" cy="250.0" r="15.0" />
		<circle cx="450.0" cy="250.0" r="15.0" />
		<circle cx="550.0" cy="250.0" r="15.0" />
		<circle cx="-600.0" cy="300.0" r="15.0" />
		<circle cx="-500.0" cy="300.0" r="15.0" />
		<circle cx="-100.0" cy="300.0" r="15.0" />
		<circle cx="0.0" cy="300.0" r="15.0" />
		<circle cx="100.0" cy="300.0" r="15.0" />
		<circle cx="200.0" cy="300.0" r="15.0" />
		<circle cx="400.0" cy="300.0" r="15.0" />
		<circle cx="500.0" cy="300.0" r="15.0" />
		<circle cx="600.0" cy="300.0" r="15.0" />
		<circle cx="-550.0" cy="350.0" r="15.0" />
		<circle cx="-450.0" cy="350.0" r="15.0" />
		<circle cx="-50.0" cy="350.0" r="15.0" />
		<circle cx="150.0" cy="350.0" r="15.0" />
		<circle cx="250.0" cy="350.0" r="15.0" />
		<circle cx="350.0" cy="350.0" r="15.0" />
		<circle cx="-600.0" cy="400.0" r="15.0" />
	</g>
	<g>
		<text x="-81.3" y="0.0">183</text>
		<text x="-312.5" y="50.0">18</text>
		<text x="150.0" y="50.0">24</text>
		<text x="-362.5" y="100.0">161</text>
		<text x="-262.5" y="100.0">181</text>
		<text x="50.0" y="100.0">233</text>
		<text x="250.0" y="100.0">77</text>
		<text x="-475.0" y="150.0">139</text>
		<text x="-250.0" y="150.0">176</text>
		<text x="0.0" y="150.0">191</text>
		<text x="100.0" y="150.0">239</text>
		<text x="200.0" y="150.0">240</text>
		<text x="300.0" y="150.0">78</text>
		<text x="-550.0" y="200.0">114</text>
		<text x="-400.0" y="200.0">144</text>
		<text x="-300.0" y="200.0">172</text>
		<text x="-100.0" y="200.0">185</text>
		<text x="100.0" y="200.0">194</text>
		<text x="350.0" y="200.0">3</text>
		<text x="600.0" y="200.0">89</text>
		<text x="-650.0" y="250.0">0</text>
		<text x="-450.0" y="250.0">137</text>
		<text x="-350.0" y="250.0">148</text>
		<text x="-250.0" y="250.0">174</text>
		<text x="-150.0" y="250.0">184</text>
		<text x="-50.0" y="250.0">186</text>
		<text x="150.0" y="250.0">222</text>
		<text x="250.0" y="250.0">242</text>
		<text x="450.0" y="250.0">73</text>
		<text x="550.0" y="250.0">80</text>
		<text x="-600.0" y="300.0">10</text>
		<text x="-500.0" y="300.0">115</text>
		<text x="-100.0" y="300.0">156</text>
		<text x="0.0" y="300.0">188</text>
		<text x="100.0" y="300.0">2</text>
		<text x="200.0" y="300.0">226</text>
		<text x="400.0" y="300.0">7</text>
		<text x="500.0" y="300.0">76</text>
		<text x="600.0" y="300.0">88</text>
		<text x="-550.0" y="350.0">113</text>
		<text x="-450.0" y="350.0">132</text>
		<text x="-50.0" y="350.0">160</text>
		<text x="150.0" y="350.0">219</text>
		<text x="250.0" y="350.0">232</text>
		<text x="350.0" y="350.0">62</text>
		<text x="-600.0" y="400.0">106</text>
	</g>
</svg>