<svg height="721.0" viewBox="-222.0 -408.7 733.6 721.0" width="733.6" xmlns="http://www.w3.org/2000/svg">
	<style type="text/css">
		<![CDATA[
		]]>
	</style>
	<g stroke="black" stroke-width="1px">
		<line x1="91.3" x2="491.6" y1="292.3" y2="288.9" />
		<line x1="91.3" x2="83.4" y1="292.3" y2="-107.6" />
		<line x1="91.3" x2="-192.3" y1="292.3" y2="10.4" />
		<line x1="491.6" x2="483.7" y1="288.9" y2="-110.9" />
		<line x1="491.6" x2="206.5" y1="288.9" y2="10.8" />
		<line x1="483.7" x2="83.4" y1="-110.9" y2="-107.6" />
		<line x1="483.7" x2="196.7" y1="-110.9" y2="-388.1" />
		<line x1="83.4" x2="-202.0" y1="-107.6" y2="-388.7" />
		<line x1="-192.3" x2="206.5" y1="10.4" y2="10.8" />
		<line x1="-192.3" x2="-202.0" y1="10.4" y2="-388.7" />
		<line x1="206.5" x2="196.7" y1="10.8" y2="-388.1" />
		<line x1="196.7" x2="-202.0" y1="-388.1" y2="-388.7" />
	</g>
	<g>
		<circle cx="91.3" cy="292.3" r="10.0" />
		<circle cx="491.6" cy="288.9" r="10.0" />
		<circle cx="483.7" cy="-110.9" r="10.0" />
		<circle cx="83.4" cy="-107.6" r="10.0" />
		<circle cx="-192.3" cy="10.4" r="10.0" />
		<circle cx="206.5" cy="10.8" r="10.0" />
		<circle cx="196.7" cy="-388.1" r="10.0" />
		<circle cx="-202.0" cy="-388.7" r="10.0" />
	</g>
</svg>