<svg height="611.5" viewBox="-44.5 -24.0 689.5 611.5" width="689.5" xmlns="http://www.w3.org/2000/svg">
	<style type="text/css">
		<![CDATA[
		]]>
	</style>
	<g stroke="black" stroke-width="1px">
		<line x1="361.7" x2="566.4" y1="212.2" y2="567.5" />
		<line x1="361.7" x2="-24.5" y1="212.2" y2="59.9" />
		<line x1="361.7" x2="30.9" y1="212.2" y2="-4.0" />
		<line x1="566.4" x2="236.9" y1="567.5" y2="358.5" />
		<line x1="566.4" x2="233.7" y1="567.5" y2="346.6" />
		<line x1="236.9" x2="-24.5" y1="358.5" y2="59.9" />
		<line x1="236.9" x2="625.0" y1="358.5" y2="226.9" />
		<line x1="-24.5" x2="257.1" y1="59.9" y2="325.8" />
		<line x1="30.9" x2="233.7" y1="-4.0" y2="346.6" />
		<line x1="30.9" x2="257.1" y1="-4.0" y2="325.8" />
		<line x1="233.7" x2="625.0" y1="346.6" y2="226.9" />
		<line x1="625.0" x2="257.1" y1="226.9" y2="325.8" />
	</g>
	<g>
		<circle cx="361.7" cy="212.2" r="10.0" />
		<circle cx="566.4" cy="567.5" r="10.0" />
		<circle cx="236.9" cy="358.5" r="10.0" />
		<circle cx="-24.5" cy="59.9" r="10.0" />
		<circle cx="30.9" cy="-4.0" r="10.0" />
		<circle cx="233.7" cy="346.6" r="10.0" />
		<circle cx="625.0" cy="226.9" r="10.0" />
		<circle cx="257.1" cy="325.8" r="10.0" />
	</g>
</svg>