<svg height="515.6" viewBox="-270.0 -257.8 540.0 515.6" width="540.0" xmlns="http://www.w3.org/2000/svg">
	<style type="text/css">
		<![CDATA[
		]]>
	</style>
	<g stroke="black" stroke-width="1px">
		<line x1="250.0" x2="202.3" y1="0.0" y2="146.9" />
		<line x1="250.0" x2="202.3" y1="0.0" y2="-146.9" />
		<line x1="250.0" x2="69.1" y1="0.0" y2="0.0" />
		<line x1="202.3" x2="77.3" y1="146.9" y2="237.8" />
		<line x1="202.3" x2="55.9" y1="146.9" y2="40.6" />
		<line x1="77.3" x2="-77.3" y1="237.8" y2="237.8" />
		<line x1="77.3" x2="21.4" y1="237.8" y2="65.7" />
		<line x1="-77.3" x2="-202.3" y1="237.8" y2="146.9" />
		<line x1="-77.3" x2="-21.4" y1="237.8" y2="65.7" />
		<line x1="-202.3" x2="-250.0" y1="146.9" y2="0.0" />
		<line x1="-202.3" x2="-55.9" y1="146.9" y2="40.6" />
		<line x1="-250.0" x2="-202.3" y1="0.0" y2="-146.9" />
		<line x1="-250.0" x2="-69.1" y1="0.0" y2="0.0" />
		<line x1="-202.3" x2="-77.3" y1="-146.9" y2="-237.8" />
		<line x1="-202.3" x2="-55.9" y1="-146.9" y2="-40.6" />
		<line x1="-77.3" x2="77.3" y1="-237.8" y2="-237.8" />
		<line x1="-77.3" x2="-21.4" y1="-237.8" y2="-65.7" />
		<line x1="77.3" x2="202.3" y1="-237.8" y2="-146.9" />
		<line x1="77.3" x2="21.4" y1="-237.8" y2="-65.7" />
		<line x1="202.3" x2="55.9" y1="-146.9" y2="-40.6" />
		<line x1="69.1" x2="-21.4" y1="0.0" y2="65.7" />
		<line x1="69.1" x2="-21.4" y1="0.0" y2="-65.7" />
		<line x1="55.9" x2="-55.9" y1="40.6" y2="40.6" />
		<line x1="55.9" x2="21.4" y1="40.6" y2="-65.7" />
		<line x1="21.4" x2="-69.1" y1="65.7" y2="0.0" />
		<line x1="21.4" x2="55.9" y1="65.7" y2="-40.6" />
		<line x1="-21.4" x2="-55.9" y1="65.7" y2="-40.6" />
		<line x1="-55.9" x2="-21.4" y1="40.6" y2="-65.7" />
		<line x1="-69.1" x2="21.4" y1="0.0" y2="-65.7" />
		<line x1="-55.9" x2="55.9" y1="-40.6" y2="-40.6" />
	</g>
	<g>
		<circle cx="250.0" cy="0.0" r="10.0" />
		<circle cx="202.3" cy="146.9" r="10.0" />
		<circle cx="77.3" cy="237.8" r="10.0" />
		<circle cx="-77.3" cy="237.8" r="10.0" />
		<circle cx="-202.3" cy="146.9" r="10.0" />
		<circle cx="-250.0" cy="0.0" r="10.0" />
		<circle cx="-202.3" cy="-146.9" r="10.0" />
		<circle cx="-77.3" cy="-237.8" r="10.0" />
		<circle cx="77.3" cy="-237.8" r="10.0" />
		<circle cx="202.3" cy="-146.9" r="10.0" />
		<circle cx="69.1" cy="0.0" r="10.0" />
		<circle cx="55.9" cy="40.6" r="10.0" />
		<circle cx="21.4" cy="65.7" r="10.0" />
		<circle cx="-21.4" cy="65.7" r="10.0" />
		<circle cx="-55.9" cy="40.6" r="10.0" />
		<circle cx="-69.1" cy="0.0" r="10.0" />
		<circle cx="-55.9" cy="-40.6" r="10.0" />
		<circle cx="-21.4" cy="-65.7" r="10.0" />
		<circle cx="21.4" cy="-65.7" r="10.0" />
		<circle cx="55.9" cy="-40.6" r="10.0" />
	</g>
</svg>