<svg height="370.0" viewBox="-145.0 -25.0 290.0 370.0" width="290.0" xmlns="http://www.w3.org/2000/svg">
	<style type="text/css">
		<![CDATA[
			line.thread {
				stroke-dasharray: 5,5;
			}
			text {
				font-family: sans-serif;
				font-size: 12px;
				text-anchor: middle;
			}
		]]>
	</style>
	<g class="edges" stroke="black" stroke-width="1px">
		<line x1="0.0" x2="-40.0" y1="0.0" y2="40.0" />
		<line x1="-40.0" x2="-60.0" y1="40.0" y2="80.0" />
		<line x1="-60.0" x2="-80.0" y1="80.0" y2="120.0" />
		<line x1="-80.0" x2="-100.0" y1="120.0" y2="160.0" />
		<line x1="-100.0" x2="-120.0" y1="160.0" y2="200.0" />
		<line class="thread" x1="-120.0" x2="-100.0" y1="200.0" y2="240.0" />
		<line x1="-100.0" x2="-80.0" y1="160.0" y2="200.0" />
		<line x1="-80.0" x2="-100.0" y1="200.0" y2="240.0" />
		<line class="thread" x1="-100.0" x2="-40.0" y1="240.0" y2="280.0" />
		<line x1="-80.0" x2="-60.0" y1="200.0" y2="240.0" />
		<line x1="-60.0" x2="-40.0" y1="240.0" y2="280.0" />
		<line x1="-40.0" x2="-60.0" y1="280.0" y2="320.0" />
		<line x1="-40.0" x2="-20.0" y1="280.0" y2="320.0" />
		<line x1="-80.0" x2="-60.0" y1="120.0" y2="160.0" />
		<line class="thread" x1="-60.0" x2="-80.0" y1="160.0" y2="200.0" />
		<line x1="-60.0" x2="-40.0" y1="80.0" y2="120.0" />
		<line class="thread" x1="-40.0" x2="-60.0" y1="120.0" y2="160.0" />
		<line x1="-40.0" x2="-20.0" y1="40.0" y2="80.0" />
		<line class="thread" x1="-20.0" x2="-40.0" y1="80.0" y2="120.0" />
		<line x1="0.0" x2="40.0" y1="0.0" y2="40.0" />
		<line x1="40.0" x2="20.0" y1="40.0" y2="80.0" />
		<line class="thread" x1="20.0" x2="40.0" y1="80.0" y2="120.0" />
		<line x1="40.0" x2="60.0" y1="40.0" y2="80.0" />
		<line x1="60.0" x2="40.0" y1="80.0" y2="120.0" />
		<line class="thread" x1="40.0" x2="60.0" y1="120.0" y2="160.0" />
		<line x1="60.0" x2="80.0" y1="80.0" y2="120.0" />
		<line x1="80.0" x2="60.0" y1="120.0" y2="160.0" />
		<line class="thread" x1="60.0" x2="80.0" y1="160.0" y2="200.0" />
		<line x1="80.0" x2="100.0" y1="120.0" y2="160.0" />
		<line x1="100.0" x2="80.0" y1="160.0" y2="200.0" />
		<line x1="80.0" x2="60.0" y1="200.0" y2="240.0" />
		<line x1="60.0" x2="40.0" y1="240.0" y2="280.0" />
		<line x1="40.0" x2="20.0" y1="280.0" y2="320.0" />
		<line x1="40.0" x2="60.0" y1="280.0" y2="320.0" />
		<line x1="80.0" x2="100.0" y1="200.0" y2="240.0" />
		<line class="thread" x1="100.0" x2="40.0" y1="240.0" y2="280.0" />
		<line x1="100.0" x2="120.0" y1="160.0" y2="200.0" />
		<line class="thread" x1="120.0" x2="100.0" y1="200.0" y2="240.0" />
	</g>
	<g class="vertices">
		<circle cx="0.0" cy="0.0" r="5.0" />
		<circle cx="-40.0" cy="40.0" r="5.0" />
		<circle cx="-60.0" cy="80.0" r="5.0" />
		<circle cx="-80.0" cy="120.0" r="5.0" />
		<circle cx="-100.0" cy="160.0" r="5.0" />
		<circle cx="-120.0" cy="200.0" r="5.0" />
		<circle cx="-80.0" cy="200.0" r="5.0" />
		<circle cx="-100.0" cy="240.0" r="5.0" />
		<circle cx="-60.0" cy="240.0" r="5.0" />
		<circle cx="-40.0" cy="280.0" r="5.0" />
		<circle cx="-60.0" cy="320.0" r="5.0" />
		<circle cx="-20.0" cy="320.0" r="5.0" />
		<circle cx="-60.0" cy="160.0" r="5.0" />
		<circle cx="-40.0" cy="120.0" r="5.0" />
		<circle cx="-20.0" cy="80.0" r="5.0" />
		<circle cx="40.0" cy="40.0" r="5.0" />
		<circle cx="20.0" cy="80.0" r="5.0" />
		<circle cx="60.0" cy="80.0" r="5.0" />
		<circle cx="40.0" cy="120.0" r="5.0" />
		<circle cx="80.0" cy="120.0" r="5.0" />
		<circle cx="60.0" cy="160.0" r="5.0" />
		<circle cx="100.0" cy="160.0" r="5.0" />
		<circle cx="80.0" cy="200.0" r="5.0" />
		<circle cx="60.0" cy="240.0" r="5.0" />
		<circle cx="40.0" cy="280.0" r="5.0" />
		<circle cx="20.0" cy="320.0" r="5.0" />
		<circle cx="60.0" cy="320.0" r="5.0" />
		<circle cx="100.0" cy="240.0" r="5.0" />
		<circle cx="120.0" cy="200.0" r="5.0" />
	</g>
</svg>