<svg height="290.0" viewBox="-145.0 -25.0 290.0 290.0" width="290.0" xmlns="http://www.w3.org/2000/svg">
	<style type="text/css">
		<![CDATA[
			circle.leaf {
				text-anchor: middle;
			}
			circle.left_node {
				text-anchor: end;
			}
			text {
				font-family: sans-serif;
			}
		]]>
	</style>
	<g class="edges" stroke="black" stroke-width="1px">
		<line x1="-100.0" x2="-120.0" y1="120.0" y2="150.0" />
		<line x1="-80.0" x2="-100.0" y1="150.0" y2="180.0" />
		<line x1="-40.0" x2="-60.0" y1="210.0" y2="240.0" />
		<line x1="-40.0" x2="-20.0" y1="210.0" y2="240.0" />
		<line x1="-60.0" x2="-40.0" y1="180.0" y2="210.0" />
		<line x1="-80.0" x2="-60.0" y1="150.0" y2="180.0" />
		<line x1="-100.0" x2="-80.0" y1="120.0" y2="150.0" />
		<line x1="-80.0" x2="-100.0" y1="90.0" y2="120.0" />
		<line x1="-80.0" x2="-60.0" y1="90.0" y2="120.0" />
		<line x1="-60.0" x2="-80.0" y1="60.0" y2="90.0" />
		<line x1="-60.0" x2="-40.0" y1="60.0" y2="90.0" />
		<line x1="-40.0" x2="-60.0" y1="30.0" y2="60.0" />
		<line x1="-40.0" x2="-20.0" y1="30.0" y2="60.0" />
		<line x1="0.0" x2="-40.0" y1="0.0" y2="30.0" />
		<line x1="40.0" x2="20.0" y1="30.0" y2="60.0" />
		<line x1="60.0" x2="40.0" y1="60.0" y2="90.0" />
		<line x1="80.0" x2="60.0" y1="90.0" y2="120.0" />
		<line x1="40.0" x2="20.0" y1="210.0" y2="240.0" />
		<line x1="40.0" x2="60.0" y1="210.0" y2="240.0" />
		<line x1="60.0" x2="40.0" y1="180.0" y2="210.0" />
		<line x1="80.0" x2="60.0" y1="150.0" y2="180.0" />
		<line x1="80.0" x2="100.0" y1="150.0" y2="180.0" />
		<line x1="100.0" x2="80.0" y1="120.0" y2="150.0" />
		<line x1="100.0" x2="120.0" y1="120.0" y2="150.0" />
		<line x1="80.0" x2="100.0" y1="90.0" y2="120.0" />
		<line x1="60.0" x2="80.0" y1="60.0" y2="90.0" />
		<line x1="40.0" x2="60.0" y1="30.0" y2="60.0" />
		<line x1="0.0" x2="40.0" y1="0.0" y2="30.0" />
	</g>
	<g class="vertices">
		<circle cx="0.0" cy="0.0" r="5.0" />
		<circle cx="-40.0" cy="30.0" r="5.0" />
		<circle cx="-60.0" cy="60.0" r="5.0" />
		<circle cx="-80.0" cy="90.0" r="5.0" />
		<circle cx="-100.0" cy="120.0" r="5.0" />
		<circle cx="-120.0" cy="150.0" r="5.0" />
		<circle cx="-80.0" cy="150.0" r="5.0" />
		<circle cx="-100.0" cy="180.0" r="5.0" />
		<circle cx="-60.0" cy="180.0" r="5.0" />
		<circle cx="-40.0" cy="210.0" r="5.0" />
		<circle cx="-60.0" cy="240.0" r="5.0" />
		<circle cx="-20.0" cy="240.0" r="5.0" />
		<circle cx="-60.0" cy="120.0" r="5.0" />
		<circle cx="-40.0" cy="90.0" r="5.0" />
		<circle cx="-20.0" cy="60.0" r="5.0" />
		<circle cx="40.0" cy="30.0" r="5.0" />
		<circle cx="20.0" cy="60.0" r="5.0" />
		<circle cx="60.0" cy="60.0" r="5.0" />
		<circle cx="40.0" cy="90.0" r="5.0" />
		<circle cx="80.0" cy="90.0" r="5.0" />
		<circle cx="60.0" cy="120.0" r="5.0" />
		<circle cx="100.0" cy="120.0" r="5.0" />
		<circle cx="80.0" cy="150.0" r="5.0" />
		<circle cx="60.0" cy="180.0" r="5.0" />
		<circle cx="40.0" cy="210.0" r="5.0" />
		<circle cx="20.0" cy="240.0" r="5.0" />
		<circle cx="60.0" cy="240.0" r="5.0" />
		<circle cx="100.0" cy="180.0" r="5.0" />
		<circle cx="120.0" cy="150.0" r="5.0" />
	</g>
</svg>