<svg height="240.0" viewBox="-770.0 -20.0 1540.0 240.0" width="1540.0" xmlns="http://www.w3.org/2000/svg">
	<style type="text/css">
		<![CDATA[
			line {
				stroke: #000000;
			}
		]]>
	</style>
	<circle cx="0.0" cy="0.0" r="10.0" />
	<circle cx="-400.0" cy="50.0" r="10.0" />
	<circle cx="400.0" cy="50.0" r="10.0" />
	<circle cx="-600.0" cy="100.0" r="10.0" />
	<circle cx="-200.0" cy="100.0" r="10.0" />
	<circle cx="200.0" cy="100.0" r="10.0" />
	<circle cx="600.0" cy="100.0" r="10.0" />
	<circle cx="-700.0" cy="150.0" r="10.0" />
	<circle cx="-500.0" cy="150.0" r="10.0" />
	<circle cx="-300.0" cy="150.0" r="10.0" />
	<circle cx="-100.0" cy="150.0" r="10.0" />
	<circle cx="100.0" cy="150.0" r="10.0" />
	<circle cx="300.0" cy="150.0" r="10.0" />
	<circle cx="500.0" cy="150.0" r="10.0" />
	<circle cx="700.0" cy="150.0" r="10.0" />
	<circle cx="-750.0" cy="200.0" r="10.0" />
	<circle cx="-650.0" cy="200.0" r="10.0" />
	<circle cx="-550.0" cy="200.0" r="10.0" />
	<circle cx="-450.0" cy="200.0" r="10.0" />
	<circle cx="-350.0" cy="200.0" r="10.0" />
	<circle cx="-250.0" cy="200.0" r="10.0" />
	<circle cx="-150.0" cy="200.0" r="10.0" />
	<circle cx="-50.0" cy="200.0" r="10.0" />
	<circle cx="50.0" cy="200.0" r="10.0" />
	<circle cx="150.0" cy="200.0" r="10.0" />
	<circle cx="250.0" cy="200.0" r="10.0" />
	<circle cx="350.0" cy="200.0" r="10.0" />
	<circle cx="450.0" cy="200.0" r="10.0" />
	<circle cx="550.0" cy="200.0" r="10.0" />
	<circle cx="650.0" cy="200.0" r="10.0" />
	<circle cx="750.0" cy="200.0" r="10.0" />
	<line x1="-200.0" x2="-300.0" y1="100.0" y2="150.0" />
	<line x1="-200.0" x2="-100.0" y1="100.0" y2="150.0" />
	<line x1="0.0" x2="-400.0" y1="0.0" y2="50.0" />
	<line x1="0.0" x2="400.0" y1="0.0" y2="50.0" />
	<line x1="-400.0" x2="-600.0" y1="50.0" y2="100.0" />
	<line x1="-400.0" x2="-200.0" y1="50.0" y2="100.0" />
	<line x1="-700.0" x2="-750.0" y1="150.0" y2="200.0" />
	<line x1="-700.0" x2="-650.0" y1="150.0" y2="200.0" />
	<line x1="100.0" x2="50.0" y1="150.0" y2="200.0" />
	<line x1="100.0" x2="150.0" y1="150.0" y2="200.0" />
	<line x1="200.0" x2="100.0" y1="100.0" y2="150.0" />
	<line x1="200.0" x2="300.0" y1="100.0" y2="150.0" />
	<line x1="400.0" x2="200.0" y1="50.0" y2="100.0" />
	<line x1="400.0" x2="600.0" y1="50.0" y2="100.0" />
	<line x1="-600.0" x2="-700.0" y1="100.0" y2="150.0" />
	<line x1="-600.0" x2="-500.0" y1="100.0" y2="150.0" />
	<line x1="700.0" x2="650.0" y1="150.0" y2="200.0" />
	<line x1="700.0" x2="750.0" y1="150.0" y2="200.0" />
	<line x1="600.0" x2="500.0" y1="100.0" y2="150.0" />
	<line x1="600.0" x2="700.0" y1="100.0" y2="150.0" />
	<line x1="-500.0" x2="-550.0" y1="150.0" y2="200.0" />
	<line x1="-500.0" x2="-450.0" y1="150.0" y2="200.0" />
	<line x1="-300.0" x2="-350.0" y1="150.0" y2="200.0" />
	<line x1="-300.0" x2="-250.0" y1="150.0" y2="200.0" />
	<line x1="-100.0" x2="-150.0" y1="150.0" y2="200.0" />
	<line x1="-100.0" x2="-50.0" y1="150.0" y2="200.0" />
	<line x1="300.0" x2="250.0" y1="150.0" y2="200.0" />
	<line x1="300.0" x2="350.0" y1="150.0" y2="200.0" />
	<line x1="500.0" x2="450.0" y1="150.0" y2="200.0" />
	<line x1="500.0" x2="550.0" y1="150.0" y2="200.0" />
</svg>