<svg height="526.0" viewBox="-248.4 -261.5 518.4 526.0" width="518.4" xmlns="http://www.w3.org/2000/svg">
	<style type="text/css">
		<![CDATA[
		]]>
	</style>
	<g stroke="black" stroke-width="1px">
		<line x1="250.0" x2="157.3" y1="0.0" y2="194.3" />
		<line x1="250.0" x2="146.9" y1="0.0" y2="-202.3" />
		<line x1="250.0" x2="71.3" y1="0.0" y2="1.1" />
		<line x1="157.3" x2="-52.0" y1="194.3" y2="244.5" />
		<line x1="157.3" x2="44.1" y1="194.3" y2="56.6" />
		<line x1="-52.0" x2="-222.8" y1="244.5" y2="113.5" />
		<line x1="-52.0" x2="-16.2" y1="244.5" y2="72.1" />
		<line x1="-222.8" x2="-228.4" y1="113.5" y2="-101.7" />
		<line x1="-222.8" x2="-66.2" y1="113.5" y2="33.7" />
		<line x1="-228.4" x2="-64.7" y1="-101.7" y2="-241.5" />
		<line x1="-228.4" x2="-67.8" y1="-101.7" y2="-29.3" />
		<line x1="-64.7" x2="146.9" y1="-241.5" y2="-202.3" />
		<line x1="-64.7" x2="-19.9" y1="-241.5" y2="-68.9" />
		<line x1="146.9" x2="41.1" y1="-202.3" y2="-58.3" />
		<line x1="71.3" x2="-16.2" y1="1.1" y2="72.1" />
		<line x1="71.3" x2="-19.9" y1="1.1" y2="-68.9" />
		<line x1="44.1" x2="-66.2" y1="56.6" y2="33.7" />
		<line x1="44.1" x2="41.1" y1="56.6" y2="-58.3" />
		<line x1="-16.2" x2="-67.8" y1="72.1" y2="-29.3" />
		<line x1="-66.2" x2="-19.9" y1="33.7" y2="-68.9" />
		<line x1="-67.8" x2="41.1" y1="-29.3" y2="-58.3" />
	</g>
	<g>
		<circle cx="250.0" cy="0.0" r="10.0" />
		<circle cx="157.3" cy="194.3" r="10.0" />
		<circle cx="-52.0" cy="244.5" r="10.0" />
		<circle cx="-222.8" cy="113.5" r="10.0" />
		<circle cx="-228.4" cy="-101.7" r="10.0" />
		<circle cx="-64.7" cy="-241.5" r="10.0" />
		<circle cx="146.9" cy="-202.3" r="10.0" />
		<circle cx="71.3" cy="1.1" r="10.0" />
		<circle cx="44.1" cy="56.6" r="10.0" />
		<circle cx="-16.2" cy="72.1" r="10.0" />
		<circle cx="-66.2" cy="33.7" r="10.0" />
		<circle cx="-67.8" cy="-29.3" r="10.0" />
		<circle cx="-19.9" cy="-68.9" r="10.0" />
		<circle cx="41.1" cy="-58.3" r="10.0" />
	</g>
</svg>