<svg height="532.4" viewBox="-254.9 -266.2 524.9 532.4" width="524.9" xmlns="http://www.w3.org/2000/svg">
	<style type="text/css">
		<![CDATA[
		]]>
	</style>
	<g stroke="black" stroke-width="1px">
		<line x1="250.0" x2="191.5" y1="0.0" y2="160.7" />
		<line x1="250.0" x2="191.5" y1="0.0" y2="-160.7" />
		<line x1="250.0" x2="94.2" y1="0.0" y2="0.0" />
		<line x1="191.5" x2="43.4" y1="160.7" y2="246.2" />
		<line x1="191.5" x2="72.2" y1="160.7" y2="60.6" />
		<line x1="43.4" x2="-125.0" y1="246.2" y2="216.5" />
		<line x1="43.4" x2="16.4" y1="246.2" y2="92.8" />
		<line x1="-125.0" x2="-234.9" y1="216.5" y2="85.5" />
		<line x1="-125.0" x2="-47.1" y1="216.5" y2="81.6" />
		<line x1="-234.9" x2="-234.9" y1="85.5" y2="-85.5" />
		<line x1="-234.9" x2="-88.6" y1="85.5" y2="32.2" />
		<line x1="-234.9" x2="-125.0" y1="-85.5" y2="-216.5" />
		<line x1="-234.9" x2="-88.6" y1="-85.5" y2="-32.2" />
		<line x1="-125.0" x2="43.4" y1="-216.5" y2="-246.2" />
		<line x1="-125.0" x2="-47.1" y1="-216.5" y2="-81.6" />
		<line x1="43.4" x2="191.5" y1="-246.2" y2="-160.7" />
		<line x1="43.4" x2="16.4" y1="-246.2" y2="-92.8" />
		<line x1="191.5" x2="72.2" y1="-160.7" y2="-60.6" />
		<line x1="94.2" x2="16.4" y1="0.0" y2="92.8" />
		<line x1="94.2" x2="16.4" y1="0.0" y2="-92.8" />
		<line x1="72.2" x2="-47.1" y1="60.6" y2="81.6" />
		<line x1="72.2" x2="72.2" y1="60.6" y2="-60.6" />
		<line x1="16.4" x2="-88.6" y1="92.8" y2="32.2" />
		<line x1="-47.1" x2="-88.6" y1="81.6" y2="-32.2" />
		<line x1="-88.6" x2="-47.1" y1="32.2" y2="-81.6" />
		<line x1="-88.6" x2="16.4" y1="-32.2" y2="-92.8" />
		<line x1="-47.1" x2="72.2" y1="-81.6" y2="-60.6" />
	</g>
	<g>
		<circle cx="250.0" cy="0.0" r="10.0" />
		<circle cx="191.5" cy="160.7" r="10.0" />
		<circle cx="43.4" cy="246.2" r="10.0" />
		<circle cx="-125.0" cy="216.5" r="10.0" />
		<circle cx="-234.9" cy="85.5" r="10.0" />
		<circle cx="-234.9" cy="-85.5" r="10.0" />
		<circle cx="-125.0" cy="-216.5" r="10.0" />
		<circle cx="43.4" cy="-246.2" r="10.0" />
		<circle cx="191.5" cy="-160.7" r="10.0" />
		<circle cx="94.2" cy="0.0" r="10.0" />
		<circle cx="72.2" cy="60.6" r="10.0" />
		<circle cx="16.4" cy="92.8" r="10.0" />
		<circle cx="-47.1" cy="81.6" r="10.0" />
		<circle cx="-88.6" cy="32.2" r="10.0" />
		<circle cx="-88.6" cy="-32.2" r="10.0" />
		<circle cx="-47.1" cy="-81.6" r="10.0" />
		<circle cx="16.4" cy="-92.8" r="10.0" />
		<circle cx="72.2" cy="-60.6" r="10.0" />
	</g>
</svg>