<svg height="1211.1" viewBox="0 0 1000.000000 1211.100006" width="1000.0" xmlns="http://www.w3.org/2000/svg">
	<svg height="295.4" viewBox="-45.1 35.0 574.9 679.2" width="250" x="0.0" xmlns="http://www.w3.org/2000/svg" y="0.0">
		<g stroke="black" stroke-width="1px">
			<line x1="75.0" x2="439.3" y1="437.3" y2="153.1" />
			<line x1="75.0" x2="198.3" y1="437.3" y2="178.1" />
			<line x1="75.0" x2="125.5" y1="437.3" y2="604.2" />
			<line x1="75.0" x2="509.8" y1="437.3" y2="451.6" />
			<line x1="75.0" x2="373.0" y1="437.3" y2="491.7" />
			<line x1="75.0" x2="-25.1" y1="437.3" y2="302.9" />
			<line x1="75.0" x2="169.3" y1="437.3" y2="55.0" />
			<line x1="439.3" x2="75.0" y1="153.1" y2="437.3" />
			<line x1="439.3" x2="198.3" y1="153.1" y2="178.1" />
			<line x1="439.3" x2="125.5" y1="153.1" y2="604.2" />
			<line x1="439.3" x2="509.8" y1="153.1" y2="451.6" />
			<line x1="439.3" x2="373.0" y1="153.1" y2="491.7" />
			<line x1="439.3" x2="-25.1" y1="153.1" y2="302.9" />
			<line x1="439.3" x2="169.3" y1="153.1" y2="55.0" />
			<line x1="198.3" x2="75.0" y1="178.1" y2="437.3" />
			<line x1="198.3" x2="439.3" y1="178.1" y2="153.1" />
			<line x1="198.3" x2="125.5" y1="178.1" y2="604.2" />
			<line x1="198.3" x2="509.8" y1="178.1" y2="451.6" />
			<line x1="198.3" x2="373.0" y1="178.1" y2="491.7" />
			<line x1="198.3" x2="-25.1" y1="178.1" y2="302.9" />
			<line x1="198.3" x2="169.3" y1="178.1" y2="55.0" />
			<line x1="125.5" x2="75.0" y1="604.2" y2="437.3" />
			<line x1="125.5" x2="439.3" y1="604.2" y2="153.1" />
			<line x1="125.5" x2="198.3" y1="604.2" y2="178.1" />
			<line x1="125.5" x2="509.8" y1="604.2" y2="451.6" />
			<line x1="125.5" x2="373.0" y1="604.2" y2="491.7" />
			<line x1="125.5" x2="-25.1" y1="604.2" y2="302.9" />
			<line x1="125.5" x2="169.3" y1="604.2" y2="55.0" />
			<line x1="509.8" x2="75.0" y1="451.6" y2="437.3" />
			<line x1="509.8" x2="439.3" y1="451.6" y2="153.1" />
			<line x1="509.8" x2="198.3" y1="451.6" y2="178.1" />
			<line x1="509.8" x2="125.5" y1="451.6" y2="604.2" />
			<line x1="509.8" x2="373.0" y1="451.6" y2="491.7" />
			<line x1="509.8" x2="-25.1" y1="451.6" y2="302.9" />
			<line x1="509.8" x2="169.3" y1="451.6" y2="55.0" />
			<line x1="373.0" x2="75.0" y1="491.7" y2="437.3" />
			<line x1="373.0" x2="439.3" y1="491.7" y2="153.1" />
			<line x1="373.0" x2="198.3" y1="491.7" y2="178.1" />
			<line x1="373.0" x2="125.5" y1="491.7" y2="604.2" />
			<line x1="373.0" x2="509.8" y1="491.7" y2="451.6" />
			<line x1="373.0" x2="-25.1" y1="491.7" y2="302.9" />
			<line x1="373.0" x2="169.3" y1="491.7" y2="55.0" />
			<line x1="-25.1" x2="75.0" y1="302.9" y2="437.3" />
			<line x1="-25.1" x2="439.3" y1="302.9" y2="153.1" />
			<line x1="-25.1" x2="198.3" y1="302.9" y2="178.1" />
			<line x1="-25.1" x2="125.5" y1="302.9" y2="604.2" />
			<line x1="-25.1" x2="509.8" y1="302.9" y2="451.6" />
			<line x1="-25.1" x2="373.0" y1="302.9" y2="491.7" />
			<line x1="-25.1" x2="169.3" y1="302.9" y2="55.0" />
			<line x1="169.3" x2="75.0" y1="55.0" y2="437.3" />
			<line x1="169.3" x2="439.3" y1="55.0" y2="153.1" />
			<line x1="169.3" x2="198.3" y1="55.0" y2="178.1" />
			<line x1="169.3" x2="125.5" y1="55.0" y2="604.2" />
			<line x1="169.3" x2="509.8" y1="55.0" y2="451.6" />
			<line x1="169.3" x2="373.0" y1="55.0" y2="491.7" />
			<line x1="169.3" x2="-25.1" y1="55.0" y2="302.9" />
		</g>
		<g>
			<circle cx="75.0" cy="437.3" r="10.0" />
			<circle cx="439.3" cy="153.1" r="10.0" />
			<circle cx="198.3" cy="178.1" r="10.0" />
			<circle cx="125.5" cy="604.2" r="10.0" />
			<circle cx="509.8" cy="451.6" r="10.0" />
			<circle cx="373.0" cy="491.7" r="10.0" />
			<circle cx="-25.1" cy="302.9" r="10.0" />
			<circle cx="169.3" cy="55.0" r="10.0" />
		</g>
	</svg>
	<svg height="285.9" viewBox="-60.2 23.0 586.1 670.3" width="250" x="250.0" xmlns="http://www.w3.org/2000/svg" y="0.0">
		<g stroke="black" stroke-width="1px">
			<line x1="77.4" x2="446.1" y1="442.1" y2="166.2" />
			<line x1="77.4" x2="211.4" y1="442.1" y2="201.3" />
			<line x1="77.4" x2="144.0" y1="442.1" y2="607.3" />
			<line x1="77.4" x2="505.9" y1="442.1" y2="427.2" />
			<line x1="77.4" x2="353.6" y1="442.1" y2="498.7" />
			<line x1="77.4" x2="-40.2" y1="442.1" y2="288.1" />
			<line x1="77.4" x2="166.9" y1="442.1" y2="43.0" />
			<line x1="446.1" x2="77.4" y1="166.2" y2="442.1" />
			<line x1="446.1" x2="211.4" y1="166.2" y2="201.3" />
			<line x1="446.1" x2="144.0" y1="166.2" y2="607.3" />
			<line x1="446.1" x2="505.9" y1="166.2" y2="427.2" />
			<line x1="446.1" x2="353.6" y1="166.2" y2="498.7" />
			<line x1="446.1" x2="-40.2" y1="166.2" y2="288.1" />
			<line x1="446.1" x2="166.9" y1="166.2" y2="43.0" />
			<line x1="211.4" x2="77.4" y1="201.3" y2="442.1" />
			<line x1="211.4" x2="446.1" y1="201.3" y2="166.2" />
			<line x1="211.4" x2="144.0" y1="201.3" y2="607.3" />
			<line x1="211.4" x2="505.9" y1="201.3" y2="427.2" />
			<line x1="211.4" x2="353.6" y1="201.3" y2="498.7" />
			<line x1="211.4" x2="-40.2" y1="201.3" y2="288.1" />
			<line x1="211.4" x2="166.9" y1="201.3" y2="43.0" />
			<line x1="144.0" x2="77.4" y1="607.3" y2="442.1" />
			<line x1="144.0" x2="446.1" y1="607.3" y2="166.2" />
			<line x1="144.0" x2="211.4" y1="607.3" y2="201.3" />
			<line x1="144.0" x2="505.9" y1="607.3" y2="427.2" />
			<line x1="144.0" x2="353.6" y1="607.3" y2="498.7" />
			<line x1="144.0" x2="-40.2" y1="607.3" y2="288.1" />
			<line x1="144.0" x2="166.9" y1="607.3" y2="43.0" />
			<line x1="505.9" x2="77.4" y1="427.2" y2="442.1" />
			<line x1="505.9" x2="446.1" y1="427.2" y2="166.2" />
			<line x1="505.9" x2="211.4" y1="427.2" y2="201.3" />
			<line x1="505.9" x2="144.0" y1="427.2" y2="607.3" />
			<line x1="505.9" x2="353.6" y1="427.2" y2="498.7" />
			<line x1="505.9" x2="-40.2" y1="427.2" y2="288.1" />
			<line x1="505.9" x2="166.9" y1="427.2" y2="43.0" />
			<line x1="353.6" x2="77.4" y1="498.7" y2="442.1" />
			<line x1="353.6" x2="446.1" y1="498.7" y2="166.2" />
			<line x1="353.6" x2="211.4" y1="498.7" y2="201.3" />
			<line x1="353.6" x2="144.0" y1="498.7" y2="607.3" />
			<line x1="353.6" x2="505.9" y1="498.7" y2="427.2" />
			<line x1="353.6" x2="-40.2" y1="498.7" y2="288.1" />
			<line x1="353.6" x2="166.9" y1="498.7" y2="43.0" />
			<line x1="-40.2" x2="77.4" y1="288.1" y2="442.1" />
			<line x1="-40.2" x2="446.1" y1="288.1" y2="166.2" />
			<line x1="-40.2" x2="211.4" y1="288.1" y2="201.3" />
			<line x1="-40.2" x2="144.0" y1="288.1" y2="607.3" />
			<line x1="-40.2" x2="505.9" y1="288.1" y2="427.2" />
			<line x1="-40.2" x2="353.6" y1="288.1" y2="498.7" />
			<line x1="-40.2" x2="166.9" y1="288.1" y2="43.0" />
			<line x1="166.9" x2="77.4" y1="43.0" y2="442.1" />
			<line x1="166.9" x2="446.1" y1="43.0" y2="166.2" />
			<line x1="166.9" x2="211.4" y1="43.0" y2="201.3" />
			<line x1="166.9" x2="144.0" y1="43.0" y2="607.3" />
			<line x1="166.9" x2="505.9" y1="43.0" y2="427.2" />
			<line x1="166.9" x2="353.6" y1="43.0" y2="498.7" />
			<line x1="166.9" x2="-40.2" y1="43.0" y2="288.1" />
		</g>
		<g>
			<circle cx="77.4" cy="442.1" r="10.0" />
			<circle cx="446.1" cy="166.2" r="10.0" />
			<circle cx="211.4" cy="201.3" r="10.0" />
			<circle cx="144.0" cy="607.3" r="10.0" />
			<circle cx="505.9" cy="427.2" r="10.0" />
			<circle cx="353.6" cy="498.7" r="10.0" />
			<circle cx="-40.2" cy="288.1" r="10.0" />
			<circle cx="166.9" cy="43.0" r="10.0" />
		</g>
	</svg>
	<svg height="290.5" viewBox="-61.9 29.4 584.0 678.7" width="250" x="500.0" xmlns="http://www.w3.org/2000/svg" y="0.0">
		<g stroke="black" stroke-width="1px">
			<line x1="56.1" x2="447.3" y1="442.7" y2="166.5" />
			<line x1="56.1" x2="223.8" y1="442.7" y2="213.7" />
			<line x1="56.1" x2="158.0" y1="442.7" y2="609.3" />
			<line x1="56.1" x2="502.1" y1="442.7" y2="402.1" />
			<line x1="56.1" x2="352.8" y1="442.7" y2="519.1" />
			<line x1="56.1" x2="-41.9" y1="442.7" y2="271.0" />
			<line x1="56.1" x2="166.8" y1="442.7" y2="49.4" />
			<line x1="447.3" x2="56.1" y1="166.5" y2="442.7" />
			<line x1="447.3" x2="223.8" y1="166.5" y2="213.7" />
			<line x1="447.3" x2="158.0" y1="166.5" y2="609.3" />
			<line x1="447.3" x2="502.1" y1="166.5" y2="402.1" />
			<line x1="447.3" x2="352.8" y1="166.5" y2="519.1" />
			<line x1="447.3" x2="-41.9" y1="166.5" y2="271.0" />
			<line x1="447.3" x2="166.8" y1="166.5" y2="49.4" />
			<line x1="223.8" x2="56.1" y1="213.7" y2="442.7" />
			<line x1="223.8" x2="447.3" y1="213.7" y2="166.5" />
			<line x1="223.8" x2="158.0" y1="213.7" y2="609.3" />
			<line x1="223.8" x2="502.1" y1="213.7" y2="402.1" />
			<line x1="223.8" x2="352.8" y1="213.7" y2="519.1" />
			<line x1="223.8" x2="-41.9" y1="213.7" y2="271.0" />
			<line x1="223.8" x2="166.8" y1="213.7" y2="49.4" />
			<line x1="158.0" x2="56.1" y1="609.3" y2="442.7" />
			<line x1="158.0" x2="447.3" y1="609.3" y2="166.5" />
			<line x1="158.0" x2="223.8" y1="609.3" y2="213.7" />
			<line x1="158.0" x2="502.1" y1="609.3" y2="402.1" />
			<line x1="158.0" x2="352.8" y1="609.3" y2="519.1" />
			<line x1="158.0" x2="-41.9" y1="609.3" y2="271.0" />
			<line x1="158.0" x2="166.8" y1="609.3" y2="49.4" />
			<line x1="502.1" x2="56.1" y1="402.1" y2="442.7" />
			<line x1="502.1" x2="447.3" y1="402.1" y2="166.5" />
			<line x1="502.1" x2="223.8" y1="402.1" y2="213.7" />
			<line x1="502.1" x2="158.0" y1="402.1" y2="609.3" />
			<line x1="502.1" x2="352.8" y1="402.1" y2="519.1" />
			<line x1="502.1" x2="-41.9" y1="402.1" y2="271.0" />
			<line x1="502.1" x2="166.8" y1="402.1" y2="49.4" />
			<line x1="352.8" x2="56.1" y1="519.1" y2="442.7" />
			<line x1="352.8" x2="447.3" y1="519.1" y2="166.5" />
			<line x1="352.8" x2="223.8" y1="519.1" y2="213.7" />
			<line x1="352.8" x2="158.0" y1="519.1" y2="609.3" />
			<line x1="352.8" x2="502.1" y1="519.1" y2="402.1" />
			<line x1="352.8" x2="-41.9" y1="519.1" y2="271.0" />
			<line x1="352.8" x2="166.8" y1="519.1" y2="49.4" />
			<line x1="-41.9" x2="56.1" y1="271.0" y2="442.7" />
			<line x1="-41.9" x2="447.3" y1="271.0" y2="166.5" />
			<line x1="-41.9" x2="223.8" y1="271.0" y2="213.7" />
			<line x1="-41.9" x2="158.0" y1="271.0" y2="609.3" />
			<line x1="-41.9" x2="502.1" y1="271.0" y2="402.1" />
			<line x1="-41.9" x2="352.8" y1="271.0" y2="519.1" />
			<line x1="-41.9" x2="166.8" y1="271.0" y2="49.4" />
			<line x1="166.8" x2="56.1" y1="49.4" y2="442.7" />
			<line x1="166.8" x2="447.3" y1="49.4" y2="166.5" />
			<line x1="166.8" x2="223.8" y1="49.4" y2="213.7" />
			<line x1="166.8" x2="158.0" y1="49.4" y2="609.3" />
			<line x1="166.8" x2="502.1" y1="49.4" y2="402.1" />
			<line x1="166.8" x2="352.8" y1="49.4" y2="519.1" />
			<line x1="166.8" x2="-41.9" y1="49.4" y2="271.0" />
		</g>
		<g>
			<circle cx="56.1" cy="442.7" r="10.0" />
			<circle cx="447.3" cy="166.5" r="10.0" />
			<circle cx="223.8" cy="213.7" r="10.0" />
			<circle cx="158.0" cy="609.3" r="10.0" />
			<circle cx="502.1" cy="402.1" r="10.0" />
			<circle cx="352.8" cy="519.1" r="10.0" />
			<circle cx="-41.9" cy="271.0" r="10.0" />
			<circle cx="166.8" cy="49.4" r="10.0" />
		</g>
	</svg>
	<svg height="295.3" viewBox="-55.0 33.2 573.1 676.9" width="250" x="750.0" xmlns="http://www.w3.org/2000/svg" y="0.0">
		<g stroke="black" stroke-width="1px">
			<line x1="37.0" x2="445.2" y1="448.1" y2="161.5" />
			<line x1="37.0" x2="230.9" y1="448.1" y2="226.3" />
			<line x1="37.0" x2="163.8" y1="448.1" y2="603.7" />
			<line x1="37.0" x2="498.1" y1="448.1" y2="390.0" />
			<line x1="37.0" x2="359.4" y1="448.1" y2="532.5" />
			<line x1="37.0" x2="-35.0" y1="448.1" y2="258.5" />
			<line x1="37.0" x2="165.7" y1="448.1" y2="53.2" />
			<line x1="445.2" x2="37.0" y1="161.5" y2="448.1" />
			<line x1="445.2" x2="230.9" y1="161.5" y2="226.3" />
			<line x1="445.2" x2="163.8" y1="161.5" y2="603.7" />
			<line x1="445.2" x2="498.1" y1="161.5" y2="390.0" />
			<line x1="445.2" x2="359.4" y1="161.5" y2="532.5" />
			<line x1="445.2" x2="-35.0" y1="161.5" y2="258.5" />
			<line x1="445.2" x2="165.7" y1="161.5" y2="53.2" />
			<line x1="230.9" x2="37.0" y1="226.3" y2="448.1" />
			<line x1="230.9" x2="445.2" y1="226.3" y2="161.5" />
			<line x1="230.9" x2="163.8" y1="226.3" y2="603.7" />
			<line x1="230.9" x2="498.1" y1="226.3" y2="390.0" />
			<line x1="230.9" x2="359.4" y1="226.3" y2="532.5" />
			<line x1="230.9" x2="-35.0" y1="226.3" y2="258.5" />
			<line x1="230.9" x2="165.7" y1="226.3" y2="53.2" />
			<line x1="163.8" x2="37.0" y1="603.7" y2="448.1" />
			<line x1="163.8" x2="445.2" y1="603.7" y2="161.5" />
			<line x1="163.8" x2="230.9" y1="603.7" y2="226.3" />
			<line x1="163.8" x2="498.1" y1="603.7" y2="390.0" />
			<line x1="163.8" x2="359.4" y1="603.7" y2="532.5" />
			<line x1="163.8" x2="-35.0" y1="603.7" y2="258.5" />
			<line x1="163.8" x2="165.7" y1="603.7" y2="53.2" />
			<line x1="498.1" x2="37.0" y1="390.0" y2="448.1" />
			<line x1="498.1" x2="445.2" y1="390.0" y2="161.5" />
			<line x1="498.1" x2="230.9" y1="390.0" y2="226.3" />
			<line x1="498.1" x2="163.8" y1="390.0" y2="603.7" />
			<line x1="498.1" x2="359.4" y1="390.0" y2="532.5" />
			<line x1="498.1" x2="-35.0" y1="390.0" y2="258.5" />
			<line x1="498.1" x2="165.7" y1="390.0" y2="53.2" />
			<line x1="359.4" x2="37.0" y1="532.5" y2="448.1" />
			<line x1="359.4" x2="445.2" y1="532.5" y2="161.5" />
			<line x1="359.4" x2="230.9" y1="532.5" y2="226.3" />
			<line x1="359.4" x2="163.8" y1="532.5" y2="603.7" />
			<line x1="359.4" x2="498.1" y1="532.5" y2="390.0" />
			<line x1="359.4" x2="-35.0" y1="532.5" y2="258.5" />
			<line x1="359.4" x2="165.7" y1="532.5" y2="53.2" />
			<line x1="-35.0" x2="37.0" y1="258.5" y2="448.1" />
			<line x1="-35.0" x2="445.2" y1="258.5" y2="161.5" />
			<line x1="-35.0" x2="230.9" y1="258.5" y2="226.3" />
			<line x1="-35.0" x2="163.8" y1="258.5" y2="603.7" />
			<line x1="-35.0" x2="498.1" y1="258.5" y2="390.0" />
			<line x1="-35.0" x2="359.4" y1="258.5" y2="532.5" />
			<line x1="-35.0" x2="165.7" y1="258.5" y2="53.2" />
			<line x1="165.7" x2="37.0" y1="53.2" y2="448.1" />
			<line x1="165.7" x2="445.2" y1="53.2" y2="161.5" />
			<line x1="165.7" x2="230.9" y1="53.2" y2="226.3" />
			<line x1="165.7" x2="163.8" y1="53.2" y2="603.7" />
			<line x1="165.7" x2="498.1" y1="53.2" y2="390.0" />
			<line x1="165.7" x2="359.4" y1="53.2" y2="532.5" />
			<line x1="165.7" x2="-35.0" y1="53.2" y2="258.5" />
		</g>
		<g>
			<circle cx="37.0" cy="448.1" r="10.0" />
			<circle cx="445.2" cy="161.5" r="10.0" />
			<circle cx="230.9" cy="226.3" r="10.0" />
			<circle cx="163.8" cy="603.7" r="10.0" />
			<circle cx="498.1" cy="390.0" r="10.0" />
			<circle cx="359.4" cy="532.5" r="10.0" />
			<circle cx="-35.0" cy="258.5" r="10.0" />
			<circle cx="165.7" cy="53.2" r="10.0" />
		</g>
	</svg>
	<svg height="298.6" viewBox="-48.1 36.1 564.0 673.6" width="250" x="0.0" xmlns="http://www.w3.org/2000/svg" y="295.4">
		<g stroke="black" stroke-width="1px">
			<line x1="22.3" x2="442.2" y1="452.7" y2="155.5" />
			<line x1="22.3" x2="234.4" y1="452.7" y2="239.4" />
			<line x1="22.3" x2="166.6" y1="452.7" y2="597.5" />
			<line x1="22.3" x2="495.9" y1="452.7" y2="383.1" />
			<line x1="22.3" x2="365.6" y1="452.7" y2="540.4" />
			<line x1="22.3" x2="-28.1" y1="452.7" y2="249.1" />
			<line x1="22.3" x2="166.0" y1="452.7" y2="56.1" />
			<line x1="442.2" x2="22.3" y1="155.5" y2="452.7" />
			<line x1="442.2" x2="234.4" y1="155.5" y2="239.4" />
			<line x1="442.2" x2="166.6" y1="155.5" y2="597.5" />
			<line x1="442.2" x2="495.9" y1="155.5" y2="383.1" />
			<line x1="442.2" x2="365.6" y1="155.5" y2="540.4" />
			<line x1="442.2" x2="-28.1" y1="155.5" y2="249.1" />
			<line x1="442.2" x2="166.0" y1="155.5" y2="56.1" />
			<line x1="234.4" x2="22.3" y1="239.4" y2="452.7" />
			<line x1="234.4" x2="442.2" y1="239.4" y2="155.5" />
			<line x1="234.4" x2="166.6" y1="239.4" y2="597.5" />
			<line x1="234.4" x2="495.9" y1="239.4" y2="383.1" />
			<line x1="234.4" x2="365.6" y1="239.4" y2="540.4" />
			<line x1="234.4" x2="-28.1" y1="239.4" y2="249.1" />
			<line x1="234.4" x2="166.0" y1="239.4" y2="56.1" />
			<line x1="166.6" x2="22.3" y1="597.5" y2="452.7" />
			<line x1="166.6" x2="442.2" y1="597.5" y2="155.5" />
			<line x1="166.6" x2="234.4" y1="597.5" y2="239.4" />
			<line x1="166.6" x2="495.9" y1="597.5" y2="383.1" />
			<line x1="166.6" x2="365.6" y1="597.5" y2="540.4" />
			<line x1="166.6" x2="-28.1" y1="597.5" y2="249.1" />
			<line x1="166.6" x2="166.0" y1="597.5" y2="56.1" />
			<line x1="495.9" x2="22.3" y1="383.1" y2="452.7" />
			<line x1="495.9" x2="442.2" y1="383.1" y2="155.5" />
			<line x1="495.9" x2="234.4" y1="383.1" y2="239.4" />
			<line x1="495.9" x2="166.6" y1="383.1" y2="597.5" />
			<line x1="495.9" x2="365.6" y1="383.1" y2="540.4" />
			<line x1="495.9" x2="-28.1" y1="383.1" y2="249.1" />
			<line x1="495.9" x2="166.0" y1="383.1" y2="56.1" />
			<line x1="365.6" x2="22.3" y1="540.4" y2="452.7" />
			<line x1="365.6" x2="442.2" y1="540.4" y2="155.5" />
			<line x1="365.6" x2="234.4" y1="540.4" y2="239.4" />
			<line x1="365.6" x2="166.6" y1="540.4" y2="597.5" />
			<line x1="365.6" x2="495.9" y1="540.4" y2="383.1" />
			<line x1="365.6" x2="-28.1" y1="540.4" y2="249.1" />
			<line x1="365.6" x2="166.0" y1="540.4" y2="56.1" />
			<line x1="-28.1" x2="22.3" y1="249.1" y2="452.7" />
			<line x1="-28.1" x2="442.2" y1="249.1" y2="155.5" />
			<line x1="-28.1" x2="234.4" y1="249.1" y2="239.4" />
			<line x1="-28.1" x2="166.6" y1="249.1" y2="597.5" />
			<line x1="-28.1" x2="495.9" y1="249.1" y2="383.1" />
			<line x1="-28.1" x2="365.6" y1="249.1" y2="540.4" />
			<line x1="-28.1" x2="166.0" y1="249.1" y2="56.1" />
			<line x1="166.0" x2="22.3" y1="56.1" y2="452.7" />
			<line x1="166.0" x2="442.2" y1="56.1" y2="155.5" />
			<line x1="166.0" x2="234.4" y1="56.1" y2="239.4" />
			<line x1="166.0" x2="166.6" y1="56.1" y2="597.5" />
			<line x1="166.0" x2="495.9" y1="56.1" y2="383.1" />
			<line x1="166.0" x2="365.6" y1="56.1" y2="540.4" />
			<line x1="166.0" x2="-28.1" y1="56.1" y2="249.1" />
		</g>
		<g>
			<circle cx="22.3" cy="452.7" r="10.0" />
			<circle cx="442.2" cy="155.5" r="10.0" />
			<circle cx="234.4" cy="239.4" r="10.0" />
			<circle cx="166.6" cy="597.5" r="10.0" />
			<circle cx="495.9" cy="383.1" r="10.0" />
			<circle cx="365.6" cy="540.4" r="10.0" />
			<circle cx="-28.1" cy="249.1" r="10.0" />
			<circle cx="166.0" cy="56.1" r="10.0" />
		</g>
	</svg>
	<svg height="300.4" viewBox="-43.1 38.1 558.4 670.9" width="250" x="250.0" xmlns="http://www.w3.org/2000/svg" y="295.4">
		<g stroke="black" stroke-width="1px">
			<line x1="12.3" x2="438.5" y1="455.0" y2="149.9" />
			<line x1="12.3" x2="235.8" y1="455.0" y2="252.2" />
			<line x1="12.3" x2="168.0" y1="455.0" y2="592.8" />
			<line x1="12.3" x2="495.3" y1="455.0" y2="378.3" />
			<line x1="12.3" x2="370.3" y1="455.0" y2="545.4" />
			<line x1="12.3" x2="-23.1" y1="455.0" y2="242.2" />
			<line x1="12.3" x2="167.8" y1="455.0" y2="58.1" />
			<line x1="438.5" x2="12.3" y1="149.9" y2="455.0" />
			<line x1="438.5" x2="235.8" y1="149.9" y2="252.2" />
			<line x1="438.5" x2="168.0" y1="149.9" y2="592.8" />
			<line x1="438.5" x2="495.3" y1="149.9" y2="378.3" />
			<line x1="438.5" x2="370.3" y1="149.9" y2="545.4" />
			<line x1="438.5" x2="-23.1" y1="149.9" y2="242.2" />
			<line x1="438.5" x2="167.8" y1="149.9" y2="58.1" />
			<line x1="235.8" x2="12.3" y1="252.2" y2="455.0" />
			<line x1="235.8" x2="438.5" y1="252.2" y2="149.9" />
			<line x1="235.8" x2="168.0" y1="252.2" y2="592.8" />
			<line x1="235.8" x2="495.3" y1="252.2" y2="378.3" />
			<line x1="235.8" x2="370.3" y1="252.2" y2="545.4" />
			<line x1="235.8" x2="-23.1" y1="252.2" y2="242.2" />
			<line x1="235.8" x2="167.8" y1="252.2" y2="58.1" />
			<line x1="168.0" x2="12.3" y1="592.8" y2="455.0" />
			<line x1="168.0" x2="438.5" y1="592.8" y2="149.9" />
			<line x1="168.0" x2="235.8" y1="592.8" y2="252.2" />
			<line x1="168.0" x2="495.3" y1="592.8" y2="378.3" />
			<line x1="168.0" x2="370.3" y1="592.8" y2="545.4" />
			<line x1="168.0" x2="-23.1" y1="592.8" y2="242.2" />
			<line x1="168.0" x2="167.8" y1="592.8" y2="58.1" />
			<line x1="495.3" x2="12.3" y1="378.3" y2="455.0" />
			<line x1="495.3" x2="438.5" y1="378.3" y2="149.9" />
			<line x1="495.3" x2="235.8" y1="378.3" y2="252.2" />
			<line x1="495.3" x2="168.0" y1="378.3" y2="592.8" />
			<line x1="495.3" x2="370.3" y1="378.3" y2="545.4" />
			<line x1="495.3" x2="-23.1" y1="378.3" y2="242.2" />
			<line x1="495.3" x2="167.8" y1="378.3" y2="58.1" />
			<line x1="370.3" x2="12.3" y1="545.4" y2="455.0" />
			<line x1="370.3" x2="438.5" y1="545.4" y2="149.9" />
			<line x1="370.3" x2="235.8" y1="545.4" y2="252.2" />
			<line x1="370.3" x2="168.0" y1="545.4" y2="592.8" />
			<line x1="370.3" x2="495.3" y1="545.4" y2="378.3" />
			<line x1="370.3" x2="-23.1" y1="545.4" y2="242.2" />
			<line x1="370.3" x2="167.8" y1="545.4" y2="58.1" />
			<line x1="-23.1" x2="12.3" y1="242.2" y2="455.0" />
			<line x1="-23.1" x2="438.5" y1="242.2" y2="149.9" />
			<line x1="-23.1" x2="235.8" y1="242.2" y2="252.2" />
			<line x1="-23.1" x2="168.0" y1="242.2" y2="592.8" />
			<line x1="-23.1" x2="495.3" y1="242.2" y2="378.3" />
			<line x1="-23.1" x2="370.3" y1="242.2" y2="545.4" />
			<line x1="-23.1" x2="167.8" y1="242.2" y2="58.1" />
			<line x1="167.8" x2="12.3" y1="58.1" y2="455.0" />
			<line x1="167.8" x2="438.5" y1="58.1" y2="149.9" />
			<line x1="167.8" x2="235.8" y1="58.1" y2="252.2" />
			<line x1="167.8" x2="168.0" y1="58.1" y2="592.8" />
			<line x1="167.8" x2="495.3" y1="58.1" y2="378.3" />
			<line x1="167.8" x2="370.3" y1="58.1" y2="545.4" />
			<line x1="167.8" x2="-23.1" y1="58.1" y2="242.2" />
		</g>
		<g>
			<circle cx="12.3" cy="455.0" r="10.0" />
			<circle cx="438.5" cy="149.9" r="10.0" />
			<circle cx="235.8" cy="252.2" r="10.0" />
			<circle cx="168.0" cy="592.8" r="10.0" />
			<circle cx="495.3" cy="378.3" r="10.0" />
			<circle cx="370.3" cy="545.4" r="10.0" />
			<circle cx="-23.1" cy="242.2" r="10.0" />
			<circle cx="167.8" cy="58.1" r="10.0" />
		</g>
	</svg>
	<svg height="301.3" viewBox="-39.8 39.7 555.6 669.7" width="250" x="500.0" xmlns="http://www.w3.org/2000/svg" y="295.4">
		<g stroke="black" stroke-width="1px">
			<line x1="6.0" x2="434.6" y1="455.5" y2="145.4" />
			<line x1="6.0" x2="236.1" y1="455.5" y2="263.9" />
			<line x1="6.0" x2="168.4" y1="455.5" y2="590.0" />
			<line x1="6.0" x2="495.8" y1="455.5" y2="374.2" />
			<line x1="6.0" x2="373.8" y1="455.5" y2="548.6" />
			<line x1="6.0" x2="-19.8" y1="455.5" y2="236.7" />
			<line x1="6.0" x2="170.1" y1="455.5" y2="59.7" />
			<line x1="434.6" x2="6.0" y1="145.4" y2="455.5" />
			<line x1="434.6" x2="236.1" y1="145.4" y2="263.9" />
			<line x1="434.6" x2="168.4" y1="145.4" y2="590.0" />
			<line x1="434.6" x2="495.8" y1="145.4" y2="374.2" />
			<line x1="434.6" x2="373.8" y1="145.4" y2="548.6" />
			<line x1="434.6" x2="-19.8" y1="145.4" y2="236.7" />
			<line x1="434.6" x2="170.1" y1="145.4" y2="59.7" />
			<line x1="236.1" x2="6.0" y1="263.9" y2="455.5" />
			<line x1="236.1" x2="434.6" y1="263.9" y2="145.4" />
			<line x1="236.1" x2="168.4" y1="263.9" y2="590.0" />
			<line x1="236.1" x2="495.8" y1="263.9" y2="374.2" />
			<line x1="236.1" x2="373.8" y1="263.9" y2="548.6" />
			<line x1="236.1" x2="-19.8" y1="263.9" y2="236.7" />
			<line x1="236.1" x2="170.1" y1="263.9" y2="59.7" />
			<line x1="168.4" x2="6.0" y1="590.0" y2="455.5" />
			<line x1="168.4" x2="434.6" y1="590.0" y2="145.4" />
			<line x1="168.4" x2="236.1" y1="590.0" y2="263.9" />
			<line x1="168.4" x2="495.8" y1="590.0" y2="374.2" />
			<line x1="168.4" x2="373.8" y1="590.0" y2="548.6" />
			<line x1="168.4" x2="-19.8" y1="590.0" y2="236.7" />
			<line x1="168.4" x2="170.1" y1="590.0" y2="59.7" />
			<line x1="495.8" x2="6.0" y1="374.2" y2="455.5" />
			<line x1="495.8" x2="434.6" y1="374.2" y2="145.4" />
			<line x1="495.8" x2="236.1" y1="374.2" y2="263.9" />
			<line x1="495.8" x2="168.4" y1="374.2" y2="590.0" />
			<line x1="495.8" x2="373.8" y1="374.2" y2="548.6" />
			<line x1="495.8" x2="-19.8" y1="374.2" y2="236.7" />
			<line x1="495.8" x2="170.1" y1="374.2" y2="59.7" />
			<line x1="373.8" x2="6.0" y1="548.6" y2="455.5" />
			<line x1="373.8" x2="434.6" y1="548.6" y2="145.4" />
			<line x1="373.8" x2="236.1" y1="548.6" y2="263.9" />
			<line x1="373.8" x2="168.4" y1="548.6" y2="590.0" />
			<line x1="373.8" x2="495.8" y1="548.6" y2="374.2" />
			<line x1="373.8" x2="-19.8" y1="548.6" y2="236.7" />
			<line x1="373.8" x2="170.1" y1="548.6" y2="59.7" />
			<line x1="-19.8" x2="6.0" y1="236.7" y2="455.5" />
			<line x1="-19.8" x2="434.6" y1="236.7" y2="145.4" />
			<line x1="-19.8" x2="236.1" y1="236.7" y2="263.9" />
			<line x1="-19.8" x2="168.4" y1="236.7" y2="590.0" />
			<line x1="-19.8" x2="495.8" y1="236.7" y2="374.2" />
			<line x1="-19.8" x2="373.8" y1="236.7" y2="548.6" />
			<line x1="-19.8" x2="170.1" y1="236.7" y2="59.7" />
			<line x1="170.1" x2="6.0" y1="59.7" y2="455.5" />
			<line x1="170.1" x2="434.6" y1="59.7" y2="145.4" />
			<line x1="170.1" x2="236.1" y1="59.7" y2="263.9" />
			<line x1="170.1" x2="168.4" y1="59.7" y2="590.0" />
			<line x1="170.1" x2="495.8" y1="59.7" y2="374.2" />
			<line x1="170.1" x2="373.8" y1="59.7" y2="548.6" />
			<line x1="170.1" x2="-19.8" y1="59.7" y2="236.7" />
		</g>
		<g>
			<circle cx="6.0" cy="455.5" r="10.0" />
			<circle cx="434.6" cy="145.4" r="10.0" />
			<circle cx="236.1" cy="263.9" r="10.0" />
			<circle cx="168.4" cy="590.0" r="10.0" />
			<circle cx="495.8" cy="374.2" r="10.0" />
			<circle cx="373.8" cy="548.6" r="10.0" />
			<circle cx="-19.8" cy="236.7" r="10.0" />
			<circle cx="170.1" cy="59.7" r="10.0" />
		</g>
	</svg>
	<svg height="302.0" viewBox="-37.6 41.0 554.4 669.8" width="250" x="750.0" xmlns="http://www.w3.org/2000/svg" y="295.4">
		<g stroke="black" stroke-width="1px">
			<line x1="1.9" x2="430.8" y1="455.0" y2="141.9" />
			<line x1="1.9" x2="236.0" y1="455.0" y2="274.2" />
			<line x1="1.9" x2="168.2" y1="455.0" y2="588.8" />
			<line x1="1.9" x2="496.8" y1="455.0" y2="370.6" />
			<line x1="1.9" x2="376.5" y1="455.0" y2="550.4" />
			<line x1="1.9" x2="-17.6" y1="455.0" y2="232.0" />
			<line x1="1.9" x2="172.5" y1="455.0" y2="61.0" />
			<line x1="430.8" x2="1.9" y1="141.9" y2="455.0" />
			<line x1="430.8" x2="236.0" y1="141.9" y2="274.2" />
			<line x1="430.8" x2="168.2" y1="141.9" y2="588.8" />
			<line x1="430.8" x2="496.8" y1="141.9" y2="370.6" />
			<line x1="430.8" x2="376.5" y1="141.9" y2="550.4" />
			<line x1="430.8" x2="-17.6" y1="141.9" y2="232.0" />
			<line x1="430.8" x2="172.5" y1="141.9" y2="61.0" />
			<line x1="236.0" x2="1.9" y1="274.2" y2="455.0" />
			<line x1="236.0" x2="430.8" y1="274.2" y2="141.9" />
			<line x1="236.0" x2="168.2" y1="274.2" y2="588.8" />
			<line x1="236.0" x2="496.8" y1="274.2" y2="370.6" />
			<line x1="236.0" x2="376.5" y1="274.2" y2="550.4" />
			<line x1="236.0" x2="-17.6" y1="274.2" y2="232.0" />
			<line x1="236.0" x2="172.5" y1="274.2" y2="61.0" />
			<line x1="168.2" x2="1.9" y1="588.8" y2="455.0" />
			<line x1="168.2" x2="430.8" y1="588.8" y2="141.9" />
			<line x1="168.2" x2="236.0" y1="588.8" y2="274.2" />
			<line x1="168.2" x2="496.8" y1="588.8" y2="370.6" />
			<line x1="168.2" x2="376.5" y1="588.8" y2="550.4" />
			<line x1="168.2" x2="-17.6" y1="588.8" y2="232.0" />
			<line x1="168.2" x2="172.5" y1="588.8" y2="61.0" />
			<line x1="496.8" x2="1.9" y1="370.6" y2="455.0" />
			<line x1="496.8" x2="430.8" y1="370.6" y2="141.9" />
			<line x1="496.8" x2="236.0" y1="370.6" y2="274.2" />
			<line x1="496.8" x2="168.2" y1="370.6" y2="588.8" />
			<line x1="496.8" x2="376.5" y1="370.6" y2="550.4" />
			<line x1="496.8" x2="-17.6" y1="370.6" y2="232.0" />
			<line x1="496.8" x2="172.5" y1="370.6" y2="61.0" />
			<line x1="376.5" x2="1.9" y1="550.4" y2="455.0" />
			<line x1="376.5" x2="430.8" y1="550.4" y2="141.9" />
			<line x1="376.5" x2="236.0" y1="550.4" y2="274.2" />
			<line x1="376.5" x2="168.2" y1="550.4" y2="588.8" />
			<line x1="376.5" x2="496.8" y1="550.4" y2="370.6" />
			<line x1="376.5" x2="-17.6" y1="550.4" y2="232.0" />
			<line x1="376.5" x2="172.5" y1="550.4" y2="61.0" />
			<line x1="-17.6" x2="1.9" y1="232.0" y2="455.0" />
			<line x1="-17.6" x2="430.8" y1="232.0" y2="141.9" />
			<line x1="-17.6" x2="236.0" y1="232.0" y2="274.2" />
			<line x1="-17.6" x2="168.2" y1="232.0" y2="588.8" />
			<line x1="-17.6" x2="496.8" y1="232.0" y2="370.6" />
			<line x1="-17.6" x2="376.5" y1="232.0" y2="550.4" />
			<line x1="-17.6" x2="172.5" y1="232.0" y2="61.0" />
			<line x1="172.5" x2="1.9" y1="61.0" y2="455.0" />
			<line x1="172.5" x2="430.8" y1="61.0" y2="141.9" />
			<line x1="172.5" x2="236.0" y1="61.0" y2="274.2" />
			<line x1="172.5" x2="168.2" y1="61.0" y2="588.8" />
			<line x1="172.5" x2="496.8" y1="61.0" y2="370.6" />
			<line x1="172.5" x2="376.5" y1="61.0" y2="550.4" />
			<line x1="172.5" x2="-17.6" y1="61.0" y2="232.0" />
		</g>
		<g>
			<circle cx="1.9" cy="455.0" r="10.0" />
			<circle cx="430.8" cy="141.9" r="10.0" />
			<circle cx="236.0" cy="274.2" r="10.0" />
			<circle cx="168.2" cy="588.8" r="10.0" />
			<circle cx="496.8" cy="370.6" r="10.0" />
			<circle cx="376.5" cy="550.4" r="10.0" />
			<circle cx="-17.6" cy="232.0" r="10.0" />
			<circle cx="172.5" cy="61.0" r="10.0" />
		</g>
	</svg>
	<svg height="302.9" viewBox="-35.8 42.2 553.6 670.7" width="250" x="0.0" xmlns="http://www.w3.org/2000/svg" y="597.4">
		<g stroke="black" stroke-width="1px">
			<line x1="-0.9" x2="427.3" y1="454.0" y2="139.3" />
			<line x1="-0.9" x2="235.7" y1="454.0" y2="283.2" />
			<line x1="-0.9" x2="167.8" y1="454.0" y2="588.5" />
			<line x1="-0.9" x2="497.8" y1="454.0" y2="367.3" />
			<line x1="-0.9" x2="378.6" y1="454.0" y2="551.5" />
			<line x1="-0.9" x2="-15.8" y1="454.0" y2="228.1" />
			<line x1="-0.9" x2="174.6" y1="454.0" y2="62.2" />
			<line x1="427.3" x2="-0.9" y1="139.3" y2="454.0" />
			<line x1="427.3" x2="235.7" y1="139.3" y2="283.2" />
			<line x1="427.3" x2="167.8" y1="139.3" y2="588.5" />
			<line x1="427.3" x2="497.8" y1="139.3" y2="367.3" />
			<line x1="427.3" x2="378.6" y1="139.3" y2="551.5" />
			<line x1="427.3" x2="-15.8" y1="139.3" y2="228.1" />
			<line x1="427.3" x2="174.6" y1="139.3" y2="62.2" />
			<line x1="235.7" x2="-0.9" y1="283.2" y2="454.0" />
			<line x1="235.7" x2="427.3" y1="283.2" y2="139.3" />
			<line x1="235.7" x2="167.8" y1="283.2" y2="588.5" />
			<line x1="235.7" x2="497.8" y1="283.2" y2="367.3" />
			<line x1="235.7" x2="378.6" y1="283.2" y2="551.5" />
			<line x1="235.7" x2="-15.8" y1="283.2" y2="228.1" />
			<line x1="235.7" x2="174.6" y1="283.2" y2="62.2" />
			<line x1="167.8" x2="-0.9" y1="588.5" y2="454.0" />
			<line x1="167.8" x2="427.3" y1="588.5" y2="139.3" />
			<line x1="167.8" x2="235.7" y1="588.5" y2="283.2" />
			<line x1="167.8" x2="497.8" y1="588.5" y2="367.3" />
			<line x1="167.8" x2="378.6" y1="588.5" y2="551.5" />
			<line x1="167.8" x2="-15.8" y1="588.5" y2="228.1" />
			<line x1="167.8" x2="174.6" y1="588.5" y2="62.2" />
			<line x1="497.8" x2="-0.9" y1="367.3" y2="454.0" />
			<line x1="497.8" x2="427.3" y1="367.3" y2="139.3" />
			<line x1="497.8" x2="235.7" y1="367.3" y2="283.2" />
			<line x1="497.8" x2="167.8" y1="367.3" y2="588.5" />
			<line x1="497.8" x2="378.6" y1="367.3" y2="551.5" />
			<line x1="497.8" x2="-15.8" y1="367.3" y2="228.1" />
			<line x1="497.8" x2="174.6" y1="367.3" y2="62.2" />
			<line x1="378.6" x2="-0.9" y1="551.5" y2="454.0" />
			<line x1="378.6" x2="427.3" y1="551.5" y2="139.3" />
			<line x1="378.6" x2="235.7" y1="551.5" y2="283.2" />
			<line x1="378.6" x2="167.8" y1="551.5" y2="588.5" />
			<line x1="378.6" x2="497.8" y1="551.5" y2="367.3" />
			<line x1="378.6" x2="-15.8" y1="551.5" y2="228.1" />
			<line x1="378.6" x2="174.6" y1="551.5" y2="62.2" />
			<line x1="-15.8" x2="-0.9" y1="228.1" y2="454.0" />
			<line x1="-15.8" x2="427.3" y1="228.1" y2="139.3" />
			<line x1="-15.8" x2="235.7" y1="228.1" y2="283.2" />
			<line x1="-15.8" x2="167.8" y1="228.1" y2="588.5" />
			<line x1="-15.8" x2="497.8" y1="228.1" y2="367.3" />
			<line x1="-15.8" x2="378.6" y1="228.1" y2="551.5" />
			<line x1="-15.8" x2="174.6" y1="228.1" y2="62.2" />
			<line x1="174.6" x2="-0.9" y1="62.2" y2="454.0" />
			<line x1="174.6" x2="427.3" y1="62.2" y2="139.3" />
			<line x1="174.6" x2="235.7" y1="62.2" y2="283.2" />
			<line x1="174.6" x2="167.8" y1="62.2" y2="588.5" />
			<line x1="174.6" x2="497.8" y1="62.2" y2="367.3" />
			<line x1="174.6" x2="378.6" y1="62.2" y2="551.5" />
			<line x1="174.6" x2="-15.8" y1="62.2" y2="228.1" />
		</g>
		<g>
			<circle cx="-0.9" cy="454.0" r="10.0" />
			<circle cx="427.3" cy="139.3" r="10.0" />
			<circle cx="235.7" cy="283.2" r="10.0" />
			<circle cx="167.8" cy="588.5" r="10.0" />
			<circle cx="497.8" cy="367.3" r="10.0" />
			<circle cx="378.6" cy="551.5" r="10.0" />
			<circle cx="-15.8" cy="228.1" r="10.0" />
			<circle cx="174.6" cy="62.2" r="10.0" />
		</g>
	</svg>
	<svg height="303.8" viewBox="-34.3 43.2 553.0 672.0" width="250" x="250.0" xmlns="http://www.w3.org/2000/svg" y="597.4">
		<g stroke="black" stroke-width="1px">
			<line x1="-3.1" x2="424.4" y1="452.7" y2="137.4" />
			<line x1="-3.1" x2="235.3" y1="452.7" y2="290.9" />
			<line x1="-3.1" x2="167.3" y1="452.7" y2="588.8" />
			<line x1="-3.1" x2="498.7" y1="452.7" y2="364.3" />
			<line x1="-3.1" x2="380.4" y1="452.7" y2="552.0" />
			<line x1="-3.1" x2="-14.3" y1="452.7" y2="224.7" />
			<line x1="-3.1" x2="176.4" y1="452.7" y2="63.2" />
			<line x1="424.4" x2="-3.1" y1="137.4" y2="452.7" />
			<line x1="424.4" x2="235.3" y1="137.4" y2="290.9" />
			<line x1="424.4" x2="167.3" y1="137.4" y2="588.8" />
			<line x1="424.4" x2="498.7" y1="137.4" y2="364.3" />
			<line x1="424.4" x2="380.4" y1="137.4" y2="552.0" />
			<line x1="424.4" x2="-14.3" y1="137.4" y2="224.7" />
			<line x1="424.4" x2="176.4" y1="137.4" y2="63.2" />
			<line x1="235.3" x2="-3.1" y1="290.9" y2="452.7" />
			<line x1="235.3" x2="424.4" y1="290.9" y2="137.4" />
			<line x1="235.3" x2="167.3" y1="290.9" y2="588.8" />
			<line x1="235.3" x2="498.7" y1="290.9" y2="364.3" />
			<line x1="235.3" x2="380.4" y1="290.9" y2="552.0" />
			<line x1="235.3" x2="-14.3" y1="290.9" y2="224.7" />
			<line x1="235.3" x2="176.4" y1="290.9" y2="63.2" />
			<line x1="167.3" x2="-3.1" y1="588.8" y2="452.7" />
			<line x1="167.3" x2="424.4" y1="588.8" y2="137.4" />
			<line x1="167.3" x2="235.3" y1="588.8" y2="290.9" />
			<line x1="167.3" x2="498.7" y1="588.8" y2="364.3" />
			<line x1="167.3" x2="380.4" y1="588.8" y2="552.0" />
			<line x1="167.3" x2="-14.3" y1="588.8" y2="224.7" />
			<line x1="167.3" x2="176.4" y1="588.8" y2="63.2" />
			<line x1="498.7" x2="-3.1" y1="364.3" y2="452.7" />
			<line x1="498.7" x2="424.4" y1="364.3" y2="137.4" />
			<line x1="498.7" x2="235.3" y1="364.3" y2="290.9" />
			<line x1="498.7" x2="167.3" y1="364.3" y2="588.8" />
			<line x1="498.7" x2="380.4" y1="364.3" y2="552.0" />
			<line x1="498.7" x2="-14.3" y1="364.3" y2="224.7" />
			<line x1="498.7" x2="176.4" y1="364.3" y2="63.2" />
			<line x1="380.4" x2="-3.1" y1="552.0" y2="452.7" />
			<line x1="380.4" x2="424.4" y1="552.0" y2="137.4" />
			<line x1="380.4" x2="235.3" y1="552.0" y2="290.9" />
			<line x1="380.4" x2="167.3" y1="552.0" y2="588.8" />
			<line x1="380.4" x2="498.7" y1="552.0" y2="364.3" />
			<line x1="380.4" x2="-14.3" y1="552.0" y2="224.7" />
			<line x1="380.4" x2="176.4" y1="552.0" y2="63.2" />
			<line x1="-14.3" x2="-3.1" y1="224.7" y2="452.7" />
			<line x1="-14.3" x2="424.4" y1="224.7" y2="137.4" />
			<line x1="-14.3" x2="235.3" y1="224.7" y2="290.9" />
			<line x1="-14.3" x2="167.3" y1="224.7" y2="588.8" />
			<line x1="-14.3" x2="498.7" y1="224.7" y2="364.3" />
			<line x1="-14.3" x2="380.4" y1="224.7" y2="552.0" />
			<line x1="-14.3" x2="176.4" y1="224.7" y2="63.2" />
			<line x1="176.4" x2="-3.1" y1="63.2" y2="452.7" />
			<line x1="176.4" x2="424.4" y1="63.2" y2="137.4" />
			<line x1="176.4" x2="235.3" y1="63.2" y2="290.9" />
			<line x1="176.4" x2="167.3" y1="63.2" y2="588.8" />
			<line x1="176.4" x2="498.7" y1="63.2" y2="364.3" />
			<line x1="176.4" x2="380.4" y1="63.2" y2="552.0" />
			<line x1="176.4" x2="-14.3" y1="63.2" y2="224.7" />
		</g>
		<g>
			<circle cx="-3.1" cy="452.7" r="10.0" />
			<circle cx="424.4" cy="137.4" r="10.0" />
			<circle cx="235.3" cy="290.9" r="10.0" />
			<circle cx="167.3" cy="588.8" r="10.0" />
			<circle cx="498.7" cy="364.3" r="10.0" />
			<circle cx="380.4" cy="552.0" r="10.0" />
			<circle cx="-14.3" cy="224.7" r="10.0" />
			<circle cx="176.4" cy="63.2" r="10.0" />
		</g>
	</svg>
	<svg height="304.8" viewBox="-33.0 44.2 552.4 673.5" width="250" x="500.0" xmlns="http://www.w3.org/2000/svg" y="597.4">
		<g stroke="black" stroke-width="1px">
			<line x1="-4.8" x2="421.9" y1="451.4" y2="136.0" />
			<line x1="-4.8" x2="235.0" y1="451.4" y2="297.4" />
			<line x1="-4.8" x2="166.7" y1="451.4" y2="589.3" />
			<line x1="-4.8" x2="499.4" y1="451.4" y2="361.6" />
			<line x1="-4.8" x2="382.0" y1="451.4" y2="552.2" />
			<line x1="-4.8" x2="-13.0" y1="451.4" y2="221.9" />
			<line x1="-4.8" x2="177.8" y1="451.4" y2="64.2" />
			<line x1="421.9" x2="-4.8" y1="136.0" y2="451.4" />
			<line x1="421.9" x2="235.0" y1="136.0" y2="297.4" />
			<line x1="421.9" x2="166.7" y1="136.0" y2="589.3" />
			<line x1="421.9" x2="499.4" y1="136.0" y2="361.6" />
			<line x1="421.9" x2="382.0" y1="136.0" y2="552.2" />
			<line x1="421.9" x2="-13.0" y1="136.0" y2="221.9" />
			<line x1="421.9" x2="177.8" y1="136.0" y2="64.2" />
			<line x1="235.0" x2="-4.8" y1="297.4" y2="451.4" />
			<line x1="235.0" x2="421.9" y1="297.4" y2="136.0" />
			<line x1="235.0" x2="166.7" y1="297.4" y2="589.3" />
			<line x1="235.0" x2="499.4" y1="297.4" y2="361.6" />
			<line x1="235.0" x2="382.0" y1="297.4" y2="552.2" />
			<line x1="235.0" x2="-13.0" y1="297.4" y2="221.9" />
			<line x1="235.0" x2="177.8" y1="297.4" y2="64.2" />
			<line x1="166.7" x2="-4.8" y1="589.3" y2="451.4" />
			<line x1="166.7" x2="421.9" y1="589.3" y2="136.0" />
			<line x1="166.7" x2="235.0" y1="589.3" y2="297.4" />
			<line x1="166.7" x2="499.4" y1="589.3" y2="361.6" />
			<line x1="166.7" x2="382.0" y1="589.3" y2="552.2" />
			<line x1="166.7" x2="-13.0" y1="589.3" y2="221.9" />
			<line x1="166.7" x2="177.8" y1="589.3" y2="64.2" />
			<line x1="499.4" x2="-4.8" y1="361.6" y2="451.4" />
			<line x1="499.4" x2="421.9" y1="361.6" y2="136.0" />
			<line x1="499.4" x2="235.0" y1="361.6" y2="297.4" />
			<line x1="499.4" x2="166.7" y1="361.6" y2="589.3" />
			<line x1="499.4" x2="382.0" y1="361.6" y2="552.2" />
			<line x1="499.4" x2="-13.0" y1="361.6" y2="221.9" />
			<line x1="499.4" x2="177.8" y1="361.6" y2="64.2" />
			<line x1="382.0" x2="-4.8" y1="552.2" y2="451.4" />
			<line x1="382.0" x2="421.9" y1="552.2" y2="136.0" />
			<line x1="382.0" x2="235.0" y1="552.2" y2="297.4" />
			<line x1="382.0" x2="166.7" y1="552.2" y2="589.3" />
			<line x1="382.0" x2="499.4" y1="552.2" y2="361.6" />
			<line x1="382.0" x2="-13.0" y1="552.2" y2="221.9" />
			<line x1="382.0" x2="177.8" y1="552.2" y2="64.2" />
			<line x1="-13.0" x2="-4.8" y1="221.9" y2="451.4" />
			<line x1="-13.0" x2="421.9" y1="221.9" y2="136.0" />
			<line x1="-13.0" x2="235.0" y1="221.9" y2="297.4" />
			<line x1="-13.0" x2="166.7" y1="221.9" y2="589.3" />
			<line x1="-13.0" x2="499.4" y1="221.9" y2="361.6" />
			<line x1="-13.0" x2="382.0" y1="221.9" y2="552.2" />
			<line x1="-13.0" x2="177.8" y1="221.9" y2="64.2" />
			<line x1="177.8" x2="-4.8" y1="64.2" y2="451.4" />
			<line x1="177.8" x2="421.9" y1="64.2" y2="136.0" />
			<line x1="177.8" x2="235.0" y1="64.2" y2="297.4" />
			<line x1="177.8" x2="166.7" y1="64.2" y2="589.3" />
			<line x1="177.8" x2="499.4" y1="64.2" y2="361.6" />
			<line x1="177.8" x2="382.0" y1="64.2" y2="552.2" />
			<line x1="177.8" x2="-13.0" y1="64.2" y2="221.9" />
		</g>
		<g>
			<circle cx="-4.8" cy="451.4" r="10.0" />
			<circle cx="421.9" cy="136.0" r="10.0" />
			<circle cx="235.0" cy="297.4" r="10.0" />
			<circle cx="166.7" cy="589.3" r="10.0" />
			<circle cx="499.4" cy="361.6" r="10.0" />
			<circle cx="382.0" cy="552.2" r="10.0" />
			<circle cx="-13.0" cy="221.9" r="10.0" />
			<circle cx="177.8" cy="64.2" r="10.0" />
		</g>
	</svg>
	<svg height="305.7" viewBox="-31.9 45.0 551.9 674.8" width="250" x="750.0" xmlns="http://www.w3.org/2000/svg" y="597.4">
		<g stroke="black" stroke-width="1px">
			<line x1="-6.2" x2="419.9" y1="450.1" y2="134.9" />
			<line x1="-6.2" x2="234.7" y1="450.1" y2="303.0" />
			<line x1="-6.2" x2="166.2" y1="450.1" y2="589.8" />
			<line x1="-6.2" x2="500.0" y1="450.1" y2="359.3" />
			<line x1="-6.2" x2="383.3" y1="450.1" y2="552.2" />
			<line x1="-6.2" x2="-11.9" y1="450.1" y2="219.5" />
			<line x1="-6.2" x2="178.9" y1="450.1" y2="65.0" />
			<line x1="419.9" x2="-6.2" y1="134.9" y2="450.1" />
			<line x1="419.9" x2="234.7" y1="134.9" y2="303.0" />
			<line x1="419.9" x2="166.2" y1="134.9" y2="589.8" />
			<line x1="419.9" x2="500.0" y1="134.9" y2="359.3" />
			<line x1="419.9" x2="383.3" y1="134.9" y2="552.2" />
			<line x1="419.9" x2="-11.9" y1="134.9" y2="219.5" />
			<line x1="419.9" x2="178.9" y1="134.9" y2="65.0" />
			<line x1="234.7" x2="-6.2" y1="303.0" y2="450.1" />
			<line x1="234.7" x2="419.9" y1="303.0" y2="134.9" />
			<line x1="234.7" x2="166.2" y1="303.0" y2="589.8" />
			<line x1="234.7" x2="500.0" y1="303.0" y2="359.3" />
			<line x1="234.7" x2="383.3" y1="303.0" y2="552.2" />
			<line x1="234.7" x2="-11.9" y1="303.0" y2="219.5" />
			<line x1="234.7" x2="178.9" y1="303.0" y2="65.0" />
			<line x1="166.2" x2="-6.2" y1="589.8" y2="450.1" />
			<line x1="166.2" x2="419.9" y1="589.8" y2="134.9" />
			<line x1="166.2" x2="234.7" y1="589.8" y2="303.0" />
			<line x1="166.2" x2="500.0" y1="589.8" y2="359.3" />
			<line x1="166.2" x2="383.3" y1="589.8" y2="552.2" />
			<line x1="166.2" x2="-11.9" y1="589.8" y2="219.5" />
			<line x1="166.2" x2="178.9" y1="589.8" y2="65.0" />
			<line x1="500.0" x2="-6.2" y1="359.3" y2="450.1" />
			<line x1="500.0" x2="419.9" y1="359.3" y2="134.9" />
			<line x1="500.0" x2="234.7" y1="359.3" y2="303.0" />
			<line x1="500.0" x2="166.2" y1="359.3" y2="589.8" />
			<line x1="500.0" x2="383.3" y1="359.3" y2="552.2" />
			<line x1="500.0" x2="-11.9" y1="359.3" y2="219.5" />
			<line x1="500.0" x2="178.9" y1="359.3" y2="65.0" />
			<line x1="383.3" x2="-6.2" y1="552.2" y2="450.1" />
			<line x1="383.3" x2="419.9" y1="552.2" y2="134.9" />
			<line x1="383.3" x2="234.7" y1="552.2" y2="303.0" />
			<line x1="383.3" x2="166.2" y1="552.2" y2="589.8" />
			<line x1="383.3" x2="500.0" y1="552.2" y2="359.3" />
			<line x1="383.3" x2="-11.9" y1="552.2" y2="219.5" />
			<line x1="383.3" x2="178.9" y1="552.2" y2="65.0" />
			<line x1="-11.9" x2="-6.2" y1="219.5" y2="450.1" />
			<line x1="-11.9" x2="419.9" y1="219.5" y2="134.9" />
			<line x1="-11.9" x2="234.7" y1="219.5" y2="303.0" />
			<line x1="-11.9" x2="166.2" y1="219.5" y2="589.8" />
			<line x1="-11.9" x2="500.0" y1="219.5" y2="359.3" />
			<line x1="-11.9" x2="383.3" y1="219.5" y2="552.2" />
			<line x1="-11.9" x2="178.9" y1="219.5" y2="65.0" />
			<line x1="178.9" x2="-6.2" y1="65.0" y2="450.1" />
			<line x1="178.9" x2="419.9" y1="65.0" y2="134.9" />
			<line x1="178.9" x2="234.7" y1="65.0" y2="303.0" />
			<line x1="178.9" x2="166.2" y1="65.0" y2="589.8" />
			<line x1="178.9" x2="500.0" y1="65.0" y2="359.3" />
			<line x1="178.9" x2="383.3" y1="65.0" y2="552.2" />
			<line x1="178.9" x2="-11.9" y1="65.0" y2="219.5" />
		</g>
		<g>
			<circle cx="-6.2" cy="450.1" r="10.0" />
			<circle cx="419.9" cy="134.9" r="10.0" />
			<circle cx="234.7" cy="303.0" r="10.0" />
			<circle cx="166.2" cy="589.8" r="10.0" />
			<circle cx="500.0" cy="359.3" r="10.0" />
			<circle cx="383.3" cy="552.2" r="10.0" />
			<circle cx="-11.9" cy="219.5" r="10.0" />
			<circle cx="178.9" cy="65.0" r="10.0" />
		</g>
	</svg>
	<svg height="306.6" viewBox="-30.8 45.7 551.3 676.1" width="250" x="0.0" xmlns="http://www.w3.org/2000/svg" y="903.1">
		<g stroke="black" stroke-width="1px">
			<line x1="-7.4" x2="418.2" y1="449.0" y2="134.1" />
			<line x1="-7.4" x2="234.5" y1="449.0" y2="307.8" />
			<line x1="-7.4" x2="165.7" y1="449.0" y2="590.4" />
			<line x1="-7.4" x2="500.5" y1="449.0" y2="357.2" />
			<line x1="-7.4" x2="384.5" y1="449.0" y2="552.2" />
			<line x1="-7.4" x2="-10.8" y1="449.0" y2="217.5" />
			<line x1="-7.4" x2="179.8" y1="449.0" y2="65.7" />
			<line x1="418.2" x2="-7.4" y1="134.1" y2="449.0" />
			<line x1="418.2" x2="234.5" y1="134.1" y2="307.8" />
			<line x1="418.2" x2="165.7" y1="134.1" y2="590.4" />
			<line x1="418.2" x2="500.5" y1="134.1" y2="357.2" />
			<line x1="418.2" x2="384.5" y1="134.1" y2="552.2" />
			<line x1="418.2" x2="-10.8" y1="134.1" y2="217.5" />
			<line x1="418.2" x2="179.8" y1="134.1" y2="65.7" />
			<line x1="234.5" x2="-7.4" y1="307.8" y2="449.0" />
			<line x1="234.5" x2="418.2" y1="307.8" y2="134.1" />
			<line x1="234.5" x2="165.7" y1="307.8" y2="590.4" />
			<line x1="234.5" x2="500.5" y1="307.8" y2="357.2" />
			<line x1="234.5" x2="384.5" y1="307.8" y2="552.2" />
			<line x1="234.5" x2="-10.8" y1="307.8" y2="217.5" />
			<line x1="234.5" x2="179.8" y1="307.8" y2="65.7" />
			<line x1="165.7" x2="-7.4" y1="590.4" y2="449.0" />
			<line x1="165.7" x2="418.2" y1="590.4" y2="134.1" />
			<line x1="165.7" x2="234.5" y1="590.4" y2="307.8" />
			<line x1="165.7" x2="500.5" y1="590.4" y2="357.2" />
			<line x1="165.7" x2="384.5" y1="590.4" y2="552.2" />
			<line x1="165.7" x2="-10.8" y1="590.4" y2="217.5" />
			<line x1="165.7" x2="179.8" y1="590.4" y2="65.7" />
			<line x1="500.5" x2="-7.4" y1="357.2" y2="449.0" />
			<line x1="500.5" x2="418.2" y1="357.2" y2="134.1" />
			<line x1="500.5" x2="234.5" y1="357.2" y2="307.8" />
			<line x1="500.5" x2="165.7" y1="357.2" y2="590.4" />
			<line x1="500.5" x2="384.5" y1="357.2" y2="552.2" />
			<line x1="500.5" x2="-10.8" y1="357.2" y2="217.5" />
			<line x1="500.5" x2="179.8" y1="357.2" y2="65.7" />
			<line x1="384.5" x2="-7.4" y1="552.2" y2="449.0" />
			<line x1="384.5" x2="418.2" y1="552.2" y2="134.1" />
			<line x1="384.5" x2="234.5" y1="552.2" y2="307.8" />
			<line x1="384.5" x2="165.7" y1="552.2" y2="590.4" />
			<line x1="384.5" x2="500.5" y1="552.2" y2="357.2" />
			<line x1="384.5" x2="-10.8" y1="552.2" y2="217.5" />
			<line x1="384.5" x2="179.8" y1="552.2" y2="65.7" />
			<line x1="-10.8" x2="-7.4" y1="217.5" y2="449.0" />
			<line x1="-10.8" x2="418.2" y1="217.5" y2="134.1" />
			<line x1="-10.8" x2="234.5" y1="217.5" y2="307.8" />
			<line x1="-10.8" x2="165.7" y1="217.5" y2="590.4" />
			<line x1="-10.8" x2="500.5" y1="217.5" y2="357.2" />
			<line x1="-10.8" x2="384.5" y1="217.5" y2="552.2" />
			<line x1="-10.8" x2="179.8" y1="217.5" y2="65.7" />
			<line x1="179.8" x2="-7.4" y1="65.7" y2="449.0" />
			<line x1="179.8" x2="418.2" y1="65.7" y2="134.1" />
			<line x1="179.8" x2="234.5" y1="65.7" y2="307.8" />
			<line x1="179.8" x2="165.7" y1="65.7" y2="590.4" />
			<line x1="179.8" x2="500.5" y1="65.7" y2="357.2" />
			<line x1="179.8" x2="384.5" y1="65.7" y2="552.2" />
			<line x1="179.8" x2="-10.8" y1="65.7" y2="217.5" />
		</g>
		<g>
			<circle cx="-7.4" cy="449.0" r="10.0" />
			<circle cx="418.2" cy="134.1" r="10.0" />
			<circle cx="234.5" cy="307.8" r="10.0" />
			<circle cx="165.7" cy="590.4" r="10.0" />
			<circle cx="500.5" cy="357.2" r="10.0" />
			<circle cx="384.5" cy="552.2" r="10.0" />
			<circle cx="-10.8" cy="217.5" r="10.0" />
			<circle cx="179.8" cy="65.7" r="10.0" />
		</g>
	</svg>
	<svg height="307.4" viewBox="-29.9 46.3 550.7 677.2" width="250" x="250.0" xmlns="http://www.w3.org/2000/svg" y="903.1">
		<g stroke="black" stroke-width="1px">
			<line x1="-8.4" x2="416.7" y1="447.9" y2="133.5" />
			<line x1="-8.4" x2="234.3" y1="447.9" y2="311.8" />
			<line x1="-8.4" x2="165.3" y1="447.9" y2="590.9" />
			<line x1="-8.4" x2="500.8" y1="447.9" y2="355.5" />
			<line x1="-8.4" x2="385.6" y1="447.9" y2="552.2" />
			<line x1="-8.4" x2="-9.9" y1="447.9" y2="215.9" />
			<line x1="-8.4" x2="180.6" y1="447.9" y2="66.3" />
			<line x1="416.7" x2="-8.4" y1="133.5" y2="447.9" />
			<line x1="416.7" x2="234.3" y1="133.5" y2="311.8" />
			<line x1="416.7" x2="165.3" y1="133.5" y2="590.9" />
			<line x1="416.7" x2="500.8" y1="133.5" y2="355.5" />
			<line x1="416.7" x2="385.6" y1="133.5" y2="552.2" />
			<line x1="416.7" x2="-9.9" y1="133.5" y2="215.9" />
			<line x1="416.7" x2="180.6" y1="133.5" y2="66.3" />
			<line x1="234.3" x2="-8.4" y1="311.8" y2="447.9" />
			<line x1="234.3" x2="416.7" y1="311.8" y2="133.5" />
			<line x1="234.3" x2="165.3" y1="311.8" y2="590.9" />
			<line x1="234.3" x2="500.8" y1="311.8" y2="355.5" />
			<line x1="234.3" x2="385.6" y1="311.8" y2="552.2" />
			<line x1="234.3" x2="-9.9" y1="311.8" y2="215.9" />
			<line x1="234.3" x2="180.6" y1="311.8" y2="66.3" />
			<line x1="165.3" x2="-8.4" y1="590.9" y2="447.9" />
			<line x1="165.3" x2="416.7" y1="590.9" y2="133.5" />
			<line x1="165.3" x2="234.3" y1="590.9" y2="311.8" />
			<line x1="165.3" x2="500.8" y1="590.9" y2="355.5" />
			<line x1="165.3" x2="385.6" y1="590.9" y2="552.2" />
			<line x1="165.3" x2="-9.9" y1="590.9" y2="215.9" />
			<line x1="165.3" x2="180.6" y1="590.9" y2="66.3" />
			<line x1="500.8" x2="-8.4" y1="355.5" y2="447.9" />
			<line x1="500.8" x2="416.7" y1="355.5" y2="133.5" />
			<line x1="500.8" x2="234.3" y1="355.5" y2="311.8" />
			<line x1="500.8" x2="165.3" y1="355.5" y2="590.9" />
			<line x1="500.8" x2="385.6" y1="355.5" y2="552.2" />
			<line x1="500.8" x2="-9.9" y1="355.5" y2="215.9" />
			<line x1="500.8" x2="180.6" y1="355.5" y2="66.3" />
			<line x1="385.6" x2="-8.4" y1="552.2" y2="447.9" />
			<line x1="385.6" x2="416.7" y1="552.2" y2="133.5" />
			<line x1="385.6" x2="234.3" y1="552.2" y2="311.8" />
			<line x1="385.6" x2="165.3" y1="552.2" y2="590.9" />
			<line x1="385.6" x2="500.8" y1="552.2" y2="355.5" />
			<line x1="385.6" x2="-9.9" y1="552.2" y2="215.9" />
			<line x1="385.6" x2="180.6" y1="552.2" y2="66.3" />
			<line x1="-9.9" x2="-8.4" y1="215.9" y2="447.9" />
			<line x1="-9.9" x2="416.7" y1="215.9" y2="133.5" />
			<line x1="-9.9" x2="234.3" y1="215.9" y2="311.8" />
			<line x1="-9.9" x2="165.3" y1="215.9" y2="590.9" />
			<line x1="-9.9" x2="500.8" y1="215.9" y2="355.5" />
			<line x1="-9.9" x2="385.6" y1="215.9" y2="552.2" />
			<line x1="-9.9" x2="180.6" y1="215.9" y2="66.3" />
			<line x1="180.6" x2="-8.4" y1="66.3" y2="447.9" />
			<line x1="180.6" x2="416.7" y1="66.3" y2="133.5" />
			<line x1="180.6" x2="234.3" y1="66.3" y2="311.8" />
			<line x1="180.6" x2="165.3" y1="66.3" y2="590.9" />
			<line x1="180.6" x2="500.8" y1="66.3" y2="355.5" />
			<line x1="180.6" x2="385.6" y1="66.3" y2="552.2" />
			<line x1="180.6" x2="-9.9" y1="66.3" y2="215.9" />
		</g>
		<g>
			<circle cx="-8.4" cy="447.9" r="10.0" />
			<circle cx="416.7" cy="133.5" r="10.0" />
			<circle cx="234.3" cy="311.8" r="10.0" />
			<circle cx="165.3" cy="590.9" r="10.0" />
			<circle cx="500.8" cy="355.5" r="10.0" />
			<circle cx="385.6" cy="552.2" r="10.0" />
			<circle cx="-9.9" cy="215.9" r="10.0" />
			<circle cx="180.6" cy="66.3" r="10.0" />
		</g>
	</svg>
	<svg height="308.0" viewBox="-29.3 46.8 550.4 678.1" width="250" x="500.0" xmlns="http://www.w3.org/2000/svg" y="903.1">
		<g stroke="black" stroke-width="1px">
			<line x1="-9.3" x2="415.6" y1="446.9" y2="133.0" />
			<line x1="-9.3" x2="234.1" y1="446.9" y2="315.2" />
			<line x1="-9.3" x2="164.9" y1="446.9" y2="591.3" />
			<line x1="-9.3" x2="501.1" y1="446.9" y2="354.0" />
			<line x1="-9.3" x2="386.5" y1="446.9" y2="552.1" />
			<line x1="-9.3" x2="-9.1" y1="446.9" y2="214.6" />
			<line x1="-9.3" x2="181.2" y1="446.9" y2="66.8" />
			<line x1="415.6" x2="-9.3" y1="133.0" y2="446.9" />
			<line x1="415.6" x2="234.1" y1="133.0" y2="315.2" />
			<line x1="415.6" x2="164.9" y1="133.0" y2="591.3" />
			<line x1="415.6" x2="501.1" y1="133.0" y2="354.0" />
			<line x1="415.6" x2="386.5" y1="133.0" y2="552.1" />
			<line x1="415.6" x2="-9.1" y1="133.0" y2="214.6" />
			<line x1="415.6" x2="181.2" y1="133.0" y2="66.8" />
			<line x1="234.1" x2="-9.3" y1="315.2" y2="446.9" />
			<line x1="234.1" x2="415.6" y1="315.2" y2="133.0" />
			<line x1="234.1" x2="164.9" y1="315.2" y2="591.3" />
			<line x1="234.1" x2="501.1" y1="315.2" y2="354.0" />
			<line x1="234.1" x2="386.5" y1="315.2" y2="552.1" />
			<line x1="234.1" x2="-9.1" y1="315.2" y2="214.6" />
			<line x1="234.1" x2="181.2" y1="315.2" y2="66.8" />
			<line x1="164.9" x2="-9.3" y1="591.3" y2="446.9" />
			<line x1="164.9" x2="415.6" y1="591.3" y2="133.0" />
			<line x1="164.9" x2="234.1" y1="591.3" y2="315.2" />
			<line x1="164.9" x2="501.1" y1="591.3" y2="354.0" />
			<line x1="164.9" x2="386.5" y1="591.3" y2="552.1" />
			<line x1="164.9" x2="-9.1" y1="591.3" y2="214.6" />
			<line x1="164.9" x2="181.2" y1="591.3" y2="66.8" />
			<line x1="501.1" x2="-9.3" y1="354.0" y2="446.9" />
			<line x1="501.1" x2="415.6" y1="354.0" y2="133.0" />
			<line x1="501.1" x2="234.1" y1="354.0" y2="315.2" />
			<line x1="501.1" x2="164.9" y1="354.0" y2="591.3" />
			<line x1="501.1" x2="386.5" y1="354.0" y2="552.1" />
			<line x1="501.1" x2="-9.1" y1="354.0" y2="214.6" />
			<line x1="501.1" x2="181.2" y1="354.0" y2="66.8" />
			<line x1="386.5" x2="-9.3" y1="552.1" y2="446.9" />
			<line x1="386.5" x2="415.6" y1="552.1" y2="133.0" />
			<line x1="386.5" x2="234.1" y1="552.1" y2="315.2" />
			<line x1="386.5" x2="164.9" y1="552.1" y2="591.3" />
			<line x1="386.5" x2="501.1" y1="552.1" y2="354.0" />
			<line x1="386.5" x2="-9.1" y1="552.1" y2="214.6" />
			<line x1="386.5" x2="181.2" y1="552.1" y2="66.8" />
			<line x1="-9.1" x2="-9.3" y1="214.6" y2="446.9" />
			<line x1="-9.1" x2="415.6" y1="214.6" y2="133.0" />
			<line x1="-9.1" x2="234.1" y1="214.6" y2="315.2" />
			<line x1="-9.1" x2="164.9" y1="214.6" y2="591.3" />
			<line x1="-9.1" x2="501.1" y1="214.6" y2="354.0" />
			<line x1="-9.1" x2="386.5" y1="214.6" y2="552.1" />
			<line x1="-9.1" x2="181.2" y1="214.6" y2="66.8" />
			<line x1="181.2" x2="-9.3" y1="66.8" y2="446.9" />
			<line x1="181.2" x2="415.6" y1="66.8" y2="133.0" />
			<line x1="181.2" x2="234.1" y1="66.8" y2="315.2" />
			<line x1="181.2" x2="164.9" y1="66.8" y2="591.3" />
			<line x1="181.2" x2="501.1" y1="66.8" y2="354.0" />
			<line x1="181.2" x2="386.5" y1="66.8" y2="552.1" />
			<line x1="181.2" x2="-9.1" y1="66.8" y2="214.6" />
		</g>
		<g>
			<circle cx="-9.3" cy="446.9" r="10.0" />
			<circle cx="415.6" cy="133.0" r="10.0" />
			<circle cx="234.1" cy="315.2" r="10.0" />
			<circle cx="164.9" cy="591.3" r="10.0" />
			<circle cx="501.1" cy="354.0" r="10.0" />
			<circle cx="386.5" cy="552.1" r="10.0" />
			<circle cx="-9.1" cy="214.6" r="10.0" />
			<circle cx="181.2" cy="66.8" r="10.0" />
		</g>
	</svg>
</svg>