<svg height="200.0" viewBox="-625.0 -25.0 750.0 200.0" width="750.0" xmlns="http://www.w3.org/2000/svg">
	<style type="text/css">
		<![CDATA[
			circle {
				fill: #ffffff;
				stroke: #000000;
			}
			line {
				stroke: #000000;
			}
			text {
				dominant-baseline: central;
				font-family: sans-serif;
				font-size: 10pt;
				text-anchor: middle;
			}
		]]>
	</style>
	<g>
		<line x1="-250.0" x2="-450.0" y1="0.0" y2="50.0" />
		<line x1="-250.0" x2="-50.0" y1="0.0" y2="50.0" />
		<line x1="-550.0" x2="-600.0" y1="100.0" y2="150.0" />
		<line x1="-550.0" x2="-500.0" y1="100.0" y2="150.0" />
		<line x1="-350.0" x2="-400.0" y1="100.0" y2="150.0" />
		<line x1="-350.0" x2="-300.0" y1="100.0" y2="150.0" />
		<line x1="-450.0" x2="-550.0" y1="50.0" y2="100.0" />
		<line x1="-450.0" x2="-350.0" y1="50.0" y2="100.0" />
		<line x1="-50.0" x2="-150.0" y1="50.0" y2="100.0" />
		<line x1="-50.0" x2="50.0" y1="50.0" y2="100.0" />
		<line x1="50.0" x2="0.0" y1="100.0" y2="150.0" />
		<line x1="50.0" x2="100.0" y1="100.0" y2="150.0" />
		<line x1="-150.0" x2="-200.0" y1="100.0" y2="150.0" />
		<line x1="-150.0" x2="-100.0" y1="100.0" y2="150.0" />
	</g>
	<g>
		<circle cx="-250.0" cy="0.0" r="15.0" />
		<circle cx="-450.0" cy="50.0" r="15.0" />
		<circle cx="-50.0" cy="50.0" r="15.0" />
		<circle cx="-550.0" cy="100.0" r="15.0" />
		<circle cx="-350.0" cy="100.0" r="15.0" />
		<circle cx="-150.0" cy="100.0" r="15.0" />
		<circle cx="50.0" cy="100.0" r="15.0" />
		<circle cx="-600.0" cy="150.0" r="15.0" />
		<circle cx="-500.0" cy="150.0" r="15.0" />
		<circle cx="-400.0" cy="150.0" r="15.0" />
		<circle cx="-300.0" cy="150.0" r="15.0" />
		<circle cx="-200.0" cy="150.0" r="15.0" />
		<circle cx="-100.0" cy="150.0" r="15.0" />
		<circle cx="0.0" cy="150.0" r="15.0" />
		<circle cx="100.0" cy="150.0" r="15.0" />
	</g>
	<g>
		<text x="-250.0" y="0.0">1</text>
		<text x="-450.0" y="50.0">2</text>
		<text x="-50.0" y="50.0">3</text>
		<text x="-550.0" y="100.0">4</text>
		<text x="-350.0" y="100.0">5</text>
		<text x="-150.0" y="100.0">6</text>
		<text x="50.0" y="100.0">7</text>
		<text x="-600.0" y="150.0">8</text>
		<text x="-500.0" y="150.0">9</text>
		<text x="-400.0" y="150.0">10</text>
		<text x="-300.0" y="150.0">11</text>
		<text x="-200.0" y="150.0">12</text>
		<text x="-100.0" y="150.0">13</text>
		<text x="0.0" y="150.0">14</text>
		<text x="100.0" y="150.0">15</text>
	</g>
</svg>