<svg height="1040.0" viewBox="-620.0 -20.0 2440.0 1040.0" width="2440.0" xmlns="http://www.w3.org/2000/svg">
	<style type="text/css">
		<![CDATA[
			line {
				stroke: #000000;
			}
		]]>
	</style>
	<circle cx="0.0" cy="0.0" r="10.0" />
	<circle cx="-50.0" cy="50.0" r="10.0" />
	<circle cx="50.0" cy="50.0" r="10.0" />
	<circle cx="-100.0" cy="100.0" r="10.0" />
	<circle cx="0.0" cy="100.0" r="10.0" />
	<circle cx="-50.0" cy="150.0" r="10.0" />
	<circle cx="50.0" cy="150.0" r="10.0" />
	<circle cx="-162.5" cy="200.0" r="10.0" />
	<circle cx="262.5" cy="200.0" r="10.0" />
	<circle cx="-262.5" cy="250.0" r="10.0" />
	<circle cx="-62.5" cy="250.0" r="10.0" />
	<circle cx="-312.5" cy="300.0" r="10.0" />
	<circle cx="-212.5" cy="300.0" r="10.0" />
	<circle cx="-112.5" cy="300.0" r="10.0" />
	<circle cx="-12.5" cy="300.0" r="10.0" />
	<circle cx="-425.0" cy="350.0" r="10.0" />
	<circle cx="-325.0" cy="350.0" r="10.0" />
	<circle cx="-100.0" cy="350.0" r="10.0" />
	<circle cx="862.5" cy="350.0" r="10.0" />
	<circle cx="-500.0" cy="400.0" r="10.0" />
	<circle cx="-150.0" cy="400.0" r="10.0" />
	<circle cx="-50.0" cy="400.0" r="10.0" />
	<circle cx="912.5" cy="400.0" r="10.0" />
	<circle cx="-550.0" cy="450.0" r="10.0" />
	<circle cx="-450.0" cy="450.0" r="10.0" />
	<circle cx="0.0" cy="450.0" r="10.0" />
	<circle cx="962.5" cy="450.0" r="10.0" />
	<circle cx="-550.0" cy="500.0" r="10.0" />
	<circle cx="-350.0" cy="500.0" r="10.0" />
	<circle cx="-50.0" cy="500.0" r="10.0" />
	<circle cx="50.0" cy="500.0" r="10.0" />
	<circle cx="500.0" cy="500.0" r="10.0" />
	<circle cx="1425.0" cy="500.0" r="10.0" />
	<circle cx="-600.0" cy="550.0" r="10.0" />
	<circle cx="-500.0" cy="550.0" r="10.0" />
	<circle cx="-300.0" cy="550.0" r="10.0" />
	<circle cx="-100.0" cy="550.0" r="10.0" />
	<circle cx="0.0" cy="550.0" r="10.0" />
	<circle cx="450.0" cy="550.0" r="10.0" />
	<circle cx="550.0" cy="550.0" r="10.0" />
	<circle cx="1475.0" cy="550.0" r="10.0" />
	<circle cx="-550.0" cy="600.0" r="10.0" />
	<circle cx="-450.0" cy="600.0" r="10.0" />
	<circle cx="-350.0" cy="600.0" r="10.0" />
	<circle cx="-250.0" cy="600.0" r="10.0" />
	<circle cx="-50.0" cy="600.0" r="10.0" />
	<circle cx="50.0" cy="600.0" r="10.0" />
	<circle cx="500.0" cy="600.0" r="10.0" />
	<circle cx="1325.0" cy="600.0" r="10.0" />
	<circle cx="1425.0" cy="600.0" r="10.0" />
	<circle cx="-600.0" cy="650.0" r="10.0" />
	<circle cx="-500.0" cy="650.0" r="10.0" />
	<circle cx="-200.0" cy="650.0" r="10.0" />
	<circle cx="-100.0" cy="650.0" r="10.0" />
	<circle cx="100.0" cy="650.0" r="10.0" />
	<circle cx="200.0" cy="650.0" r="10.0" />
	<circle cx="800.0" cy="650.0" r="10.0" />
	<circle cx="1375.0" cy="650.0" r="10.0" />
	<circle cx="-550.0" cy="700.0" r="10.0" />
	<circle cx="-450.0" cy="700.0" r="10.0" />
	<circle cx="-350.0" cy="700.0" r="10.0" />
	<circle cx="-50.0" cy="700.0" r="10.0" />
	<circle cx="150.0" cy="700.0" r="10.0" />
	<circle cx="750.0" cy="700.0" r="10.0" />
	<circle cx="850.0" cy="700.0" r="10.0" />
	<circle cx="1150.0" cy="700.0" r="10.0" />
	<circle cx="1600.0" cy="700.0" r="10.0" />
	<circle cx="-600.0" cy="750.0" r="10.0" />
	<circle cx="-300.0" cy="750.0" r="10.0" />
	<circle cx="-200.0" cy="750.0" r="10.0" />
	<circle cx="100.0" cy="750.0" r="10.0" />
	<circle cx="200.0" cy="750.0" r="10.0" />
	<circle cx="700.0" cy="750.0" r="10.0" />
	<circle cx="900.0" cy="750.0" r="10.0" />
	<circle cx="1200.0" cy="750.0" r="10.0" />
	<circle cx="1550.0" cy="750.0" r="10.0" />
	<circle cx="-250.0" cy="800.0" r="10.0" />
	<circle cx="-150.0" cy="800.0" r="10.0" />
	<circle cx="-50.0" cy="800.0" r="10.0" />
	<circle cx="150.0" cy="800.0" r="10.0" />
	<circle cx="250.0" cy="800.0" r="10.0" />
	<circle cx="450.0" cy="800.0" r="10.0" />
	<circle cx="950.0" cy="800.0" r="10.0" />
	<circle cx="1150.0" cy="800.0" r="10.0" />
	<circle cx="1250.0" cy="800.0" r="10.0" />
	<circle cx="1350.0" cy="800.0" r="10.0" />
	<circle cx="1750.0" cy="800.0" r="10.0" />
	<circle cx="-300.0" cy="850.0" r="10.0" />
	<circle cx="-200.0" cy="850.0" r="10.0" />
	<circle cx="0.0" cy="850.0" r="10.0" />
	<circle cx="300.0" cy="850.0" r="10.0" />
	<circle cx="400.0" cy="850.0" r="10.0" />
	<circle cx="500.0" cy="850.0" r="10.0" />
	<circle cx="900.0" cy="850.0" r="10.0" />
	<circle cx="1000.0" cy="850.0" r="10.0" />
	<circle cx="1100.0" cy="850.0" r="10.0" />
	<circle cx="1250.0" cy="850.0" r="10.0" />
	<circle cx="1450.0" cy="850.0" r="10.0" />
	<circle cx="1700.0" cy="850.0" r="10.0" />
	<circle cx="1800.0" cy="850.0" r="10.0" />
	<circle cx="-600.0" cy="900.0" r="10.0" />
	<circle cx="-500.0" cy="900.0" r="10.0" />
	<circle cx="50.0" cy="900.0" r="10.0" />
	<circle cx="150.0" cy="900.0" r="10.0" />
	<circle cx="450.0" cy="900.0" r="10.0" />
	<circle cx="750.0" cy="900.0" r="10.0" />
	<circle cx="850.0" cy="900.0" r="10.0" />
	<circle cx="950.0" cy="900.0" r="10.0" />
	<circle cx="1050.0" cy="900.0" r="10.0" />
	<circle cx="1300.0" cy="900.0" r="10.0" />
	<circle cx="1500.0" cy="900.0" r="10.0" />
	<circle cx="1600.0" cy="900.0" r="10.0" />
	<circle cx="1800.0" cy="900.0" r="10.0" />
	<circle cx="-550.0" cy="950.0" r="10.0" />
	<circle cx="-450.0" cy="950.0" r="10.0" />
	<circle cx="-250.0" cy="950.0" r="10.0" />
	<circle cx="500.0" cy="950.0" r="10.0" />
	<circle cx="700.0" cy="950.0" r="10.0" />
	<circle cx="800.0" cy="950.0" r="10.0" />
	<circle cx="1000.0" cy="950.0" r="10.0" />
	<circle cx="1350.0" cy="950.0" r="10.0" />
	<circle cx="1450.0" cy="950.0" r="10.0" />
	<circle cx="1550.0" cy="950.0" r="10.0" />
	<circle cx="1650.0" cy="950.0" r="10.0" />
	<circle cx="1750.0" cy="950.0" r="10.0" />
	<circle cx="-600.0" cy="1000.0" r="10.0" />
	<circle cx="-500.0" cy="1000.0" r="10.0" />
	<circle cx="-400.0" cy="1000.0" r="10.0" />
	<circle cx="-300.0" cy="1000.0" r="10.0" />
	<circle cx="550.0" cy="1000.0" r="10.0" />
	<circle cx="650.0" cy="1000.0" r="10.0" />
	<circle cx="950.0" cy="1000.0" r="10.0" />
	<circle cx="1050.0" cy="1000.0" r="10.0" />
	<circle cx="1300.0" cy="1000.0" r="10.0" />
	<circle cx="1700.0" cy="1000.0" r="10.0" />
	<line x1="-212.5" x2="-325.0" y1="300.0" y2="350.0" />
	<line x1="-212.5" x2="-100.0" y1="300.0" y2="350.0" />
	<line x1="500.0" x2="200.0" y1="600.0" y2="650.0" />
	<line x1="500.0" x2="800.0" y1="600.0" y2="650.0" />
	<line x1="-550.0" x2="-600.0" y1="600.0" y2="650.0" />
	<line x1="-550.0" x2="-500.0" y1="600.0" y2="650.0" />
	<line x1="-62.5" x2="-112.5" y1="250.0" y2="300.0" />
	<line x1="-62.5" x2="-12.5" y1="250.0" y2="300.0" />
	<line x1="500.0" x2="750.0" y1="850.0" y2="900.0" />
	<line x1="0.0" x2="-50.0" y1="0.0" y2="50.0" />
	<line x1="0.0" x2="50.0" y1="0.0" y2="50.0" />
	<line x1="-350.0" x2="-300.0" y1="700.0" y2="750.0" />
	<line x1="-250.0" x2="-200.0" y1="600.0" y2="650.0" />
	<line x1="-50.0" x2="-100.0" y1="50.0" y2="100.0" />
	<line x1="-50.0" x2="0.0" y1="50.0" y2="100.0" />
	<line x1="-50.0" x2="-100.0" y1="500.0" y2="550.0" />
	<line x1="500.0" x2="450.0" y1="500.0" y2="550.0" />
	<line x1="500.0" x2="550.0" y1="500.0" y2="550.0" />
	<line x1="50.0" x2="0.0" y1="500.0" y2="550.0" />
	<line x1="-312.5" x2="-425.0" y1="300.0" y2="350.0" />
	<line x1="-162.5" x2="-262.5" y1="200.0" y2="250.0" />
	<line x1="-162.5" x2="-62.5" y1="200.0" y2="250.0" />
	<line x1="0.0" x2="-50.0" y1="100.0" y2="150.0" />
	<line x1="0.0" x2="50.0" y1="100.0" y2="150.0" />
	<line x1="150.0" x2="100.0" y1="700.0" y2="750.0" />
	<line x1="150.0" x2="200.0" y1="700.0" y2="750.0" />
	<line x1="950.0" x2="900.0" y1="800.0" y2="850.0" />
	<line x1="950.0" x2="1000.0" y1="800.0" y2="850.0" />
	<line x1="-300.0" x2="-350.0" y1="550.0" y2="600.0" />
	<line x1="-300.0" x2="-250.0" y1="550.0" y2="600.0" />
	<line x1="-500.0" x2="-550.0" y1="650.0" y2="700.0" />
	<line x1="-500.0" x2="-450.0" y1="650.0" y2="700.0" />
	<line x1="-262.5" x2="-312.5" y1="250.0" y2="300.0" />
	<line x1="-262.5" x2="-212.5" y1="250.0" y2="300.0" />
	<line x1="-500.0" x2="-550.0" y1="400.0" y2="450.0" />
	<line x1="-500.0" x2="-450.0" y1="400.0" y2="450.0" />
	<line x1="1425.0" x2="1475.0" y1="500.0" y2="550.0" />
	<line x1="962.5" x2="500.0" y1="450.0" y2="500.0" />
	<line x1="962.5" x2="1425.0" y1="450.0" y2="500.0" />
	<line x1="-50.0" x2="0.0" y1="800.0" y2="850.0" />
	<line x1="-350.0" x2="-300.0" y1="500.0" y2="550.0" />
	<line x1="50.0" x2="-162.5" y1="150.0" y2="200.0" />
	<line x1="50.0" x2="262.5" y1="150.0" y2="200.0" />
	<line x1="-50.0" x2="0.0" y1="400.0" y2="450.0" />
	<line x1="-50.0" x2="-200.0" y1="700.0" y2="750.0" />
	<line x1="-12.5" x2="862.5" y1="300.0" y2="350.0" />
	<line x1="-550.0" x2="-600.0" y1="700.0" y2="750.0" />
	<line x1="750.0" x2="700.0" y1="700.0" y2="750.0" />
	<line x1="862.5" x2="912.5" y1="350.0" y2="400.0" />
	<line x1="-200.0" x2="-500.0" y1="850.0" y2="900.0" />
	<line x1="-325.0" x2="-500.0" y1="350.0" y2="400.0" />
	<line x1="-325.0" x2="-150.0" y1="350.0" y2="400.0" />
	<line x1="800.0" x2="750.0" y1="650.0" y2="700.0" />
	<line x1="800.0" x2="850.0" y1="650.0" y2="700.0" />
	<line x1="-500.0" x2="-550.0" y1="550.0" y2="600.0" />
	<line x1="-500.0" x2="-450.0" y1="550.0" y2="600.0" />
	<line x1="-550.0" x2="-600.0" y1="500.0" y2="550.0" />
	<line x1="-550.0" x2="-500.0" y1="500.0" y2="550.0" />
	<line x1="-100.0" x2="-50.0" y1="350.0" y2="400.0" />
	<line x1="-200.0" x2="-350.0" y1="650.0" y2="700.0" />
	<line x1="450.0" x2="500.0" y1="550.0" y2="600.0" />
	<line x1="50.0" x2="100.0" y1="600.0" y2="650.0" />
	<line x1="912.5" x2="962.5" y1="400.0" y2="450.0" />
	<line x1="-450.0" x2="-550.0" y1="450.0" y2="500.0" />
	<line x1="-450.0" x2="-350.0" y1="450.0" y2="500.0" />
	<line x1="0.0" x2="-50.0" y1="550.0" y2="600.0" />
	<line x1="0.0" x2="50.0" y1="550.0" y2="600.0" />
	<line x1="850.0" x2="900.0" y1="700.0" y2="750.0" />
	<line x1="100.0" x2="150.0" y1="650.0" y2="700.0" />
	<line x1="250.0" x2="300.0" y1="800.0" y2="850.0" />
	<line x1="900.0" x2="850.0" y1="850.0" y2="900.0" />
	<line x1="900.0" x2="950.0" y1="850.0" y2="900.0" />
	<line x1="0.0" x2="-50.0" y1="450.0" y2="500.0" />
	<line x1="0.0" x2="50.0" y1="450.0" y2="500.0" />
	<line x1="-100.0" x2="-50.0" y1="650.0" y2="700.0" />
	<line x1="-50.0" x2="-100.0" y1="600.0" y2="650.0" />
	<line x1="550.0" x2="1325.0" y1="550.0" y2="600.0" />
	<line x1="1425.0" x2="1375.0" y1="600.0" y2="650.0" />
	<line x1="1475.0" x2="1425.0" y1="550.0" y2="600.0" />
	<line x1="1375.0" x2="1150.0" y1="650.0" y2="700.0" />
	<line x1="1375.0" x2="1600.0" y1="650.0" y2="700.0" />
	<line x1="1150.0" x2="1200.0" y1="700.0" y2="750.0" />
	<line x1="1600.0" x2="1550.0" y1="700.0" y2="750.0" />
	<line x1="-200.0" x2="-250.0" y1="750.0" y2="800.0" />
	<line x1="-200.0" x2="-150.0" y1="750.0" y2="800.0" />
	<line x1="100.0" x2="-50.0" y1="750.0" y2="800.0" />
	<line x1="200.0" x2="150.0" y1="750.0" y2="800.0" />
	<line x1="200.0" x2="250.0" y1="750.0" y2="800.0" />
	<line x1="700.0" x2="450.0" y1="750.0" y2="800.0" />
	<line x1="700.0" x2="950.0" y1="750.0" y2="800.0" />
	<line x1="1200.0" x2="1150.0" y1="750.0" y2="800.0" />
	<line x1="1200.0" x2="1250.0" y1="750.0" y2="800.0" />
	<line x1="1550.0" x2="1350.0" y1="750.0" y2="800.0" />
	<line x1="1550.0" x2="1750.0" y1="750.0" y2="800.0" />
	<line x1="-250.0" x2="-300.0" y1="800.0" y2="850.0" />
	<line x1="-150.0" x2="-200.0" y1="800.0" y2="850.0" />
	<line x1="450.0" x2="400.0" y1="800.0" y2="850.0" />
	<line x1="450.0" x2="500.0" y1="800.0" y2="850.0" />
	<line x1="1150.0" x2="1100.0" y1="800.0" y2="850.0" />
	<line x1="1350.0" x2="1250.0" y1="800.0" y2="850.0" />
	<line x1="1350.0" x2="1450.0" y1="800.0" y2="850.0" />
	<line x1="1750.0" x2="1700.0" y1="800.0" y2="850.0" />
	<line x1="1750.0" x2="1800.0" y1="800.0" y2="850.0" />
	<line x1="-300.0" x2="-600.0" y1="850.0" y2="900.0" />
	<line x1="0.0" x2="50.0" y1="850.0" y2="900.0" />
	<line x1="300.0" x2="150.0" y1="850.0" y2="900.0" />
	<line x1="400.0" x2="450.0" y1="850.0" y2="900.0" />
	<line x1="1000.0" x2="1050.0" y1="850.0" y2="900.0" />
	<line x1="1250.0" x2="1300.0" y1="850.0" y2="900.0" />
	<line x1="1450.0" x2="1500.0" y1="850.0" y2="900.0" />
	<line x1="1700.0" x2="1600.0" y1="850.0" y2="900.0" />
	<line x1="1700.0" x2="1800.0" y1="850.0" y2="900.0" />
	<line x1="-600.0" x2="-550.0" y1="900.0" y2="950.0" />
	<line x1="-500.0" x2="-450.0" y1="900.0" y2="950.0" />
	<line x1="150.0" x2="-250.0" y1="900.0" y2="950.0" />
	<line x1="450.0" x2="500.0" y1="900.0" y2="950.0" />
	<line x1="750.0" x2="700.0" y1="900.0" y2="950.0" />
	<line x1="850.0" x2="800.0" y1="900.0" y2="950.0" />
	<line x1="950.0" x2="1000.0" y1="900.0" y2="950.0" />
	<line x1="1300.0" x2="1350.0" y1="900.0" y2="950.0" />
	<line x1="1500.0" x2="1450.0" y1="900.0" y2="950.0" />
	<line x1="1500.0" x2="1550.0" y1="900.0" y2="950.0" />
	<line x1="1600.0" x2="1650.0" y1="900.0" y2="950.0" />
	<line x1="1800.0" x2="1750.0" y1="900.0" y2="950.0" />
	<line x1="-550.0" x2="-600.0" y1="950.0" y2="1000.0" />
	<line x1="-450.0" x2="-500.0" y1="950.0" y2="1000.0" />
	<line x1="-450.0" x2="-400.0" y1="950.0" y2="1000.0" />
	<line x1="-250.0" x2="-300.0" y1="950.0" y2="1000.0" />
	<line x1="500.0" x2="550.0" y1="950.0" y2="1000.0" />
	<line x1="700.0" x2="650.0" y1="950.0" y2="1000.0" />
	<line x1="1000.0" x2="950.0" y1="950.0" y2="1000.0" />
	<line x1="1000.0" x2="1050.0" y1="950.0" y2="1000.0" />
	<line x1="1350.0" x2="1300.0" y1="950.0" y2="1000.0" />
	<line x1="1650.0" x2="1700.0" y1="950.0" y2="1000.0" />
</svg>