<svg height="515.6" viewBox="-222.3 -257.8 492.3 515.6" width="492.3" xmlns="http://www.w3.org/2000/svg">
	<g stroke="black" stroke-width="1px">
		<line x1="250.0" x2="77.3" y1="0.0" y2="237.8" />
		<line x1="77.3" x2="-202.3" y1="237.8" y2="146.9" />
		<line x1="-202.3" x2="-202.3" y1="146.9" y2="-146.9" />
		<line x1="-202.3" x2="77.3" y1="-146.9" y2="-237.8" />
		<line x1="77.3" x2="250.0" y1="-237.8" y2="0.0" />
		<line x1="250.0" x2="54.1" y1="0.0" y2="-0.0" />
		<line x1="77.3" x2="16.7" y1="237.8" y2="51.5" />
		<line x1="-202.3" x2="-43.8" y1="146.9" y2="31.8" />
		<line x1="-202.3" x2="-43.8" y1="-146.9" y2="-31.8" />
		<line x1="77.3" x2="16.7" y1="-237.8" y2="-51.5" />
		<line x1="54.1" x2="-43.8" y1="-0.0" y2="31.8" />
		<line x1="54.1" x2="-43.8" y1="-0.0" y2="-31.8" />
		<line x1="16.7" x2="-43.8" y1="51.5" y2="-31.8" />
		<line x1="16.7" x2="16.7" y1="51.5" y2="-51.5" />
		<line x1="-43.8" x2="16.7" y1="31.8" y2="-51.5" />
	</g>
	<g>
		<circle cx="250.0" cy="0.0" r="10.0" />
		<circle cx="77.3" cy="237.8" r="10.0" />
		<circle cx="-202.3" cy="146.9" r="10.0" />
		<circle cx="-202.3" cy="-146.9" r="10.0" />
		<circle cx="77.3" cy="-237.8" r="10.0" />
		<circle cx="54.1" cy="-0.0" r="10.0" />
		<circle cx="16.7" cy="51.5" r="10.0" />
		<circle cx="-43.8" cy="31.8" r="10.0" />
		<circle cx="-43.8" cy="-31.8" r="10.0" />
		<circle cx="16.7" cy="-51.5" r="10.0" />
	</g>
</svg>