<svg height="515.6" viewBox="-222.3 -257.8 492.3 515.6" width="492.3" xmlns="http://www.w3.org/2000/svg">
	<g stroke="black" stroke-width="1px">
		<line x1="250.0" x2="77.3" y1="0.0" y2="237.8" />
		<line x1="77.3" x2="-202.3" y1="237.8" y2="146.9" />
		<line x1="-202.3" x2="-202.3" y1="146.9" y2="-146.9" />
		<line x1="-202.3" x2="77.3" y1="-146.9" y2="-237.8" />
		<line x1="77.3" x2="250.0" y1="-237.8" y2="0.0" />
		<line x1="105.0" x2="32.4" y1="0.0" y2="99.8" />
		<line x1="32.4" x2="-84.9" y1="99.8" y2="61.7" />
		<line x1="-84.9" x2="-84.9" y1="61.7" y2="-61.7" />
		<line x1="-84.9" x2="32.4" y1="-61.7" y2="-99.8" />
		<line x1="32.4" x2="105.0" y1="-99.8" y2="0.0" />
		<line x1="250.0" x2="105.0" y1="0.0" y2="0.0" />
		<line x1="77.3" x2="32.4" y1="237.8" y2="99.8" />
		<line x1="-202.3" x2="-84.9" y1="146.9" y2="61.7" />
		<line x1="-202.3" x2="-84.9" y1="-146.9" y2="-61.7" />
		<line x1="77.3" x2="32.4" y1="-237.8" y2="-99.8" />
	</g>
	<g>
		<circle cx="250.0" cy="0.0" r="10.0" />
		<circle cx="77.3" cy="237.8" r="10.0" />
		<circle cx="-202.3" cy="146.9" r="10.0" />
		<circle cx="-202.3" cy="-146.9" r="10.0" />
		<circle cx="77.3" cy="-237.8" r="10.0" />
		<circle cx="105.0" cy="0.0" r="10.0" />
		<circle cx="32.4" cy="99.8" r="10.0" />
		<circle cx="-84.9" cy="61.7" r="10.0" />
		<circle cx="-84.9" cy="-61.7" r="10.0" />
		<circle cx="32.4" cy="-99.8" r="10.0" />
	</g>
</svg>