<svg height="473.0" viewBox="-270.0 -236.5 540.0 473.0" width="540.0" xmlns="http://www.w3.org/2000/svg">
	<g stroke="black" stroke-width="1px">
		<line x1="250.0" x2="125.0" y1="0.0" y2="216.5" />
		<line x1="125.0" x2="-125.0" y1="216.5" y2="216.5" />
		<line x1="-125.0" x2="-250.0" y1="216.5" y2="0.0" />
		<line x1="-250.0" x2="-125.0" y1="0.0" y2="-216.5" />
		<line x1="-125.0" x2="125.0" y1="-216.5" y2="-216.5" />
		<line x1="125.0" x2="250.0" y1="-216.5" y2="0.0" />
		<line x1="125.0" x2="62.5" y1="0.0" y2="108.3" />
		<line x1="62.5" x2="-62.5" y1="108.3" y2="108.3" />
		<line x1="-62.5" x2="-125.0" y1="108.3" y2="0.0" />
		<line x1="-125.0" x2="-62.5" y1="0.0" y2="-108.2" />
		<line x1="-62.5" x2="62.5" y1="-108.2" y2="-108.3" />
		<line x1="62.5" x2="125.0" y1="-108.3" y2="0.0" />
		<line x1="250.0" x2="125.0" y1="0.0" y2="0.0" />
		<line x1="125.0" x2="62.5" y1="216.5" y2="108.3" />
		<line x1="-125.0" x2="-62.5" y1="216.5" y2="108.3" />
		<line x1="-250.0" x2="-125.0" y1="0.0" y2="0.0" />
		<line x1="-125.0" x2="-62.5" y1="-216.5" y2="-108.2" />
		<line x1="125.0" x2="62.5" y1="-216.5" y2="-108.3" />
	</g>
	<g>
		<circle cx="250.0" cy="0.0" r="10.0" />
		<circle cx="125.0" cy="216.5" r="10.0" />
		<circle cx="-125.0" cy="216.5" r="10.0" />
		<circle cx="-250.0" cy="0.0" r="10.0" />
		<circle cx="-125.0" cy="-216.5" r="10.0" />
		<circle cx="125.0" cy="-216.5" r="10.0" />
		<circle cx="125.0" cy="0.0" r="10.0" />
		<circle cx="62.5" cy="108.3" r="10.0" />
		<circle cx="-62.5" cy="108.3" r="10.0" />
		<circle cx="-125.0" cy="0.0" r="10.0" />
		<circle cx="-62.5" cy="-108.2" r="10.0" />
		<circle cx="62.5" cy="-108.3" r="10.0" />
	</g>
</svg>