<svg height="540.0" viewBox="-270.0 -270.0 540.0 540.0" width="540.0" xmlns="http://www.w3.org/2000/svg">
	<g stroke="black" stroke-width="1px">
		<line x1="250.0" x2="237.8" y1="0.0" y2="77.3" />
		<line x1="237.8" x2="202.3" y1="77.3" y2="146.9" />
		<line x1="202.3" x2="146.9" y1="146.9" y2="202.3" />
		<line x1="146.9" x2="77.3" y1="202.3" y2="237.8" />
		<line x1="77.3" x2="0.0" y1="237.8" y2="250.0" />
		<line x1="0.0" x2="-77.3" y1="250.0" y2="237.8" />
		<line x1="-77.3" x2="-146.9" y1="237.8" y2="202.3" />
		<line x1="-146.9" x2="-202.3" y1="202.3" y2="146.9" />
		<line x1="-202.3" x2="-237.8" y1="146.9" y2="77.3" />
		<line x1="-237.8" x2="-250.0" y1="77.3" y2="0.0" />
		<line x1="-250.0" x2="-237.8" y1="0.0" y2="-77.3" />
		<line x1="-237.8" x2="-202.3" y1="-77.3" y2="-146.9" />
		<line x1="-202.3" x2="-146.9" y1="-146.9" y2="-202.3" />
		<line x1="-146.9" x2="-77.3" y1="-202.3" y2="-237.8" />
		<line x1="-77.3" x2="-0.0" y1="-237.8" y2="-250.0" />
		<line x1="-0.0" x2="77.3" y1="-250.0" y2="-237.8" />
		<line x1="77.3" x2="146.9" y1="-237.8" y2="-202.3" />
		<line x1="146.9" x2="202.3" y1="-202.3" y2="-146.9" />
		<line x1="202.3" x2="237.8" y1="-146.9" y2="-77.3" />
		<line x1="237.8" x2="250.0" y1="-77.3" y2="0.0" />
		<line x1="227.7" x2="216.6" y1="-0.0" y2="70.4" />
		<line x1="216.6" x2="184.2" y1="70.4" y2="133.8" />
		<line x1="184.2" x2="133.9" y1="133.8" y2="184.2" />
		<line x1="133.9" x2="70.4" y1="184.2" y2="216.6" />
		<line x1="70.4" x2="0.0" y1="216.6" y2="227.7" />
		<line x1="0.0" x2="-70.4" y1="227.7" y2="216.6" />
		<line x1="-70.4" x2="-133.8" y1="216.6" y2="184.2" />
		<line x1="-133.8" x2="-184.2" y1="184.2" y2="133.9" />
		<line x1="-184.2" x2="-216.6" y1="133.9" y2="70.4" />
		<line x1="-216.6" x2="-227.7" y1="70.4" y2="0.0" />
		<line x1="-227.7" x2="-216.6" y1="0.0" y2="-70.4" />
		<line x1="-216.6" x2="-184.2" y1="-70.4" y2="-133.8" />
		<line x1="-184.2" x2="-133.9" y1="-133.8" y2="-184.2" />
		<line x1="-133.9" x2="-70.4" y1="-184.2" y2="-216.6" />
		<line x1="-70.4" x2="-0.0" y1="-216.6" y2="-227.7" />
		<line x1="-0.0" x2="70.4" y1="-227.7" y2="-216.6" />
		<line x1="70.4" x2="133.8" y1="-216.6" y2="-184.2" />
		<line x1="133.8" x2="184.2" y1="-184.2" y2="-133.8" />
		<line x1="184.2" x2="216.6" y1="-133.8" y2="-70.4" />
		<line x1="216.6" x2="227.7" y1="-70.4" y2="-0.0" />
		<line x1="250.0" x2="227.7" y1="0.0" y2="-0.0" />
		<line x1="237.8" x2="216.6" y1="77.3" y2="70.4" />
		<line x1="202.3" x2="184.2" y1="146.9" y2="133.8" />
		<line x1="146.9" x2="133.9" y1="202.3" y2="184.2" />
		<line x1="77.3" x2="70.4" y1="237.8" y2="216.6" />
		<line x1="0.0" x2="0.0" y1="250.0" y2="227.7" />
		<line x1="-77.3" x2="-70.4" y1="237.8" y2="216.6" />
		<line x1="-146.9" x2="-133.8" y1="202.3" y2="184.2" />
		<line x1="-202.3" x2="-184.2" y1="146.9" y2="133.9" />
		<line x1="-237.8" x2="-216.6" y1="77.3" y2="70.4" />
		<line x1="-250.0" x2="-227.7" y1="0.0" y2="0.0" />
		<line x1="-237.8" x2="-216.6" y1="-77.3" y2="-70.4" />
		<line x1="-202.3" x2="-184.2" y1="-146.9" y2="-133.8" />
		<line x1="-146.9" x2="-133.9" y1="-202.3" y2="-184.2" />
		<line x1="-77.3" x2="-70.4" y1="-237.8" y2="-216.6" />
		<line x1="-0.0" x2="-0.0" y1="-250.0" y2="-227.7" />
		<line x1="77.3" x2="70.4" y1="-237.8" y2="-216.6" />
		<line x1="146.9" x2="133.8" y1="-202.3" y2="-184.2" />
		<line x1="202.3" x2="184.2" y1="-146.9" y2="-133.8" />
		<line x1="237.8" x2="216.6" y1="-77.3" y2="-70.4" />
	</g>
	<g>
		<circle cx="250.0" cy="0.0" r="10.0" />
		<circle cx="237.8" cy="77.3" r="10.0" />
		<circle cx="202.3" cy="146.9" r="10.0" />
		<circle cx="146.9" cy="202.3" r="10.0" />
		<circle cx="77.3" cy="237.8" r="10.0" />
		<circle cx="0.0" cy="250.0" r="10.0" />
		<circle cx="-77.3" cy="237.8" r="10.0" />
		<circle cx="-146.9" cy="202.3" r="10.0" />
		<circle cx="-202.3" cy="146.9" r="10.0" />
		<circle cx="-237.8" cy="77.3" r="10.0" />
		<circle cx="-250.0" cy="0.0" r="10.0" />
		<circle cx="-237.8" cy="-77.3" r="10.0" />
		<circle cx="-202.3" cy="-146.9" r="10.0" />
		<circle cx="-146.9" cy="-202.3" r="10.0" />
		<circle cx="-77.3" cy="-237.8" r="10.0" />
		<circle cx="-0.0" cy="-250.0" r="10.0" />
		<circle cx="77.3" cy="-237.8" r="10.0" />
		<circle cx="146.9" cy="-202.3" r="10.0" />
		<circle cx="202.3" cy="-146.9" r="10.0" />
		<circle cx="237.8" cy="-77.3" r="10.0" />
		<circle cx="227.7" cy="-0.0" r="10.0" />
		<circle cx="216.6" cy="70.4" r="10.0" />
		<circle cx="184.2" cy="133.8" r="10.0" />
		<circle cx="133.9" cy="184.2" r="10.0" />
		<circle cx="70.4" cy="216.6" r="10.0" />
		<circle cx="0.0" cy="227.7" r="10.0" />
		<circle cx="-70.4" cy="216.6" r="10.0" />
		<circle cx="-133.8" cy="184.2" r="10.0" />
		<circle cx="-184.2" cy="133.9" r="10.0" />
		<circle cx="-216.6" cy="70.4" r="10.0" />
		<circle cx="-227.7" cy="0.0" r="10.0" />
		<circle cx="-216.6" cy="-70.4" r="10.0" />
		<circle cx="-184.2" cy="-133.8" r="10.0" />
		<circle cx="-133.9" cy="-184.2" r="10.0" />
		<circle cx="-70.4" cy="-216.6" r="10.0" />
		<circle cx="-0.0" cy="-227.7" r="10.0" />
		<circle cx="70.4" cy="-216.6" r="10.0" />
		<circle cx="133.8" cy="-184.2" r="10.0" />
		<circle cx="184.2" cy="-133.8" r="10.0" />
		<circle cx="216.6" cy="-70.4" r="10.0" />
	</g>
</svg>