<svg height="540.0" viewBox="-270.0 -270.0 540.0 540.0" width="540.0" xmlns="http://www.w3.org/2000/svg">
	<g stroke="black" stroke-width="1px">
		<line x1="250.0" x2="176.8" y1="0.0" y2="176.8" />
		<line x1="176.8" x2="0.0" y1="176.8" y2="250.0" />
		<line x1="0.0" x2="-176.8" y1="250.0" y2="176.8" />
		<line x1="-176.8" x2="-250.0" y1="176.8" y2="0.0" />
		<line x1="-250.0" x2="-176.8" y1="0.0" y2="-176.8" />
		<line x1="-176.8" x2="-0.0" y1="-176.8" y2="-250.0" />
		<line x1="-0.0" x2="176.8" y1="-250.0" y2="-176.8" />
		<line x1="176.8" x2="250.0" y1="-176.8" y2="0.0" />
		<line x1="157.7" x2="111.5" y1="0.0" y2="111.5" />
		<line x1="111.5" x2="0.0" y1="111.5" y2="157.7" />
		<line x1="0.0" x2="-111.5" y1="157.7" y2="111.5" />
		<line x1="-111.5" x2="-157.6" y1="111.5" y2="0.0" />
		<line x1="-157.6" x2="-111.5" y1="0.0" y2="-111.5" />
		<line x1="-111.5" x2="0.0" y1="-111.5" y2="-157.6" />
		<line x1="0.0" x2="111.5" y1="-157.6" y2="-111.5" />
		<line x1="111.5" x2="157.7" y1="-111.5" y2="0.0" />
		<line x1="250.0" x2="157.7" y1="0.0" y2="0.0" />
		<line x1="176.8" x2="111.5" y1="176.8" y2="111.5" />
		<line x1="0.0" x2="0.0" y1="250.0" y2="157.7" />
		<line x1="-176.8" x2="-111.5" y1="176.8" y2="111.5" />
		<line x1="-250.0" x2="-157.6" y1="0.0" y2="0.0" />
		<line x1="-176.8" x2="-111.5" y1="-176.8" y2="-111.5" />
		<line x1="-0.0" x2="0.0" y1="-250.0" y2="-157.6" />
		<line x1="176.8" x2="111.5" y1="-176.8" y2="-111.5" />
	</g>
	<g>
		<circle cx="250.0" cy="0.0" r="10.0" />
		<circle cx="176.8" cy="176.8" r="10.0" />
		<circle cx="0.0" cy="250.0" r="10.0" />
		<circle cx="-176.8" cy="176.8" r="10.0" />
		<circle cx="-250.0" cy="0.0" r="10.0" />
		<circle cx="-176.8" cy="-176.8" r="10.0" />
		<circle cx="-0.0" cy="-250.0" r="10.0" />
		<circle cx="176.8" cy="-176.8" r="10.0" />
		<circle cx="157.7" cy="0.0" r="10.0" />
		<circle cx="111.5" cy="111.5" r="10.0" />
		<circle cx="0.0" cy="157.7" r="10.0" />
		<circle cx="-111.5" cy="111.5" r="10.0" />
		<circle cx="-157.6" cy="0.0" r="10.0" />
		<circle cx="-111.5" cy="-111.5" r="10.0" />
		<circle cx="0.0" cy="-157.6" r="10.0" />
		<circle cx="111.5" cy="-111.5" r="10.0" />
	</g>
</svg>