<svg height="515.6" viewBox="-270.0 -257.8 540.0 515.6" width="540.0" xmlns="http://www.w3.org/2000/svg">
	<g stroke="black" stroke-width="1px">
		<line x1="250.0" x2="202.3" y1="0.0" y2="146.9" />
		<line x1="202.3" x2="77.3" y1="146.9" y2="237.8" />
		<line x1="77.3" x2="-77.3" y1="237.8" y2="237.8" />
		<line x1="-77.3" x2="-202.3" y1="237.8" y2="146.9" />
		<line x1="-202.3" x2="-250.0" y1="146.9" y2="0.0" />
		<line x1="-250.0" x2="-202.3" y1="0.0" y2="-146.9" />
		<line x1="-202.3" x2="-77.3" y1="-146.9" y2="-237.8" />
		<line x1="-77.3" x2="77.3" y1="-237.8" y2="-237.8" />
		<line x1="77.3" x2="202.3" y1="-237.8" y2="-146.9" />
		<line x1="202.3" x2="250.0" y1="-146.9" y2="0.0" />
		<line x1="180.9" x2="146.4" y1="0.0" y2="106.3" />
		<line x1="146.4" x2="55.9" y1="106.3" y2="172.1" />
		<line x1="55.9" x2="-55.9" y1="172.1" y2="172.1" />
		<line x1="-55.9" x2="-146.4" y1="172.1" y2="106.3" />
		<line x1="-146.4" x2="-180.9" y1="106.3" y2="0.0" />
		<line x1="-180.9" x2="-146.4" y1="0.0" y2="-106.3" />
		<line x1="-146.4" x2="-55.9" y1="-106.3" y2="-172.0" />
		<line x1="-55.9" x2="55.9" y1="-172.0" y2="-172.0" />
		<line x1="55.9" x2="146.4" y1="-172.0" y2="-106.3" />
		<line x1="146.4" x2="180.9" y1="-106.3" y2="0.0" />
		<line x1="250.0" x2="180.9" y1="0.0" y2="0.0" />
		<line x1="202.3" x2="146.4" y1="146.9" y2="106.3" />
		<line x1="77.3" x2="55.9" y1="237.8" y2="172.1" />
		<line x1="-77.3" x2="-55.9" y1="237.8" y2="172.1" />
		<line x1="-202.3" x2="-146.4" y1="146.9" y2="106.3" />
		<line x1="-250.0" x2="-180.9" y1="0.0" y2="0.0" />
		<line x1="-202.3" x2="-146.4" y1="-146.9" y2="-106.3" />
		<line x1="-77.3" x2="-55.9" y1="-237.8" y2="-172.0" />
		<line x1="77.3" x2="55.9" y1="-237.8" y2="-172.0" />
		<line x1="202.3" x2="146.4" y1="-146.9" y2="-106.3" />
	</g>
	<g>
		<circle cx="250.0" cy="0.0" r="10.0" />
		<circle cx="202.3" cy="146.9" r="10.0" />
		<circle cx="77.3" cy="237.8" r="10.0" />
		<circle cx="-77.3" cy="237.8" r="10.0" />
		<circle cx="-202.3" cy="146.9" r="10.0" />
		<circle cx="-250.0" cy="0.0" r="10.0" />
		<circle cx="-202.3" cy="-146.9" r="10.0" />
		<circle cx="-77.3" cy="-237.8" r="10.0" />
		<circle cx="77.3" cy="-237.8" r="10.0" />
		<circle cx="202.3" cy="-146.9" r="10.0" />
		<circle cx="180.9" cy="0.0" r="10.0" />
		<circle cx="146.4" cy="106.3" r="10.0" />
		<circle cx="55.9" cy="172.1" r="10.0" />
		<circle cx="-55.9" cy="172.1" r="10.0" />
		<circle cx="-146.4" cy="106.3" r="10.0" />
		<circle cx="-180.9" cy="0.0" r="10.0" />
		<circle cx="-146.4" cy="-106.3" r="10.0" />
		<circle cx="-55.9" cy="-172.0" r="10.0" />
		<circle cx="55.9" cy="-172.0" r="10.0" />
		<circle cx="146.4" cy="-106.3" r="10.0" />
	</g>
</svg>