<svg height="532.4" viewBox="-254.9 -266.2 524.9 532.4" width="524.9" xmlns="http://www.w3.org/2000/svg">
	<g stroke="black" stroke-width="1px">
		<line x1="250.0" x2="191.5" y1="0.0" y2="160.7" />
		<line x1="191.5" x2="43.4" y1="160.7" y2="246.2" />
		<line x1="43.4" x2="-125.0" y1="246.2" y2="216.5" />
		<line x1="-125.0" x2="-234.9" y1="216.5" y2="85.5" />
		<line x1="-234.9" x2="-234.9" y1="85.5" y2="-85.5" />
		<line x1="-234.9" x2="-125.0" y1="-85.5" y2="-216.5" />
		<line x1="-125.0" x2="43.4" y1="-216.5" y2="-246.2" />
		<line x1="43.4" x2="191.5" y1="-246.2" y2="-160.7" />
		<line x1="191.5" x2="250.0" y1="-160.7" y2="0.0" />
		<line x1="170.3" x2="130.5" y1="0.0" y2="109.5" />
		<line x1="130.5" x2="29.6" y1="109.5" y2="167.7" />
		<line x1="29.6" x2="-85.2" y1="167.7" y2="147.5" />
		<line x1="-85.2" x2="-160.0" y1="147.5" y2="58.3" />
		<line x1="-160.0" x2="-160.0" y1="58.3" y2="-58.2" />
		<line x1="-160.0" x2="-85.2" y1="-58.2" y2="-147.5" />
		<line x1="-85.2" x2="29.6" y1="-147.5" y2="-167.7" />
		<line x1="29.6" x2="130.5" y1="-167.7" y2="-109.5" />
		<line x1="130.5" x2="170.3" y1="-109.5" y2="0.0" />
		<line x1="250.0" x2="170.3" y1="0.0" y2="0.0" />
		<line x1="191.5" x2="130.5" y1="160.7" y2="109.5" />
		<line x1="43.4" x2="29.6" y1="246.2" y2="167.7" />
		<line x1="-125.0" x2="-85.2" y1="216.5" y2="147.5" />
		<line x1="-234.9" x2="-160.0" y1="85.5" y2="58.3" />
		<line x1="-234.9" x2="-160.0" y1="-85.5" y2="-58.2" />
		<line x1="-125.0" x2="-85.2" y1="-216.5" y2="-147.5" />
		<line x1="43.4" x2="29.6" y1="-246.2" y2="-167.7" />
		<line x1="191.5" x2="130.5" y1="-160.7" y2="-109.5" />
	</g>
	<g>
		<circle cx="250.0" cy="0.0" r="10.0" />
		<circle cx="191.5" cy="160.7" r="10.0" />
		<circle cx="43.4" cy="246.2" r="10.0" />
		<circle cx="-125.0" cy="216.5" r="10.0" />
		<circle cx="-234.9" cy="85.5" r="10.0" />
		<circle cx="-234.9" cy="-85.5" r="10.0" />
		<circle cx="-125.0" cy="-216.5" r="10.0" />
		<circle cx="43.4" cy="-246.2" r="10.0" />
		<circle cx="191.5" cy="-160.7" r="10.0" />
		<circle cx="170.3" cy="0.0" r="10.0" />
		<circle cx="130.5" cy="109.5" r="10.0" />
		<circle cx="29.6" cy="167.7" r="10.0" />
		<circle cx="-85.2" cy="147.5" r="10.0" />
		<circle cx="-160.0" cy="58.3" r="10.0" />
		<circle cx="-160.0" cy="-58.2" r="10.0" />
		<circle cx="-85.2" cy="-147.5" r="10.0" />
		<circle cx="29.6" cy="-167.7" r="10.0" />
		<circle cx="130.5" cy="-109.5" r="10.0" />
	</g>
</svg>