<svg height="526.0" viewBox="-248.4 -261.5 518.4 526.0" width="518.4" xmlns="http://www.w3.org/2000/svg">
	<g stroke="black" stroke-width="1px">
		<line x1="250.0" x2="157.3" y1="0.0" y2="194.3" />
		<line x1="157.3" x2="-52.0" y1="194.3" y2="244.5" />
		<line x1="-52.0" x2="-222.8" y1="244.5" y2="113.5" />
		<line x1="-222.8" x2="-228.4" y1="113.5" y2="-101.7" />
		<line x1="-228.4" x2="-64.7" y1="-101.7" y2="-241.5" />
		<line x1="-64.7" x2="146.9" y1="-241.5" y2="-202.3" />
		<line x1="146.9" x2="250.0" y1="-202.3" y2="0.0" />
		<line x1="140.9" x2="89.3" y1="-0.8" y2="111.3" />
		<line x1="89.3" x2="-30.3" y1="111.3" y2="140.4" />
		<line x1="-30.3" x2="-128.1" y1="140.4" y2="65.3" />
		<line x1="-128.1" x2="-131.3" y1="65.3" y2="-58.0" />
		<line x1="-131.3" x2="-37.5" y1="-58.0" y2="-137.7" />
		<line x1="-37.5" x2="83.4" y1="-137.7" y2="-113.6" />
		<line x1="83.4" x2="140.9" y1="-113.6" y2="-0.8" />
		<line x1="250.0" x2="140.9" y1="0.0" y2="-0.8" />
		<line x1="157.3" x2="89.3" y1="194.3" y2="111.3" />
		<line x1="-52.0" x2="-30.3" y1="244.5" y2="140.4" />
		<line x1="-222.8" x2="-128.1" y1="113.5" y2="65.3" />
		<line x1="-228.4" x2="-131.3" y1="-101.7" y2="-58.0" />
		<line x1="-64.7" x2="-37.5" y1="-241.5" y2="-137.7" />
		<line x1="146.9" x2="83.4" y1="-202.3" y2="-113.6" />
	</g>
	<g>
		<circle cx="250.0" cy="0.0" r="10.0" />
		<circle cx="157.3" cy="194.3" r="10.0" />
		<circle cx="-52.0" cy="244.5" r="10.0" />
		<circle cx="-222.8" cy="113.5" r="10.0" />
		<circle cx="-228.4" cy="-101.7" r="10.0" />
		<circle cx="-64.7" cy="-241.5" r="10.0" />
		<circle cx="146.9" cy="-202.3" r="10.0" />
		<circle cx="140.9" cy="-0.8" r="10.0" />
		<circle cx="89.3" cy="111.3" r="10.0" />
		<circle cx="-30.3" cy="140.4" r="10.0" />
		<circle cx="-128.1" cy="65.3" r="10.0" />
		<circle cx="-131.3" cy="-58.0" r="10.0" />
		<circle cx="-37.5" cy="-137.7" r="10.0" />
		<circle cx="83.4" cy="-113.6" r="10.0" />
	</g>
</svg>