<svg height="540.0" viewBox="-270.0 -270.0 540.0 540.0" width="540.0" xmlns="http://www.w3.org/2000/svg">
	<g stroke="black" stroke-width="1px">
		<line x1="250.0" x2="246.9" y1="0.0" y2="39.1" />
		<line x1="246.9" x2="237.8" y1="39.1" y2="77.3" />
		<line x1="237.8" x2="222.8" y1="77.3" y2="113.5" />
		<line x1="222.8" x2="202.3" y1="113.5" y2="146.9" />
		<line x1="202.3" x2="176.8" y1="146.9" y2="176.8" />
		<line x1="176.8" x2="146.9" y1="176.8" y2="202.3" />
		<line x1="146.9" x2="113.5" y1="202.3" y2="222.8" />
		<line x1="113.5" x2="77.3" y1="222.8" y2="237.8" />
		<line x1="77.3" x2="39.1" y1="237.8" y2="246.9" />
		<line x1="39.1" x2="0.0" y1="246.9" y2="250.0" />
		<line x1="0.0" x2="-39.1" y1="250.0" y2="246.9" />
		<line x1="-39.1" x2="-77.3" y1="246.9" y2="237.8" />
		<line x1="-77.3" x2="-113.5" y1="237.8" y2="222.8" />
		<line x1="-113.5" x2="-146.9" y1="222.8" y2="202.3" />
		<line x1="-146.9" x2="-176.8" y1="202.3" y2="176.8" />
		<line x1="-176.8" x2="-202.3" y1="176.8" y2="146.9" />
		<line x1="-202.3" x2="-222.8" y1="146.9" y2="113.5" />
		<line x1="-222.8" x2="-237.8" y1="113.5" y2="77.3" />
		<line x1="-237.8" x2="-246.9" y1="77.3" y2="39.1" />
		<line x1="-246.9" x2="-250.0" y1="39.1" y2="0.0" />
		<line x1="-250.0" x2="-246.9" y1="0.0" y2="-39.1" />
		<line x1="-246.9" x2="-237.8" y1="-39.1" y2="-77.3" />
		<line x1="-237.8" x2="-222.8" y1="-77.3" y2="-113.5" />
		<line x1="-222.8" x2="-202.3" y1="-113.5" y2="-146.9" />
		<line x1="-202.3" x2="-176.8" y1="-146.9" y2="-176.8" />
		<line x1="-176.8" x2="-146.9" y1="-176.8" y2="-202.3" />
		<line x1="-146.9" x2="-113.5" y1="-202.3" y2="-222.8" />
		<line x1="-113.5" x2="-77.3" y1="-222.8" y2="-237.8" />
		<line x1="-77.3" x2="-39.1" y1="-237.8" y2="-246.9" />
		<line x1="-39.1" x2="-0.0" y1="-246.9" y2="-250.0" />
		<line x1="-0.0" x2="39.1" y1="-250.0" y2="-246.9" />
		<line x1="39.1" x2="77.3" y1="-246.9" y2="-237.8" />
		<line x1="77.3" x2="113.5" y1="-237.8" y2="-222.8" />
		<line x1="113.5" x2="146.9" y1="-222.8" y2="-202.3" />
		<line x1="146.9" x2="176.8" y1="-202.3" y2="-176.8" />
		<line x1="176.8" x2="202.3" y1="-176.8" y2="-146.9" />
		<line x1="202.3" x2="222.8" y1="-146.9" y2="-113.5" />
		<line x1="222.8" x2="237.8" y1="-113.5" y2="-77.3" />
		<line x1="237.8" x2="246.9" y1="-77.3" y2="-39.1" />
		<line x1="246.9" x2="250.0" y1="-39.1" y2="0.0" />
		<line x1="244.0" x2="241.0" y1="-0.0" y2="38.2" />
		<line x1="241.0" x2="232.0" y1="38.2" y2="75.4" />
		<line x1="232.0" x2="217.4" y1="75.4" y2="110.8" />
		<line x1="217.4" x2="197.4" y1="110.8" y2="143.4" />
		<line x1="197.4" x2="172.5" y1="143.4" y2="172.5" />
		<line x1="172.5" x2="143.4" y1="172.5" y2="197.4" />
		<line x1="143.4" x2="110.8" y1="197.4" y2="217.4" />
		<line x1="110.8" x2="75.4" y1="217.4" y2="232.0" />
		<line x1="75.4" x2="38.2" y1="232.0" y2="241.0" />
		<line x1="38.2" x2="0.0" y1="241.0" y2="244.0" />
		<line x1="0.0" x2="-38.2" y1="244.0" y2="241.0" />
		<line x1="-38.2" x2="-75.4" y1="241.0" y2="232.0" />
		<line x1="-75.4" x2="-110.8" y1="232.0" y2="217.4" />
		<line x1="-110.8" x2="-143.4" y1="217.4" y2="197.4" />
		<line x1="-143.4" x2="-172.5" y1="197.4" y2="172.5" />
		<line x1="-172.5" x2="-197.4" y1="172.5" y2="143.4" />
		<line x1="-197.4" x2="-217.4" y1="143.4" y2="110.8" />
		<line x1="-217.4" x2="-232.0" y1="110.8" y2="75.4" />
		<line x1="-232.0" x2="-241.0" y1="75.4" y2="38.2" />
		<line x1="-241.0" x2="-244.0" y1="38.2" y2="0.0" />
		<line x1="-244.0" x2="-241.0" y1="0.0" y2="-38.2" />
		<line x1="-241.0" x2="-232.0" y1="-38.2" y2="-75.4" />
		<line x1="-232.0" x2="-217.4" y1="-75.4" y2="-110.8" />
		<line x1="-217.4" x2="-197.4" y1="-110.8" y2="-143.4" />
		<line x1="-197.4" x2="-172.5" y1="-143.4" y2="-172.5" />
		<line x1="-172.5" x2="-143.4" y1="-172.5" y2="-197.4" />
		<line x1="-143.4" x2="-110.8" y1="-197.4" y2="-217.4" />
		<line x1="-110.8" x2="-75.4" y1="-217.4" y2="-232.0" />
		<line x1="-75.4" x2="-38.2" y1="-232.0" y2="-241.0" />
		<line x1="-38.2" x2="-0.0" y1="-241.0" y2="-244.0" />
		<line x1="-0.0" x2="38.2" y1="-244.0" y2="-241.0" />
		<line x1="38.2" x2="75.4" y1="-241.0" y2="-232.0" />
		<line x1="75.4" x2="110.8" y1="-232.0" y2="-217.4" />
		<line x1="110.8" x2="143.4" y1="-217.4" y2="-197.4" />
		<line x1="143.4" x2="172.5" y1="-197.4" y2="-172.5" />
		<line x1="172.5" x2="197.4" y1="-172.5" y2="-143.4" />
		<line x1="197.4" x2="217.4" y1="-143.4" y2="-110.8" />
		<line x1="217.4" x2="232.0" y1="-110.8" y2="-75.4" />
		<line x1="232.0" x2="241.0" y1="-75.4" y2="-38.2" />
		<line x1="241.0" x2="244.0" y1="-38.2" y2="-0.0" />
		<line x1="250.0" x2="244.0" y1="0.0" y2="-0.0" />
		<line x1="246.9" x2="241.0" y1="39.1" y2="38.2" />
		<line x1="237.8" x2="232.0" y1="77.3" y2="75.4" />
		<line x1="222.8" x2="217.4" y1="113.5" y2="110.8" />
		<line x1="202.3" x2="197.4" y1="146.9" y2="143.4" />
		<line x1="176.8" x2="172.5" y1="176.8" y2="172.5" />
		<line x1="146.9" x2="143.4" y1="202.3" y2="197.4" />
		<line x1="113.5" x2="110.8" y1="222.8" y2="217.4" />
		<line x1="77.3" x2="75.4" y1="237.8" y2="232.0" />
		<line x1="39.1" x2="38.2" y1="246.9" y2="241.0" />
		<line x1="0.0" x2="0.0" y1="250.0" y2="244.0" />
		<line x1="-39.1" x2="-38.2" y1="246.9" y2="241.0" />
		<line x1="-77.3" x2="-75.4" y1="237.8" y2="232.0" />
		<line x1="-113.5" x2="-110.8" y1="222.8" y2="217.4" />
		<line x1="-146.9" x2="-143.4" y1="202.3" y2="197.4" />
		<line x1="-176.8" x2="-172.5" y1="176.8" y2="172.5" />
		<line x1="-202.3" x2="-197.4" y1="146.9" y2="143.4" />
		<line x1="-222.8" x2="-217.4" y1="113.5" y2="110.8" />
		<line x1="-237.8" x2="-232.0" y1="77.3" y2="75.4" />
		<line x1="-246.9" x2="-241.0" y1="39.1" y2="38.2" />
		<line x1="-250.0" x2="-244.0" y1="0.0" y2="0.0" />
		<line x1="-246.9" x2="-241.0" y1="-39.1" y2="-38.2" />
		<line x1="-237.8" x2="-232.0" y1="-77.3" y2="-75.4" />
		<line x1="-222.8" x2="-217.4" y1="-113.5" y2="-110.8" />
		<line x1="-202.3" x2="-197.4" y1="-146.9" y2="-143.4" />
		<line x1="-176.8" x2="-172.5" y1="-176.8" y2="-172.5" />
		<line x1="-146.9" x2="-143.4" y1="-202.3" y2="-197.4" />
		<line x1="-113.5" x2="-110.8" y1="-222.8" y2="-217.4" />
		<line x1="-77.3" x2="-75.4" y1="-237.8" y2="-232.0" />
		<line x1="-39.1" x2="-38.2" y1="-246.9" y2="-241.0" />
		<line x1="-0.0" x2="-0.0" y1="-250.0" y2="-244.0" />
		<line x1="39.1" x2="38.2" y1="-246.9" y2="-241.0" />
		<line x1="77.3" x2="75.4" y1="-237.8" y2="-232.0" />
		<line x1="113.5" x2="110.8" y1="-222.8" y2="-217.4" />
		<line x1="146.9" x2="143.4" y1="-202.3" y2="-197.4" />
		<line x1="176.8" x2="172.5" y1="-176.8" y2="-172.5" />
		<line x1="202.3" x2="197.4" y1="-146.9" y2="-143.4" />
		<line x1="222.8" x2="217.4" y1="-113.5" y2="-110.8" />
		<line x1="237.8" x2="232.0" y1="-77.3" y2="-75.4" />
		<line x1="246.9" x2="241.0" y1="-39.1" y2="-38.2" />
	</g>
	<g>
		<circle cx="250.0" cy="0.0" r="10.0" />
		<circle cx="246.9" cy="39.1" r="10.0" />
		<circle cx="237.8" cy="77.3" r="10.0" />
		<circle cx="222.8" cy="113.5" r="10.0" />
		<circle cx="202.3" cy="146.9" r="10.0" />
		<circle cx="176.8" cy="176.8" r="10.0" />
		<circle cx="146.9" cy="202.3" r="10.0" />
		<circle cx="113.5" cy="222.8" r="10.0" />
		<circle cx="77.3" cy="237.8" r="10.0" />
		<circle cx="39.1" cy="246.9" r="10.0" />
		<circle cx="0.0" cy="250.0" r="10.0" />
		<circle cx="-39.1" cy="246.9" r="10.0" />
		<circle cx="-77.3" cy="237.8" r="10.0" />
		<circle cx="-113.5" cy="222.8" r="10.0" />
		<circle cx="-146.9" cy="202.3" r="10.0" />
		<circle cx="-176.8" cy="176.8" r="10.0" />
		<circle cx="-202.3" cy="146.9" r="10.0" />
		<circle cx="-222.8" cy="113.5" r="10.0" />
		<circle cx="-237.8" cy="77.3" r="10.0" />
		<circle cx="-246.9" cy="39.1" r="10.0" />
		<circle cx="-250.0" cy="0.0" r="10.0" />
		<circle cx="-246.9" cy="-39.1" r="10.0" />
		<circle cx="-237.8" cy="-77.3" r="10.0" />
		<circle cx="-222.8" cy="-113.5" r="10.0" />
		<circle cx="-202.3" cy="-146.9" r="10.0" />
		<circle cx="-176.8" cy="-176.8" r="10.0" />
		<circle cx="-146.9" cy="-202.3" r="10.0" />
		<circle cx="-113.5" cy="-222.8" r="10.0" />
		<circle cx="-77.3" cy="-237.8" r="10.0" />
		<circle cx="-39.1" cy="-246.9" r="10.0" />
		<circle cx="-0.0" cy="-250.0" r="10.0" />
		<circle cx="39.1" cy="-246.9" r="10.0" />
		<circle cx="77.3" cy="-237.8" r="10.0" />
		<circle cx="113.5" cy="-222.8" r="10.0" />
		<circle cx="146.9" cy="-202.3" r="10.0" />
		<circle cx="176.8" cy="-176.8" r="10.0" />
		<circle cx="202.3" cy="-146.9" r="10.0" />
		<circle cx="222.8" cy="-113.5" r="10.0" />
		<circle cx="237.8" cy="-77.3" r="10.0" />
		<circle cx="246.9" cy="-39.1" r="10.0" />
		<circle cx="244.0" cy="-0.0" r="10.0" />
		<circle cx="241.0" cy="38.2" r="10.0" />
		<circle cx="232.0" cy="75.4" r="10.0" />
		<circle cx="217.4" cy="110.8" r="10.0" />
		<circle cx="197.4" cy="143.4" r="10.0" />
		<circle cx="172.5" cy="172.5" r="10.0" />
		<circle cx="143.4" cy="197.4" r="10.0" />
		<circle cx="110.8" cy="217.4" r="10.0" />
		<circle cx="75.4" cy="232.0" r="10.0" />
		<circle cx="38.2" cy="241.0" r="10.0" />
		<circle cx="0.0" cy="244.0" r="10.0" />
		<circle cx="-38.2" cy="241.0" r="10.0" />
		<circle cx="-75.4" cy="232.0" r="10.0" />
		<circle cx="-110.8" cy="217.4" r="10.0" />
		<circle cx="-143.4" cy="197.4" r="10.0" />
		<circle cx="-172.5" cy="172.5" r="10.0" />
		<circle cx="-197.4" cy="143.4" r="10.0" />
		<circle cx="-217.4" cy="110.8" r="10.0" />
		<circle cx="-232.0" cy="75.4" r="10.0" />
		<circle cx="-241.0" cy="38.2" r="10.0" />
		<circle cx="-244.0" cy="0.0" r="10.0" />
		<circle cx="-241.0" cy="-38.2" r="10.0" />
		<circle cx="-232.0" cy="-75.4" r="10.0" />
		<circle cx="-217.4" cy="-110.8" r="10.0" />
		<circle cx="-197.4" cy="-143.4" r="10.0" />
		<circle cx="-172.5" cy="-172.5" r="10.0" />
		<circle cx="-143.4" cy="-197.4" r="10.0" />
		<circle cx="-110.8" cy="-217.4" r="10.0" />
		<circle cx="-75.4" cy="-232.0" r="10.0" />
		<circle cx="-38.2" cy="-241.0" r="10.0" />
		<circle cx="-0.0" cy="-244.0" r="10.0" />
		<circle cx="38.2" cy="-241.0" r="10.0" />
		<circle cx="75.4" cy="-232.0" r="10.0" />
		<circle cx="110.8" cy="-217.4" r="10.0" />
		<circle cx="143.4" cy="-197.4" r="10.0" />
		<circle cx="172.5" cy="-172.5" r="10.0" />
		<circle cx="197.4" cy="-143.4" r="10.0" />
		<circle cx="217.4" cy="-110.8" r="10.0" />
		<circle cx="232.0" cy="-75.4" r="10.0" />
		<circle cx="241.0" cy="-38.2" r="10.0" />
	</g>
</svg>