<svg height="540.0" viewBox="-270.0 -270.0 540.0 540.0" width="540.0" xmlns="http://www.w3.org/2000/svg">
	<g stroke="black" stroke-width="1px">
		<line x1="250.0" x2="0.0" y1="0.0" y2="250.0" />
		<line x1="0.0" x2="-250.0" y1="250.0" y2="0.0" />
		<line x1="-250.0" x2="-0.0" y1="0.0" y2="-250.0" />
		<line x1="-0.0" x2="250.0" y1="-250.0" y2="0.0" />
		<line x1="83.3" x2="0.0" y1="0.0" y2="83.3" />
		<line x1="0.0" x2="-83.3" y1="83.3" y2="0.0" />
		<line x1="-83.3" x2="0.0" y1="0.0" y2="-83.3" />
		<line x1="0.0" x2="83.3" y1="-83.3" y2="0.0" />
		<line x1="250.0" x2="83.3" y1="0.0" y2="0.0" />
		<line x1="0.0" x2="0.0" y1="250.0" y2="83.3" />
		<line x1="-250.0" x2="-83.3" y1="0.0" y2="0.0" />
		<line x1="-0.0" x2="0.0" y1="-250.0" y2="-83.3" />
	</g>
	<g>
		<circle cx="250.0" cy="0.0" r="10.0" />
		<circle cx="0.0" cy="250.0" r="10.0" />
		<circle cx="-250.0" cy="0.0" r="10.0" />
		<circle cx="-0.0" cy="-250.0" r="10.0" />
		<circle cx="83.3" cy="0.0" r="10.0" />
		<circle cx="0.0" cy="83.3" r="10.0" />
		<circle cx="-83.3" cy="0.0" r="10.0" />
		<circle cx="0.0" cy="-83.3" r="10.0" />
	</g>
</svg>