<svg height="140.0" viewBox="-655.0 -25.0 1310.0 140.0" width="1310.0" xmlns="http://www.w3.org/2000/svg">
	<style type="text/css">
		<![CDATA[
			circle.leaf {
				text-anchor: middle;
			}
			circle.left_node {
				text-anchor: end;
			}
		]]>
	</style>
	<g class="edges" stroke="black" stroke-width="1px">
		<line x1="-600.0" x2="-630.0" y1="60.0" y2="90.0" />
		<line x1="-600.0" x2="-610.0" y1="60.0" y2="90.0" />
		<line x1="-600.0" x2="-590.0" y1="60.0" y2="90.0" />
		<line x1="-600.0" x2="-570.0" y1="60.0" y2="90.0" />
		<line x1="-480.0" x2="-600.0" y1="30.0" y2="60.0" />
		<line x1="-520.0" x2="-550.0" y1="60.0" y2="90.0" />
		<line x1="-520.0" x2="-530.0" y1="60.0" y2="90.0" />
		<line x1="-520.0" x2="-510.0" y1="60.0" y2="90.0" />
		<line x1="-520.0" x2="-490.0" y1="60.0" y2="90.0" />
		<line x1="-480.0" x2="-520.0" y1="30.0" y2="60.0" />
		<line x1="-440.0" x2="-470.0" y1="60.0" y2="90.0" />
		<line x1="-440.0" x2="-450.0" y1="60.0" y2="90.0" />
		<line x1="-440.0" x2="-430.0" y1="60.0" y2="90.0" />
		<line x1="-440.0" x2="-410.0" y1="60.0" y2="90.0" />
		<line x1="-480.0" x2="-440.0" y1="30.0" y2="60.0" />
		<line x1="-360.0" x2="-390.0" y1="60.0" y2="90.0" />
		<line x1="-360.0" x2="-370.0" y1="60.0" y2="90.0" />
		<line x1="-360.0" x2="-350.0" y1="60.0" y2="90.0" />
		<line x1="-360.0" x2="-330.0" y1="60.0" y2="90.0" />
		<line x1="-480.0" x2="-360.0" y1="30.0" y2="60.0" />
		<line x1="0.0" x2="-480.0" y1="0.0" y2="30.0" />
		<line x1="-280.0" x2="-310.0" y1="60.0" y2="90.0" />
		<line x1="-280.0" x2="-290.0" y1="60.0" y2="90.0" />
		<line x1="-280.0" x2="-270.0" y1="60.0" y2="90.0" />
		<line x1="-280.0" x2="-250.0" y1="60.0" y2="90.0" />
		<line x1="-160.0" x2="-280.0" y1="30.0" y2="60.0" />
		<line x1="-200.0" x2="-230.0" y1="60.0" y2="90.0" />
		<line x1="-200.0" x2="-210.0" y1="60.0" y2="90.0" />
		<line x1="-200.0" x2="-190.0" y1="60.0" y2="90.0" />
		<line x1="-200.0" x2="-170.0" y1="60.0" y2="90.0" />
		<line x1="-160.0" x2="-200.0" y1="30.0" y2="60.0" />
		<line x1="-120.0" x2="-150.0" y1="60.0" y2="90.0" />
		<line x1="-120.0" x2="-130.0" y1="60.0" y2="90.0" />
		<line x1="-120.0" x2="-110.0" y1="60.0" y2="90.0" />
		<line x1="-120.0" x2="-90.0" y1="60.0" y2="90.0" />
		<line x1="-160.0" x2="-120.0" y1="30.0" y2="60.0" />
		<line x1="-40.0" x2="-70.0" y1="60.0" y2="90.0" />
		<line x1="-40.0" x2="-50.0" y1="60.0" y2="90.0" />
		<line x1="-40.0" x2="-30.0" y1="60.0" y2="90.0" />
		<line x1="-40.0" x2="-10.0" y1="60.0" y2="90.0" />
		<line x1="-160.0" x2="-40.0" y1="30.0" y2="60.0" />
		<line x1="0.0" x2="-160.0" y1="0.0" y2="30.0" />
		<line x1="40.0" x2="10.0" y1="60.0" y2="90.0" />
		<line x1="40.0" x2="30.0" y1="60.0" y2="90.0" />
		<line x1="40.0" x2="50.0" y1="60.0" y2="90.0" />
		<line x1="40.0" x2="70.0" y1="60.0" y2="90.0" />
		<line x1="160.0" x2="40.0" y1="30.0" y2="60.0" />
		<line x1="120.0" x2="90.0" y1="60.0" y2="90.0" />
		<line x1="120.0" x2="110.0" y1="60.0" y2="90.0" />
		<line x1="120.0" x2="130.0" y1="60.0" y2="90.0" />
		<line x1="120.0" x2="150.0" y1="60.0" y2="90.0" />
		<line x1="160.0" x2="120.0" y1="30.0" y2="60.0" />
		<line x1="200.0" x2="170.0" y1="60.0" y2="90.0" />
		<line x1="200.0" x2="190.0" y1="60.0" y2="90.0" />
		<line x1="200.0" x2="210.0" y1="60.0" y2="90.0" />
		<line x1="200.0" x2="230.0" y1="60.0" y2="90.0" />
		<line x1="160.0" x2="200.0" y1="30.0" y2="60.0" />
		<line x1="280.0" x2="250.0" y1="60.0" y2="90.0" />
		<line x1="280.0" x2="270.0" y1="60.0" y2="90.0" />
		<line x1="280.0" x2="290.0" y1="60.0" y2="90.0" />
		<line x1="280.0" x2="310.0" y1="60.0" y2="90.0" />
		<line x1="160.0" x2="280.0" y1="30.0" y2="60.0" />
		<line x1="0.0" x2="160.0" y1="0.0" y2="30.0" />
		<line x1="360.0" x2="330.0" y1="60.0" y2="90.0" />
		<line x1="360.0" x2="350.0" y1="60.0" y2="90.0" />
		<line x1="360.0" x2="370.0" y1="60.0" y2="90.0" />
		<line x1="360.0" x2="390.0" y1="60.0" y2="90.0" />
		<line x1="480.0" x2="360.0" y1="30.0" y2="60.0" />
		<line x1="440.0" x2="410.0" y1="60.0" y2="90.0" />
		<line x1="440.0" x2="430.0" y1="60.0" y2="90.0" />
		<line x1="440.0" x2="450.0" y1="60.0" y2="90.0" />
		<line x1="440.0" x2="470.0" y1="60.0" y2="90.0" />
		<line x1="480.0" x2="440.0" y1="30.0" y2="60.0" />
		<line x1="520.0" x2="490.0" y1="60.0" y2="90.0" />
		<line x1="520.0" x2="510.0" y1="60.0" y2="90.0" />
		<line x1="520.0" x2="530.0" y1="60.0" y2="90.0" />
		<line x1="520.0" x2="550.0" y1="60.0" y2="90.0" />
		<line x1="480.0" x2="520.0" y1="30.0" y2="60.0" />
		<line x1="600.0" x2="570.0" y1="60.0" y2="90.0" />
		<line x1="600.0" x2="590.0" y1="60.0" y2="90.0" />
		<line x1="600.0" x2="610.0" y1="60.0" y2="90.0" />
		<line x1="600.0" x2="630.0" y1="60.0" y2="90.0" />
		<line x1="480.0" x2="600.0" y1="30.0" y2="60.0" />
		<line x1="0.0" x2="480.0" y1="0.0" y2="30.0" />
	</g>
	<g class="vertices">
		<circle cx="0.0" cy="0.0" r="5.0" />
		<circle cx="-480.0" cy="30.0" r="5.0" />
		<circle cx="-600.0" cy="60.0" r="5.0" />
		<circle cx="-630.0" cy="90.0" r="5.0" />
		<circle cx="-610.0" cy="90.0" r="5.0" />
		<circle cx="-590.0" cy="90.0" r="5.0" />
		<circle cx="-570.0" cy="90.0" r="5.0" />
		<circle cx="-520.0" cy="60.0" r="5.0" />
		<circle cx="-550.0" cy="90.0" r="5.0" />
		<circle cx="-530.0" cy="90.0" r="5.0" />
		<circle cx="-510.0" cy="90.0" r="5.0" />
		<circle cx="-490.0" cy="90.0" r="5.0" />
		<circle cx="-440.0" cy="60.0" r="5.0" />
		<circle cx="-470.0" cy="90.0" r="5.0" />
		<circle cx="-450.0" cy="90.0" r="5.0" />
		<circle cx="-430.0" cy="90.0" r="5.0" />
		<circle cx="-410.0" cy="90.0" r="5.0" />
		<circle cx="-360.0" cy="60.0" r="5.0" />
		<circle cx="-390.0" cy="90.0" r="5.0" />
		<circle cx="-370.0" cy="90.0" r="5.0" />
		<circle cx="-350.0" cy="90.0" r="5.0" />
		<circle cx="-330.0" cy="90.0" r="5.0" />
		<circle cx="-160.0" cy="30.0" r="5.0" />
		<circle cx="-280.0" cy="60.0" r="5.0" />
		<circle cx="-310.0" cy="90.0" r="5.0" />
		<circle cx="-290.0" cy="90.0" r="5.0" />
		<circle cx="-270.0" cy="90.0" r="5.0" />
		<circle cx="-250.0" cy="90.0" r="5.0" />
		<circle cx="-200.0" cy="60.0" r="5.0" />
		<circle cx="-230.0" cy="90.0" r="5.0" />
		<circle cx="-210.0" cy="90.0" r="5.0" />
		<circle cx="-190.0" cy="90.0" r="5.0" />
		<circle cx="-170.0" cy="90.0" r="5.0" />
		<circle cx="-120.0" cy="60.0" r="5.0" />
		<circle cx="-150.0" cy="90.0" r="5.0" />
		<circle cx="-130.0" cy="90.0" r="5.0" />
		<circle cx="-110.0" cy="90.0" r="5.0" />
		<circle cx="-90.0" cy="90.0" r="5.0" />
		<circle cx="-40.0" cy="60.0" r="5.0" />
		<circle cx="-70.0" cy="90.0" r="5.0" />
		<circle cx="-50.0" cy="90.0" r="5.0" />
		<circle cx="-30.0" cy="90.0" r="5.0" />
		<circle cx="-10.0" cy="90.0" r="5.0" />
		<circle cx="160.0" cy="30.0" r="5.0" />
		<circle cx="40.0" cy="60.0" r="5.0" />
		<circle cx="10.0" cy="90.0" r="5.0" />
		<circle cx="30.0" cy="90.0" r="5.0" />
		<circle cx="50.0" cy="90.0" r="5.0" />
		<circle cx="70.0" cy="90.0" r="5.0" />
		<circle cx="120.0" cy="60.0" r="5.0" />
		<circle cx="90.0" cy="90.0" r="5.0" />
		<circle cx="110.0" cy="90.0" r="5.0" />
		<circle cx="130.0" cy="90.0" r="5.0" />
		<circle cx="150.0" cy="90.0" r="5.0" />
		<circle cx="200.0" cy="60.0" r="5.0" />
		<circle cx="170.0" cy="90.0" r="5.0" />
		<circle cx="190.0" cy="90.0" r="5.0" />
		<circle cx="210.0" cy="90.0" r="5.0" />
		<circle cx="230.0" cy="90.0" r="5.0" />
		<circle cx="280.0" cy="60.0" r="5.0" />
		<circle cx="250.0" cy="90.0" r="5.0" />
		<circle cx="270.0" cy="90.0" r="5.0" />
		<circle cx="290.0" cy="90.0" r="5.0" />
		<circle cx="310.0" cy="90.0" r="5.0" />
		<circle cx="480.0" cy="30.0" r="5.0" />
		<circle cx="360.0" cy="60.0" r="5.0" />
		<circle cx="330.0" cy="90.0" r="5.0" />
		<circle cx="350.0" cy="90.0" r="5.0" />
		<circle cx="370.0" cy="90.0" r="5.0" />
		<circle cx="390.0" cy="90.0" r="5.0" />
		<circle cx="440.0" cy="60.0" r="5.0" />
		<circle cx="410.0" cy="90.0" r="5.0" />
		<circle cx="430.0" cy="90.0" r="5.0" />
		<circle cx="450.0" cy="90.0" r="5.0" />
		<circle cx="470.0" cy="90.0" r="5.0" />
		<circle cx="520.0" cy="60.0" r="5.0" />
		<circle cx="490.0" cy="90.0" r="5.0" />
		<circle cx="510.0" cy="90.0" r="5.0" />
		<circle cx="530.0" cy="90.0" r="5.0" />
		<circle cx="550.0" cy="90.0" r="5.0" />
		<circle cx="600.0" cy="60.0" r="5.0" />
		<circle cx="570.0" cy="90.0" r="5.0" />
		<circle cx="590.0" cy="90.0" r="5.0" />
		<circle cx="610.0" cy="90.0" r="5.0" />
		<circle cx="630.0" cy="90.0" r="5.0" />
	</g>
</svg>