<svg height="140.0" viewBox="-1265.0 -25.0 2530.0 140.0" width="2530.0" xmlns="http://www.w3.org/2000/svg">
	<style type="text/css">
		<![CDATA[
			circle.leaf {
				text-anchor: middle;
			}
			circle.left_node {
				text-anchor: end;
			}
		]]>
	</style>
	<g class="edges" stroke="black" stroke-width="1px">
		<line x1="-1200.0" x2="-1240.0" y1="60.0" y2="90.0" />
		<line x1="-1200.0" x2="-1220.0" y1="60.0" y2="90.0" />
		<line x1="-1200.0" x2="-1200.0" y1="60.0" y2="90.0" />
		<line x1="-1200.0" x2="-1180.0" y1="60.0" y2="90.0" />
		<line x1="-1200.0" x2="-1160.0" y1="60.0" y2="90.0" />
		<line x1="-1000.0" x2="-1200.0" y1="30.0" y2="60.0" />
		<line x1="-1100.0" x2="-1140.0" y1="60.0" y2="90.0" />
		<line x1="-1100.0" x2="-1120.0" y1="60.0" y2="90.0" />
		<line x1="-1100.0" x2="-1100.0" y1="60.0" y2="90.0" />
		<line x1="-1100.0" x2="-1080.0" y1="60.0" y2="90.0" />
		<line x1="-1100.0" x2="-1060.0" y1="60.0" y2="90.0" />
		<line x1="-1000.0" x2="-1100.0" y1="30.0" y2="60.0" />
		<line x1="-1000.0" x2="-1040.0" y1="60.0" y2="90.0" />
		<line x1="-1000.0" x2="-1020.0" y1="60.0" y2="90.0" />
		<line x1="-1000.0" x2="-1000.0" y1="60.0" y2="90.0" />
		<line x1="-1000.0" x2="-980.0" y1="60.0" y2="90.0" />
		<line x1="-1000.0" x2="-960.0" y1="60.0" y2="90.0" />
		<line x1="-1000.0" x2="-1000.0" y1="30.0" y2="60.0" />
		<line x1="-900.0" x2="-940.0" y1="60.0" y2="90.0" />
		<line x1="-900.0" x2="-920.0" y1="60.0" y2="90.0" />
		<line x1="-900.0" x2="-900.0" y1="60.0" y2="90.0" />
		<line x1="-900.0" x2="-880.0" y1="60.0" y2="90.0" />
		<line x1="-900.0" x2="-860.0" y1="60.0" y2="90.0" />
		<line x1="-1000.0" x2="-900.0" y1="30.0" y2="60.0" />
		<line x1="-800.0" x2="-840.0" y1="60.0" y2="90.0" />
		<line x1="-800.0" x2="-820.0" y1="60.0" y2="90.0" />
		<line x1="-800.0" x2="-800.0" y1="60.0" y2="90.0" />
		<line x1="-800.0" x2="-780.0" y1="60.0" y2="90.0" />
		<line x1="-800.0" x2="-760.0" y1="60.0" y2="90.0" />
		<line x1="-1000.0" x2="-800.0" y1="30.0" y2="60.0" />
		<line x1="0.0" x2="-1000.0" y1="0.0" y2="30.0" />
		<line x1="-700.0" x2="-740.0" y1="60.0" y2="90.0" />
		<line x1="-700.0" x2="-720.0" y1="60.0" y2="90.0" />
		<line x1="-700.0" x2="-700.0" y1="60.0" y2="90.0" />
		<line x1="-700.0" x2="-680.0" y1="60.0" y2="90.0" />
		<line x1="-700.0" x2="-660.0" y1="60.0" y2="90.0" />
		<line x1="-500.0" x2="-700.0" y1="30.0" y2="60.0" />
		<line x1="-600.0" x2="-640.0" y1="60.0" y2="90.0" />
		<line x1="-600.0" x2="-620.0" y1="60.0" y2="90.0" />
		<line x1="-600.0" x2="-600.0" y1="60.0" y2="90.0" />
		<line x1="-600.0" x2="-580.0" y1="60.0" y2="90.0" />
		<line x1="-600.0" x2="-560.0" y1="60.0" y2="90.0" />
		<line x1="-500.0" x2="-600.0" y1="30.0" y2="60.0" />
		<line x1="-500.0" x2="-540.0" y1="60.0" y2="90.0" />
		<line x1="-500.0" x2="-520.0" y1="60.0" y2="90.0" />
		<line x1="-500.0" x2="-500.0" y1="60.0" y2="90.0" />
		<line x1="-500.0" x2="-480.0" y1="60.0" y2="90.0" />
		<line x1="-500.0" x2="-460.0" y1="60.0" y2="90.0" />
		<line x1="-500.0" x2="-500.0" y1="30.0" y2="60.0" />
		<line x1="-400.0" x2="-440.0" y1="60.0" y2="90.0" />
		<line x1="-400.0" x2="-420.0" y1="60.0" y2="90.0" />
		<line x1="-400.0" x2="-400.0" y1="60.0" y2="90.0" />
		<line x1="-400.0" x2="-380.0" y1="60.0" y2="90.0" />
		<line x1="-400.0" x2="-360.0" y1="60.0" y2="90.0" />
		<line x1="-500.0" x2="-400.0" y1="30.0" y2="60.0" />
		<line x1="-300.0" x2="-340.0" y1="60.0" y2="90.0" />
		<line x1="-300.0" x2="-320.0" y1="60.0" y2="90.0" />
		<line x1="-300.0" x2="-300.0" y1="60.0" y2="90.0" />
		<line x1="-300.0" x2="-280.0" y1="60.0" y2="90.0" />
		<line x1="-300.0" x2="-260.0" y1="60.0" y2="90.0" />
		<line x1="-500.0" x2="-300.0" y1="30.0" y2="60.0" />
		<line x1="0.0" x2="-500.0" y1="0.0" y2="30.0" />
		<line x1="-200.0" x2="-240.0" y1="60.0" y2="90.0" />
		<line x1="-200.0" x2="-220.0" y1="60.0" y2="90.0" />
		<line x1="-200.0" x2="-200.0" y1="60.0" y2="90.0" />
		<line x1="-200.0" x2="-180.0" y1="60.0" y2="90.0" />
		<line x1="-200.0" x2="-160.0" y1="60.0" y2="90.0" />
		<line x1="0.0" x2="-200.0" y1="30.0" y2="60.0" />
		<line x1="-100.0" x2="-140.0" y1="60.0" y2="90.0" />
		<line x1="-100.0" x2="-120.0" y1="60.0" y2="90.0" />
		<line x1="-100.0" x2="-100.0" y1="60.0" y2="90.0" />
		<line x1="-100.0" x2="-80.0" y1="60.0" y2="90.0" />
		<line x1="-100.0" x2="-60.0" y1="60.0" y2="90.0" />
		<line x1="0.0" x2="-100.0" y1="30.0" y2="60.0" />
		<line x1="0.0" x2="-40.0" y1="60.0" y2="90.0" />
		<line x1="0.0" x2="-20.0" y1="60.0" y2="90.0" />
		<line x1="0.0" x2="0.0" y1="60.0" y2="90.0" />
		<line x1="0.0" x2="20.0" y1="60.0" y2="90.0" />
		<line x1="0.0" x2="40.0" y1="60.0" y2="90.0" />
		<line x1="0.0" x2="0.0" y1="30.0" y2="60.0" />
		<line x1="100.0" x2="60.0" y1="60.0" y2="90.0" />
		<line x1="100.0" x2="80.0" y1="60.0" y2="90.0" />
		<line x1="100.0" x2="100.0" y1="60.0" y2="90.0" />
		<line x1="100.0" x2="120.0" y1="60.0" y2="90.0" />
		<line x1="100.0" x2="140.0" y1="60.0" y2="90.0" />
		<line x1="0.0" x2="100.0" y1="30.0" y2="60.0" />
		<line x1="200.0" x2="160.0" y1="60.0" y2="90.0" />
		<line x1="200.0" x2="180.0" y1="60.0" y2="90.0" />
		<line x1="200.0" x2="200.0" y1="60.0" y2="90.0" />
		<line x1="200.0" x2="220.0" y1="60.0" y2="90.0" />
		<line x1="200.0" x2="240.0" y1="60.0" y2="90.0" />
		<line x1="0.0" x2="200.0" y1="30.0" y2="60.0" />
		<line x1="0.0" x2="0.0" y1="0.0" y2="30.0" />
		<line x1="300.0" x2="260.0" y1="60.0" y2="90.0" />
		<line x1="300.0" x2="280.0" y1="60.0" y2="90.0" />
		<line x1="300.0" x2="300.0" y1="60.0" y2="90.0" />
		<line x1="300.0" x2="320.0" y1="60.0" y2="90.0" />
		<line x1="300.0" x2="340.0" y1="60.0" y2="90.0" />
		<line x1="500.0" x2="300.0" y1="30.0" y2="60.0" />
		<line x1="400.0" x2="360.0" y1="60.0" y2="90.0" />
		<line x1="400.0" x2="380.0" y1="60.0" y2="90.0" />
		<line x1="400.0" x2="400.0" y1="60.0" y2="90.0" />
		<line x1="400.0" x2="420.0" y1="60.0" y2="90.0" />
		<line x1="400.0" x2="440.0" y1="60.0" y2="90.0" />
		<line x1="500.0" x2="400.0" y1="30.0" y2="60.0" />
		<line x1="500.0" x2="460.0" y1="60.0" y2="90.0" />
		<line x1="500.0" x2="480.0" y1="60.0" y2="90.0" />
		<line x1="500.0" x2="500.0" y1="60.0" y2="90.0" />
		<line x1="500.0" x2="520.0" y1="60.0" y2="90.0" />
		<line x1="500.0" x2="540.0" y1="60.0" y2="90.0" />
		<line x1="500.0" x2="500.0" y1="30.0" y2="60.0" />
		<line x1="600.0" x2="560.0" y1="60.0" y2="90.0" />
		<line x1="600.0" x2="580.0" y1="60.0" y2="90.0" />
		<line x1="600.0" x2="600.0" y1="60.0" y2="90.0" />
		<line x1="600.0" x2="620.0" y1="60.0" y2="90.0" />
		<line x1="600.0" x2="640.0" y1="60.0" y2="90.0" />
		<line x1="500.0" x2="600.0" y1="30.0" y2="60.0" />
		<line x1="700.0" x2="660.0" y1="60.0" y2="90.0" />
		<line x1="700.0" x2="680.0" y1="60.0" y2="90.0" />
		<line x1="700.0" x2="700.0" y1="60.0" y2="90.0" />
		<line x1="700.0" x2="720.0" y1="60.0" y2="90.0" />
		<line x1="700.0" x2="740.0" y1="60.0" y2="90.0" />
		<line x1="500.0" x2="700.0" y1="30.0" y2="60.0" />
		<line x1="0.0" x2="500.0" y1="0.0" y2="30.0" />
		<line x1="800.0" x2="760.0" y1="60.0" y2="90.0" />
		<line x1="800.0" x2="780.0" y1="60.0" y2="90.0" />
		<line x1="800.0" x2="800.0" y1="60.0" y2="90.0" />
		<line x1="800.0" x2="820.0" y1="60.0" y2="90.0" />
		<line x1="800.0" x2="840.0" y1="60.0" y2="90.0" />
		<line x1="1000.0" x2="800.0" y1="30.0" y2="60.0" />
		<line x1="900.0" x2="860.0" y1="60.0" y2="90.0" />
		<line x1="900.0" x2="880.0" y1="60.0" y2="90.0" />
		<line x1="900.0" x2="900.0" y1="60.0" y2="90.0" />
		<line x1="900.0" x2="920.0" y1="60.0" y2="90.0" />
		<line x1="900.0" x2="940.0" y1="60.0" y2="90.0" />
		<line x1="1000.0" x2="900.0" y1="30.0" y2="60.0" />
		<line x1="1000.0" x2="960.0" y1="60.0" y2="90.0" />
		<line x1="1000.0" x2="980.0" y1="60.0" y2="90.0" />
		<line x1="1000.0" x2="1000.0" y1="60.0" y2="90.0" />
		<line x1="1000.0" x2="1020.0" y1="60.0" y2="90.0" />
		<line x1="1000.0" x2="1040.0" y1="60.0" y2="90.0" />
		<line x1="1000.0" x2="1000.0" y1="30.0" y2="60.0" />
		<line x1="1100.0" x2="1060.0" y1="60.0" y2="90.0" />
		<line x1="1100.0" x2="1080.0" y1="60.0" y2="90.0" />
		<line x1="1100.0" x2="1100.0" y1="60.0" y2="90.0" />
		<line x1="1100.0" x2="1120.0" y1="60.0" y2="90.0" />
		<line x1="1100.0" x2="1140.0" y1="60.0" y2="90.0" />
		<line x1="1000.0" x2="1100.0" y1="30.0" y2="60.0" />
		<line x1="1200.0" x2="1160.0" y1="60.0" y2="90.0" />
		<line x1="1200.0" x2="1180.0" y1="60.0" y2="90.0" />
		<line x1="1200.0" x2="1200.0" y1="60.0" y2="90.0" />
		<line x1="1200.0" x2="1220.0" y1="60.0" y2="90.0" />
		<line x1="1200.0" x2="1240.0" y1="60.0" y2="90.0" />
		<line x1="1000.0" x2="1200.0" y1="30.0" y2="60.0" />
		<line x1="0.0" x2="1000.0" y1="0.0" y2="30.0" />
	</g>
	<g class="vertices">
		<circle cx="0.0" cy="0.0" r="5.0" />
		<circle cx="-1000.0" cy="30.0" r="5.0" />
		<circle cx="-1200.0" cy="60.0" r="5.0" />
		<circle cx="-1240.0" cy="90.0" r="5.0" />
		<circle cx="-1220.0" cy="90.0" r="5.0" />
		<circle cx="-1200.0" cy="90.0" r="5.0" />
		<circle cx="-1180.0" cy="90.0" r="5.0" />
		<circle cx="-1160.0" cy="90.0" r="5.0" />
		<circle cx="-1100.0" cy="60.0" r="5.0" />
		<circle cx="-1140.0" cy="90.0" r="5.0" />
		<circle cx="-1120.0" cy="90.0" r="5.0" />
		<circle cx="-1100.0" cy="90.0" r="5.0" />
		<circle cx="-1080.0" cy="90.0" r="5.0" />
		<circle cx="-1060.0" cy="90.0" r="5.0" />
		<circle cx="-1000.0" cy="60.0" r="5.0" />
		<circle cx="-1040.0" cy="90.0" r="5.0" />
		<circle cx="-1020.0" cy="90.0" r="5.0" />
		<circle cx="-1000.0" cy="90.0" r="5.0" />
		<circle cx="-980.0" cy="90.0" r="5.0" />
		<circle cx="-960.0" cy="90.0" r="5.0" />
		<circle cx="-900.0" cy="60.0" r="5.0" />
		<circle cx="-940.0" cy="90.0" r="5.0" />
		<circle cx="-920.0" cy="90.0" r="5.0" />
		<circle cx="-900.0" cy="90.0" r="5.0" />
		<circle cx="-880.0" cy="90.0" r="5.0" />
		<circle cx="-860.0" cy="90.0" r="5.0" />
		<circle cx="-800.0" cy="60.0" r="5.0" />
		<circle cx="-840.0" cy="90.0" r="5.0" />
		<circle cx="-820.0" cy="90.0" r="5.0" />
		<circle cx="-800.0" cy="90.0" r="5.0" />
		<circle cx="-780.0" cy="90.0" r="5.0" />
		<circle cx="-760.0" cy="90.0" r="5.0" />
		<circle cx="-500.0" cy="30.0" r="5.0" />
		<circle cx="-700.0" cy="60.0" r="5.0" />
		<circle cx="-740.0" cy="90.0" r="5.0" />
		<circle cx="-720.0" cy="90.0" r="5.0" />
		<circle cx="-700.0" cy="90.0" r="5.0" />
		<circle cx="-680.0" cy="90.0" r="5.0" />
		<circle cx="-660.0" cy="90.0" r="5.0" />
		<circle cx="-600.0" cy="60.0" r="5.0" />
		<circle cx="-640.0" cy="90.0" r="5.0" />
		<circle cx="-620.0" cy="90.0" r="5.0" />
		<circle cx="-600.0" cy="90.0" r="5.0" />
		<circle cx="-580.0" cy="90.0" r="5.0" />
		<circle cx="-560.0" cy="90.0" r="5.0" />
		<circle cx="-500.0" cy="60.0" r="5.0" />
		<circle cx="-540.0" cy="90.0" r="5.0" />
		<circle cx="-520.0" cy="90.0" r="5.0" />
		<circle cx="-500.0" cy="90.0" r="5.0" />
		<circle cx="-480.0" cy="90.0" r="5.0" />
		<circle cx="-460.0" cy="90.0" r="5.0" />
		<circle cx="-400.0" cy="60.0" r="5.0" />
		<circle cx="-440.0" cy="90.0" r="5.0" />
		<circle cx="-420.0" cy="90.0" r="5.0" />
		<circle cx="-400.0" cy="90.0" r="5.0" />
		<circle cx="-380.0" cy="90.0" r="5.0" />
		<circle cx="-360.0" cy="90.0" r="5.0" />
		<circle cx="-300.0" cy="60.0" r="5.0" />
		<circle cx="-340.0" cy="90.0" r="5.0" />
		<circle cx="-320.0" cy="90.0" r="5.0" />
		<circle cx="-300.0" cy="90.0" r="5.0" />
		<circle cx="-280.0" cy="90.0" r="5.0" />
		<circle cx="-260.0" cy="90.0" r="5.0" />
		<circle cx="0.0" cy="30.0" r="5.0" />
		<circle cx="-200.0" cy="60.0" r="5.0" />
		<circle cx="-240.0" cy="90.0" r="5.0" />
		<circle cx="-220.0" cy="90.0" r="5.0" />
		<circle cx="-200.0" cy="90.0" r="5.0" />
		<circle cx="-180.0" cy="90.0" r="5.0" />
		<circle cx="-160.0" cy="90.0" r="5.0" />
		<circle cx="-100.0" cy="60.0" r="5.0" />
		<circle cx="-140.0" cy="90.0" r="5.0" />
		<circle cx="-120.0" cy="90.0" r="5.0" />
		<circle cx="-100.0" cy="90.0" r="5.0" />
		<circle cx="-80.0" cy="90.0" r="5.0" />
		<circle cx="-60.0" cy="90.0" r="5.0" />
		<circle cx="0.0" cy="60.0" r="5.0" />
		<circle cx="-40.0" cy="90.0" r="5.0" />
		<circle cx="-20.0" cy="90.0" r="5.0" />
		<circle cx="0.0" cy="90.0" r="5.0" />
		<circle cx="20.0" cy="90.0" r="5.0" />
		<circle cx="40.0" cy="90.0" r="5.0" />
		<circle cx="100.0" cy="60.0" r="5.0" />
		<circle cx="60.0" cy="90.0" r="5.0" />
		<circle cx="80.0" cy="90.0" r="5.0" />
		<circle cx="100.0" cy="90.0" r="5.0" />
		<circle cx="120.0" cy="90.0" r="5.0" />
		<circle cx="140.0" cy="90.0" r="5.0" />
		<circle cx="200.0" cy="60.0" r="5.0" />
		<circle cx="160.0" cy="90.0" r="5.0" />
		<circle cx="180.0" cy="90.0" r="5.0" />
		<circle cx="200.0" cy="90.0" r="5.0" />
		<circle cx="220.0" cy="90.0" r="5.0" />
		<circle cx="240.0" cy="90.0" r="5.0" />
		<circle cx="500.0" cy="30.0" r="5.0" />
		<circle cx="300.0" cy="60.0" r="5.0" />
		<circle cx="260.0" cy="90.0" r="5.0" />
		<circle cx="280.0" cy="90.0" r="5.0" />
		<circle cx="300.0" cy="90.0" r="5.0" />
		<circle cx="320.0" cy="90.0" r="5.0" />
		<circle cx="340.0" cy="90.0" r="5.0" />
		<circle cx="400.0" cy="60.0" r="5.0" />
		<circle cx="360.0" cy="90.0" r="5.0" />
		<circle cx="380.0" cy="90.0" r="5.0" />
		<circle cx="400.0" cy="90.0" r="5.0" />
		<circle cx="420.0" cy="90.0" r="5.0" />
		<circle cx="440.0" cy="90.0" r="5.0" />
		<circle cx="500.0" cy="60.0" r="5.0" />
		<circle cx="460.0" cy="90.0" r="5.0" />
		<circle cx="480.0" cy="90.0" r="5.0" />
		<circle cx="500.0" cy="90.0" r="5.0" />
		<circle cx="520.0" cy="90.0" r="5.0" />
		<circle cx="540.0" cy="90.0" r="5.0" />
		<circle cx="600.0" cy="60.0" r="5.0" />
		<circle cx="560.0" cy="90.0" r="5.0" />
		<circle cx="580.0" cy="90.0" r="5.0" />
		<circle cx="600.0" cy="90.0" r="5.0" />
		<circle cx="620.0" cy="90.0" r="5.0" />
		<circle cx="640.0" cy="90.0" r="5.0" />
		<circle cx="700.0" cy="60.0" r="5.0" />
		<circle cx="660.0" cy="90.0" r="5.0" />
		<circle cx="680.0" cy="90.0" r="5.0" />
		<circle cx="700.0" cy="90.0" r="5.0" />
		<circle cx="720.0" cy="90.0" r="5.0" />
		<circle cx="740.0" cy="90.0" r="5.0" />
		<circle cx="1000.0" cy="30.0" r="5.0" />
		<circle cx="800.0" cy="60.0" r="5.0" />
		<circle cx="760.0" cy="90.0" r="5.0" />
		<circle cx="780.0" cy="90.0" r="5.0" />
		<circle cx="800.0" cy="90.0" r="5.0" />
		<circle cx="820.0" cy="90.0" r="5.0" />
		<circle cx="840.0" cy="90.0" r="5.0" />
		<circle cx="900.0" cy="60.0" r="5.0" />
		<circle cx="860.0" cy="90.0" r="5.0" />
		<circle cx="880.0" cy="90.0" r="5.0" />
		<circle cx="900.0" cy="90.0" r="5.0" />
		<circle cx="920.0" cy="90.0" r="5.0" />
		<circle cx="940.0" cy="90.0" r="5.0" />
		<circle cx="1000.0" cy="60.0" r="5.0" />
		<circle cx="960.0" cy="90.0" r="5.0" />
		<circle cx="980.0" cy="90.0" r="5.0" />
		<circle cx="1000.0" cy="90.0" r="5.0" />
		<circle cx="1020.0" cy="90.0" r="5.0" />
		<circle cx="1040.0" cy="90.0" r="5.0" />
		<circle cx="1100.0" cy="60.0" r="5.0" />
		<circle cx="1060.0" cy="90.0" r="5.0" />
		<circle cx="1080.0" cy="90.0" r="5.0" />
		<circle cx="1100.0" cy="90.0" r="5.0" />
		<circle cx="1120.0" cy="90.0" r="5.0" />
		<circle cx="1140.0" cy="90.0" r="5.0" />
		<circle cx="1200.0" cy="60.0" r="5.0" />
		<circle cx="1160.0" cy="90.0" r="5.0" />
		<circle cx="1180.0" cy="90.0" r="5.0" />
		<circle cx="1200.0" cy="90.0" r="5.0" />
		<circle cx="1220.0" cy="90.0" r="5.0" />
		<circle cx="1240.0" cy="90.0" r="5.0" />
	</g>
</svg>