<svg height="110.0" viewBox="-375.0 -25.0 750.0 110.0" width="750.0" xmlns="http://www.w3.org/2000/svg">
	<style type="text/css">
		<![CDATA[
			circle.leaf {
				text-anchor: middle;
			}
			circle.left_node {
				text-anchor: end;
			}
		]]>
	</style>
	<g class="edges" stroke="black" stroke-width="1px">
		<line x1="-300.0" x2="-350.0" y1="30.0" y2="60.0" />
		<line x1="-300.0" x2="-330.0" y1="30.0" y2="60.0" />
		<line x1="-300.0" x2="-310.0" y1="30.0" y2="60.0" />
		<line x1="-300.0" x2="-290.0" y1="30.0" y2="60.0" />
		<line x1="-300.0" x2="-270.0" y1="30.0" y2="60.0" />
		<line x1="-300.0" x2="-250.0" y1="30.0" y2="60.0" />
		<line x1="0.0" x2="-300.0" y1="0.0" y2="30.0" />
		<line x1="-180.0" x2="-230.0" y1="30.0" y2="60.0" />
		<line x1="-180.0" x2="-210.0" y1="30.0" y2="60.0" />
		<line x1="-180.0" x2="-190.0" y1="30.0" y2="60.0" />
		<line x1="-180.0" x2="-170.0" y1="30.0" y2="60.0" />
		<line x1="-180.0" x2="-150.0" y1="30.0" y2="60.0" />
		<line x1="-180.0" x2="-130.0" y1="30.0" y2="60.0" />
		<line x1="0.0" x2="-180.0" y1="0.0" y2="30.0" />
		<line x1="-60.0" x2="-110.0" y1="30.0" y2="60.0" />
		<line x1="-60.0" x2="-90.0" y1="30.0" y2="60.0" />
		<line x1="-60.0" x2="-70.0" y1="30.0" y2="60.0" />
		<line x1="-60.0" x2="-50.0" y1="30.0" y2="60.0" />
		<line x1="-60.0" x2="-30.0" y1="30.0" y2="60.0" />
		<line x1="-60.0" x2="-10.0" y1="30.0" y2="60.0" />
		<line x1="0.0" x2="-60.0" y1="0.0" y2="30.0" />
		<line x1="60.0" x2="10.0" y1="30.0" y2="60.0" />
		<line x1="60.0" x2="30.0" y1="30.0" y2="60.0" />
		<line x1="60.0" x2="50.0" y1="30.0" y2="60.0" />
		<line x1="60.0" x2="70.0" y1="30.0" y2="60.0" />
		<line x1="60.0" x2="90.0" y1="30.0" y2="60.0" />
		<line x1="60.0" x2="110.0" y1="30.0" y2="60.0" />
		<line x1="0.0" x2="60.0" y1="0.0" y2="30.0" />
		<line x1="180.0" x2="130.0" y1="30.0" y2="60.0" />
		<line x1="180.0" x2="150.0" y1="30.0" y2="60.0" />
		<line x1="180.0" x2="170.0" y1="30.0" y2="60.0" />
		<line x1="180.0" x2="190.0" y1="30.0" y2="60.0" />
		<line x1="180.0" x2="210.0" y1="30.0" y2="60.0" />
		<line x1="180.0" x2="230.0" y1="30.0" y2="60.0" />
		<line x1="0.0" x2="180.0" y1="0.0" y2="30.0" />
		<line x1="300.0" x2="250.0" y1="30.0" y2="60.0" />
		<line x1="300.0" x2="270.0" y1="30.0" y2="60.0" />
		<line x1="300.0" x2="290.0" y1="30.0" y2="60.0" />
		<line x1="300.0" x2="310.0" y1="30.0" y2="60.0" />
		<line x1="300.0" x2="330.0" y1="30.0" y2="60.0" />
		<line x1="300.0" x2="350.0" y1="30.0" y2="60.0" />
		<line x1="0.0" x2="300.0" y1="0.0" y2="30.0" />
	</g>
	<g class="vertices">
		<circle cx="0.0" cy="0.0" r="5.0" />
		<circle cx="-300.0" cy="30.0" r="5.0" />
		<circle cx="-350.0" cy="60.0" r="5.0" />
		<circle cx="-330.0" cy="60.0" r="5.0" />
		<circle cx="-310.0" cy="60.0" r="5.0" />
		<circle cx="-290.0" cy="60.0" r="5.0" />
		<circle cx="-270.0" cy="60.0" r="5.0" />
		<circle cx="-250.0" cy="60.0" r="5.0" />
		<circle cx="-180.0" cy="30.0" r="5.0" />
		<circle cx="-230.0" cy="60.0" r="5.0" />
		<circle cx="-210.0" cy="60.0" r="5.0" />
		<circle cx="-190.0" cy="60.0" r="5.0" />
		<circle cx="-170.0" cy="60.0" r="5.0" />
		<circle cx="-150.0" cy="60.0" r="5.0" />
		<circle cx="-130.0" cy="60.0" r="5.0" />
		<circle cx="-60.0" cy="30.0" r="5.0" />
		<circle cx="-110.0" cy="60.0" r="5.0" />
		<circle cx="-90.0" cy="60.0" r="5.0" />
		<circle cx="-70.0" cy="60.0" r="5.0" />
		<circle cx="-50.0" cy="60.0" r="5.0" />
		<circle cx="-30.0" cy="60.0" r="5.0" />
		<circle cx="-10.0" cy="60.0" r="5.0" />
		<circle cx="60.0" cy="30.0" r="5.0" />
		<circle cx="10.0" cy="60.0" r="5.0" />
		<circle cx="30.0" cy="60.0" r="5.0" />
		<circle cx="50.0" cy="60.0" r="5.0" />
		<circle cx="70.0" cy="60.0" r="5.0" />
		<circle cx="90.0" cy="60.0" r="5.0" />
		<circle cx="110.0" cy="60.0" r="5.0" />
		<circle cx="180.0" cy="30.0" r="5.0" />
		<circle cx="130.0" cy="60.0" r="5.0" />
		<circle cx="150.0" cy="60.0" r="5.0" />
		<circle cx="170.0" cy="60.0" r="5.0" />
		<circle cx="190.0" cy="60.0" r="5.0" />
		<circle cx="210.0" cy="60.0" r="5.0" />
		<circle cx="230.0" cy="60.0" r="5.0" />
		<circle cx="300.0" cy="30.0" r="5.0" />
		<circle cx="250.0" cy="60.0" r="5.0" />
		<circle cx="270.0" cy="60.0" r="5.0" />
		<circle cx="290.0" cy="60.0" r="5.0" />
		<circle cx="310.0" cy="60.0" r="5.0" />
		<circle cx="330.0" cy="60.0" r="5.0" />
		<circle cx="350.0" cy="60.0" r="5.0" />
	</g>
</svg>