<svg height="200.0" viewBox="-3655.0 -25.0 7310.0 200.0" width="7310.0" xmlns="http://www.w3.org/2000/svg">
	<style type="text/css">
		<![CDATA[
			circle.leaf {
				text-anchor: middle;
			}
			circle.left_node {
				text-anchor: end;
			}
		]]>
	</style>
	<g class="edges" stroke="black" stroke-width="1px">
		<line x1="-3600.0" x2="-3630.0" y1="120.0" y2="150.0" />
		<line x1="-3600.0" x2="-3600.0" y1="120.0" y2="150.0" />
		<line x1="-3600.0" x2="-3570.0" y1="120.0" y2="150.0" />
		<line x1="-3510.0" x2="-3600.0" y1="90.0" y2="120.0" />
		<line x1="-3510.0" x2="-3540.0" y1="120.0" y2="150.0" />
		<line x1="-3510.0" x2="-3510.0" y1="120.0" y2="150.0" />
		<line x1="-3510.0" x2="-3480.0" y1="120.0" y2="150.0" />
		<line x1="-3510.0" x2="-3510.0" y1="90.0" y2="120.0" />
		<line x1="-3420.0" x2="-3450.0" y1="120.0" y2="150.0" />
		<line x1="-3420.0" x2="-3420.0" y1="120.0" y2="150.0" />
		<line x1="-3420.0" x2="-3390.0" y1="120.0" y2="150.0" />
		<line x1="-3510.0" x2="-3420.0" y1="90.0" y2="120.0" />
		<line x1="-3240.0" x2="-3510.0" y1="60.0" y2="90.0" />
		<line x1="-3330.0" x2="-3360.0" y1="120.0" y2="150.0" />
		<line x1="-3330.0" x2="-3330.0" y1="120.0" y2="150.0" />
		<line x1="-3330.0" x2="-3300.0" y1="120.0" y2="150.0" />
		<line x1="-3240.0" x2="-3330.0" y1="90.0" y2="120.0" />
		<line x1="-3240.0" x2="-3270.0" y1="120.0" y2="150.0" />
		<line x1="-3240.0" x2="-3240.0" y1="120.0" y2="150.0" />
		<line x1="-3240.0" x2="-3210.0" y1="120.0" y2="150.0" />
		<line x1="-3240.0" x2="-3240.0" y1="90.0" y2="120.0" />
		<line x1="-3150.0" x2="-3180.0" y1="120.0" y2="150.0" />
		<line x1="-3150.0" x2="-3150.0" y1="120.0" y2="150.0" />
		<line x1="-3150.0" x2="-3120.0" y1="120.0" y2="150.0" />
		<line x1="-3240.0" x2="-3150.0" y1="90.0" y2="120.0" />
		<line x1="-3240.0" x2="-3240.0" y1="60.0" y2="90.0" />
		<line x1="-3060.0" x2="-3090.0" y1="120.0" y2="150.0" />
		<line x1="-3060.0" x2="-3060.0" y1="120.0" y2="150.0" />
		<line x1="-3060.0" x2="-3030.0" y1="120.0" y2="150.0" />
		<line x1="-2970.0" x2="-3060.0" y1="90.0" y2="120.0" />
		<line x1="-2970.0" x2="-3000.0" y1="120.0" y2="150.0" />
		<line x1="-2970.0" x2="-2970.0" y1="120.0" y2="150.0" />
		<line x1="-2970.0" x2="-2940.0" y1="120.0" y2="150.0" />
		<line x1="-2970.0" x2="-2970.0" y1="90.0" y2="120.0" />
		<line x1="-2880.0" x2="-2910.0" y1="120.0" y2="150.0" />
		<line x1="-2880.0" x2="-2880.0" y1="120.0" y2="150.0" />
		<line x1="-2880.0" x2="-2850.0" y1="120.0" y2="150.0" />
		<line x1="-2970.0" x2="-2880.0" y1="90.0" y2="120.0" />
		<line x1="-3240.0" x2="-2970.0" y1="60.0" y2="90.0" />
		<line x1="-2430.0" x2="-3240.0" y1="30.0" y2="60.0" />
		<line x1="-2790.0" x2="-2820.0" y1="120.0" y2="150.0" />
		<line x1="-2790.0" x2="-2790.0" y1="120.0" y2="150.0" />
		<line x1="-2790.0" x2="-2760.0" y1="120.0" y2="150.0" />
		<line x1="-2700.0" x2="-2790.0" y1="90.0" y2="120.0" />
		<line x1="-2700.0" x2="-2730.0" y1="120.0" y2="150.0" />
		<line x1="-2700.0" x2="-2700.0" y1="120.0" y2="150.0" />
		<line x1="-2700.0" x2="-2670.0" y1="120.0" y2="150.0" />
		<line x1="-2700.0" x2="-2700.0" y1="90.0" y2="120.0" />
		<line x1="-2610.0" x2="-2640.0" y1="120.0" y2="150.0" />
		<line x1="-2610.0" x2="-2610.0" y1="120.0" y2="150.0" />
		<line x1="-2610.0" x2="-2580.0" y1="120.0" y2="150.0" />
		<line x1="-2700.0" x2="-2610.0" y1="90.0" y2="120.0" />
		<line x1="-2430.0" x2="-2700.0" y1="60.0" y2="90.0" />
		<line x1="-2520.0" x2="-2550.0" y1="120.0" y2="150.0" />
		<line x1="-2520.0" x2="-2520.0" y1="120.0" y2="150.0" />
		<line x1="-2520.0" x2="-2490.0" y1="120.0" y2="150.0" />
		<line x1="-2430.0" x2="-2520.0" y1="90.0" y2="120.0" />
		<line x1="-2430.0" x2="-2460.0" y1="120.0" y2="150.0" />
		<line x1="-2430.0" x2="-2430.0" y1="120.0" y2="150.0" />
		<line x1="-2430.0" x2="-2400.0" y1="120.0" y2="150.0" />
		<line x1="-2430.0" x2="-2430.0" y1="90.0" y2="120.0" />
		<line x1="-2340.0" x2="-2370.0" y1="120.0" y2="150.0" />
		<line x1="-2340.0" x2="-2340.0" y1="120.0" y2="150.0" />
		<line x1="-2340.0" x2="-2310.0" y1="120.0" y2="150.0" />
		<line x1="-2430.0" x2="-2340.0" y1="90.0" y2="120.0" />
		<line x1="-2430.0" x2="-2430.0" y1="60.0" y2="90.0" />
		<line x1="-2250.0" x2="-2280.0" y1="120.0" y2="150.0" />
		<line x1="-2250.0" x2="-2250.0" y1="120.0" y2="150.0" />
		<line x1="-2250.0" x2="-2220.0" y1="120.0" y2="150.0" />
		<line x1="-2160.0" x2="-2250.0" y1="90.0" y2="120.0" />
		<line x1="-2160.0" x2="-2190.0" y1="120.0" y2="150.0" />
		<line x1="-2160.0" x2="-2160.0" y1="120.0" y2="150.0" />
		<line x1="-2160.0" x2="-2130.0" y1="120.0" y2="150.0" />
		<line x1="-2160.0" x2="-2160.0" y1="90.0" y2="120.0" />
		<line x1="-2070.0" x2="-2100.0" y1="120.0" y2="150.0" />
		<line x1="-2070.0" x2="-2070.0" y1="120.0" y2="150.0" />
		<line x1="-2070.0" x2="-2040.0" y1="120.0" y2="150.0" />
		<line x1="-2160.0" x2="-2070.0" y1="90.0" y2="120.0" />
		<line x1="-2430.0" x2="-2160.0" y1="60.0" y2="90.0" />
		<line x1="-2430.0" x2="-2430.0" y1="30.0" y2="60.0" />
		<line x1="-1980.0" x2="-2010.0" y1="120.0" y2="150.0" />
		<line x1="-1980.0" x2="-1980.0" y1="120.0" y2="150.0" />
		<line x1="-1980.0" x2="-1950.0" y1="120.0" y2="150.0" />
		<line x1="-1890.0" x2="-1980.0" y1="90.0" y2="120.0" />
		<line x1="-1890.0" x2="-1920.0" y1="120.0" y2="150.0" />
		<line x1="-1890.0" x2="-1890.0" y1="120.0" y2="150.0" />
		<line x1="-1890.0" x2="-1860.0" y1="120.0" y2="150.0" />
		<line x1="-1890.0" x2="-1890.0" y1="90.0" y2="120.0" />
		<line x1="-1800.0" x2="-1830.0" y1="120.0" y2="150.0" />
		<line x1="-1800.0" x2="-1800.0" y1="120.0" y2="150.0" />
		<line x1="-1800.0" x2="-1770.0" y1="120.0" y2="150.0" />
		<line x1="-1890.0" x2="-1800.0" y1="90.0" y2="120.0" />
		<line x1="-1620.0" x2="-1890.0" y1="60.0" y2="90.0" />
		<line x1="-1710.0" x2="-1740.0" y1="120.0" y2="150.0" />
		<line x1="-1710.0" x2="-1710.0" y1="120.0" y2="150.0" />
		<line x1="-1710.0" x2="-1680.0" y1="120.0" y2="150.0" />
		<line x1="-1620.0" x2="-1710.0" y1="90.0" y2="120.0" />
		<line x1="-1620.0" x2="-1650.0" y1="120.0" y2="150.0" />
		<line x1="-1620.0" x2="-1620.0" y1="120.0" y2="150.0" />
		<line x1="-1620.0" x2="-1590.0" y1="120.0" y2="150.0" />
		<line x1="-1620.0" x2="-1620.0" y1="90.0" y2="120.0" />
		<line x1="-1530.0" x2="-1560.0" y1="120.0" y2="150.0" />
		<line x1="-1530.0" x2="-1530.0" y1="120.0" y2="150.0" />
		<line x1="-1530.0" x2="-1500.0" y1="120.0" y2="150.0" />
		<line x1="-1620.0" x2="-1530.0" y1="90.0" y2="120.0" />
		<line x1="-1620.0" x2="-1620.0" y1="60.0" y2="90.0" />
		<line x1="-1440.0" x2="-1470.0" y1="120.0" y2="150.0" />
		<line x1="-1440.0" x2="-1440.0" y1="120.0" y2="150.0" />
		<line x1="-1440.0" x2="-1410.0" y1="120.0" y2="150.0" />
		<line x1="-1350.0" x2="-1440.0" y1="90.0" y2="120.0" />
		<line x1="-1350.0" x2="-1380.0" y1="120.0" y2="150.0" />
		<line x1="-1350.0" x2="-1350.0" y1="120.0" y2="150.0" />
		<line x1="-1350.0" x2="-1320.0" y1="120.0" y2="150.0" />
		<line x1="-1350.0" x2="-1350.0" y1="90.0" y2="120.0" />
		<line x1="-1260.0" x2="-1290.0" y1="120.0" y2="150.0" />
		<line x1="-1260.0" x2="-1260.0" y1="120.0" y2="150.0" />
		<line x1="-1260.0" x2="-1230.0" y1="120.0" y2="150.0" />
		<line x1="-1350.0" x2="-1260.0" y1="90.0" y2="120.0" />
		<line x1="-1620.0" x2="-1350.0" y1="60.0" y2="90.0" />
		<line x1="-2430.0" x2="-1620.0" y1="30.0" y2="60.0" />
		<line x1="0.0" x2="-2430.0" y1="0.0" y2="30.0" />
		<line x1="-1170.0" x2="-1200.0" y1="120.0" y2="150.0" />
		<line x1="-1170.0" x2="-1170.0" y1="120.0" y2="150.0" />
		<line x1="-1170.0" x2="-1140.0" y1="120.0" y2="150.0" />
		<line x1="-1080.0" x2="-1170.0" y1="90.0" y2="120.0" />
		<line x1="-1080.0" x2="-1110.0" y1="120.0" y2="150.0" />
		<line x1="-1080.0" x2="-1080.0" y1="120.0" y2="150.0" />
		<line x1="-1080.0" x2="-1050.0" y1="120.0" y2="150.0" />
		<line x1="-1080.0" x2="-1080.0" y1="90.0" y2="120.0" />
		<line x1="-990.0" x2="-1020.0" y1="120.0" y2="150.0" />
		<line x1="-990.0" x2="-990.0" y1="120.0" y2="150.0" />
		<line x1="-990.0" x2="-960.0" y1="120.0" y2="150.0" />
		<line x1="-1080.0" x2="-990.0" y1="90.0" y2="120.0" />
		<line x1="-810.0" x2="-1080.0" y1="60.0" y2="90.0" />
		<line x1="-900.0" x2="-930.0" y1="120.0" y2="150.0" />
		<line x1="-900.0" x2="-900.0" y1="120.0" y2="150.0" />
		<line x1="-900.0" x2="-870.0" y1="120.0" y2="150.0" />
		<line x1="-810.0" x2="-900.0" y1="90.0" y2="120.0" />
		<line x1="-810.0" x2="-840.0" y1="120.0" y2="150.0" />
		<line x1="-810.0" x2="-810.0" y1="120.0" y2="150.0" />
		<line x1="-810.0" x2="-780.0" y1="120.0" y2="150.0" />
		<line x1="-810.0" x2="-810.0" y1="90.0" y2="120.0" />
		<line x1="-720.0" x2="-750.0" y1="120.0" y2="150.0" />
		<line x1="-720.0" x2="-720.0" y1="120.0" y2="150.0" />
		<line x1="-720.0" x2="-690.0" y1="120.0" y2="150.0" />
		<line x1="-810.0" x2="-720.0" y1="90.0" y2="120.0" />
		<line x1="-810.0" x2="-810.0" y1="60.0" y2="90.0" />
		<line x1="-630.0" x2="-660.0" y1="120.0" y2="150.0" />
		<line x1="-630.0" x2="-630.0" y1="120.0" y2="150.0" />
		<line x1="-630.0" x2="-600.0" y1="120.0" y2="150.0" />
		<line x1="-540.0" x2="-630.0" y1="90.0" y2="120.0" />
		<line x1="-540.0" x2="-570.0" y1="120.0" y2="150.0" />
		<line x1="-540.0" x2="-540.0" y1="120.0" y2="150.0" />
		<line x1="-540.0" x2="-510.0" y1="120.0" y2="150.0" />
		<line x1="-540.0" x2="-540.0" y1="90.0" y2="120.0" />
		<line x1="-450.0" x2="-480.0" y1="120.0" y2="150.0" />
		<line x1="-450.0" x2="-450.0" y1="120.0" y2="150.0" />
		<line x1="-450.0" x2="-420.0" y1="120.0" y2="150.0" />
		<line x1="-540.0" x2="-450.0" y1="90.0" y2="120.0" />
		<line x1="-810.0" x2="-540.0" y1="60.0" y2="90.0" />
		<line x1="0.0" x2="-810.0" y1="30.0" y2="60.0" />
		<line x1="-360.0" x2="-390.0" y1="120.0" y2="150.0" />
		<line x1="-360.0" x2="-360.0" y1="120.0" y2="150.0" />
		<line x1="-360.0" x2="-330.0" y1="120.0" y2="150.0" />
		<line x1="-270.0" x2="-360.0" y1="90.0" y2="120.0" />
		<line x1="-270.0" x2="-300.0" y1="120.0" y2="150.0" />
		<line x1="-270.0" x2="-270.0" y1="120.0" y2="150.0" />
		<line x1="-270.0" x2="-240.0" y1="120.0" y2="150.0" />
		<line x1="-270.0" x2="-270.0" y1="90.0" y2="120.0" />
		<line x1="-180.0" x2="-210.0" y1="120.0" y2="150.0" />
		<line x1="-180.0" x2="-180.0" y1="120.0" y2="150.0" />
		<line x1="-180.0" x2="-150.0" y1="120.0" y2="150.0" />
		<line x1="-270.0" x2="-180.0" y1="90.0" y2="120.0" />
		<line x1="0.0" x2="-270.0" y1="60.0" y2="90.0" />
		<line x1="-90.0" x2="-120.0" y1="120.0" y2="150.0" />
		<line x1="-90.0" x2="-90.0" y1="120.0" y2="150.0" />
		<line x1="-90.0" x2="-60.0" y1="120.0" y2="150.0" />
		<line x1="0.0" x2="-90.0" y1="90.0" y2="120.0" />
		<line x1="0.0" x2="-30.0" y1="120.0" y2="150.0" />
		<line x1="0.0" x2="0.0" y1="120.0" y2="150.0" />
		<line x1="0.0" x2="30.0" y1="120.0" y2="150.0" />
		<line x1="0.0" x2="0.0" y1="90.0" y2="120.0" />
		<line x1="90.0" x2="60.0" y1="120.0" y2="150.0" />
		<line x1="90.0" x2="90.0" y1="120.0" y2="150.0" />
		<line x1="90.0" x2="120.0" y1="120.0" y2="150.0" />
		<line x1="0.0" x2="90.0" y1="90.0" y2="120.0" />
		<line x1="0.0" x2="0.0" y1="60.0" y2="90.0" />
		<line x1="180.0" x2="150.0" y1="120.0" y2="150.0" />
		<line x1="180.0" x2="180.0" y1="120.0" y2="150.0" />
		<line x1="180.0" x2="210.0" y1="120.0" y2="150.0" />
		<line x1="270.0" x2="180.0" y1="90.0" y2="120.0" />
		<line x1="270.0" x2="240.0" y1="120.0" y2="150.0" />
		<line x1="270.0" x2="270.0" y1="120.0" y2="150.0" />
		<line x1="270.0" x2="300.0" y1="120.0" y2="150.0" />
		<line x1="270.0" x2="270.0" y1="90.0" y2="120.0" />
		<line x1="360.0" x2="330.0" y1="120.0" y2="150.0" />
		<line x1="360.0" x2="360.0" y1="120.0" y2="150.0" />
		<line x1="360.0" x2="390.0" y1="120.0" y2="150.0" />
		<line x1="270.0" x2="360.0" y1="90.0" y2="120.0" />
		<line x1="0.0" x2="270.0" y1="60.0" y2="90.0" />
		<line x1="0.0" x2="0.0" y1="30.0" y2="60.0" />
		<line x1="450.0" x2="420.0" y1="120.0" y2="150.0" />
		<line x1="450.0" x2="450.0" y1="120.0" y2="150.0" />
		<line x1="450.0" x2="480.0" y1="120.0" y2="150.0" />
		<line x1="540.0" x2="450.0" y1="90.0" y2="120.0" />
		<line x1="540.0" x2="510.0" y1="120.0" y2="150.0" />
		<line x1="540.0" x2="540.0" y1="120.0" y2="150.0" />
		<line x1="540.0" x2="570.0" y1="120.0" y2="150.0" />
		<line x1="540.0" x2="540.0" y1="90.0" y2="120.0" />
		<line x1="630.0" x2="600.0" y1="120.0" y2="150.0" />
		<line x1="630.0" x2="630.0" y1="120.0" y2="150.0" />
		<line x1="630.0" x2="660.0" y1="120.0" y2="150.0" />
		<line x1="540.0" x2="630.0" y1="90.0" y2="120.0" />
		<line x1="810.0" x2="540.0" y1="60.0" y2="90.0" />
		<line x1="720.0" x2="690.0" y1="120.0" y2="150.0" />
		<line x1="720.0" x2="720.0" y1="120.0" y2="150.0" />
		<line x1="720.0" x2="750.0" y1="120.0" y2="150.0" />
		<line x1="810.0" x2="720.0" y1="90.0" y2="120.0" />
		<line x1="810.0" x2="780.0" y1="120.0" y2="150.0" />
		<line x1="810.0" x2="810.0" y1="120.0" y2="150.0" />
		<line x1="810.0" x2="840.0" y1="120.0" y2="150.0" />
		<line x1="810.0" x2="810.0" y1="90.0" y2="120.0" />
		<line x1="900.0" x2="870.0" y1="120.0" y2="150.0" />
		<line x1="900.0" x2="900.0" y1="120.0" y2="150.0" />
		<line x1="900.0" x2="930.0" y1="120.0" y2="150.0" />
		<line x1="810.0" x2="900.0" y1="90.0" y2="120.0" />
		<line x1="810.0" x2="810.0" y1="60.0" y2="90.0" />
		<line x1="990.0" x2="960.0" y1="120.0" y2="150.0" />
		<line x1="990.0" x2="990.0" y1="120.0" y2="150.0" />
		<line x1="990.0" x2="1020.0" y1="120.0" y2="150.0" />
		<line x1="1080.0" x2="990.0" y1="90.0" y2="120.0" />
		<line x1="1080.0" x2="1050.0" y1="120.0" y2="150.0" />
		<line x1="1080.0" x2="1080.0" y1="120.0" y2="150.0" />
		<line x1="1080.0" x2="1110.0" y1="120.0" y2="150.0" />
		<line x1="1080.0" x2="1080.0" y1="90.0" y2="120.0" />
		<line x1="1170.0" x2="1140.0" y1="120.0" y2="150.0" />
		<line x1="1170.0" x2="1170.0" y1="120.0" y2="150.0" />
		<line x1="1170.0" x2="1200.0" y1="120.0" y2="150.0" />
		<line x1="1080.0" x2="1170.0" y1="90.0" y2="120.0" />
		<line x1="810.0" x2="1080.0" y1="60.0" y2="90.0" />
		<line x1="0.0" x2="810.0" y1="30.0" y2="60.0" />
		<line x1="0.0" x2="0.0" y1="0.0" y2="30.0" />
		<line x1="1260.0" x2="1230.0" y1="120.0" y2="150.0" />
		<line x1="1260.0" x2="1260.0" y1="120.0" y2="150.0" />
		<line x1="1260.0" x2="1290.0" y1="120.0" y2="150.0" />
		<line x1="1350.0" x2="1260.0" y1="90.0" y2="120.0" />
		<line x1="1350.0" x2="1320.0" y1="120.0" y2="150.0" />
		<line x1="1350.0" x2="1350.0" y1="120.0" y2="150.0" />
		<line x1="1350.0" x2="1380.0" y1="120.0" y2="150.0" />
		<line x1="1350.0" x2="1350.0" y1="90.0" y2="120.0" />
		<line x1="1440.0" x2="1410.0" y1="120.0" y2="150.0" />
		<line x1="1440.0" x2="1440.0" y1="120.0" y2="150.0" />
		<line x1="1440.0" x2="1470.0" y1="120.0" y2="150.0" />
		<line x1="1350.0" x2="1440.0" y1="90.0" y2="120.0" />
		<line x1="1620.0" x2="1350.0" y1="60.0" y2="90.0" />
		<line x1="1530.0" x2="1500.0" y1="120.0" y2="150.0" />
		<line x1="1530.0" x2="1530.0" y1="120.0" y2="150.0" />
		<line x1="1530.0" x2="1560.0" y1="120.0" y2="150.0" />
		<line x1="1620.0" x2="1530.0" y1="90.0" y2="120.0" />
		<line x1="1620.0" x2="1590.0" y1="120.0" y2="150.0" />
		<line x1="1620.0" x2="1620.0" y1="120.0" y2="150.0" />
		<line x1="1620.0" x2="1650.0" y1="120.0" y2="150.0" />
		<line x1="1620.0" x2="1620.0" y1="90.0" y2="120.0" />
		<line x1="1710.0" x2="1680.0" y1="120.0" y2="150.0" />
		<line x1="1710.0" x2="1710.0" y1="120.0" y2="150.0" />
		<line x1="1710.0" x2="1740.0" y1="120.0" y2="150.0" />
		<line x1="1620.0" x2="1710.0" y1="90.0" y2="120.0" />
		<line x1="1620.0" x2="1620.0" y1="60.0" y2="90.0" />
		<line x1="1800.0" x2="1770.0" y1="120.0" y2="150.0" />
		<line x1="1800.0" x2="1800.0" y1="120.0" y2="150.0" />
		<line x1="1800.0" x2="1830.0" y1="120.0" y2="150.0" />
		<line x1="1890.0" x2="1800.0" y1="90.0" y2="120.0" />
		<line x1="1890.0" x2="1860.0" y1="120.0" y2="150.0" />
		<line x1="1890.0" x2="1890.0" y1="120.0" y2="150.0" />
		<line x1="1890.0" x2="1920.0" y1="120.0" y2="150.0" />
		<line x1="1890.0" x2="1890.0" y1="90.0" y2="120.0" />
		<line x1="1980.0" x2="1950.0" y1="120.0" y2="150.0" />
		<line x1="1980.0" x2="1980.0" y1="120.0" y2="150.0" />
		<line x1="1980.0" x2="2010.0" y1="120.0" y2="150.0" />
		<line x1="1890.0" x2="1980.0" y1="90.0" y2="120.0" />
		<line x1="1620.0" x2="1890.0" y1="60.0" y2="90.0" />
		<line x1="2430.0" x2="1620.0" y1="30.0" y2="60.0" />
		<line x1="2070.0" x2="2040.0" y1="120.0" y2="150.0" />
		<line x1="2070.0" x2="2070.0" y1="120.0" y2="150.0" />
		<line x1="2070.0" x2="2100.0" y1="120.0" y2="150.0" />
		<line x1="2160.0" x2="2070.0" y1="90.0" y2="120.0" />
		<line x1="2160.0" x2="2130.0" y1="120.0" y2="150.0" />
		<line x1="2160.0" x2="2160.0" y1="120.0" y2="150.0" />
		<line x1="2160.0" x2="2190.0" y1="120.0" y2="150.0" />
		<line x1="2160.0" x2="2160.0" y1="90.0" y2="120.0" />
		<line x1="2250.0" x2="2220.0" y1="120.0" y2="150.0" />
		<line x1="2250.0" x2="2250.0" y1="120.0" y2="150.0" />
		<line x1="2250.0" x2="2280.0" y1="120.0" y2="150.0" />
		<line x1="2160.0" x2="2250.0" y1="90.0" y2="120.0" />
		<line x1="2430.0" x2="2160.0" y1="60.0" y2="90.0" />
		<line x1="2340.0" x2="2310.0" y1="120.0" y2="150.0" />
		<line x1="2340.0" x2="2340.0" y1="120.0" y2="150.0" />
		<line x1="2340.0" x2="2370.0" y1="120.0" y2="150.0" />
		<line x1="2430.0" x2="2340.0" y1="90.0" y2="120.0" />
		<line x1="2430.0" x2="2400.0" y1="120.0" y2="150.0" />
		<line x1="2430.0" x2="2430.0" y1="120.0" y2="150.0" />
		<line x1="2430.0" x2="2460.0" y1="120.0" y2="150.0" />
		<line x1="2430.0" x2="2430.0" y1="90.0" y2="120.0" />
		<line x1="2520.0" x2="2490.0" y1="120.0" y2="150.0" />
		<line x1="2520.0" x2="2520.0" y1="120.0" y2="150.0" />
		<line x1="2520.0" x2="2550.0" y1="120.0" y2="150.0" />
		<line x1="2430.0" x2="2520.0" y1="90.0" y2="120.0" />
		<line x1="2430.0" x2="2430.0" y1="60.0" y2="90.0" />
		<line x1="2610.0" x2="2580.0" y1="120.0" y2="150.0" />
		<line x1="2610.0" x2="2610.0" y1="120.0" y2="150.0" />
		<line x1="2610.0" x2="2640.0" y1="120.0" y2="150.0" />
		<line x1="2700.0" x2="2610.0" y1="90.0" y2="120.0" />
		<line x1="2700.0" x2="2670.0" y1="120.0" y2="150.0" />
		<line x1="2700.0" x2="2700.0" y1="120.0" y2="150.0" />
		<line x1="2700.0" x2="2730.0" y1="120.0" y2="150.0" />
		<line x1="2700.0" x2="2700.0" y1="90.0" y2="120.0" />
		<line x1="2790.0" x2="2760.0" y1="120.0" y2="150.0" />
		<line x1="2790.0" x2="2790.0" y1="120.0" y2="150.0" />
		<line x1="2790.0" x2="2820.0" y1="120.0" y2="150.0" />
		<line x1="2700.0" x2="2790.0" y1="90.0" y2="120.0" />
		<line x1="2430.0" x2="2700.0" y1="60.0" y2="90.0" />
		<line x1="2430.0" x2="2430.0" y1="30.0" y2="60.0" />
		<line x1="2880.0" x2="2850.0" y1="120.0" y2="150.0" />
		<line x1="2880.0" x2="2880.0" y1="120.0" y2="150.0" />
		<line x1="2880.0" x2="2910.0" y1="120.0" y2="150.0" />
		<line x1="2970.0" x2="2880.0" y1="90.0" y2="120.0" />
		<line x1="2970.0" x2="2940.0" y1="120.0" y2="150.0" />
		<line x1="2970.0" x2="2970.0" y1="120.0" y2="150.0" />
		<line x1="2970.0" x2="3000.0" y1="120.0" y2="150.0" />
		<line x1="2970.0" x2="2970.0" y1="90.0" y2="120.0" />
		<line x1="3060.0" x2="3030.0" y1="120.0" y2="150.0" />
		<line x1="3060.0" x2="3060.0" y1="120.0" y2="150.0" />
		<line x1="3060.0" x2="3090.0" y1="120.0" y2="150.0" />
		<line x1="2970.0" x2="3060.0" y1="90.0" y2="120.0" />
		<line x1="3240.0" x2="2970.0" y1="60.0" y2="90.0" />
		<line x1="3150.0" x2="3120.0" y1="120.0" y2="150.0" />
		<line x1="3150.0" x2="3150.0" y1="120.0" y2="150.0" />
		<line x1="3150.0" x2="3180.0" y1="120.0" y2="150.0" />
		<line x1="3240.0" x2="3150.0" y1="90.0" y2="120.0" />
		<line x1="3240.0" x2="3210.0" y1="120.0" y2="150.0" />
		<line x1="3240.0" x2="3240.0" y1="120.0" y2="150.0" />
		<line x1="3240.0" x2="3270.0" y1="120.0" y2="150.0" />
		<line x1="3240.0" x2="3240.0" y1="90.0" y2="120.0" />
		<line x1="3330.0" x2="3300.0" y1="120.0" y2="150.0" />
		<line x1="3330.0" x2="3330.0" y1="120.0" y2="150.0" />
		<line x1="3330.0" x2="3360.0" y1="120.0" y2="150.0" />
		<line x1="3240.0" x2="3330.0" y1="90.0" y2="120.0" />
		<line x1="3240.0" x2="3240.0" y1="60.0" y2="90.0" />
		<line x1="3420.0" x2="3390.0" y1="120.0" y2="150.0" />
		<line x1="3420.0" x2="3420.0" y1="120.0" y2="150.0" />
		<line x1="3420.0" x2="3450.0" y1="120.0" y2="150.0" />
		<line x1="3510.0" x2="3420.0" y1="90.0" y2="120.0" />
		<line x1="3510.0" x2="3480.0" y1="120.0" y2="150.0" />
		<line x1="3510.0" x2="3510.0" y1="120.0" y2="150.0" />
		<line x1="3510.0" x2="3540.0" y1="120.0" y2="150.0" />
		<line x1="3510.0" x2="3510.0" y1="90.0" y2="120.0" />
		<line x1="3600.0" x2="3570.0" y1="120.0" y2="150.0" />
		<line x1="3600.0" x2="3600.0" y1="120.0" y2="150.0" />
		<line x1="3600.0" x2="3630.0" y1="120.0" y2="150.0" />
		<line x1="3510.0" x2="3600.0" y1="90.0" y2="120.0" />
		<line x1="3240.0" x2="3510.0" y1="60.0" y2="90.0" />
		<line x1="2430.0" x2="3240.0" y1="30.0" y2="60.0" />
		<line x1="0.0" x2="2430.0" y1="0.0" y2="30.0" />
	</g>
	<g class="vertices">
		<circle cx="0.0" cy="0.0" r="5.0" />
		<circle cx="-2430.0" cy="30.0" r="5.0" />
		<circle cx="-3240.0" cy="60.0" r="5.0" />
		<circle cx="-3510.0" cy="90.0" r="5.0" />
		<circle cx="-3600.0" cy="120.0" r="5.0" />
		<circle cx="-3630.0" cy="150.0" r="5.0" />
		<circle cx="-3600.0" cy="150.0" r="5.0" />
		<circle cx="-3570.0" cy="150.0" r="5.0" />
		<circle cx="-3510.0" cy="120.0" r="5.0" />
		<circle cx="-3540.0" cy="150.0" r="5.0" />
		<circle cx="-3510.0" cy="150.0" r="5.0" />
		<circle cx="-3480.0" cy="150.0" r="5.0" />
		<circle cx="-3420.0" cy="120.0" r="5.0" />
		<circle cx="-3450.0" cy="150.0" r="5.0" />
		<circle cx="-3420.0" cy="150.0" r="5.0" />
		<circle cx="-3390.0" cy="150.0" r="5.0" />
		<circle cx="-3240.0" cy="90.0" r="5.0" />
		<circle cx="-3330.0" cy="120.0" r="5.0" />
		<circle cx="-3360.0" cy="150.0" r="5.0" />
		<circle cx="-3330.0" cy="150.0" r="5.0" />
		<circle cx="-3300.0" cy="150.0" r="5.0" />
		<circle cx="-3240.0" cy="120.0" r="5.0" />
		<circle cx="-3270.0" cy="150.0" r="5.0" />
		<circle cx="-3240.0" cy="150.0" r="5.0" />
		<circle cx="-3210.0" cy="150.0" r="5.0" />
		<circle cx="-3150.0" cy="120.0" r="5.0" />
		<circle cx="-3180.0" cy="150.0" r="5.0" />
		<circle cx="-3150.0" cy="150.0" r="5.0" />
		<circle cx="-3120.0" cy="150.0" r="5.0" />
		<circle cx="-2970.0" cy="90.0" r="5.0" />
		<circle cx="-3060.0" cy="120.0" r="5.0" />
		<circle cx="-3090.0" cy="150.0" r="5.0" />
		<circle cx="-3060.0" cy="150.0" r="5.0" />
		<circle cx="-3030.0" cy="150.0" r="5.0" />
		<circle cx="-2970.0" cy="120.0" r="5.0" />
		<circle cx="-3000.0" cy="150.0" r="5.0" />
		<circle cx="-2970.0" cy="150.0" r="5.0" />
		<circle cx="-2940.0" cy="150.0" r="5.0" />
		<circle cx="-2880.0" cy="120.0" r="5.0" />
		<circle cx="-2910.0" cy="150.0" r="5.0" />
		<circle cx="-2880.0" cy="150.0" r="5.0" />
		<circle cx="-2850.0" cy="150.0" r="5.0" />
		<circle cx="-2430.0" cy="60.0" r="5.0" />
		<circle cx="-2700.0" cy="90.0" r="5.0" />
		<circle cx="-2790.0" cy="120.0" r="5.0" />
		<circle cx="-2820.0" cy="150.0" r="5.0" />
		<circle cx="-2790.0" cy="150.0" r="5.0" />
		<circle cx="-2760.0" cy="150.0" r="5.0" />
		<circle cx="-2700.0" cy="120.0" r="5.0" />
		<circle cx="-2730.0" cy="150.0" r="5.0" />
		<circle cx="-2700.0" cy="150.0" r="5.0" />
		<circle cx="-2670.0" cy="150.0" r="5.0" />
		<circle cx="-2610.0" cy="120.0" r="5.0" />
		<circle cx="-2640.0" cy="150.0" r="5.0" />
		<circle cx="-2610.0" cy="150.0" r="5.0" />
		<circle cx="-2580.0" cy="150.0" r="5.0" />
		<circle cx="-2430.0" cy="90.0" r="5.0" />
		<circle cx="-2520.0" cy="120.0" r="5.0" />
		<circle cx="-2550.0" cy="150.0" r="5.0" />
		<circle cx="-2520.0" cy="150.0" r="5.0" />
		<circle cx="-2490.0" cy="150.0" r="5.0" />
		<circle cx="-2430.0" cy="120.0" r="5.0" />
		<circle cx="-2460.0" cy="150.0" r="5.0" />
		<circle cx="-2430.0" cy="150.0" r="5.0" />
		<circle cx="-2400.0" cy="150.0" r="5.0" />
		<circle cx="-2340.0" cy="120.0" r="5.0" />
		<circle cx="-2370.0" cy="150.0" r="5.0" />
		<circle cx="-2340.0" cy="150.0" r="5.0" />
		<circle cx="-2310.0" cy="150.0" r="5.0" />
		<circle cx="-2160.0" cy="90.0" r="5.0" />
		<circle cx="-2250.0" cy="120.0" r="5.0" />
		<circle cx="-2280.0" cy="150.0" r="5.0" />
		<circle cx="-2250.0" cy="150.0" r="5.0" />
		<circle cx="-2220.0" cy="150.0" r="5.0" />
		<circle cx="-2160.0" cy="120.0" r="5.0" />
		<circle cx="-2190.0" cy="150.0" r="5.0" />
		<circle cx="-2160.0" cy="150.0" r="5.0" />
		<circle cx="-2130.0" cy="150.0" r="5.0" />
		<circle cx="-2070.0" cy="120.0" r="5.0" />
		<circle cx="-2100.0" cy="150.0" r="5.0" />
		<circle cx="-2070.0" cy="150.0" r="5.0" />
		<circle cx="-2040.0" cy="150.0" r="5.0" />
		<circle cx="-1620.0" cy="60.0" r="5.0" />
		<circle cx="-1890.0" cy="90.0" r="5.0" />
		<circle cx="-1980.0" cy="120.0" r="5.0" />
		<circle cx="-2010.0" cy="150.0" r="5.0" />
		<circle cx="-1980.0" cy="150.0" r="5.0" />
		<circle cx="-1950.0" cy="150.0" r="5.0" />
		<circle cx="-1890.0" cy="120.0" r="5.0" />
		<circle cx="-1920.0" cy="150.0" r="5.0" />
		<circle cx="-1890.0" cy="150.0" r="5.0" />
		<circle cx="-1860.0" cy="150.0" r="5.0" />
		<circle cx="-1800.0" cy="120.0" r="5.0" />
		<circle cx="-1830.0" cy="150.0" r="5.0" />
		<circle cx="-1800.0" cy="150.0" r="5.0" />
		<circle cx="-1770.0" cy="150.0" r="5.0" />
		<circle cx="-1620.0" cy="90.0" r="5.0" />
		<circle cx="-1710.0" cy="120.0" r="5.0" />
		<circle cx="-1740.0" cy="150.0" r="5.0" />
		<circle cx="-1710.0" cy="150.0" r="5.0" />
		<circle cx="-1680.0" cy="150.0" r="5.0" />
		<circle cx="-1620.0" cy="120.0" r="5.0" />
		<circle cx="-1650.0" cy="150.0" r="5.0" />
		<circle cx="-1620.0" cy="150.0" r="5.0" />
		<circle cx="-1590.0" cy="150.0" r="5.0" />
		<circle cx="-1530.0" cy="120.0" r="5.0" />
		<circle cx="-1560.0" cy="150.0" r="5.0" />
		<circle cx="-1530.0" cy="150.0" r="5.0" />
		<circle cx="-1500.0" cy="150.0" r="5.0" />
		<circle cx="-1350.0" cy="90.0" r="5.0" />
		<circle cx="-1440.0" cy="120.0" r="5.0" />
		<circle cx="-1470.0" cy="150.0" r="5.0" />
		<circle cx="-1440.0" cy="150.0" r="5.0" />
		<circle cx="-1410.0" cy="150.0" r="5.0" />
		<circle cx="-1350.0" cy="120.0" r="5.0" />
		<circle cx="-1380.0" cy="150.0" r="5.0" />
		<circle cx="-1350.0" cy="150.0" r="5.0" />
		<circle cx="-1320.0" cy="150.0" r="5.0" />
		<circle cx="-1260.0" cy="120.0" r="5.0" />
		<circle cx="-1290.0" cy="150.0" r="5.0" />
		<circle cx="-1260.0" cy="150.0" r="5.0" />
		<circle cx="-1230.0" cy="150.0" r="5.0" />
		<circle cx="0.0" cy="30.0" r="5.0" />
		<circle cx="-810.0" cy="60.0" r="5.0" />
		<circle cx="-1080.0" cy="90.0" r="5.0" />
		<circle cx="-1170.0" cy="120.0" r="5.0" />
		<circle cx="-1200.0" cy="150.0" r="5.0" />
		<circle cx="-1170.0" cy="150.0" r="5.0" />
		<circle cx="-1140.0" cy="150.0" r="5.0" />
		<circle cx="-1080.0" cy="120.0" r="5.0" />
		<circle cx="-1110.0" cy="150.0" r="5.0" />
		<circle cx="-1080.0" cy="150.0" r="5.0" />
		<circle cx="-1050.0" cy="150.0" r="5.0" />
		<circle cx="-990.0" cy="120.0" r="5.0" />
		<circle cx="-1020.0" cy="150.0" r="5.0" />
		<circle cx="-990.0" cy="150.0" r="5.0" />
		<circle cx="-960.0" cy="150.0" r="5.0" />
		<circle cx="-810.0" cy="90.0" r="5.0" />
		<circle cx="-900.0" cy="120.0" r="5.0" />
		<circle cx="-930.0" cy="150.0" r="5.0" />
		<circle cx="-900.0" cy="150.0" r="5.0" />
		<circle cx="-870.0" cy="150.0" r="5.0" />
		<circle cx="-810.0" cy="120.0" r="5.0" />
		<circle cx="-840.0" cy="150.0" r="5.0" />
		<circle cx="-810.0" cy="150.0" r="5.0" />
		<circle cx="-780.0" cy="150.0" r="5.0" />
		<circle cx="-720.0" cy="120.0" r="5.0" />
		<circle cx="-750.0" cy="150.0" r="5.0" />
		<circle cx="-720.0" cy="150.0" r="5.0" />
		<circle cx="-690.0" cy="150.0" r="5.0" />
		<circle cx="-540.0" cy="90.0" r="5.0" />
		<circle cx="-630.0" cy="120.0" r="5.0" />
		<circle cx="-660.0" cy="150.0" r="5.0" />
		<circle cx="-630.0" cy="150.0" r="5.0" />
		<circle cx="-600.0" cy="150.0" r="5.0" />
		<circle cx="-540.0" cy="120.0" r="5.0" />
		<circle cx="-570.0" cy="150.0" r="5.0" />
		<circle cx="-540.0" cy="150.0" r="5.0" />
		<circle cx="-510.0" cy="150.0" r="5.0" />
		<circle cx="-450.0" cy="120.0" r="5.0" />
		<circle cx="-480.0" cy="150.0" r="5.0" />
		<circle cx="-450.0" cy="150.0" r="5.0" />
		<circle cx="-420.0" cy="150.0" r="5.0" />
		<circle cx="0.0" cy="60.0" r="5.0" />
		<circle cx="-270.0" cy="90.0" r="5.0" />
		<circle cx="-360.0" cy="120.0" r="5.0" />
		<circle cx="-390.0" cy="150.0" r="5.0" />
		<circle cx="-360.0" cy="150.0" r="5.0" />
		<circle cx="-330.0" cy="150.0" r="5.0" />
		<circle cx="-270.0" cy="120.0" r="5.0" />
		<circle cx="-300.0" cy="150.0" r="5.0" />
		<circle cx="-270.0" cy="150.0" r="5.0" />
		<circle cx="-240.0" cy="150.0" r="5.0" />
		<circle cx="-180.0" cy="120.0" r="5.0" />
		<circle cx="-210.0" cy="150.0" r="5.0" />
		<circle cx="-180.0" cy="150.0" r="5.0" />
		<circle cx="-150.0" cy="150.0" r="5.0" />
		<circle cx="0.0" cy="90.0" r="5.0" />
		<circle cx="-90.0" cy="120.0" r="5.0" />
		<circle cx="-120.0" cy="150.0" r="5.0" />
		<circle cx="-90.0" cy="150.0" r="5.0" />
		<circle cx="-60.0" cy="150.0" r="5.0" />
		<circle cx="0.0" cy="120.0" r="5.0" />
		<circle cx="-30.0" cy="150.0" r="5.0" />
		<circle cx="0.0" cy="150.0" r="5.0" />
		<circle cx="30.0" cy="150.0" r="5.0" />
		<circle cx="90.0" cy="120.0" r="5.0" />
		<circle cx="60.0" cy="150.0" r="5.0" />
		<circle cx="90.0" cy="150.0" r="5.0" />
		<circle cx="120.0" cy="150.0" r="5.0" />
		<circle cx="270.0" cy="90.0" r="5.0" />
		<circle cx="180.0" cy="120.0" r="5.0" />
		<circle cx="150.0" cy="150.0" r="5.0" />
		<circle cx="180.0" cy="150.0" r="5.0" />
		<circle cx="210.0" cy="150.0" r="5.0" />
		<circle cx="270.0" cy="120.0" r="5.0" />
		<circle cx="240.0" cy="150.0" r="5.0" />
		<circle cx="270.0" cy="150.0" r="5.0" />
		<circle cx="300.0" cy="150.0" r="5.0" />
		<circle cx="360.0" cy="120.0" r="5.0" />
		<circle cx="330.0" cy="150.0" r="5.0" />
		<circle cx="360.0" cy="150.0" r="5.0" />
		<circle cx="390.0" cy="150.0" r="5.0" />
		<circle cx="810.0" cy="60.0" r="5.0" />
		<circle cx="540.0" cy="90.0" r="5.0" />
		<circle cx="450.0" cy="120.0" r="5.0" />
		<circle cx="420.0" cy="150.0" r="5.0" />
		<circle cx="450.0" cy="150.0" r="5.0" />
		<circle cx="480.0" cy="150.0" r="5.0" />
		<circle cx="540.0" cy="120.0" r="5.0" />
		<circle cx="510.0" cy="150.0" r="5.0" />
		<circle cx="540.0" cy="150.0" r="5.0" />
		<circle cx="570.0" cy="150.0" r="5.0" />
		<circle cx="630.0" cy="120.0" r="5.0" />
		<circle cx="600.0" cy="150.0" r="5.0" />
		<circle cx="630.0" cy="150.0" r="5.0" />
		<circle cx="660.0" cy="150.0" r="5.0" />
		<circle cx="810.0" cy="90.0" r="5.0" />
		<circle cx="720.0" cy="120.0" r="5.0" />
		<circle cx="690.0" cy="150.0" r="5.0" />
		<circle cx="720.0" cy="150.0" r="5.0" />
		<circle cx="750.0" cy="150.0" r="5.0" />
		<circle cx="810.0" cy="120.0" r="5.0" />
		<circle cx="780.0" cy="150.0" r="5.0" />
		<circle cx="810.0" cy="150.0" r="5.0" />
		<circle cx="840.0" cy="150.0" r="5.0" />
		<circle cx="900.0" cy="120.0" r="5.0" />
		<circle cx="870.0" cy="150.0" r="5.0" />
		<circle cx="900.0" cy="150.0" r="5.0" />
		<circle cx="930.0" cy="150.0" r="5.0" />
		<circle cx="1080.0" cy="90.0" r="5.0" />
		<circle cx="990.0" cy="120.0" r="5.0" />
		<circle cx="960.0" cy="150.0" r="5.0" />
		<circle cx="990.0" cy="150.0" r="5.0" />
		<circle cx="1020.0" cy="150.0" r="5.0" />
		<circle cx="1080.0" cy="120.0" r="5.0" />
		<circle cx="1050.0" cy="150.0" r="5.0" />
		<circle cx="1080.0" cy="150.0" r="5.0" />
		<circle cx="1110.0" cy="150.0" r="5.0" />
		<circle cx="1170.0" cy="120.0" r="5.0" />
		<circle cx="1140.0" cy="150.0" r="5.0" />
		<circle cx="1170.0" cy="150.0" r="5.0" />
		<circle cx="1200.0" cy="150.0" r="5.0" />
		<circle cx="2430.0" cy="30.0" r="5.0" />
		<circle cx="1620.0" cy="60.0" r="5.0" />
		<circle cx="1350.0" cy="90.0" r="5.0" />
		<circle cx="1260.0" cy="120.0" r="5.0" />
		<circle cx="1230.0" cy="150.0" r="5.0" />
		<circle cx="1260.0" cy="150.0" r="5.0" />
		<circle cx="1290.0" cy="150.0" r="5.0" />
		<circle cx="1350.0" cy="120.0" r="5.0" />
		<circle cx="1320.0" cy="150.0" r="5.0" />
		<circle cx="1350.0" cy="150.0" r="5.0" />
		<circle cx="1380.0" cy="150.0" r="5.0" />
		<circle cx="1440.0" cy="120.0" r="5.0" />
		<circle cx="1410.0" cy="150.0" r="5.0" />
		<circle cx="1440.0" cy="150.0" r="5.0" />
		<circle cx="1470.0" cy="150.0" r="5.0" />
		<circle cx="1620.0" cy="90.0" r="5.0" />
		<circle cx="1530.0" cy="120.0" r="5.0" />
		<circle cx="1500.0" cy="150.0" r="5.0" />
		<circle cx="1530.0" cy="150.0" r="5.0" />
		<circle cx="1560.0" cy="150.0" r="5.0" />
		<circle cx="1620.0" cy="120.0" r="5.0" />
		<circle cx="1590.0" cy="150.0" r="5.0" />
		<circle cx="1620.0" cy="150.0" r="5.0" />
		<circle cx="1650.0" cy="150.0" r="5.0" />
		<circle cx="1710.0" cy="120.0" r="5.0" />
		<circle cx="1680.0" cy="150.0" r="5.0" />
		<circle cx="1710.0" cy="150.0" r="5.0" />
		<circle cx="1740.0" cy="150.0" r="5.0" />
		<circle cx="1890.0" cy="90.0" r="5.0" />
		<circle cx="1800.0" cy="120.0" r="5.0" />
		<circle cx="1770.0" cy="150.0" r="5.0" />
		<circle cx="1800.0" cy="150.0" r="5.0" />
		<circle cx="1830.0" cy="150.0" r="5.0" />
		<circle cx="1890.0" cy="120.0" r="5.0" />
		<circle cx="1860.0" cy="150.0" r="5.0" />
		<circle cx="1890.0" cy="150.0" r="5.0" />
		<circle cx="1920.0" cy="150.0" r="5.0" />
		<circle cx="1980.0" cy="120.0" r="5.0" />
		<circle cx="1950.0" cy="150.0" r="5.0" />
		<circle cx="1980.0" cy="150.0" r="5.0" />
		<circle cx="2010.0" cy="150.0" r="5.0" />
		<circle cx="2430.0" cy="60.0" r="5.0" />
		<circle cx="2160.0" cy="90.0" r="5.0" />
		<circle cx="2070.0" cy="120.0" r="5.0" />
		<circle cx="2040.0" cy="150.0" r="5.0" />
		<circle cx="2070.0" cy="150.0" r="5.0" />
		<circle cx="2100.0" cy="150.0" r="5.0" />
		<circle cx="2160.0" cy="120.0" r="5.0" />
		<circle cx="2130.0" cy="150.0" r="5.0" />
		<circle cx="2160.0" cy="150.0" r="5.0" />
		<circle cx="2190.0" cy="150.0" r="5.0" />
		<circle cx="2250.0" cy="120.0" r="5.0" />
		<circle cx="2220.0" cy="150.0" r="5.0" />
		<circle cx="2250.0" cy="150.0" r="5.0" />
		<circle cx="2280.0" cy="150.0" r="5.0" />
		<circle cx="2430.0" cy="90.0" r="5.0" />
		<circle cx="2340.0" cy="120.0" r="5.0" />
		<circle cx="2310.0" cy="150.0" r="5.0" />
		<circle cx="2340.0" cy="150.0" r="5.0" />
		<circle cx="2370.0" cy="150.0" r="5.0" />
		<circle cx="2430.0" cy="120.0" r="5.0" />
		<circle cx="2400.0" cy="150.0" r="5.0" />
		<circle cx="2430.0" cy="150.0" r="5.0" />
		<circle cx="2460.0" cy="150.0" r="5.0" />
		<circle cx="2520.0" cy="120.0" r="5.0" />
		<circle cx="2490.0" cy="150.0" r="5.0" />
		<circle cx="2520.0" cy="150.0" r="5.0" />
		<circle cx="2550.0" cy="150.0" r="5.0" />
		<circle cx="2700.0" cy="90.0" r="5.0" />
		<circle cx="2610.0" cy="120.0" r="5.0" />
		<circle cx="2580.0" cy="150.0" r="5.0" />
		<circle cx="2610.0" cy="150.0" r="5.0" />
		<circle cx="2640.0" cy="150.0" r="5.0" />
		<circle cx="2700.0" cy="120.0" r="5.0" />
		<circle cx="2670.0" cy="150.0" r="5.0" />
		<circle cx="2700.0" cy="150.0" r="5.0" />
		<circle cx="2730.0" cy="150.0" r="5.0" />
		<circle cx="2790.0" cy="120.0" r="5.0" />
		<circle cx="2760.0" cy="150.0" r="5.0" />
		<circle cx="2790.0" cy="150.0" r="5.0" />
		<circle cx="2820.0" cy="150.0" r="5.0" />
		<circle cx="3240.0" cy="60.0" r="5.0" />
		<circle cx="2970.0" cy="90.0" r="5.0" />
		<circle cx="2880.0" cy="120.0" r="5.0" />
		<circle cx="2850.0" cy="150.0" r="5.0" />
		<circle cx="2880.0" cy="150.0" r="5.0" />
		<circle cx="2910.0" cy="150.0" r="5.0" />
		<circle cx="2970.0" cy="120.0" r="5.0" />
		<circle cx="2940.0" cy="150.0" r="5.0" />
		<circle cx="2970.0" cy="150.0" r="5.0" />
		<circle cx="3000.0" cy="150.0" r="5.0" />
		<circle cx="3060.0" cy="120.0" r="5.0" />
		<circle cx="3030.0" cy="150.0" r="5.0" />
		<circle cx="3060.0" cy="150.0" r="5.0" />
		<circle cx="3090.0" cy="150.0" r="5.0" />
		<circle cx="3240.0" cy="90.0" r="5.0" />
		<circle cx="3150.0" cy="120.0" r="5.0" />
		<circle cx="3120.0" cy="150.0" r="5.0" />
		<circle cx="3150.0" cy="150.0" r="5.0" />
		<circle cx="3180.0" cy="150.0" r="5.0" />
		<circle cx="3240.0" cy="120.0" r="5.0" />
		<circle cx="3210.0" cy="150.0" r="5.0" />
		<circle cx="3240.0" cy="150.0" r="5.0" />
		<circle cx="3270.0" cy="150.0" r="5.0" />
		<circle cx="3330.0" cy="120.0" r="5.0" />
		<circle cx="3300.0" cy="150.0" r="5.0" />
		<circle cx="3330.0" cy="150.0" r="5.0" />
		<circle cx="3360.0" cy="150.0" r="5.0" />
		<circle cx="3510.0" cy="90.0" r="5.0" />
		<circle cx="3420.0" cy="120.0" r="5.0" />
		<circle cx="3390.0" cy="150.0" r="5.0" />
		<circle cx="3420.0" cy="150.0" r="5.0" />
		<circle cx="3450.0" cy="150.0" r="5.0" />
		<circle cx="3510.0" cy="120.0" r="5.0" />
		<circle cx="3480.0" cy="150.0" r="5.0" />
		<circle cx="3510.0" cy="150.0" r="5.0" />
		<circle cx="3540.0" cy="150.0" r="5.0" />
		<circle cx="3600.0" cy="120.0" r="5.0" />
		<circle cx="3570.0" cy="150.0" r="5.0" />
		<circle cx="3600.0" cy="150.0" r="5.0" />
		<circle cx="3630.0" cy="150.0" r="5.0" />
	</g>
</svg>