<svg height="170.0" viewBox="-1225.0 -25.0 2450.0 170.0" width="2450.0" xmlns="http://www.w3.org/2000/svg">
	<style type="text/css">
		<![CDATA[
			circle.leaf {
				text-anchor: middle;
			}
			circle.left_node {
				text-anchor: end;
			}
		]]>
	</style>
	<g class="edges" stroke="black" stroke-width="1px">
		<line x1="-1170.0" x2="-1200.0" y1="90.0" y2="120.0" />
		<line x1="-1170.0" x2="-1170.0" y1="90.0" y2="120.0" />
		<line x1="-1170.0" x2="-1140.0" y1="90.0" y2="120.0" />
		<line x1="-1080.0" x2="-1170.0" y1="60.0" y2="90.0" />
		<line x1="-1080.0" x2="-1110.0" y1="90.0" y2="120.0" />
		<line x1="-1080.0" x2="-1080.0" y1="90.0" y2="120.0" />
		<line x1="-1080.0" x2="-1050.0" y1="90.0" y2="120.0" />
		<line x1="-1080.0" x2="-1080.0" y1="60.0" y2="90.0" />
		<line x1="-990.0" x2="-1020.0" y1="90.0" y2="120.0" />
		<line x1="-990.0" x2="-990.0" y1="90.0" y2="120.0" />
		<line x1="-990.0" x2="-960.0" y1="90.0" y2="120.0" />
		<line x1="-1080.0" x2="-990.0" y1="60.0" y2="90.0" />
		<line x1="-810.0" x2="-1080.0" y1="30.0" y2="60.0" />
		<line x1="-900.0" x2="-930.0" y1="90.0" y2="120.0" />
		<line x1="-900.0" x2="-900.0" y1="90.0" y2="120.0" />
		<line x1="-900.0" x2="-870.0" y1="90.0" y2="120.0" />
		<line x1="-810.0" x2="-900.0" y1="60.0" y2="90.0" />
		<line x1="-810.0" x2="-840.0" y1="90.0" y2="120.0" />
		<line x1="-810.0" x2="-810.0" y1="90.0" y2="120.0" />
		<line x1="-810.0" x2="-780.0" y1="90.0" y2="120.0" />
		<line x1="-810.0" x2="-810.0" y1="60.0" y2="90.0" />
		<line x1="-720.0" x2="-750.0" y1="90.0" y2="120.0" />
		<line x1="-720.0" x2="-720.0" y1="90.0" y2="120.0" />
		<line x1="-720.0" x2="-690.0" y1="90.0" y2="120.0" />
		<line x1="-810.0" x2="-720.0" y1="60.0" y2="90.0" />
		<line x1="-810.0" x2="-810.0" y1="30.0" y2="60.0" />
		<line x1="-630.0" x2="-660.0" y1="90.0" y2="120.0" />
		<line x1="-630.0" x2="-630.0" y1="90.0" y2="120.0" />
		<line x1="-630.0" x2="-600.0" y1="90.0" y2="120.0" />
		<line x1="-540.0" x2="-630.0" y1="60.0" y2="90.0" />
		<line x1="-540.0" x2="-570.0" y1="90.0" y2="120.0" />
		<line x1="-540.0" x2="-540.0" y1="90.0" y2="120.0" />
		<line x1="-540.0" x2="-510.0" y1="90.0" y2="120.0" />
		<line x1="-540.0" x2="-540.0" y1="60.0" y2="90.0" />
		<line x1="-450.0" x2="-480.0" y1="90.0" y2="120.0" />
		<line x1="-450.0" x2="-450.0" y1="90.0" y2="120.0" />
		<line x1="-450.0" x2="-420.0" y1="90.0" y2="120.0" />
		<line x1="-540.0" x2="-450.0" y1="60.0" y2="90.0" />
		<line x1="-810.0" x2="-540.0" y1="30.0" y2="60.0" />
		<line x1="0.0" x2="-810.0" y1="0.0" y2="30.0" />
		<line x1="-360.0" x2="-390.0" y1="90.0" y2="120.0" />
		<line x1="-360.0" x2="-360.0" y1="90.0" y2="120.0" />
		<line x1="-360.0" x2="-330.0" y1="90.0" y2="120.0" />
		<line x1="-270.0" x2="-360.0" y1="60.0" y2="90.0" />
		<line x1="-270.0" x2="-300.0" y1="90.0" y2="120.0" />
		<line x1="-270.0" x2="-270.0" y1="90.0" y2="120.0" />
		<line x1="-270.0" x2="-240.0" y1="90.0" y2="120.0" />
		<line x1="-270.0" x2="-270.0" y1="60.0" y2="90.0" />
		<line x1="-180.0" x2="-210.0" y1="90.0" y2="120.0" />
		<line x1="-180.0" x2="-180.0" y1="90.0" y2="120.0" />
		<line x1="-180.0" x2="-150.0" y1="90.0" y2="120.0" />
		<line x1="-270.0" x2="-180.0" y1="60.0" y2="90.0" />
		<line x1="0.0" x2="-270.0" y1="30.0" y2="60.0" />
		<line x1="-90.0" x2="-120.0" y1="90.0" y2="120.0" />
		<line x1="-90.0" x2="-90.0" y1="90.0" y2="120.0" />
		<line x1="-90.0" x2="-60.0" y1="90.0" y2="120.0" />
		<line x1="0.0" x2="-90.0" y1="60.0" y2="90.0" />
		<line x1="0.0" x2="-30.0" y1="90.0" y2="120.0" />
		<line x1="0.0" x2="0.0" y1="90.0" y2="120.0" />
		<line x1="0.0" x2="30.0" y1="90.0" y2="120.0" />
		<line x1="0.0" x2="0.0" y1="60.0" y2="90.0" />
		<line x1="90.0" x2="60.0" y1="90.0" y2="120.0" />
		<line x1="90.0" x2="90.0" y1="90.0" y2="120.0" />
		<line x1="90.0" x2="120.0" y1="90.0" y2="120.0" />
		<line x1="0.0" x2="90.0" y1="60.0" y2="90.0" />
		<line x1="0.0" x2="0.0" y1="30.0" y2="60.0" />
		<line x1="180.0" x2="150.0" y1="90.0" y2="120.0" />
		<line x1="180.0" x2="180.0" y1="90.0" y2="120.0" />
		<line x1="180.0" x2="210.0" y1="90.0" y2="120.0" />
		<line x1="270.0" x2="180.0" y1="60.0" y2="90.0" />
		<line x1="270.0" x2="240.0" y1="90.0" y2="120.0" />
		<line x1="270.0" x2="270.0" y1="90.0" y2="120.0" />
		<line x1="270.0" x2="300.0" y1="90.0" y2="120.0" />
		<line x1="270.0" x2="270.0" y1="60.0" y2="90.0" />
		<line x1="360.0" x2="330.0" y1="90.0" y2="120.0" />
		<line x1="360.0" x2="360.0" y1="90.0" y2="120.0" />
		<line x1="360.0" x2="390.0" y1="90.0" y2="120.0" />
		<line x1="270.0" x2="360.0" y1="60.0" y2="90.0" />
		<line x1="0.0" x2="270.0" y1="30.0" y2="60.0" />
		<line x1="0.0" x2="0.0" y1="0.0" y2="30.0" />
		<line x1="450.0" x2="420.0" y1="90.0" y2="120.0" />
		<line x1="450.0" x2="450.0" y1="90.0" y2="120.0" />
		<line x1="450.0" x2="480.0" y1="90.0" y2="120.0" />
		<line x1="540.0" x2="450.0" y1="60.0" y2="90.0" />
		<line x1="540.0" x2="510.0" y1="90.0" y2="120.0" />
		<line x1="540.0" x2="540.0" y1="90.0" y2="120.0" />
		<line x1="540.0" x2="570.0" y1="90.0" y2="120.0" />
		<line x1="540.0" x2="540.0" y1="60.0" y2="90.0" />
		<line x1="630.0" x2="600.0" y1="90.0" y2="120.0" />
		<line x1="630.0" x2="630.0" y1="90.0" y2="120.0" />
		<line x1="630.0" x2="660.0" y1="90.0" y2="120.0" />
		<line x1="540.0" x2="630.0" y1="60.0" y2="90.0" />
		<line x1="810.0" x2="540.0" y1="30.0" y2="60.0" />
		<line x1="720.0" x2="690.0" y1="90.0" y2="120.0" />
		<line x1="720.0" x2="720.0" y1="90.0" y2="120.0" />
		<line x1="720.0" x2="750.0" y1="90.0" y2="120.0" />
		<line x1="810.0" x2="720.0" y1="60.0" y2="90.0" />
		<line x1="810.0" x2="780.0" y1="90.0" y2="120.0" />
		<line x1="810.0" x2="810.0" y1="90.0" y2="120.0" />
		<line x1="810.0" x2="840.0" y1="90.0" y2="120.0" />
		<line x1="810.0" x2="810.0" y1="60.0" y2="90.0" />
		<line x1="900.0" x2="870.0" y1="90.0" y2="120.0" />
		<line x1="900.0" x2="900.0" y1="90.0" y2="120.0" />
		<line x1="900.0" x2="930.0" y1="90.0" y2="120.0" />
		<line x1="810.0" x2="900.0" y1="60.0" y2="90.0" />
		<line x1="810.0" x2="810.0" y1="30.0" y2="60.0" />
		<line x1="990.0" x2="960.0" y1="90.0" y2="120.0" />
		<line x1="990.0" x2="990.0" y1="90.0" y2="120.0" />
		<line x1="990.0" x2="1020.0" y1="90.0" y2="120.0" />
		<line x1="1080.0" x2="990.0" y1="60.0" y2="90.0" />
		<line x1="1080.0" x2="1050.0" y1="90.0" y2="120.0" />
		<line x1="1080.0" x2="1080.0" y1="90.0" y2="120.0" />
		<line x1="1080.0" x2="1110.0" y1="90.0" y2="120.0" />
		<line x1="1080.0" x2="1080.0" y1="60.0" y2="90.0" />
		<line x1="1170.0" x2="1140.0" y1="90.0" y2="120.0" />
		<line x1="1170.0" x2="1170.0" y1="90.0" y2="120.0" />
		<line x1="1170.0" x2="1200.0" y1="90.0" y2="120.0" />
		<line x1="1080.0" x2="1170.0" y1="60.0" y2="90.0" />
		<line x1="810.0" x2="1080.0" y1="30.0" y2="60.0" />
		<line x1="0.0" x2="810.0" y1="0.0" y2="30.0" />
	</g>
	<g class="vertices">
		<circle cx="0.0" cy="0.0" r="5.0" />
		<circle cx="-810.0" cy="30.0" r="5.0" />
		<circle cx="-1080.0" cy="60.0" r="5.0" />
		<circle cx="-1170.0" cy="90.0" r="5.0" />
		<circle cx="-1200.0" cy="120.0" r="5.0" />
		<circle cx="-1170.0" cy="120.0" r="5.0" />
		<circle cx="-1140.0" cy="120.0" r="5.0" />
		<circle cx="-1080.0" cy="90.0" r="5.0" />
		<circle cx="-1110.0" cy="120.0" r="5.0" />
		<circle cx="-1080.0" cy="120.0" r="5.0" />
		<circle cx="-1050.0" cy="120.0" r="5.0" />
		<circle cx="-990.0" cy="90.0" r="5.0" />
		<circle cx="-1020.0" cy="120.0" r="5.0" />
		<circle cx="-990.0" cy="120.0" r="5.0" />
		<circle cx="-960.0" cy="120.0" r="5.0" />
		<circle cx="-810.0" cy="60.0" r="5.0" />
		<circle cx="-900.0" cy="90.0" r="5.0" />
		<circle cx="-930.0" cy="120.0" r="5.0" />
		<circle cx="-900.0" cy="120.0" r="5.0" />
		<circle cx="-870.0" cy="120.0" r="5.0" />
		<circle cx="-810.0" cy="90.0" r="5.0" />
		<circle cx="-840.0" cy="120.0" r="5.0" />
		<circle cx="-810.0" cy="120.0" r="5.0" />
		<circle cx="-780.0" cy="120.0" r="5.0" />
		<circle cx="-720.0" cy="90.0" r="5.0" />
		<circle cx="-750.0" cy="120.0" r="5.0" />
		<circle cx="-720.0" cy="120.0" r="5.0" />
		<circle cx="-690.0" cy="120.0" r="5.0" />
		<circle cx="-540.0" cy="60.0" r="5.0" />
		<circle cx="-630.0" cy="90.0" r="5.0" />
		<circle cx="-660.0" cy="120.0" r="5.0" />
		<circle cx="-630.0" cy="120.0" r="5.0" />
		<circle cx="-600.0" cy="120.0" r="5.0" />
		<circle cx="-540.0" cy="90.0" r="5.0" />
		<circle cx="-570.0" cy="120.0" r="5.0" />
		<circle cx="-540.0" cy="120.0" r="5.0" />
		<circle cx="-510.0" cy="120.0" r="5.0" />
		<circle cx="-450.0" cy="90.0" r="5.0" />
		<circle cx="-480.0" cy="120.0" r="5.0" />
		<circle cx="-450.0" cy="120.0" r="5.0" />
		<circle cx="-420.0" cy="120.0" r="5.0" />
		<circle cx="0.0" cy="30.0" r="5.0" />
		<circle cx="-270.0" cy="60.0" r="5.0" />
		<circle cx="-360.0" cy="90.0" r="5.0" />
		<circle cx="-390.0" cy="120.0" r="5.0" />
		<circle cx="-360.0" cy="120.0" r="5.0" />
		<circle cx="-330.0" cy="120.0" r="5.0" />
		<circle cx="-270.0" cy="90.0" r="5.0" />
		<circle cx="-300.0" cy="120.0" r="5.0" />
		<circle cx="-270.0" cy="120.0" r="5.0" />
		<circle cx="-240.0" cy="120.0" r="5.0" />
		<circle cx="-180.0" cy="90.0" r="5.0" />
		<circle cx="-210.0" cy="120.0" r="5.0" />
		<circle cx="-180.0" cy="120.0" r="5.0" />
		<circle cx="-150.0" cy="120.0" r="5.0" />
		<circle cx="0.0" cy="60.0" r="5.0" />
		<circle cx="-90.0" cy="90.0" r="5.0" />
		<circle cx="-120.0" cy="120.0" r="5.0" />
		<circle cx="-90.0" cy="120.0" r="5.0" />
		<circle cx="-60.0" cy="120.0" r="5.0" />
		<circle cx="0.0" cy="90.0" r="5.0" />
		<circle cx="-30.0" cy="120.0" r="5.0" />
		<circle cx="0.0" cy="120.0" r="5.0" />
		<circle cx="30.0" cy="120.0" r="5.0" />
		<circle cx="90.0" cy="90.0" r="5.0" />
		<circle cx="60.0" cy="120.0" r="5.0" />
		<circle cx="90.0" cy="120.0" r="5.0" />
		<circle cx="120.0" cy="120.0" r="5.0" />
		<circle cx="270.0" cy="60.0" r="5.0" />
		<circle cx="180.0" cy="90.0" r="5.0" />
		<circle cx="150.0" cy="120.0" r="5.0" />
		<circle cx="180.0" cy="120.0" r="5.0" />
		<circle cx="210.0" cy="120.0" r="5.0" />
		<circle cx="270.0" cy="90.0" r="5.0" />
		<circle cx="240.0" cy="120.0" r="5.0" />
		<circle cx="270.0" cy="120.0" r="5.0" />
		<circle cx="300.0" cy="120.0" r="5.0" />
		<circle cx="360.0" cy="90.0" r="5.0" />
		<circle cx="330.0" cy="120.0" r="5.0" />
		<circle cx="360.0" cy="120.0" r="5.0" />
		<circle cx="390.0" cy="120.0" r="5.0" />
		<circle cx="810.0" cy="30.0" r="5.0" />
		<circle cx="540.0" cy="60.0" r="5.0" />
		<circle cx="450.0" cy="90.0" r="5.0" />
		<circle cx="420.0" cy="120.0" r="5.0" />
		<circle cx="450.0" cy="120.0" r="5.0" />
		<circle cx="480.0" cy="120.0" r="5.0" />
		<circle cx="540.0" cy="90.0" r="5.0" />
		<circle cx="510.0" cy="120.0" r="5.0" />
		<circle cx="540.0" cy="120.0" r="5.0" />
		<circle cx="570.0" cy="120.0" r="5.0" />
		<circle cx="630.0" cy="90.0" r="5.0" />
		<circle cx="600.0" cy="120.0" r="5.0" />
		<circle cx="630.0" cy="120.0" r="5.0" />
		<circle cx="660.0" cy="120.0" r="5.0" />
		<circle cx="810.0" cy="60.0" r="5.0" />
		<circle cx="720.0" cy="90.0" r="5.0" />
		<circle cx="690.0" cy="120.0" r="5.0" />
		<circle cx="720.0" cy="120.0" r="5.0" />
		<circle cx="750.0" cy="120.0" r="5.0" />
		<circle cx="810.0" cy="90.0" r="5.0" />
		<circle cx="780.0" cy="120.0" r="5.0" />
		<circle cx="810.0" cy="120.0" r="5.0" />
		<circle cx="840.0" cy="120.0" r="5.0" />
		<circle cx="900.0" cy="90.0" r="5.0" />
		<circle cx="870.0" cy="120.0" r="5.0" />
		<circle cx="900.0" cy="120.0" r="5.0" />
		<circle cx="930.0" cy="120.0" r="5.0" />
		<circle cx="1080.0" cy="60.0" r="5.0" />
		<circle cx="990.0" cy="90.0" r="5.0" />
		<circle cx="960.0" cy="120.0" r="5.0" />
		<circle cx="990.0" cy="120.0" r="5.0" />
		<circle cx="1020.0" cy="120.0" r="5.0" />
		<circle cx="1080.0" cy="90.0" r="5.0" />
		<circle cx="1050.0" cy="120.0" r="5.0" />
		<circle cx="1080.0" cy="120.0" r="5.0" />
		<circle cx="1110.0" cy="120.0" r="5.0" />
		<circle cx="1170.0" cy="90.0" r="5.0" />
		<circle cx="1140.0" cy="120.0" r="5.0" />
		<circle cx="1170.0" cy="120.0" r="5.0" />
		<circle cx="1200.0" cy="120.0" r="5.0" />
	</g>
</svg>