<svg height="140.0" viewBox="-415.0 -25.0 830.0 140.0" width="830.0" xmlns="http://www.w3.org/2000/svg">
	<style type="text/css">
		<![CDATA[
			circle.leaf {
				text-anchor: middle;
			}
			circle.left_node {
				text-anchor: end;
			}
		]]>
	</style>
	<g class="edges" stroke="black" stroke-width="1px">
		<line x1="-360.0" x2="-390.0" y1="60.0" y2="90.0" />
		<line x1="-360.0" x2="-360.0" y1="60.0" y2="90.0" />
		<line x1="-360.0" x2="-330.0" y1="60.0" y2="90.0" />
		<line x1="-270.0" x2="-360.0" y1="30.0" y2="60.0" />
		<line x1="-270.0" x2="-300.0" y1="60.0" y2="90.0" />
		<line x1="-270.0" x2="-270.0" y1="60.0" y2="90.0" />
		<line x1="-270.0" x2="-240.0" y1="60.0" y2="90.0" />
		<line x1="-270.0" x2="-270.0" y1="30.0" y2="60.0" />
		<line x1="-180.0" x2="-210.0" y1="60.0" y2="90.0" />
		<line x1="-180.0" x2="-180.0" y1="60.0" y2="90.0" />
		<line x1="-180.0" x2="-150.0" y1="60.0" y2="90.0" />
		<line x1="-270.0" x2="-180.0" y1="30.0" y2="60.0" />
		<line x1="0.0" x2="-270.0" y1="0.0" y2="30.0" />
		<line x1="-90.0" x2="-120.0" y1="60.0" y2="90.0" />
		<line x1="-90.0" x2="-90.0" y1="60.0" y2="90.0" />
		<line x1="-90.0" x2="-60.0" y1="60.0" y2="90.0" />
		<line x1="0.0" x2="-90.0" y1="30.0" y2="60.0" />
		<line x1="0.0" x2="-30.0" y1="60.0" y2="90.0" />
		<line x1="0.0" x2="0.0" y1="60.0" y2="90.0" />
		<line x1="0.0" x2="30.0" y1="60.0" y2="90.0" />
		<line x1="0.0" x2="0.0" y1="30.0" y2="60.0" />
		<line x1="90.0" x2="60.0" y1="60.0" y2="90.0" />
		<line x1="90.0" x2="90.0" y1="60.0" y2="90.0" />
		<line x1="90.0" x2="120.0" y1="60.0" y2="90.0" />
		<line x1="0.0" x2="90.0" y1="30.0" y2="60.0" />
		<line x1="0.0" x2="0.0" y1="0.0" y2="30.0" />
		<line x1="180.0" x2="150.0" y1="60.0" y2="90.0" />
		<line x1="180.0" x2="180.0" y1="60.0" y2="90.0" />
		<line x1="180.0" x2="210.0" y1="60.0" y2="90.0" />
		<line x1="270.0" x2="180.0" y1="30.0" y2="60.0" />
		<line x1="270.0" x2="240.0" y1="60.0" y2="90.0" />
		<line x1="270.0" x2="270.0" y1="60.0" y2="90.0" />
		<line x1="270.0" x2="300.0" y1="60.0" y2="90.0" />
		<line x1="270.0" x2="270.0" y1="30.0" y2="60.0" />
		<line x1="360.0" x2="330.0" y1="60.0" y2="90.0" />
		<line x1="360.0" x2="360.0" y1="60.0" y2="90.0" />
		<line x1="360.0" x2="390.0" y1="60.0" y2="90.0" />
		<line x1="270.0" x2="360.0" y1="30.0" y2="60.0" />
		<line x1="0.0" x2="270.0" y1="0.0" y2="30.0" />
	</g>
	<g class="vertices">
		<circle cx="0.0" cy="0.0" r="5.0" />
		<circle cx="-270.0" cy="30.0" r="5.0" />
		<circle cx="-360.0" cy="60.0" r="5.0" />
		<circle cx="-390.0" cy="90.0" r="5.0" />
		<circle cx="-360.0" cy="90.0" r="5.0" />
		<circle cx="-330.0" cy="90.0" r="5.0" />
		<circle cx="-270.0" cy="60.0" r="5.0" />
		<circle cx="-300.0" cy="90.0" r="5.0" />
		<circle cx="-270.0" cy="90.0" r="5.0" />
		<circle cx="-240.0" cy="90.0" r="5.0" />
		<circle cx="-180.0" cy="60.0" r="5.0" />
		<circle cx="-210.0" cy="90.0" r="5.0" />
		<circle cx="-180.0" cy="90.0" r="5.0" />
		<circle cx="-150.0" cy="90.0" r="5.0" />
		<circle cx="0.0" cy="30.0" r="5.0" />
		<circle cx="-90.0" cy="60.0" r="5.0" />
		<circle cx="-120.0" cy="90.0" r="5.0" />
		<circle cx="-90.0" cy="90.0" r="5.0" />
		<circle cx="-60.0" cy="90.0" r="5.0" />
		<circle cx="0.0" cy="60.0" r="5.0" />
		<circle cx="-30.0" cy="90.0" r="5.0" />
		<circle cx="0.0" cy="90.0" r="5.0" />
		<circle cx="30.0" cy="90.0" r="5.0" />
		<circle cx="90.0" cy="60.0" r="5.0" />
		<circle cx="60.0" cy="90.0" r="5.0" />
		<circle cx="90.0" cy="90.0" r="5.0" />
		<circle cx="120.0" cy="90.0" r="5.0" />
		<circle cx="270.0" cy="30.0" r="5.0" />
		<circle cx="180.0" cy="60.0" r="5.0" />
		<circle cx="150.0" cy="90.0" r="5.0" />
		<circle cx="180.0" cy="90.0" r="5.0" />
		<circle cx="210.0" cy="90.0" r="5.0" />
		<circle cx="270.0" cy="60.0" r="5.0" />
		<circle cx="240.0" cy="90.0" r="5.0" />
		<circle cx="270.0" cy="90.0" r="5.0" />
		<circle cx="300.0" cy="90.0" r="5.0" />
		<circle cx="360.0" cy="60.0" r="5.0" />
		<circle cx="330.0" cy="90.0" r="5.0" />
		<circle cx="360.0" cy="90.0" r="5.0" />
		<circle cx="390.0" cy="90.0" r="5.0" />
	</g>
</svg>