<svg height="772.0" viewBox="-9.9 -386.0 1120.0 772.0" width="1120.0" xmlns="http://www.w3.org/2000/svg">
	<style type="text/css">
		<![CDATA[
		]]>
	</style>
	<g stroke="black" stroke-width="1px">
		<line x1="10.1" x2="409.8" y1="33.7" y2="33.7" />
		<line x1="10.1" x2="10.1" y1="33.7" y2="-366.0" />
		<line x1="10.1" x2="292.7" y1="33.7" y2="316.3" />
		<line x1="10.1" x2="407.5" y1="33.7" y2="83.4" />
		<line x1="409.8" x2="409.8" y1="33.7" y2="-366.0" />
		<line x1="409.8" x2="692.5" y1="33.7" y2="316.3" />
		<line x1="409.8" x2="807.3" y1="33.7" y2="83.4" />
		<line x1="409.8" x2="10.1" y1="-366.0" y2="-366.0" />
		<line x1="409.8" x2="692.5" y1="-366.0" y2="-83.4" />
		<line x1="409.8" x2="807.3" y1="-366.0" y2="-316.3" />
		<line x1="10.1" x2="292.7" y1="-366.0" y2="-83.4" />
		<line x1="10.1" x2="407.5" y1="-366.0" y2="-316.3" />
		<line x1="292.7" x2="692.5" y1="316.3" y2="316.3" />
		<line x1="292.7" x2="292.7" y1="316.3" y2="-83.4" />
		<line x1="292.7" x2="690.2" y1="316.3" y2="366.0" />
		<line x1="692.5" x2="692.5" y1="316.3" y2="-83.4" />
		<line x1="692.5" x2="1089.9" y1="316.3" y2="366.0" />
		<line x1="692.5" x2="292.7" y1="-83.4" y2="-83.4" />
		<line x1="692.5" x2="1089.9" y1="-83.4" y2="-33.7" />
		<line x1="292.7" x2="690.2" y1="-83.4" y2="-33.7" />
		<line x1="407.5" x2="807.3" y1="83.4" y2="83.4" />
		<line x1="407.5" x2="407.5" y1="83.4" y2="-316.3" />
		<line x1="407.5" x2="690.2" y1="83.4" y2="366.0" />
		<line x1="807.3" x2="807.3" y1="83.4" y2="-316.3" />
		<line x1="807.3" x2="1089.9" y1="83.4" y2="366.0" />
		<line x1="807.3" x2="407.5" y1="-316.3" y2="-316.3" />
		<line x1="807.3" x2="1089.9" y1="-316.3" y2="-33.7" />
		<line x1="407.5" x2="690.2" y1="-316.3" y2="-33.7" />
		<line x1="690.2" x2="1089.9" y1="366.0" y2="366.0" />
		<line x1="690.2" x2="690.2" y1="366.0" y2="-33.7" />
		<line x1="1089.9" x2="1089.9" y1="366.0" y2="-33.7" />
		<line x1="1089.9" x2="690.2" y1="-33.7" y2="-33.7" />
	</g>
	<g>
		<circle cx="10.1" cy="33.7" r="10.0" />
		<circle cx="409.8" cy="33.7" r="10.0" />
		<circle cx="409.8" cy="-366.0" r="10.0" />
		<circle cx="10.1" cy="-366.0" r="10.0" />
		<circle cx="292.7" cy="316.3" r="10.0" />
		<circle cx="692.5" cy="316.3" r="10.0" />
		<circle cx="692.5" cy="-83.4" r="10.0" />
		<circle cx="292.7" cy="-83.4" r="10.0" />
		<circle cx="407.5" cy="83.4" r="10.0" />
		<circle cx="807.3" cy="83.4" r="10.0" />
		<circle cx="807.3" cy="-316.3" r="10.0" />
		<circle cx="407.5" cy="-316.3" r="10.0" />
		<circle cx="690.2" cy="366.0" r="10.0" />
		<circle cx="1089.9" cy="366.0" r="10.0" />
		<circle cx="1089.9" cy="-33.7" r="10.0" />
		<circle cx="690.2" cy="-33.7" r="10.0" />
	</g>
</svg>