<svg viewBox="0 0 518.000000 774.799988" xmlns="http://www.w3.org/2000/svg">
	<style type="text/css">
		<![CDATA[
			#frame_0 {
				animation-name: anim_0;
			}
			#frame_1 {
				animation-name: anim_1;
			}
			#frame_2 {
				animation-name: anim_2;
			}
			#frame_3 {
				animation-name: anim_3;
			}
			#frame_4 {
				animation-name: anim_4;
			}
			#frame_5 {
				animation-name: anim_5;
			}
			#frame_6 {
				animation-name: anim_6;
			}
			#frame_7 {
				animation-name: anim_7;
			}
			#frame_8 {
				animation-name: anim_8;
			}
			#frame_9 {
				animation-name: anim_9;
			}
			svg.animated {
				animation-duration: 2.000000s;
				animation-iteration-count: infinite;
				animation-timing-function: step-end;
				opacity: 0;
			}
			@keyframes anim_0 {
				0% {
					opacity: 0;
				}
				0.000000% {
					opacity: 1;
				}
				10.000000% {
					opacity: 0;
				}
			}
			@keyframes anim_1 {
				0% {
					opacity: 0;
				}
				10.000000% {
					opacity: 1;
				}
				20.000000% {
					opacity: 0;
				}
			}
			@keyframes anim_2 {
				0% {
					opacity: 0;
				}
				20.000000% {
					opacity: 1;
				}
				30.000000% {
					opacity: 0;
				}
			}
			@keyframes anim_3 {
				0% {
					opacity: 0;
				}
				30.000000% {
					opacity: 1;
				}
				40.000000% {
					opacity: 0;
				}
			}
			@keyframes anim_4 {
				0% {
					opacity: 0;
				}
				40.000000% {
					opacity: 1;
				}
				50.000000% {
					opacity: 0;
				}
			}
			@keyframes anim_5 {
				0% {
					opacity: 0;
				}
				50.000000% {
					opacity: 1;
				}
				60.000000% {
					opacity: 0;
				}
			}
			@keyframes anim_6 {
				0% {
					opacity: 0;
				}
				60.000000% {
					opacity: 1;
				}
				70.000000% {
					opacity: 0;
				}
			}
			@keyframes anim_7 {
				0% {
					opacity: 0;
				}
				70.000000% {
					opacity: 1;
				}
				80.000000% {
					opacity: 0;
				}
			}
			@keyframes anim_8 {
				0% {
					opacity: 0;
				}
				80.000000% {
					opacity: 1;
				}
				90.000000% {
					opacity: 0;
				}
			}
			@keyframes anim_9 {
				0% {
					opacity: 0;
				}
				100.000000% {
					opacity: 0;
				}
				90.000000% {
					opacity: 1;
				}
			}
		]]>
	</style>
	<svg class="animated" height="730.9" id="frame_0" width="512.6" x="2.7" xmlns="http://www.w3.org/2000/svg" y="21.9">
		<g stroke="black" stroke-width="1px">
			<line x1="42.6" x2="450.0" y1="383.3" y2="142.6" />
			<line x1="42.6" x2="181.1" y1="383.3" y2="203.9" />
			<line x1="42.6" x2="126.7" y1="383.3" y2="568.3" />
			<line x1="450.0" x2="42.6" y1="142.6" y2="383.3" />
			<line x1="450.0" x2="181.1" y1="142.6" y2="203.9" />
			<line x1="450.0" x2="126.7" y1="142.6" y2="568.3" />
			<line x1="181.1" x2="42.6" y1="203.9" y2="383.3" />
			<line x1="181.1" x2="450.0" y1="203.9" y2="142.6" />
			<line x1="181.1" x2="126.7" y1="203.9" y2="568.3" />
			<line x1="126.7" x2="42.6" y1="568.3" y2="383.3" />
			<line x1="126.7" x2="450.0" y1="568.3" y2="142.6" />
			<line x1="126.7" x2="181.1" y1="568.3" y2="203.9" />
		</g>
		<g>
			<circle cx="42.6" cy="383.3" r="10.0" />
			<circle cx="450.0" cy="142.6" r="10.0" />
			<circle cx="181.1" cy="203.9" r="10.0" />
			<circle cx="126.7" cy="568.3" r="10.0" />
		</g>
	</svg>
	<svg class="animated" height="774.8" id="frame_1" viewBox="-2.2 145.9 483.1 774.8" width="483.1" x="17.4" xmlns="http://www.w3.org/2000/svg" y="0.0">
		<g stroke="black" stroke-width="1px">
			<line x1="17.8" x2="445.3" y1="367.5" y2="165.9" />
			<line x1="17.8" x2="179.0" y1="367.5" y2="175.7" />
			<line x1="17.8" x2="158.3" y1="367.5" y2="588.9" />
			<line x1="445.3" x2="17.8" y1="165.9" y2="367.5" />
			<line x1="445.3" x2="179.0" y1="165.9" y2="175.7" />
			<line x1="445.3" x2="158.3" y1="165.9" y2="588.9" />
			<line x1="179.0" x2="17.8" y1="175.7" y2="367.5" />
			<line x1="179.0" x2="445.3" y1="175.7" y2="165.9" />
			<line x1="179.0" x2="158.3" y1="175.7" y2="588.9" />
			<line x1="158.3" x2="17.8" y1="588.9" y2="367.5" />
			<line x1="158.3" x2="445.3" y1="588.9" y2="165.9" />
			<line x1="158.3" x2="179.0" y1="588.9" y2="175.7" />
		</g>
		<g>
			<circle cx="17.8" cy="367.5" r="10.0" />
			<circle cx="445.3" cy="165.9" r="10.0" />
			<circle cx="179.0" cy="175.7" r="10.0" />
			<circle cx="158.3" cy="588.9" r="10.0" />
		</g>
	</svg>
	<svg class="animated" height="767.6" id="frame_2" viewBox="-23.1 136.6 489.5 767.6" width="489.5" x="14.3" xmlns="http://www.w3.org/2000/svg" y="3.6">
		<g stroke="black" stroke-width="1px">
			<line x1="-3.1" x2="446.4" y1="360.9" y2="189.6" />
			<line x1="-3.1" x2="171.4" y1="360.9" y2="156.6" />
			<line x1="-3.1" x2="185.7" y1="360.9" y2="591.0" />
			<line x1="446.4" x2="-3.1" y1="189.6" y2="360.9" />
			<line x1="446.4" x2="171.4" y1="189.6" y2="156.6" />
			<line x1="446.4" x2="185.7" y1="189.6" y2="591.0" />
			<line x1="171.4" x2="-3.1" y1="156.6" y2="360.9" />
			<line x1="171.4" x2="446.4" y1="156.6" y2="189.6" />
			<line x1="171.4" x2="185.7" y1="156.6" y2="591.0" />
			<line x1="185.7" x2="-3.1" y1="591.0" y2="360.9" />
			<line x1="185.7" x2="446.4" y1="591.0" y2="189.6" />
			<line x1="185.7" x2="171.4" y1="591.0" y2="156.6" />
		</g>
		<g>
			<circle cx="-3.1" cy="360.9" r="10.0" />
			<circle cx="446.4" cy="189.6" r="10.0" />
			<circle cx="171.4" cy="156.6" r="10.0" />
			<circle cx="185.7" cy="591.0" r="10.0" />
		</g>
	</svg>
	<svg class="animated" height="747.3" id="frame_3" viewBox="-38.0 120.6 505.1 747.3" width="505.1" x="6.4" xmlns="http://www.w3.org/2000/svg" y="13.8">
		<g stroke="black" stroke-width="1px">
			<line x1="-18.0" x2="447.1" y1="359.3" y2="211.5" />
			<line x1="-18.0" x2="164.3" y1="359.3" y2="140.6" />
			<line x1="-18.0" x2="207.0" y1="359.3" y2="586.7" />
			<line x1="447.1" x2="-18.0" y1="211.5" y2="359.3" />
			<line x1="447.1" x2="164.3" y1="211.5" y2="140.6" />
			<line x1="447.1" x2="207.0" y1="211.5" y2="586.7" />
			<line x1="164.3" x2="-18.0" y1="140.6" y2="359.3" />
			<line x1="164.3" x2="447.1" y1="140.6" y2="211.5" />
			<line x1="164.3" x2="207.0" y1="140.6" y2="586.7" />
			<line x1="207.0" x2="-18.0" y1="586.7" y2="359.3" />
			<line x1="207.0" x2="447.1" y1="586.7" y2="211.5" />
			<line x1="207.0" x2="164.3" y1="586.7" y2="140.6" />
		</g>
		<g>
			<circle cx="-18.0" cy="359.3" r="10.0" />
			<circle cx="447.1" cy="211.5" r="10.0" />
			<circle cx="164.3" cy="140.6" r="10.0" />
			<circle cx="207.0" cy="586.7" r="10.0" />
		</g>
	</svg>
	<svg class="animated" height="728.1" id="frame_4" viewBox="-47.2 107.2 513.7 728.1" width="513.7" x="2.1" xmlns="http://www.w3.org/2000/svg" y="23.4">
		<g stroke="black" stroke-width="1px">
			<line x1="-27.2" x2="446.5" y1="360.3" y2="229.7" />
			<line x1="-27.2" x2="158.9" y1="360.3" y2="127.2" />
			<line x1="-27.2" x2="222.3" y1="360.3" y2="580.9" />
			<line x1="446.5" x2="-27.2" y1="229.7" y2="360.3" />
			<line x1="446.5" x2="158.9" y1="229.7" y2="127.2" />
			<line x1="446.5" x2="222.3" y1="229.7" y2="580.9" />
			<line x1="158.9" x2="-27.2" y1="127.2" y2="360.3" />
			<line x1="158.9" x2="446.5" y1="127.2" y2="229.7" />
			<line x1="158.9" x2="222.3" y1="127.2" y2="580.9" />
			<line x1="222.3" x2="-27.2" y1="580.9" y2="360.3" />
			<line x1="222.3" x2="446.5" y1="580.9" y2="229.7" />
			<line x1="222.3" x2="158.9" y1="580.9" y2="127.2" />
		</g>
		<g>
			<circle cx="-27.2" cy="360.3" r="10.0" />
			<circle cx="446.5" cy="229.7" r="10.0" />
			<circle cx="158.9" cy="127.2" r="10.0" />
			<circle cx="222.3" cy="580.9" r="10.0" />
		</g>
	</svg>
	<svg class="animated" height="711.8" id="frame_5" viewBox="-52.3 96.4 517.2 711.8" width="517.2" x="0.4" xmlns="http://www.w3.org/2000/svg" y="31.5">
		<g stroke="black" stroke-width="1px">
			<line x1="-32.3" x2="444.9" y1="362.5" y2="243.7" />
			<line x1="-32.3" x2="155.4" y1="362.5" y2="116.4" />
			<line x1="-32.3" x2="232.5" y1="362.5" y2="575.4" />
			<line x1="444.9" x2="-32.3" y1="243.7" y2="362.5" />
			<line x1="444.9" x2="155.4" y1="243.7" y2="116.4" />
			<line x1="444.9" x2="232.5" y1="243.7" y2="575.4" />
			<line x1="155.4" x2="-32.3" y1="116.4" y2="362.5" />
			<line x1="155.4" x2="444.9" y1="116.4" y2="243.7" />
			<line x1="155.4" x2="232.5" y1="116.4" y2="575.4" />
			<line x1="232.5" x2="-32.3" y1="575.4" y2="362.5" />
			<line x1="232.5" x2="444.9" y1="575.4" y2="243.7" />
			<line x1="232.5" x2="155.4" y1="575.4" y2="116.4" />
		</g>
		<g>
			<circle cx="-32.3" cy="362.5" r="10.0" />
			<circle cx="444.9" cy="243.7" r="10.0" />
			<circle cx="155.4" cy="116.4" r="10.0" />
			<circle cx="232.5" cy="575.4" r="10.0" />
		</g>
	</svg>
	<svg class="animated" height="699.3" id="frame_6" viewBox="-54.9 88.2 518.0 699.3" width="518.0" x="0.0" xmlns="http://www.w3.org/2000/svg" y="37.8">
		<g stroke="black" stroke-width="1px">
			<line x1="-34.9" x2="443.1" y1="364.9" y2="253.9" />
			<line x1="-34.9" x2="153.2" y1="364.9" y2="108.2" />
			<line x1="-34.9" x2="239.0" y1="364.9" y2="571.1" />
			<line x1="443.1" x2="-34.9" y1="253.9" y2="364.9" />
			<line x1="443.1" x2="153.2" y1="253.9" y2="108.2" />
			<line x1="443.1" x2="239.0" y1="253.9" y2="571.1" />
			<line x1="153.2" x2="-34.9" y1="108.2" y2="364.9" />
			<line x1="153.2" x2="443.1" y1="108.2" y2="253.9" />
			<line x1="153.2" x2="239.0" y1="108.2" y2="571.1" />
			<line x1="239.0" x2="-34.9" y1="571.1" y2="364.9" />
			<line x1="239.0" x2="443.1" y1="571.1" y2="253.9" />
			<line x1="239.0" x2="153.2" y1="571.1" y2="108.2" />
		</g>
		<g>
			<circle cx="-34.9" cy="364.9" r="10.0" />
			<circle cx="443.1" cy="253.9" r="10.0" />
			<circle cx="153.2" cy="108.2" r="10.0" />
			<circle cx="239.0" cy="571.1" r="10.0" />
		</g>
	</svg>
	<svg class="animated" height="690.0" id="frame_7" viewBox="-56.0 82.1 517.4 690.0" width="517.4" x="0.3" xmlns="http://www.w3.org/2000/svg" y="42.4">
		<g stroke="black" stroke-width="1px">
			<line x1="-36.0" x2="441.4" y1="367.1" y2="260.9" />
			<line x1="-36.0" x2="152.0" y1="367.1" y2="102.1" />
			<line x1="-36.0" x2="243.1" y1="367.1" y2="567.9" />
			<line x1="441.4" x2="-36.0" y1="260.9" y2="367.1" />
			<line x1="441.4" x2="152.0" y1="260.9" y2="102.1" />
			<line x1="441.4" x2="243.1" y1="260.9" y2="567.9" />
			<line x1="152.0" x2="-36.0" y1="102.1" y2="367.1" />
			<line x1="152.0" x2="441.4" y1="102.1" y2="260.9" />
			<line x1="152.0" x2="243.1" y1="102.1" y2="567.9" />
			<line x1="243.1" x2="-36.0" y1="567.9" y2="367.1" />
			<line x1="243.1" x2="441.4" y1="567.9" y2="260.9" />
			<line x1="243.1" x2="152.0" y1="567.9" y2="102.1" />
		</g>
		<g>
			<circle cx="-36.0" cy="367.1" r="10.0" />
			<circle cx="441.4" cy="260.9" r="10.0" />
			<circle cx="152.0" cy="102.1" r="10.0" />
			<circle cx="243.1" cy="567.9" r="10.0" />
		</g>
	</svg>
	<svg class="animated" height="683.4" id="frame_8" viewBox="-56.4 77.8 516.4 683.4" width="516.4" x="0.8" xmlns="http://www.w3.org/2000/svg" y="45.7">
		<g stroke="black" stroke-width="1px">
			<line x1="-36.4" x2="440.0" y1="368.9" y2="265.7" />
			<line x1="-36.4" x2="151.3" y1="368.9" y2="97.8" />
			<line x1="-36.4" x2="245.6" y1="368.9" y2="565.6" />
			<line x1="440.0" x2="-36.4" y1="265.7" y2="368.9" />
			<line x1="440.0" x2="151.3" y1="265.7" y2="97.8" />
			<line x1="440.0" x2="245.6" y1="265.7" y2="565.6" />
			<line x1="151.3" x2="-36.4" y1="97.8" y2="368.9" />
			<line x1="151.3" x2="440.0" y1="97.8" y2="265.7" />
			<line x1="151.3" x2="245.6" y1="97.8" y2="565.6" />
			<line x1="245.6" x2="-36.4" y1="565.6" y2="368.9" />
			<line x1="245.6" x2="440.0" y1="565.6" y2="265.7" />
			<line x1="245.6" x2="151.3" y1="565.6" y2="97.8" />
		</g>
		<g>
			<circle cx="-36.4" cy="368.9" r="10.0" />
			<circle cx="440.0" cy="265.7" r="10.0" />
			<circle cx="151.3" cy="97.8" r="10.0" />
			<circle cx="245.6" cy="565.6" r="10.0" />
		</g>
	</svg>
	<svg class="animated" height="678.9" id="frame_9" viewBox="-56.5 74.8 515.4 678.9" width="515.4" x="1.3" xmlns="http://www.w3.org/2000/svg" y="47.9">
		<g stroke="black" stroke-width="1px">
			<line x1="-36.5" x2="438.9" y1="370.4" y2="268.9" />
			<line x1="-36.5" x2="150.9" y1="370.4" y2="94.8" />
			<line x1="-36.5" x2="247.1" y1="370.4" y2="564.1" />
			<line x1="438.9" x2="-36.5" y1="268.9" y2="370.4" />
			<line x1="438.9" x2="150.9" y1="268.9" y2="94.8" />
			<line x1="438.9" x2="247.1" y1="268.9" y2="564.1" />
			<line x1="150.9" x2="-36.5" y1="94.8" y2="370.4" />
			<line x1="150.9" x2="438.9" y1="94.8" y2="268.9" />
			<line x1="150.9" x2="247.1" y1="94.8" y2="564.1" />
			<line x1="247.1" x2="-36.5" y1="564.1" y2="370.4" />
			<line x1="247.1" x2="438.9" y1="564.1" y2="268.9" />
			<line x1="247.1" x2="150.9" y1="564.1" y2="94.8" />
		</g>
		<g>
			<circle cx="-36.5" cy="370.4" r="10.0" />
			<circle cx="438.9" cy="268.9" r="10.0" />
			<circle cx="150.9" cy="94.8" r="10.0" />
			<circle cx="247.1" cy="564.1" r="10.0" />
		</g>
	</svg>
</svg>