<svg viewBox="0 0 540.000000 540.000000" xmlns="http://www.w3.org/2000/svg">
	<style type="text/css">
		<![CDATA[
			#frame_0 {
				animation-name: anim_0;
			}
			#frame_1 {
				animation-name: anim_1;
			}
			#frame_10 {
				animation-name: anim_10;
			}
			#frame_11 {
				animation-name: anim_11;
			}
			#frame_12 {
				animation-name: anim_12;
			}
			#frame_2 {
				animation-name: anim_2;
			}
			#frame_3 {
				animation-name: anim_3;
			}
			#frame_4 {
				animation-name: anim_4;
			}
			#frame_5 {
				animation-name: anim_5;
			}
			#frame_6 {
				animation-name: anim_6;
			}
			#frame_7 {
				animation-name: anim_7;
			}
			#frame_8 {
				animation-name: anim_8;
			}
			#frame_9 {
				animation-name: anim_9;
			}
			svg.animated {
				animation-duration: 4.333333s;
				animation-iteration-count: infinite;
				animation-timing-function: step-end;
				opacity: 0;
			}
			@keyframes anim_0 {
				0% {
					opacity: 0;
				}
				0.000000% {
					opacity: 1;
				}
				7.692308% {
					opacity: 0;
				}
			}
			@keyframes anim_1 {
				0% {
					opacity: 0;
				}
				15.384615% {
					opacity: 0;
				}
				7.692308% {
					opacity: 1;
				}
			}
			@keyframes anim_10 {
				0% {
					opacity: 0;
				}
				76.923077% {
					opacity: 1;
				}
				84.615385% {
					opacity: 0;
				}
			}
			@keyframes anim_11 {
				0% {
					opacity: 0;
				}
				84.615385% {
					opacity: 1;
				}
				92.307692% {
					opacity: 0;
				}
			}
			@keyframes anim_12 {
				0% {
					opacity: 0;
				}
				100.000000% {
					opacity: 0;
				}
				92.307692% {
					opacity: 1;
				}
			}
			@keyframes anim_2 {
				0% {
					opacity: 0;
				}
				15.384615% {
					opacity: 1;
				}
				23.076923% {
					opacity: 0;
				}
			}
			@keyframes anim_3 {
				0% {
					opacity: 0;
				}
				23.076923% {
					opacity: 1;
				}
				30.769231% {
					opacity: 0;
				}
			}
			@keyframes anim_4 {
				0% {
					opacity: 0;
				}
				30.769231% {
					opacity: 1;
				}
				38.461538% {
					opacity: 0;
				}
			}
			@keyframes anim_5 {
				0% {
					opacity: 0;
				}
				38.461538% {
					opacity: 1;
				}
				46.153846% {
					opacity: 0;
				}
			}
			@keyframes anim_6 {
				0% {
					opacity: 0;
				}
				46.153846% {
					opacity: 1;
				}
				53.846154% {
					opacity: 0;
				}
			}
			@keyframes anim_7 {
				0% {
					opacity: 0;
				}
				53.846154% {
					opacity: 1;
				}
				61.538462% {
					opacity: 0;
				}
			}
			@keyframes anim_8 {
				0% {
					opacity: 0;
				}
				61.538462% {
					opacity: 1;
				}
				69.230769% {
					opacity: 0;
				}
			}
			@keyframes anim_9 {
				0% {
					opacity: 0;
				}
				69.230769% {
					opacity: 1;
				}
				76.923077% {
					opacity: 0;
				}
			}
		]]>
	</style>
	<svg class="animated" height="540.0" id="frame_0" viewBox="-270.0 -270.0 540.0 540.0" width="540.0" x="0.0" xmlns="http://www.w3.org/2000/svg" y="0.0">
		<g stroke="black" stroke-width="1px">
			<line x1="250.0" x2="176.8" y1="0.0" y2="176.8" />
			<line x1="176.8" x2="0.0" y1="176.8" y2="250.0" />
			<line x1="0.0" x2="-176.8" y1="250.0" y2="176.8" />
			<line x1="-176.8" x2="-250.0" y1="176.8" y2="0.0" />
			<line x1="-250.0" x2="-176.8" y1="0.0" y2="-176.8" />
			<line x1="-176.8" x2="-0.0" y1="-176.8" y2="-250.0" />
			<line x1="-0.0" x2="176.8" y1="-250.0" y2="-176.8" />
			<line x1="176.8" x2="250.0" y1="-176.8" y2="0.0" />
			<line x1="0.0" x2="0.0" y1="0.0" y2="0.0" />
			<line x1="0.0" x2="0.0" y1="0.0" y2="0.0" />
			<line x1="0.0" x2="0.0" y1="0.0" y2="0.0" />
			<line x1="0.0" x2="0.0" y1="0.0" y2="0.0" />
			<line x1="0.0" x2="0.0" y1="0.0" y2="0.0" />
			<line x1="0.0" x2="0.0" y1="0.0" y2="0.0" />
			<line x1="0.0" x2="0.0" y1="0.0" y2="0.0" />
			<line x1="0.0" x2="0.0" y1="0.0" y2="0.0" />
			<line x1="250.0" x2="0.0" y1="0.0" y2="0.0" />
			<line x1="176.8" x2="0.0" y1="176.8" y2="0.0" />
			<line x1="0.0" x2="0.0" y1="250.0" y2="0.0" />
			<line x1="-176.8" x2="0.0" y1="176.8" y2="0.0" />
			<line x1="-250.0" x2="0.0" y1="0.0" y2="0.0" />
			<line x1="-176.8" x2="0.0" y1="-176.8" y2="0.0" />
			<line x1="-0.0" x2="0.0" y1="-250.0" y2="0.0" />
			<line x1="176.8" x2="0.0" y1="-176.8" y2="0.0" />
		</g>
		<g>
			<circle cx="250.0" cy="0.0" r="10.0" />
			<circle cx="176.8" cy="176.8" r="10.0" />
			<circle cx="0.0" cy="250.0" r="10.0" />
			<circle cx="-176.8" cy="176.8" r="10.0" />
			<circle cx="-250.0" cy="0.0" r="10.0" />
			<circle cx="-176.8" cy="-176.8" r="10.0" />
			<circle cx="-0.0" cy="-250.0" r="10.0" />
			<circle cx="176.8" cy="-176.8" r="10.0" />
			<circle cx="0.0" cy="0.0" r="10.0" />
			<circle cx="0.0" cy="0.0" r="10.0" />
			<circle cx="0.0" cy="0.0" r="10.0" />
			<circle cx="0.0" cy="0.0" r="10.0" />
			<circle cx="0.0" cy="0.0" r="10.0" />
			<circle cx="0.0" cy="0.0" r="10.0" />
			<circle cx="0.0" cy="0.0" r="10.0" />
			<circle cx="0.0" cy="0.0" r="10.0" />
		</g>
	</svg>
	<svg class="animated" height="540.0" id="frame_1" viewBox="-270.0 -270.0 540.0 540.0" width="540.0" x="0.0" xmlns="http://www.w3.org/2000/svg" y="0.0">
		<g stroke="black" stroke-width="1px">
			<line x1="250.0" x2="176.8" y1="0.0" y2="176.8" />
			<line x1="176.8" x2="0.0" y1="176.8" y2="250.0" />
			<line x1="0.0" x2="-176.8" y1="250.0" y2="176.8" />
			<line x1="-176.8" x2="-250.0" y1="176.8" y2="0.0" />
			<line x1="-250.0" x2="-176.8" y1="0.0" y2="-176.8" />
			<line x1="-176.8" x2="-0.0" y1="-176.8" y2="-250.0" />
			<line x1="-0.0" x2="176.8" y1="-250.0" y2="-176.8" />
			<line x1="176.8" x2="250.0" y1="-176.8" y2="0.0" />
			<line x1="83.3" x2="86.7" y1="0.0" y2="58.9" />
			<line x1="86.7" x2="28.9" y1="58.9" y2="103.0" />
			<line x1="28.9" x2="-49.3" y1="103.0" y2="93.3" />
			<line x1="-49.3" x2="-99.8" y1="93.3" y2="31.1" />
			<line x1="-99.8" x2="-92.2" y1="31.1" y2="-48.6" />
			<line x1="-92.2" x2="-30.7" y1="-48.6" y2="-99.5" />
			<line x1="-30.7" x2="76.5" y1="-99.5" y2="-92.1" />
			<line x1="76.5" x2="83.3" y1="-92.1" y2="0.0" />
			<line x1="250.0" x2="83.3" y1="0.0" y2="0.0" />
			<line x1="176.8" x2="86.7" y1="176.8" y2="58.9" />
			<line x1="0.0" x2="28.9" y1="250.0" y2="103.0" />
			<line x1="-176.8" x2="-49.3" y1="176.8" y2="93.3" />
			<line x1="-250.0" x2="-99.8" y1="0.0" y2="31.1" />
			<line x1="-176.8" x2="-92.2" y1="-176.8" y2="-48.6" />
			<line x1="-0.0" x2="-30.7" y1="-250.0" y2="-99.5" />
			<line x1="176.8" x2="76.5" y1="-176.8" y2="-92.1" />
		</g>
		<g>
			<circle cx="250.0" cy="0.0" r="10.0" />
			<circle cx="176.8" cy="176.8" r="10.0" />
			<circle cx="0.0" cy="250.0" r="10.0" />
			<circle cx="-176.8" cy="176.8" r="10.0" />
			<circle cx="-250.0" cy="0.0" r="10.0" />
			<circle cx="-176.8" cy="-176.8" r="10.0" />
			<circle cx="-0.0" cy="-250.0" r="10.0" />
			<circle cx="176.8" cy="-176.8" r="10.0" />
			<circle cx="83.3" cy="0.0" r="10.0" />
			<circle cx="86.7" cy="58.9" r="10.0" />
			<circle cx="28.9" cy="103.0" r="10.0" />
			<circle cx="-49.3" cy="93.3" r="10.0" />
			<circle cx="-99.8" cy="31.1" r="10.0" />
			<circle cx="-92.2" cy="-48.6" r="10.0" />
			<circle cx="-30.7" cy="-99.5" r="10.0" />
			<circle cx="76.5" cy="-92.1" r="10.0" />
		</g>
	</svg>
	<svg class="animated" height="540.0" id="frame_2" viewBox="-270.0 -270.0 540.0 540.0" width="540.0" x="0.0" xmlns="http://www.w3.org/2000/svg" y="0.0">
		<g stroke="black" stroke-width="1px">
			<line x1="250.0" x2="176.8" y1="0.0" y2="176.8" />
			<line x1="176.8" x2="0.0" y1="176.8" y2="250.0" />
			<line x1="0.0" x2="-176.8" y1="250.0" y2="176.8" />
			<line x1="-176.8" x2="-250.0" y1="176.8" y2="0.0" />
			<line x1="-250.0" x2="-176.8" y1="0.0" y2="-176.8" />
			<line x1="-176.8" x2="-0.0" y1="-176.8" y2="-250.0" />
			<line x1="-0.0" x2="176.8" y1="-250.0" y2="-176.8" />
			<line x1="176.8" x2="250.0" y1="-176.8" y2="0.0" />
			<line x1="137.7" x2="114.5" y1="-11.1" y2="89.6" />
			<line x1="114.5" x2="21.7" y1="89.6" y2="144.3" />
			<line x1="21.7" x2="-84.9" y1="144.3" y2="117.4" />
			<line x1="-84.9" x2="-142.4" y1="117.4" y2="22.9" />
			<line x1="-142.4" x2="-116.6" y1="22.9" y2="-84.5" />
			<line x1="-116.6" x2="-13.4" y1="-84.5" y2="-142.2" />
			<line x1="-13.4" x2="100.4" y1="-142.2" y2="-110.0" />
			<line x1="100.4" x2="137.7" y1="-110.0" y2="-11.1" />
			<line x1="250.0" x2="137.7" y1="0.0" y2="-11.1" />
			<line x1="176.8" x2="114.5" y1="176.8" y2="89.6" />
			<line x1="0.0" x2="21.7" y1="250.0" y2="144.3" />
			<line x1="-176.8" x2="-84.9" y1="176.8" y2="117.4" />
			<line x1="-250.0" x2="-142.4" y1="0.0" y2="22.9" />
			<line x1="-176.8" x2="-116.6" y1="-176.8" y2="-84.5" />
			<line x1="-0.0" x2="-13.4" y1="-250.0" y2="-142.2" />
			<line x1="176.8" x2="100.4" y1="-176.8" y2="-110.0" />
		</g>
		<g>
			<circle cx="250.0" cy="0.0" r="10.0" />
			<circle cx="176.8" cy="176.8" r="10.0" />
			<circle cx="0.0" cy="250.0" r="10.0" />
			<circle cx="-176.8" cy="176.8" r="10.0" />
			<circle cx="-250.0" cy="0.0" r="10.0" />
			<circle cx="-176.8" cy="-176.8" r="10.0" />
			<circle cx="-0.0" cy="-250.0" r="10.0" />
			<circle cx="176.8" cy="-176.8" r="10.0" />
			<circle cx="137.7" cy="-11.1" r="10.0" />
			<circle cx="114.5" cy="89.6" r="10.0" />
			<circle cx="21.7" cy="144.3" r="10.0" />
			<circle cx="-84.9" cy="117.4" r="10.0" />
			<circle cx="-142.4" cy="22.9" r="10.0" />
			<circle cx="-116.6" cy="-84.5" r="10.0" />
			<circle cx="-13.4" cy="-142.2" r="10.0" />
			<circle cx="100.4" cy="-110.0" r="10.0" />
		</g>
	</svg>
	<svg class="animated" height="540.0" id="frame_3" viewBox="-270.0 -270.0 540.0 540.0" width="540.0" x="0.0" xmlns="http://www.w3.org/2000/svg" y="0.0">
		<g stroke="black" stroke-width="1px">
			<line x1="250.0" x2="176.8" y1="0.0" y2="176.8" />
			<line x1="176.8" x2="0.0" y1="176.8" y2="250.0" />
			<line x1="0.0" x2="-176.8" y1="250.0" y2="176.8" />
			<line x1="-176.8" x2="-250.0" y1="176.8" y2="0.0" />
			<line x1="-250.0" x2="-176.8" y1="0.0" y2="-176.8" />
			<line x1="-176.8" x2="-0.0" y1="-176.8" y2="-250.0" />
			<line x1="-0.0" x2="176.8" y1="-250.0" y2="-176.8" />
			<line x1="176.8" x2="250.0" y1="-176.8" y2="0.0" />
			<line x1="154.9" x2="117.8" y1="-6.8" y2="104.7" />
			<line x1="117.8" x2="11.0" y1="104.7" y2="157.4" />
			<line x1="11.0" x2="-102.7" y1="157.4" y2="119.0" />
			<line x1="-102.7" x2="-156.5" y1="119.0" y2="11.5" />
			<line x1="-156.5" x2="-115.5" y1="11.5" y2="-102.5" />
			<line x1="-115.5" x2="-5.1" y1="-102.5" y2="-154.2" />
			<line x1="-5.1" x2="108.9" y1="-154.2" y2="-112.6" />
			<line x1="108.9" x2="154.9" y1="-112.6" y2="-6.8" />
			<line x1="250.0" x2="154.9" y1="0.0" y2="-6.8" />
			<line x1="176.8" x2="117.8" y1="176.8" y2="104.7" />
			<line x1="0.0" x2="11.0" y1="250.0" y2="157.4" />
			<line x1="-176.8" x2="-102.7" y1="176.8" y2="119.0" />
			<line x1="-250.0" x2="-156.5" y1="0.0" y2="11.5" />
			<line x1="-176.8" x2="-115.5" y1="-176.8" y2="-102.5" />
			<line x1="-0.0" x2="-5.1" y1="-250.0" y2="-154.2" />
			<line x1="176.8" x2="108.9" y1="-176.8" y2="-112.6" />
		</g>
		<g>
			<circle cx="250.0" cy="0.0" r="10.0" />
			<circle cx="176.8" cy="176.8" r="10.0" />
			<circle cx="0.0" cy="250.0" r="10.0" />
			<circle cx="-176.8" cy="176.8" r="10.0" />
			<circle cx="-250.0" cy="0.0" r="10.0" />
			<circle cx="-176.8" cy="-176.8" r="10.0" />
			<circle cx="-0.0" cy="-250.0" r="10.0" />
			<circle cx="176.8" cy="-176.8" r="10.0" />
			<circle cx="154.9" cy="-6.8" r="10.0" />
			<circle cx="117.8" cy="104.7" r="10.0" />
			<circle cx="11.0" cy="157.4" r="10.0" />
			<circle cx="-102.7" cy="119.0" r="10.0" />
			<circle cx="-156.5" cy="11.5" r="10.0" />
			<circle cx="-115.5" cy="-102.5" r="10.0" />
			<circle cx="-5.1" cy="-154.2" r="10.0" />
			<circle cx="108.9" cy="-112.6" r="10.0" />
		</g>
	</svg>
	<svg class="animated" height="540.0" id="frame_4" viewBox="-270.0 -270.0 540.0 540.0" width="540.0" x="0.0" xmlns="http://www.w3.org/2000/svg" y="0.0">
		<g stroke="black" stroke-width="1px">
			<line x1="250.0" x2="176.8" y1="0.0" y2="176.8" />
			<line x1="176.8" x2="0.0" y1="176.8" y2="250.0" />
			<line x1="0.0" x2="-176.8" y1="250.0" y2="176.8" />
			<line x1="-176.8" x2="-250.0" y1="176.8" y2="0.0" />
			<line x1="-250.0" x2="-176.8" y1="0.0" y2="-176.8" />
			<line x1="-176.8" x2="-0.0" y1="-176.8" y2="-250.0" />
			<line x1="-0.0" x2="176.8" y1="-250.0" y2="-176.8" />
			<line x1="176.8" x2="250.0" y1="-176.8" y2="0.0" />
			<line x1="158.9" x2="115.5" y1="-2.6" y2="110.5" />
			<line x1="115.5" x2="4.3" y1="110.5" y2="159.8" />
			<line x1="4.3" x2="-109.7" y1="159.8" y2="116.0" />
			<line x1="-109.7" x2="-158.4" y1="116.0" y2="4.5" />
			<line x1="-158.4" x2="-113.4" y1="4.5" y2="-108.8" />
			<line x1="-113.4" x2="-1.5" y1="-108.8" y2="-157.1" />
			<line x1="-1.5" x2="111.4" y1="-157.1" y2="-112.2" />
			<line x1="111.4" x2="158.9" y1="-112.2" y2="-2.6" />
			<line x1="250.0" x2="158.9" y1="0.0" y2="-2.6" />
			<line x1="176.8" x2="115.5" y1="176.8" y2="110.5" />
			<line x1="0.0" x2="4.3" y1="250.0" y2="159.8" />
			<line x1="-176.8" x2="-109.7" y1="176.8" y2="116.0" />
			<line x1="-250.0" x2="-158.4" y1="0.0" y2="4.5" />
			<line x1="-176.8" x2="-113.4" y1="-176.8" y2="-108.8" />
			<line x1="-0.0" x2="-1.5" y1="-250.0" y2="-157.1" />
			<line x1="176.8" x2="111.4" y1="-176.8" y2="-112.2" />
		</g>
		<g>
			<circle cx="250.0" cy="0.0" r="10.0" />
			<circle cx="176.8" cy="176.8" r="10.0" />
			<circle cx="0.0" cy="250.0" r="10.0" />
			<circle cx="-176.8" cy="176.8" r="10.0" />
			<circle cx="-250.0" cy="0.0" r="10.0" />
			<circle cx="-176.8" cy="-176.8" r="10.0" />
			<circle cx="-0.0" cy="-250.0" r="10.0" />
			<circle cx="176.8" cy="-176.8" r="10.0" />
			<circle cx="158.9" cy="-2.6" r="10.0" />
			<circle cx="115.5" cy="110.5" r="10.0" />
			<circle cx="4.3" cy="159.8" r="10.0" />
			<circle cx="-109.7" cy="116.0" r="10.0" />
			<circle cx="-158.4" cy="4.5" r="10.0" />
			<circle cx="-113.4" cy="-108.8" r="10.0" />
			<circle cx="-1.5" cy="-157.1" r="10.0" />
			<circle cx="111.4" cy="-112.2" r="10.0" />
		</g>
	</svg>
	<svg class="animated" height="540.0" id="frame_5" viewBox="-270.0 -270.0 540.0 540.0" width="540.0" x="0.0" xmlns="http://www.w3.org/2000/svg" y="0.0">
		<g stroke="black" stroke-width="1px">
			<line x1="250.0" x2="176.8" y1="0.0" y2="176.8" />
			<line x1="176.8" x2="0.0" y1="176.8" y2="250.0" />
			<line x1="0.0" x2="-176.8" y1="250.0" y2="176.8" />
			<line x1="-176.8" x2="-250.0" y1="176.8" y2="0.0" />
			<line x1="-250.0" x2="-176.8" y1="0.0" y2="-176.8" />
			<line x1="-176.8" x2="-0.0" y1="-176.8" y2="-250.0" />
			<line x1="-0.0" x2="176.8" y1="-250.0" y2="-176.8" />
			<line x1="176.8" x2="250.0" y1="-176.8" y2="0.0" />
			<line x1="159.0" x2="113.3" y1="-0.6" y2="112.0" />
			<line x1="113.3" x2="1.2" y1="112.0" y2="159.4" />
			<line x1="1.2" x2="-111.3" y1="159.4" y2="113.6" />
			<line x1="-111.3" x2="-158.2" y1="113.6" y2="1.6" />
			<line x1="-158.2" x2="-112.2" y1="1.6" y2="-110.8" />
			<line x1="-112.2" x2="-0.3" y1="-110.8" y2="-157.6" />
			<line x1="-0.3" x2="111.8" y1="-157.6" y2="-111.7" />
			<line x1="111.8" x2="159.0" y1="-111.7" y2="-0.6" />
			<line x1="250.0" x2="159.0" y1="0.0" y2="-0.6" />
			<line x1="176.8" x2="113.3" y1="176.8" y2="112.0" />
			<line x1="0.0" x2="1.2" y1="250.0" y2="159.4" />
			<line x1="-176.8" x2="-111.3" y1="176.8" y2="113.6" />
			<line x1="-250.0" x2="-158.2" y1="0.0" y2="1.6" />
			<line x1="-176.8" x2="-112.2" y1="-176.8" y2="-110.8" />
			<line x1="-0.0" x2="-0.3" y1="-250.0" y2="-157.6" />
			<line x1="176.8" x2="111.8" y1="-176.8" y2="-111.7" />
		</g>
		<g>
			<circle cx="250.0" cy="0.0" r="10.0" />
			<circle cx="176.8" cy="176.8" r="10.0" />
			<circle cx="0.0" cy="250.0" r="10.0" />
			<circle cx="-176.8" cy="176.8" r="10.0" />
			<circle cx="-250.0" cy="0.0" r="10.0" />
			<circle cx="-176.8" cy="-176.8" r="10.0" />
			<circle cx="-0.0" cy="-250.0" r="10.0" />
			<circle cx="176.8" cy="-176.8" r="10.0" />
			<circle cx="159.0" cy="-0.6" r="10.0" />
			<circle cx="113.3" cy="112.0" r="10.0" />
			<circle cx="1.2" cy="159.4" r="10.0" />
			<circle cx="-111.3" cy="113.6" r="10.0" />
			<circle cx="-158.2" cy="1.6" r="10.0" />
			<circle cx="-112.2" cy="-110.8" r="10.0" />
			<circle cx="-0.3" cy="-157.6" r="10.0" />
			<circle cx="111.8" cy="-111.7" r="10.0" />
		</g>
	</svg>
	<svg class="animated" height="540.0" id="frame_6" viewBox="-270.0 -270.0 540.0 540.0" width="540.0" x="0.0" xmlns="http://www.w3.org/2000/svg" y="0.0">
		<g stroke="black" stroke-width="1px">
			<line x1="250.0" x2="176.8" y1="0.0" y2="176.8" />
			<line x1="176.8" x2="0.0" y1="176.8" y2="250.0" />
			<line x1="0.0" x2="-176.8" y1="250.0" y2="176.8" />
			<line x1="-176.8" x2="-250.0" y1="176.8" y2="0.0" />
			<line x1="-250.0" x2="-176.8" y1="0.0" y2="-176.8" />
			<line x1="-176.8" x2="-0.0" y1="-176.8" y2="-250.0" />
			<line x1="-0.0" x2="176.8" y1="-250.0" y2="-176.8" />
			<line x1="176.8" x2="250.0" y1="-176.8" y2="0.0" />
			<line x1="158.4" x2="112.1" y1="0.1" y2="112.1" />
			<line x1="112.1" x2="0.3" y1="112.1" y2="158.5" />
			<line x1="0.3" x2="-111.6" y1="158.5" y2="112.3" />
			<line x1="-111.6" x2="-157.9" y1="112.3" y2="0.5" />
			<line x1="-157.9" x2="-111.7" y1="0.5" y2="-111.3" />
			<line x1="-111.7" x2="0.1" y1="-111.3" y2="-157.7" />
			<line x1="0.1" x2="111.7" y1="-157.7" y2="-111.4" />
			<line x1="111.7" x2="158.4" y1="-111.4" y2="0.1" />
			<line x1="250.0" x2="158.4" y1="0.0" y2="0.1" />
			<line x1="176.8" x2="112.1" y1="176.8" y2="112.1" />
			<line x1="0.0" x2="0.3" y1="250.0" y2="158.5" />
			<line x1="-176.8" x2="-111.6" y1="176.8" y2="112.3" />
			<line x1="-250.0" x2="-157.9" y1="0.0" y2="0.5" />
			<line x1="-176.8" x2="-111.7" y1="-176.8" y2="-111.3" />
			<line x1="-0.0" x2="0.1" y1="-250.0" y2="-157.7" />
			<line x1="176.8" x2="111.7" y1="-176.8" y2="-111.4" />
		</g>
		<g>
			<circle cx="250.0" cy="0.0" r="10.0" />
			<circle cx="176.8" cy="176.8" r="10.0" />
			<circle cx="0.0" cy="250.0" r="10.0" />
			<circle cx="-176.8" cy="176.8" r="10.0" />
			<circle cx="-250.0" cy="0.0" r="10.0" />
			<circle cx="-176.8" cy="-176.8" r="10.0" />
			<circle cx="-0.0" cy="-250.0" r="10.0" />
			<circle cx="176.8" cy="-176.8" r="10.0" />
			<circle cx="158.4" cy="0.1" r="10.0" />
			<circle cx="112.1" cy="112.1" r="10.0" />
			<circle cx="0.3" cy="158.5" r="10.0" />
			<circle cx="-111.6" cy="112.3" r="10.0" />
			<circle cx="-157.9" cy="0.5" r="10.0" />
			<circle cx="-111.7" cy="-111.3" r="10.0" />
			<circle cx="0.1" cy="-157.7" r="10.0" />
			<circle cx="111.7" cy="-111.4" r="10.0" />
		</g>
	</svg>
	<svg class="animated" height="540.0" id="frame_7" viewBox="-270.0 -270.0 540.0 540.0" width="540.0" x="0.0" xmlns="http://www.w3.org/2000/svg" y="0.0">
		<g stroke="black" stroke-width="1px">
			<line x1="250.0" x2="176.8" y1="0.0" y2="176.8" />
			<line x1="176.8" x2="0.0" y1="176.8" y2="250.0" />
			<line x1="0.0" x2="-176.8" y1="250.0" y2="176.8" />
			<line x1="-176.8" x2="-250.0" y1="176.8" y2="0.0" />
			<line x1="-250.0" x2="-176.8" y1="0.0" y2="-176.8" />
			<line x1="-176.8" x2="-0.0" y1="-176.8" y2="-250.0" />
			<line x1="-0.0" x2="176.8" y1="-250.0" y2="-176.8" />
			<line x1="176.8" x2="250.0" y1="-176.8" y2="0.0" />
			<line x1="158.0" x2="111.7" y1="0.2" y2="111.8" />
			<line x1="111.7" x2="0.0" y1="111.8" y2="158.0" />
			<line x1="0.0" x2="-111.6" y1="158.0" y2="111.8" />
			<line x1="-111.6" x2="-157.7" y1="111.8" y2="0.2" />
			<line x1="-157.7" x2="-111.5" y1="0.2" y2="-111.4" />
			<line x1="-111.5" x2="0.1" y1="-111.4" y2="-157.6" />
			<line x1="0.1" x2="111.6" y1="-157.6" y2="-111.4" />
			<line x1="111.6" x2="158.0" y1="-111.4" y2="0.2" />
			<line x1="250.0" x2="158.0" y1="0.0" y2="0.2" />
			<line x1="176.8" x2="111.7" y1="176.8" y2="111.8" />
			<line x1="0.0" x2="0.0" y1="250.0" y2="158.0" />
			<line x1="-176.8" x2="-111.6" y1="176.8" y2="111.8" />
			<line x1="-250.0" x2="-157.7" y1="0.0" y2="0.2" />
			<line x1="-176.8" x2="-111.5" y1="-176.8" y2="-111.4" />
			<line x1="-0.0" x2="0.1" y1="-250.0" y2="-157.6" />
			<line x1="176.8" x2="111.6" y1="-176.8" y2="-111.4" />
		</g>
		<g>
			<circle cx="250.0" cy="0.0" r="10.0" />
			<circle cx="176.8" cy="176.8" r="10.0" />
			<circle cx="0.0" cy="250.0" r="10.0" />
			<circle cx="-176.8" cy="176.8" r="10.0" />
			<circle cx="-250.0" cy="0.0" r="10.0" />
			<circle cx="-176.8" cy="-176.8" r="10.0" />
			<circle cx="-0.0" cy="-250.0" r="10.0" />
			<circle cx="176.8" cy="-176.8" r="10.0" />
			<circle cx="158.0" cy="0.2" r="10.0" />
			<circle cx="111.7" cy="111.8" r="10.0" />
			<circle cx="0.0" cy="158.0" r="10.0" />
			<circle cx="-111.6" cy="111.8" r="10.0" />
			<circle cx="-157.7" cy="0.2" r="10.0" />
			<circle cx="-111.5" cy="-111.4" r="10.0" />
			<circle cx="0.1" cy="-157.6" r="10.0" />
			<circle cx="111.6" cy="-111.4" r="10.0" />
		</g>
	</svg>
	<svg class="animated" height="540.0" id="frame_8" viewBox="-270.0 -270.0 540.0 540.0" width="540.0" x="0.0" xmlns="http://www.w3.org/2000/svg" y="0.0">
		<g stroke="black" stroke-width="1px">
			<line x1="250.0" x2="176.8" y1="0.0" y2="176.8" />
			<line x1="176.8" x2="0.0" y1="176.8" y2="250.0" />
			<line x1="0.0" x2="-176.8" y1="250.0" y2="176.8" />
			<line x1="-176.8" x2="-250.0" y1="176.8" y2="0.0" />
			<line x1="-250.0" x2="-176.8" y1="0.0" y2="-176.8" />
			<line x1="-176.8" x2="-0.0" y1="-176.8" y2="-250.0" />
			<line x1="-0.0" x2="176.8" y1="-250.0" y2="-176.8" />
			<line x1="176.8" x2="250.0" y1="-176.8" y2="0.0" />
			<line x1="157.8" x2="111.5" y1="0.2" y2="111.7" />
			<line x1="111.5" x2="-0.0" y1="111.7" y2="157.8" />
			<line x1="-0.0" x2="-111.5" y1="157.8" y2="111.6" />
			<line x1="-111.5" x2="-157.7" y1="111.6" y2="0.1" />
			<line x1="-157.7" x2="-111.5" y1="0.1" y2="-111.4" />
			<line x1="-111.5" x2="0.1" y1="-111.4" y2="-157.6" />
			<line x1="0.1" x2="111.5" y1="-157.6" y2="-111.4" />
			<line x1="111.5" x2="157.8" y1="-111.4" y2="0.2" />
			<line x1="250.0" x2="157.8" y1="0.0" y2="0.2" />
			<line x1="176.8" x2="111.5" y1="176.8" y2="111.7" />
			<line x1="0.0" x2="-0.0" y1="250.0" y2="157.8" />
			<line x1="-176.8" x2="-111.5" y1="176.8" y2="111.6" />
			<line x1="-250.0" x2="-157.7" y1="0.0" y2="0.1" />
			<line x1="-176.8" x2="-111.5" y1="-176.8" y2="-111.4" />
			<line x1="-0.0" x2="0.1" y1="-250.0" y2="-157.6" />
			<line x1="176.8" x2="111.5" y1="-176.8" y2="-111.4" />
		</g>
		<g>
			<circle cx="250.0" cy="0.0" r="10.0" />
			<circle cx="176.8" cy="176.8" r="10.0" />
			<circle cx="0.0" cy="250.0" r="10.0" />
			<circle cx="-176.8" cy="176.8" r="10.0" />
			<circle cx="-250.0" cy="0.0" r="10.0" />
			<circle cx="-176.8" cy="-176.8" r="10.0" />
			<circle cx="-0.0" cy="-250.0" r="10.0" />
			<circle cx="176.8" cy="-176.8" r="10.0" />
			<circle cx="157.8" cy="0.2" r="10.0" />
			<circle cx="111.5" cy="111.7" r="10.0" />
			<circle cx="-0.0" cy="157.8" r="10.0" />
			<circle cx="-111.5" cy="111.6" r="10.0" />
			<circle cx="-157.7" cy="0.1" r="10.0" />
			<circle cx="-111.5" cy="-111.4" r="10.0" />
			<circle cx="0.1" cy="-157.6" r="10.0" />
			<circle cx="111.5" cy="-111.4" r="10.0" />
		</g>
	</svg>
	<svg class="animated" height="540.0" id="frame_9" viewBox="-270.0 -270.0 540.0 540.0" width="540.0" x="0.0" xmlns="http://www.w3.org/2000/svg" y="0.0">
		<g stroke="black" stroke-width="1px">
			<line x1="250.0" x2="176.8" y1="0.0" y2="176.8" />
			<line x1="176.8" x2="0.0" y1="176.8" y2="250.0" />
			<line x1="0.0" x2="-176.8" y1="250.0" y2="176.8" />
			<line x1="-176.8" x2="-250.0" y1="176.8" y2="0.0" />
			<line x1="-250.0" x2="-176.8" y1="0.0" y2="-176.8" />
			<line x1="-176.8" x2="-0.0" y1="-176.8" y2="-250.0" />
			<line x1="-0.0" x2="176.8" y1="-250.0" y2="-176.8" />
			<line x1="176.8" x2="250.0" y1="-176.8" y2="0.0" />
			<line x1="157.7" x2="111.5" y1="0.1" y2="111.6" />
			<line x1="111.5" x2="-0.0" y1="111.6" y2="157.7" />
			<line x1="-0.0" x2="-111.5" y1="157.7" y2="111.5" />
			<line x1="-111.5" x2="-157.6" y1="111.5" y2="0.0" />
			<line x1="-157.6" x2="-111.5" y1="0.0" y2="-111.5" />
			<line x1="-111.5" x2="0.0" y1="-111.5" y2="-157.6" />
			<line x1="0.0" x2="111.5" y1="-157.6" y2="-111.4" />
			<line x1="111.5" x2="157.7" y1="-111.4" y2="0.1" />
			<line x1="250.0" x2="157.7" y1="0.0" y2="0.1" />
			<line x1="176.8" x2="111.5" y1="176.8" y2="111.6" />
			<line x1="0.0" x2="-0.0" y1="250.0" y2="157.7" />
			<line x1="-176.8" x2="-111.5" y1="176.8" y2="111.5" />
			<line x1="-250.0" x2="-157.6" y1="0.0" y2="0.0" />
			<line x1="-176.8" x2="-111.5" y1="-176.8" y2="-111.5" />
			<line x1="-0.0" x2="0.0" y1="-250.0" y2="-157.6" />
			<line x1="176.8" x2="111.5" y1="-176.8" y2="-111.4" />
		</g>
		<g>
			<circle cx="250.0" cy="0.0" r="10.0" />
			<circle cx="176.8" cy="176.8" r="10.0" />
			<circle cx="0.0" cy="250.0" r="10.0" />
			<circle cx="-176.8" cy="176.8" r="10.0" />
			<circle cx="-250.0" cy="0.0" r="10.0" />
			<circle cx="-176.8" cy="-176.8" r="10.0" />
			<circle cx="-0.0" cy="-250.0" r="10.0" />
			<circle cx="176.8" cy="-176.8" r="10.0" />
			<circle cx="157.7" cy="0.1" r="10.0" />
			<circle cx="111.5" cy="111.6" r="10.0" />
			<circle cx="-0.0" cy="157.7" r="10.0" />
			<circle cx="-111.5" cy="111.5" r="10.0" />
			<circle cx="-157.6" cy="0.0" r="10.0" />
			<circle cx="-111.5" cy="-111.5" r="10.0" />
			<circle cx="0.0" cy="-157.6" r="10.0" />
			<circle cx="111.5" cy="-111.4" r="10.0" />
		</g>
	</svg>
	<svg class="animated" height="540.0" id="frame_10" viewBox="-270.0 -270.0 540.0 540.0" width="540.0" x="0.0" xmlns="http://www.w3.org/2000/svg" y="0.0">
		<g stroke="black" stroke-width="1px">
			<line x1="250.0" x2="176.8" y1="0.0" y2="176.8" />
			<line x1="176.8" x2="0.0" y1="176.8" y2="250.0" />
			<line x1="0.0" x2="-176.8" y1="250.0" y2="176.8" />
			<line x1="-176.8" x2="-250.0" y1="176.8" y2="0.0" />
			<line x1="-250.0" x2="-176.8" y1="0.0" y2="-176.8" />
			<line x1="-176.8" x2="-0.0" y1="-176.8" y2="-250.0" />
			<line x1="-0.0" x2="176.8" y1="-250.0" y2="-176.8" />
			<line x1="176.8" x2="250.0" y1="-176.8" y2="0.0" />
			<line x1="157.7" x2="111.5" y1="0.0" y2="111.5" />
			<line x1="111.5" x2="-0.0" y1="111.5" y2="157.7" />
			<line x1="-0.0" x2="-111.5" y1="157.7" y2="111.5" />
			<line x1="-111.5" x2="-157.6" y1="111.5" y2="0.0" />
			<line x1="-157.6" x2="-111.5" y1="0.0" y2="-111.5" />
			<line x1="-111.5" x2="0.0" y1="-111.5" y2="-157.6" />
			<line x1="0.0" x2="111.5" y1="-157.6" y2="-111.5" />
			<line x1="111.5" x2="157.7" y1="-111.5" y2="0.0" />
			<line x1="250.0" x2="157.7" y1="0.0" y2="0.0" />
			<line x1="176.8" x2="111.5" y1="176.8" y2="111.5" />
			<line x1="0.0" x2="-0.0" y1="250.0" y2="157.7" />
			<line x1="-176.8" x2="-111.5" y1="176.8" y2="111.5" />
			<line x1="-250.0" x2="-157.6" y1="0.0" y2="0.0" />
			<line x1="-176.8" x2="-111.5" y1="-176.8" y2="-111.5" />
			<line x1="-0.0" x2="0.0" y1="-250.0" y2="-157.6" />
			<line x1="176.8" x2="111.5" y1="-176.8" y2="-111.5" />
		</g>
		<g>
			<circle cx="250.0" cy="0.0" r="10.0" />
			<circle cx="176.8" cy="176.8" r="10.0" />
			<circle cx="0.0" cy="250.0" r="10.0" />
			<circle cx="-176.8" cy="176.8" r="10.0" />
			<circle cx="-250.0" cy="0.0" r="10.0" />
			<circle cx="-176.8" cy="-176.8" r="10.0" />
			<circle cx="-0.0" cy="-250.0" r="10.0" />
			<circle cx="176.8" cy="-176.8" r="10.0" />
			<circle cx="157.7" cy="0.0" r="10.0" />
			<circle cx="111.5" cy="111.5" r="10.0" />
			<circle cx="-0.0" cy="157.7" r="10.0" />
			<circle cx="-111.5" cy="111.5" r="10.0" />
			<circle cx="-157.6" cy="0.0" r="10.0" />
			<circle cx="-111.5" cy="-111.5" r="10.0" />
			<circle cx="0.0" cy="-157.6" r="10.0" />
			<circle cx="111.5" cy="-111.5" r="10.0" />
		</g>
	</svg>
	<svg class="animated" height="540.0" id="frame_11" viewBox="-270.0 -270.0 540.0 540.0" width="540.0" x="0.0" xmlns="http://www.w3.org/2000/svg" y="0.0">
		<g stroke="black" stroke-width="1px">
			<line x1="250.0" x2="176.8" y1="0.0" y2="176.8" />
			<line x1="176.8" x2="0.0" y1="176.8" y2="250.0" />
			<line x1="0.0" x2="-176.8" y1="250.0" y2="176.8" />
			<line x1="-176.8" x2="-250.0" y1="176.8" y2="0.0" />
			<line x1="-250.0" x2="-176.8" y1="0.0" y2="-176.8" />
			<line x1="-176.8" x2="-0.0" y1="-176.8" y2="-250.0" />
			<line x1="-0.0" x2="176.8" y1="-250.0" y2="-176.8" />
			<line x1="176.8" x2="250.0" y1="-176.8" y2="0.0" />
			<line x1="157.7" x2="111.5" y1="0.0" y2="111.5" />
			<line x1="111.5" x2="0.0" y1="111.5" y2="157.7" />
			<line x1="0.0" x2="-111.5" y1="157.7" y2="111.5" />
			<line x1="-111.5" x2="-157.6" y1="111.5" y2="0.0" />
			<line x1="-157.6" x2="-111.5" y1="0.0" y2="-111.5" />
			<line x1="-111.5" x2="0.0" y1="-111.5" y2="-157.6" />
			<line x1="0.0" x2="111.5" y1="-157.6" y2="-111.5" />
			<line x1="111.5" x2="157.7" y1="-111.5" y2="0.0" />
			<line x1="250.0" x2="157.7" y1="0.0" y2="0.0" />
			<line x1="176.8" x2="111.5" y1="176.8" y2="111.5" />
			<line x1="0.0" x2="0.0" y1="250.0" y2="157.7" />
			<line x1="-176.8" x2="-111.5" y1="176.8" y2="111.5" />
			<line x1="-250.0" x2="-157.6" y1="0.0" y2="0.0" />
			<line x1="-176.8" x2="-111.5" y1="-176.8" y2="-111.5" />
			<line x1="-0.0" x2="0.0" y1="-250.0" y2="-157.6" />
			<line x1="176.8" x2="111.5" y1="-176.8" y2="-111.5" />
		</g>
		<g>
			<circle cx="250.0" cy="0.0" r="10.0" />
			<circle cx="176.8" cy="176.8" r="10.0" />
			<circle cx="0.0" cy="250.0" r="10.0" />
			<circle cx="-176.8" cy="176.8" r="10.0" />
			<circle cx="-250.0" cy="0.0" r="10.0" />
			<circle cx="-176.8" cy="-176.8" r="10.0" />
			<circle cx="-0.0" cy="-250.0" r="10.0" />
			<circle cx="176.8" cy="-176.8" r="10.0" />
			<circle cx="157.7" cy="0.0" r="10.0" />
			<circle cx="111.5" cy="111.5" r="10.0" />
			<circle cx="0.0" cy="157.7" r="10.0" />
			<circle cx="-111.5" cy="111.5" r="10.0" />
			<circle cx="-157.6" cy="0.0" r="10.0" />
			<circle cx="-111.5" cy="-111.5" r="10.0" />
			<circle cx="0.0" cy="-157.6" r="10.0" />
			<circle cx="111.5" cy="-111.5" r="10.0" />
		</g>
	</svg>
	<svg class="animated" height="540.0" id="frame_12" viewBox="-270.0 -270.0 540.0 540.0" width="540.0" x="0.0" xmlns="http://www.w3.org/2000/svg" y="0.0">
		<g stroke="black" stroke-width="1px">
			<line x1="250.0" x2="176.8" y1="0.0" y2="176.8" />
			<line x1="176.8" x2="0.0" y1="176.8" y2="250.0" />
			<line x1="0.0" x2="-176.8" y1="250.0" y2="176.8" />
			<line x1="-176.8" x2="-250.0" y1="176.8" y2="0.0" />
			<line x1="-250.0" x2="-176.8" y1="0.0" y2="-176.8" />
			<line x1="-176.8" x2="-0.0" y1="-176.8" y2="-250.0" />
			<line x1="-0.0" x2="176.8" y1="-250.0" y2="-176.8" />
			<line x1="176.8" x2="250.0" y1="-176.8" y2="0.0" />
			<line x1="157.7" x2="111.5" y1="0.0" y2="111.5" />
			<line x1="111.5" x2="0.0" y1="111.5" y2="157.7" />
			<line x1="0.0" x2="-111.5" y1="157.7" y2="111.5" />
			<line x1="-111.5" x2="-157.6" y1="111.5" y2="0.0" />
			<line x1="-157.6" x2="-111.5" y1="0.0" y2="-111.5" />
			<line x1="-111.5" x2="0.0" y1="-111.5" y2="-157.6" />
			<line x1="0.0" x2="111.5" y1="-157.6" y2="-111.5" />
			<line x1="111.5" x2="157.7" y1="-111.5" y2="0.0" />
			<line x1="250.0" x2="157.7" y1="0.0" y2="0.0" />
			<line x1="176.8" x2="111.5" y1="176.8" y2="111.5" />
			<line x1="0.0" x2="0.0" y1="250.0" y2="157.7" />
			<line x1="-176.8" x2="-111.5" y1="176.8" y2="111.5" />
			<line x1="-250.0" x2="-157.6" y1="0.0" y2="0.0" />
			<line x1="-176.8" x2="-111.5" y1="-176.8" y2="-111.5" />
			<line x1="-0.0" x2="0.0" y1="-250.0" y2="-157.6" />
			<line x1="176.8" x2="111.5" y1="-176.8" y2="-111.5" />
		</g>
		<g>
			<circle cx="250.0" cy="0.0" r="10.0" />
			<circle cx="176.8" cy="176.8" r="10.0" />
			<circle cx="0.0" cy="250.0" r="10.0" />
			<circle cx="-176.8" cy="176.8" r="10.0" />
			<circle cx="-250.0" cy="0.0" r="10.0" />
			<circle cx="-176.8" cy="-176.8" r="10.0" />
			<circle cx="-0.0" cy="-250.0" r="10.0" />
			<circle cx="176.8" cy="-176.8" r="10.0" />
			<circle cx="157.7" cy="0.0" r="10.0" />
			<circle cx="111.5" cy="111.5" r="10.0" />
			<circle cx="0.0" cy="157.7" r="10.0" />
			<circle cx="-111.5" cy="111.5" r="10.0" />
			<circle cx="-157.6" cy="0.0" r="10.0" />
			<circle cx="-111.5" cy="-111.5" r="10.0" />
			<circle cx="0.0" cy="-157.6" r="10.0" />
			<circle cx="111.5" cy="-111.5" r="10.0" />
		</g>
	</svg>
</svg>