<svg viewBox="0 0 492.299988 515.599976" xmlns="http://www.w3.org/2000/svg">
	<style type="text/css">
		<![CDATA[
			#frame_0 {
				animation-name: anim_0;
			}
			#frame_1 {
				animation-name: anim_1;
			}
			#frame_10 {
				animation-name: anim_10;
			}
			#frame_11 {
				animation-name: anim_11;
			}
			#frame_12 {
				animation-name: anim_12;
			}
			#frame_2 {
				animation-name: anim_2;
			}
			#frame_3 {
				animation-name: anim_3;
			}
			#frame_4 {
				animation-name: anim_4;
			}
			#frame_5 {
				animation-name: anim_5;
			}
			#frame_6 {
				animation-name: anim_6;
			}
			#frame_7 {
				animation-name: anim_7;
			}
			#frame_8 {
				animation-name: anim_8;
			}
			#frame_9 {
				animation-name: anim_9;
			}
			svg.animated {
				animation-duration: 4.333333s;
				animation-iteration-count: infinite;
				animation-timing-function: step-end;
				opacity: 0;
			}
			@keyframes anim_0 {
				0% {
					opacity: 0;
				}
				0.000000% {
					opacity: 1;
				}
				7.692308% {
					opacity: 0;
				}
			}
			@keyframes anim_1 {
				0% {
					opacity: 0;
				}
				15.384615% {
					opacity: 0;
				}
				7.692308% {
					opacity: 1;
				}
			}
			@keyframes anim_10 {
				0% {
					opacity: 0;
				}
				76.923077% {
					opacity: 1;
				}
				84.615385% {
					opacity: 0;
				}
			}
			@keyframes anim_11 {
				0% {
					opacity: 0;
				}
				84.615385% {
					opacity: 1;
				}
				92.307692% {
					opacity: 0;
				}
			}
			@keyframes anim_12 {
				0% {
					opacity: 0;
				}
				100.000000% {
					opacity: 0;
				}
				92.307692% {
					opacity: 1;
				}
			}
			@keyframes anim_2 {
				0% {
					opacity: 0;
				}
				15.384615% {
					opacity: 1;
				}
				23.076923% {
					opacity: 0;
				}
			}
			@keyframes anim_3 {
				0% {
					opacity: 0;
				}
				23.076923% {
					opacity: 1;
				}
				30.769231% {
					opacity: 0;
				}
			}
			@keyframes anim_4 {
				0% {
					opacity: 0;
				}
				30.769231% {
					opacity: 1;
				}
				38.461538% {
					opacity: 0;
				}
			}
			@keyframes anim_5 {
				0% {
					opacity: 0;
				}
				38.461538% {
					opacity: 1;
				}
				46.153846% {
					opacity: 0;
				}
			}
			@keyframes anim_6 {
				0% {
					opacity: 0;
				}
				46.153846% {
					opacity: 1;
				}
				53.846154% {
					opacity: 0;
				}
			}
			@keyframes anim_7 {
				0% {
					opacity: 0;
				}
				53.846154% {
					opacity: 1;
				}
				61.538462% {
					opacity: 0;
				}
			}
			@keyframes anim_8 {
				0% {
					opacity: 0;
				}
				61.538462% {
					opacity: 1;
				}
				69.230769% {
					opacity: 0;
				}
			}
			@keyframes anim_9 {
				0% {
					opacity: 0;
				}
				69.230769% {
					opacity: 1;
				}
				76.923077% {
					opacity: 0;
				}
			}
		]]>
	</style>
	<svg class="animated" height="515.6" id="frame_0" viewBox="-222.3 -257.8 492.3 515.6" width="492.3" x="0.0" xmlns="http://www.w3.org/2000/svg" y="0.0">
		<g stroke="black" stroke-width="1px">
			<line x1="250.0" x2="77.3" y1="0.0" y2="237.8" />
			<line x1="77.3" x2="-202.3" y1="237.8" y2="146.9" />
			<line x1="-202.3" x2="-202.3" y1="146.9" y2="-146.9" />
			<line x1="-202.3" x2="77.3" y1="-146.9" y2="-237.8" />
			<line x1="77.3" x2="250.0" y1="-237.8" y2="0.0" />
			<line x1="0.0" x2="0.0" y1="0.0" y2="0.0" />
			<line x1="0.0" x2="0.0" y1="0.0" y2="0.0" />
			<line x1="0.0" x2="0.0" y1="0.0" y2="0.0" />
			<line x1="0.0" x2="0.0" y1="0.0" y2="0.0" />
			<line x1="0.0" x2="0.0" y1="0.0" y2="0.0" />
			<line x1="250.0" x2="0.0" y1="0.0" y2="0.0" />
			<line x1="77.3" x2="0.0" y1="237.8" y2="0.0" />
			<line x1="-202.3" x2="0.0" y1="146.9" y2="0.0" />
			<line x1="-202.3" x2="0.0" y1="-146.9" y2="0.0" />
			<line x1="77.3" x2="0.0" y1="-237.8" y2="0.0" />
		</g>
		<g>
			<circle cx="250.0" cy="0.0" r="10.0" />
			<circle cx="77.3" cy="237.8" r="10.0" />
			<circle cx="-202.3" cy="146.9" r="10.0" />
			<circle cx="-202.3" cy="-146.9" r="10.0" />
			<circle cx="77.3" cy="-237.8" r="10.0" />
			<circle cx="0.0" cy="0.0" r="10.0" />
			<circle cx="0.0" cy="0.0" r="10.0" />
			<circle cx="0.0" cy="0.0" r="10.0" />
			<circle cx="0.0" cy="0.0" r="10.0" />
			<circle cx="0.0" cy="0.0" r="10.0" />
		</g>
	</svg>
	<svg class="animated" height="515.6" id="frame_1" viewBox="-222.3 -257.8 492.3 515.6" width="492.3" x="0.0" xmlns="http://www.w3.org/2000/svg" y="0.0">
		<g stroke="black" stroke-width="1px">
			<line x1="250.0" x2="77.3" y1="0.0" y2="237.8" />
			<line x1="77.3" x2="-202.3" y1="237.8" y2="146.9" />
			<line x1="-202.3" x2="-202.3" y1="146.9" y2="-146.9" />
			<line x1="-202.3" x2="77.3" y1="-146.9" y2="-237.8" />
			<line x1="77.3" x2="250.0" y1="-237.8" y2="0.0" />
			<line x1="83.3" x2="53.5" y1="0.0" y2="79.3" />
			<line x1="53.5" x2="-49.6" y1="79.3" y2="75.4" />
			<line x1="-49.6" x2="-83.9" y1="75.4" y2="-23.8" />
			<line x1="-83.9" x2="25.5" y1="-23.8" y2="-87.2" />
			<line x1="25.5" x2="83.3" y1="-87.2" y2="0.0" />
			<line x1="250.0" x2="83.3" y1="0.0" y2="0.0" />
			<line x1="77.3" x2="53.5" y1="237.8" y2="79.3" />
			<line x1="-202.3" x2="-49.6" y1="146.9" y2="75.4" />
			<line x1="-202.3" x2="-83.9" y1="-146.9" y2="-23.8" />
			<line x1="77.3" x2="25.5" y1="-237.8" y2="-87.2" />
		</g>
		<g>
			<circle cx="250.0" cy="0.0" r="10.0" />
			<circle cx="77.3" cy="237.8" r="10.0" />
			<circle cx="-202.3" cy="146.9" r="10.0" />
			<circle cx="-202.3" cy="-146.9" r="10.0" />
			<circle cx="77.3" cy="-237.8" r="10.0" />
			<circle cx="83.3" cy="0.0" r="10.0" />
			<circle cx="53.5" cy="79.3" r="10.0" />
			<circle cx="-49.6" cy="75.4" r="10.0" />
			<circle cx="-83.9" cy="-23.8" r="10.0" />
			<circle cx="25.5" cy="-87.2" r="10.0" />
		</g>
	</svg>
	<svg class="animated" height="515.6" id="frame_2" viewBox="-222.3 -257.8 492.3 515.6" width="492.3" x="0.0" xmlns="http://www.w3.org/2000/svg" y="0.0">
		<g stroke="black" stroke-width="1px">
			<line x1="250.0" x2="77.3" y1="0.0" y2="237.8" />
			<line x1="77.3" x2="-202.3" y1="237.8" y2="146.9" />
			<line x1="-202.3" x2="-202.3" y1="146.9" y2="-146.9" />
			<line x1="-202.3" x2="77.3" y1="-146.9" y2="-237.8" />
			<line x1="77.3" x2="250.0" y1="-237.8" y2="0.0" />
			<line x1="109.7" x2="45.8" y1="-2.6" y2="103.5" />
			<line x1="45.8" x2="-80.1" y1="103.5" y2="75.5" />
			<line x1="-80.1" x2="-85.6" y1="75.5" y2="-52.9" />
			<line x1="-85.6" x2="33.8" y1="-52.9" y2="-97.8" />
			<line x1="33.8" x2="109.7" y1="-97.8" y2="-2.6" />
			<line x1="250.0" x2="109.7" y1="0.0" y2="-2.6" />
			<line x1="77.3" x2="45.8" y1="237.8" y2="103.5" />
			<line x1="-202.3" x2="-80.1" y1="146.9" y2="75.5" />
			<line x1="-202.3" x2="-85.6" y1="-146.9" y2="-52.9" />
			<line x1="77.3" x2="33.8" y1="-237.8" y2="-97.8" />
		</g>
		<g>
			<circle cx="250.0" cy="0.0" r="10.0" />
			<circle cx="77.3" cy="237.8" r="10.0" />
			<circle cx="-202.3" cy="146.9" r="10.0" />
			<circle cx="-202.3" cy="-146.9" r="10.0" />
			<circle cx="77.3" cy="-237.8" r="10.0" />
			<circle cx="109.7" cy="-2.6" r="10.0" />
			<circle cx="45.8" cy="103.5" r="10.0" />
			<circle cx="-80.1" cy="75.5" r="10.0" />
			<circle cx="-85.6" cy="-52.9" r="10.0" />
			<circle cx="33.8" cy="-97.8" r="10.0" />
		</g>
	</svg>
	<svg class="animated" height="515.6" id="frame_3" viewBox="-222.3 -257.8 492.3 515.6" width="492.3" x="0.0" xmlns="http://www.w3.org/2000/svg" y="0.0">
		<g stroke="black" stroke-width="1px">
			<line x1="250.0" x2="77.3" y1="0.0" y2="237.8" />
			<line x1="77.3" x2="-202.3" y1="237.8" y2="146.9" />
			<line x1="-202.3" x2="-202.3" y1="146.9" y2="-146.9" />
			<line x1="-202.3" x2="77.3" y1="-146.9" y2="-237.8" />
			<line x1="77.3" x2="250.0" y1="-237.8" y2="0.0" />
			<line x1="109.9" x2="35.7" y1="1.9" y2="105.1" />
			<line x1="35.7" x2="-84.1" y1="105.1" y2="66.4" />
			<line x1="-84.1" x2="-84.2" y1="66.4" y2="-59.4" />
			<line x1="-84.2" x2="34.3" y1="-59.4" y2="-98.4" />
			<line x1="34.3" x2="109.9" y1="-98.4" y2="1.9" />
			<line x1="250.0" x2="109.9" y1="0.0" y2="1.9" />
			<line x1="77.3" x2="35.7" y1="237.8" y2="105.1" />
			<line x1="-202.3" x2="-84.1" y1="146.9" y2="66.4" />
			<line x1="-202.3" x2="-84.2" y1="-146.9" y2="-59.4" />
			<line x1="77.3" x2="34.3" y1="-237.8" y2="-98.4" />
		</g>
		<g>
			<circle cx="250.0" cy="0.0" r="10.0" />
			<circle cx="77.3" cy="237.8" r="10.0" />
			<circle cx="-202.3" cy="146.9" r="10.0" />
			<circle cx="-202.3" cy="-146.9" r="10.0" />
			<circle cx="77.3" cy="-237.8" r="10.0" />
			<circle cx="109.9" cy="1.9" r="10.0" />
			<circle cx="35.7" cy="105.1" r="10.0" />
			<circle cx="-84.1" cy="66.4" r="10.0" />
			<circle cx="-84.2" cy="-59.4" r="10.0" />
			<circle cx="34.3" cy="-98.4" r="10.0" />
		</g>
	</svg>
	<svg class="animated" height="515.6" id="frame_4" viewBox="-222.3 -257.8 492.3 515.6" width="492.3" x="0.0" xmlns="http://www.w3.org/2000/svg" y="0.0">
		<g stroke="black" stroke-width="1px">
			<line x1="250.0" x2="77.3" y1="0.0" y2="237.8" />
			<line x1="77.3" x2="-202.3" y1="237.8" y2="146.9" />
			<line x1="-202.3" x2="-202.3" y1="146.9" y2="-146.9" />
			<line x1="-202.3" x2="77.3" y1="-146.9" y2="-237.8" />
			<line x1="77.3" x2="250.0" y1="-237.8" y2="0.0" />
			<line x1="106.7" x2="33.3" y1="2.2" y2="102.1" />
			<line x1="33.3" x2="-84.4" y1="102.1" y2="63.2" />
			<line x1="-84.4" x2="-84.1" y1="63.2" y2="-60.7" />
			<line x1="-84.1" x2="33.3" y1="-60.7" y2="-98.8" />
			<line x1="33.3" x2="106.7" y1="-98.8" y2="2.2" />
			<line x1="250.0" x2="106.7" y1="0.0" y2="2.2" />
			<line x1="77.3" x2="33.3" y1="237.8" y2="102.1" />
			<line x1="-202.3" x2="-84.4" y1="146.9" y2="63.2" />
			<line x1="-202.3" x2="-84.1" y1="-146.9" y2="-60.7" />
			<line x1="77.3" x2="33.3" y1="-237.8" y2="-98.8" />
		</g>
		<g>
			<circle cx="250.0" cy="0.0" r="10.0" />
			<circle cx="77.3" cy="237.8" r="10.0" />
			<circle cx="-202.3" cy="146.9" r="10.0" />
			<circle cx="-202.3" cy="-146.9" r="10.0" />
			<circle cx="77.3" cy="-237.8" r="10.0" />
			<circle cx="106.7" cy="2.2" r="10.0" />
			<circle cx="33.3" cy="102.1" r="10.0" />
			<circle cx="-84.4" cy="63.2" r="10.0" />
			<circle cx="-84.1" cy="-60.7" r="10.0" />
			<circle cx="33.3" cy="-98.8" r="10.0" />
		</g>
	</svg>
	<svg class="animated" height="515.6" id="frame_5" viewBox="-222.3 -257.8 492.3 515.6" width="492.3" x="0.0" xmlns="http://www.w3.org/2000/svg" y="0.0">
		<g stroke="black" stroke-width="1px">
			<line x1="250.0" x2="77.3" y1="0.0" y2="237.8" />
			<line x1="77.3" x2="-202.3" y1="237.8" y2="146.9" />
			<line x1="-202.3" x2="-202.3" y1="146.9" y2="-146.9" />
			<line x1="-202.3" x2="77.3" y1="-146.9" y2="-237.8" />
			<line x1="77.3" x2="250.0" y1="-237.8" y2="0.0" />
			<line x1="105.5" x2="32.8" y1="1.1" y2="100.7" />
			<line x1="32.8" x2="-84.5" y1="100.7" y2="62.3" />
			<line x1="-84.5" x2="-84.5" y1="62.3" y2="-61.1" />
			<line x1="-84.5" x2="32.8" y1="-61.1" y2="-99.3" />
			<line x1="32.8" x2="105.5" y1="-99.3" y2="1.1" />
			<line x1="250.0" x2="105.5" y1="0.0" y2="1.1" />
			<line x1="77.3" x2="32.8" y1="237.8" y2="100.7" />
			<line x1="-202.3" x2="-84.5" y1="146.9" y2="62.3" />
			<line x1="-202.3" x2="-84.5" y1="-146.9" y2="-61.1" />
			<line x1="77.3" x2="32.8" y1="-237.8" y2="-99.3" />
		</g>
		<g>
			<circle cx="250.0" cy="0.0" r="10.0" />
			<circle cx="77.3" cy="237.8" r="10.0" />
			<circle cx="-202.3" cy="146.9" r="10.0" />
			<circle cx="-202.3" cy="-146.9" r="10.0" />
			<circle cx="77.3" cy="-237.8" r="10.0" />
			<circle cx="105.5" cy="1.1" r="10.0" />
			<circle cx="32.8" cy="100.7" r="10.0" />
			<circle cx="-84.5" cy="62.3" r="10.0" />
			<circle cx="-84.5" cy="-61.1" r="10.0" />
			<circle cx="32.8" cy="-99.3" r="10.0" />
		</g>
	</svg>
	<svg class="animated" height="515.6" id="frame_6" viewBox="-222.3 -257.8 492.3 515.6" width="492.3" x="0.0" xmlns="http://www.w3.org/2000/svg" y="0.0">
		<g stroke="black" stroke-width="1px">
			<line x1="250.0" x2="77.3" y1="0.0" y2="237.8" />
			<line x1="77.3" x2="-202.3" y1="237.8" y2="146.9" />
			<line x1="-202.3" x2="-202.3" y1="146.9" y2="-146.9" />
			<line x1="-202.3" x2="77.3" y1="-146.9" y2="-237.8" />
			<line x1="77.3" x2="250.0" y1="-237.8" y2="0.0" />
			<line x1="105.2" x2="32.6" y1="0.5" y2="100.2" />
			<line x1="32.6" x2="-84.7" y1="100.2" y2="62.0" />
			<line x1="-84.7" x2="-84.7" y1="62.0" y2="-61.4" />
			<line x1="-84.7" x2="32.6" y1="-61.4" y2="-99.6" />
			<line x1="32.6" x2="105.2" y1="-99.6" y2="0.5" />
			<line x1="250.0" x2="105.2" y1="0.0" y2="0.5" />
			<line x1="77.3" x2="32.6" y1="237.8" y2="100.2" />
			<line x1="-202.3" x2="-84.7" y1="146.9" y2="62.0" />
			<line x1="-202.3" x2="-84.7" y1="-146.9" y2="-61.4" />
			<line x1="77.3" x2="32.6" y1="-237.8" y2="-99.6" />
		</g>
		<g>
			<circle cx="250.0" cy="0.0" r="10.0" />
			<circle cx="77.3" cy="237.8" r="10.0" />
			<circle cx="-202.3" cy="146.9" r="10.0" />
			<circle cx="-202.3" cy="-146.9" r="10.0" />
			<circle cx="77.3" cy="-237.8" r="10.0" />
			<circle cx="105.2" cy="0.5" r="10.0" />
			<circle cx="32.6" cy="100.2" r="10.0" />
			<circle cx="-84.7" cy="62.0" r="10.0" />
			<circle cx="-84.7" cy="-61.4" r="10.0" />
			<circle cx="32.6" cy="-99.6" r="10.0" />
		</g>
	</svg>
	<svg class="animated" height="515.6" id="frame_7" viewBox="-222.3 -257.8 492.3 515.6" width="492.3" x="0.0" xmlns="http://www.w3.org/2000/svg" y="0.0">
		<g stroke="black" stroke-width="1px">
			<line x1="250.0" x2="77.3" y1="0.0" y2="237.8" />
			<line x1="77.3" x2="-202.3" y1="237.8" y2="146.9" />
			<line x1="-202.3" x2="-202.3" y1="146.9" y2="-146.9" />
			<line x1="-202.3" x2="77.3" y1="-146.9" y2="-237.8" />
			<line x1="77.3" x2="250.0" y1="-237.8" y2="0.0" />
			<line x1="105.1" x2="32.5" y1="0.2" y2="100.0" />
			<line x1="32.5" x2="-84.8" y1="100.0" y2="61.8" />
			<line x1="-84.8" x2="-84.8" y1="61.8" y2="-61.6" />
			<line x1="-84.8" x2="32.5" y1="-61.6" y2="-99.7" />
			<line x1="32.5" x2="105.1" y1="-99.7" y2="0.2" />
			<line x1="250.0" x2="105.1" y1="0.0" y2="0.2" />
			<line x1="77.3" x2="32.5" y1="237.8" y2="100.0" />
			<line x1="-202.3" x2="-84.8" y1="146.9" y2="61.8" />
			<line x1="-202.3" x2="-84.8" y1="-146.9" y2="-61.6" />
			<line x1="77.3" x2="32.5" y1="-237.8" y2="-99.7" />
		</g>
		<g>
			<circle cx="250.0" cy="0.0" r="10.0" />
			<circle cx="77.3" cy="237.8" r="10.0" />
			<circle cx="-202.3" cy="146.9" r="10.0" />
			<circle cx="-202.3" cy="-146.9" r="10.0" />
			<circle cx="77.3" cy="-237.8" r="10.0" />
			<circle cx="105.1" cy="0.2" r="10.0" />
			<circle cx="32.5" cy="100.0" r="10.0" />
			<circle cx="-84.8" cy="61.8" r="10.0" />
			<circle cx="-84.8" cy="-61.6" r="10.0" />
			<circle cx="32.5" cy="-99.7" r="10.0" />
		</g>
	</svg>
	<svg class="animated" height="515.6" id="frame_8" viewBox="-222.3 -257.8 492.3 515.6" width="492.3" x="0.0" xmlns="http://www.w3.org/2000/svg" y="0.0">
		<g stroke="black" stroke-width="1px">
			<line x1="250.0" x2="77.3" y1="0.0" y2="237.8" />
			<line x1="77.3" x2="-202.3" y1="237.8" y2="146.9" />
			<line x1="-202.3" x2="-202.3" y1="146.9" y2="-146.9" />
			<line x1="-202.3" x2="77.3" y1="-146.9" y2="-237.8" />
			<line x1="77.3" x2="250.0" y1="-237.8" y2="0.0" />
			<line x1="105.0" x2="32.5" y1="0.1" y2="99.9" />
			<line x1="32.5" x2="-84.9" y1="99.9" y2="61.8" />
			<line x1="-84.9" x2="-84.9" y1="61.8" y2="-61.6" />
			<line x1="-84.9" x2="32.5" y1="-61.6" y2="-99.8" />
			<line x1="32.5" x2="105.0" y1="-99.8" y2="0.1" />
			<line x1="250.0" x2="105.0" y1="0.0" y2="0.1" />
			<line x1="77.3" x2="32.5" y1="237.8" y2="99.9" />
			<line x1="-202.3" x2="-84.9" y1="146.9" y2="61.8" />
			<line x1="-202.3" x2="-84.9" y1="-146.9" y2="-61.6" />
			<line x1="77.3" x2="32.5" y1="-237.8" y2="-99.8" />
		</g>
		<g>
			<circle cx="250.0" cy="0.0" r="10.0" />
			<circle cx="77.3" cy="237.8" r="10.0" />
			<circle cx="-202.3" cy="146.9" r="10.0" />
			<circle cx="-202.3" cy="-146.9" r="10.0" />
			<circle cx="77.3" cy="-237.8" r="10.0" />
			<circle cx="105.0" cy="0.1" r="10.0" />
			<circle cx="32.5" cy="99.9" r="10.0" />
			<circle cx="-84.9" cy="61.8" r="10.0" />
			<circle cx="-84.9" cy="-61.6" r="10.0" />
			<circle cx="32.5" cy="-99.8" r="10.0" />
		</g>
	</svg>
	<svg class="animated" height="515.6" id="frame_9" viewBox="-222.3 -257.8 492.3 515.6" width="492.3" x="0.0" xmlns="http://www.w3.org/2000/svg" y="0.0">
		<g stroke="black" stroke-width="1px">
			<line x1="250.0" x2="77.3" y1="0.0" y2="237.8" />
			<line x1="77.3" x2="-202.3" y1="237.8" y2="146.9" />
			<line x1="-202.3" x2="-202.3" y1="146.9" y2="-146.9" />
			<line x1="-202.3" x2="77.3" y1="-146.9" y2="-237.8" />
			<line x1="77.3" x2="250.0" y1="-237.8" y2="0.0" />
			<line x1="105.0" x2="32.5" y1="0.0" y2="99.9" />
			<line x1="32.5" x2="-84.9" y1="99.9" y2="61.7" />
			<line x1="-84.9" x2="-84.9" y1="61.7" y2="-61.7" />
			<line x1="-84.9" x2="32.4" y1="-61.7" y2="-99.8" />
			<line x1="32.4" x2="105.0" y1="-99.8" y2="0.0" />
			<line x1="250.0" x2="105.0" y1="0.0" y2="0.0" />
			<line x1="77.3" x2="32.5" y1="237.8" y2="99.9" />
			<line x1="-202.3" x2="-84.9" y1="146.9" y2="61.7" />
			<line x1="-202.3" x2="-84.9" y1="-146.9" y2="-61.7" />
			<line x1="77.3" x2="32.4" y1="-237.8" y2="-99.8" />
		</g>
		<g>
			<circle cx="250.0" cy="0.0" r="10.0" />
			<circle cx="77.3" cy="237.8" r="10.0" />
			<circle cx="-202.3" cy="146.9" r="10.0" />
			<circle cx="-202.3" cy="-146.9" r="10.0" />
			<circle cx="77.3" cy="-237.8" r="10.0" />
			<circle cx="105.0" cy="0.0" r="10.0" />
			<circle cx="32.5" cy="99.9" r="10.0" />
			<circle cx="-84.9" cy="61.7" r="10.0" />
			<circle cx="-84.9" cy="-61.7" r="10.0" />
			<circle cx="32.4" cy="-99.8" r="10.0" />
		</g>
	</svg>
	<svg class="animated" height="515.6" id="frame_10" viewBox="-222.3 -257.8 492.3 515.6" width="492.3" x="0.0" xmlns="http://www.w3.org/2000/svg" y="0.0">
		<g stroke="black" stroke-width="1px">
			<line x1="250.0" x2="77.3" y1="0.0" y2="237.8" />
			<line x1="77.3" x2="-202.3" y1="237.8" y2="146.9" />
			<line x1="-202.3" x2="-202.3" y1="146.9" y2="-146.9" />
			<line x1="-202.3" x2="77.3" y1="-146.9" y2="-237.8" />
			<line x1="77.3" x2="250.0" y1="-237.8" y2="0.0" />
			<line x1="105.0" x2="32.4" y1="0.0" y2="99.8" />
			<line x1="32.4" x2="-84.9" y1="99.8" y2="61.7" />
			<line x1="-84.9" x2="-84.9" y1="61.7" y2="-61.7" />
			<line x1="-84.9" x2="32.4" y1="-61.7" y2="-99.8" />
			<line x1="32.4" x2="105.0" y1="-99.8" y2="0.0" />
			<line x1="250.0" x2="105.0" y1="0.0" y2="0.0" />
			<line x1="77.3" x2="32.4" y1="237.8" y2="99.8" />
			<line x1="-202.3" x2="-84.9" y1="146.9" y2="61.7" />
			<line x1="-202.3" x2="-84.9" y1="-146.9" y2="-61.7" />
			<line x1="77.3" x2="32.4" y1="-237.8" y2="-99.8" />
		</g>
		<g>
			<circle cx="250.0" cy="0.0" r="10.0" />
			<circle cx="77.3" cy="237.8" r="10.0" />
			<circle cx="-202.3" cy="146.9" r="10.0" />
			<circle cx="-202.3" cy="-146.9" r="10.0" />
			<circle cx="77.3" cy="-237.8" r="10.0" />
			<circle cx="105.0" cy="0.0" r="10.0" />
			<circle cx="32.4" cy="99.8" r="10.0" />
			<circle cx="-84.9" cy="61.7" r="10.0" />
			<circle cx="-84.9" cy="-61.7" r="10.0" />
			<circle cx="32.4" cy="-99.8" r="10.0" />
		</g>
	</svg>
	<svg class="animated" height="515.6" id="frame_11" viewBox="-222.3 -257.8 492.3 515.6" width="492.3" x="0.0" xmlns="http://www.w3.org/2000/svg" y="0.0">
		<g stroke="black" stroke-width="1px">
			<line x1="250.0" x2="77.3" y1="0.0" y2="237.8" />
			<line x1="77.3" x2="-202.3" y1="237.8" y2="146.9" />
			<line x1="-202.3" x2="-202.3" y1="146.9" y2="-146.9" />
			<line x1="-202.3" x2="77.3" y1="-146.9" y2="-237.8" />
			<line x1="77.3" x2="250.0" y1="-237.8" y2="0.0" />
			<line x1="105.0" x2="32.4" y1="0.0" y2="99.8" />
			<line x1="32.4" x2="-84.9" y1="99.8" y2="61.7" />
			<line x1="-84.9" x2="-84.9" y1="61.7" y2="-61.7" />
			<line x1="-84.9" x2="32.4" y1="-61.7" y2="-99.8" />
			<line x1="32.4" x2="105.0" y1="-99.8" y2="0.0" />
			<line x1="250.0" x2="105.0" y1="0.0" y2="0.0" />
			<line x1="77.3" x2="32.4" y1="237.8" y2="99.8" />
			<line x1="-202.3" x2="-84.9" y1="146.9" y2="61.7" />
			<line x1="-202.3" x2="-84.9" y1="-146.9" y2="-61.7" />
			<line x1="77.3" x2="32.4" y1="-237.8" y2="-99.8" />
		</g>
		<g>
			<circle cx="250.0" cy="0.0" r="10.0" />
			<circle cx="77.3" cy="237.8" r="10.0" />
			<circle cx="-202.3" cy="146.9" r="10.0" />
			<circle cx="-202.3" cy="-146.9" r="10.0" />
			<circle cx="77.3" cy="-237.8" r="10.0" />
			<circle cx="105.0" cy="0.0" r="10.0" />
			<circle cx="32.4" cy="99.8" r="10.0" />
			<circle cx="-84.9" cy="61.7" r="10.0" />
			<circle cx="-84.9" cy="-61.7" r="10.0" />
			<circle cx="32.4" cy="-99.8" r="10.0" />
		</g>
	</svg>
	<svg class="animated" height="515.6" id="frame_12" viewBox="-222.3 -257.8 492.3 515.6" width="492.3" x="0.0" xmlns="http://www.w3.org/2000/svg" y="0.0">
		<g stroke="black" stroke-width="1px">
			<line x1="250.0" x2="77.3" y1="0.0" y2="237.8" />
			<line x1="77.3" x2="-202.3" y1="237.8" y2="146.9" />
			<line x1="-202.3" x2="-202.3" y1="146.9" y2="-146.9" />
			<line x1="-202.3" x2="77.3" y1="-146.9" y2="-237.8" />
			<line x1="77.3" x2="250.0" y1="-237.8" y2="0.0" />
			<line x1="105.0" x2="32.4" y1="0.0" y2="99.8" />
			<line x1="32.4" x2="-84.9" y1="99.8" y2="61.7" />
			<line x1="-84.9" x2="-84.9" y1="61.7" y2="-61.7" />
			<line x1="-84.9" x2="32.4" y1="-61.7" y2="-99.8" />
			<line x1="32.4" x2="105.0" y1="-99.8" y2="0.0" />
			<line x1="250.0" x2="105.0" y1="0.0" y2="0.0" />
			<line x1="77.3" x2="32.4" y1="237.8" y2="99.8" />
			<line x1="-202.3" x2="-84.9" y1="146.9" y2="61.7" />
			<line x1="-202.3" x2="-84.9" y1="-146.9" y2="-61.7" />
			<line x1="77.3" x2="32.4" y1="-237.8" y2="-99.8" />
		</g>
		<g>
			<circle cx="250.0" cy="0.0" r="10.0" />
			<circle cx="77.3" cy="237.8" r="10.0" />
			<circle cx="-202.3" cy="146.9" r="10.0" />
			<circle cx="-202.3" cy="-146.9" r="10.0" />
			<circle cx="77.3" cy="-237.8" r="10.0" />
			<circle cx="105.0" cy="0.0" r="10.0" />
			<circle cx="32.4" cy="99.8" r="10.0" />
			<circle cx="-84.9" cy="61.7" r="10.0" />
			<circle cx="-84.9" cy="-61.7" r="10.0" />
			<circle cx="32.4" cy="-99.8" r="10.0" />
		</g>
	</svg>
</svg>