<svg viewBox="0 0 540.000000 515.599976" xmlns="http://www.w3.org/2000/svg">
	<style type="text/css">
		<![CDATA[
			#frame_0 {
				animation-name: anim_0;
			}
			#frame_1 {
				animation-name: anim_1;
			}
			#frame_10 {
				animation-name: anim_10;
			}
			#frame_11 {
				animation-name: anim_11;
			}
			#frame_12 {
				animation-name: anim_12;
			}
			#frame_13 {
				animation-name: anim_13;
			}
			#frame_2 {
				animation-name: anim_2;
			}
			#frame_3 {
				animation-name: anim_3;
			}
			#frame_4 {
				animation-name: anim_4;
			}
			#frame_5 {
				animation-name: anim_5;
			}
			#frame_6 {
				animation-name: anim_6;
			}
			#frame_7 {
				animation-name: anim_7;
			}
			#frame_8 {
				animation-name: anim_8;
			}
			#frame_9 {
				animation-name: anim_9;
			}
			svg.animated {
				animation-duration: 4.666667s;
				animation-iteration-count: infinite;
				animation-timing-function: step-end;
				opacity: 0;
			}
			@keyframes anim_0 {
				0% {
					opacity: 0;
				}
				0.000000% {
					opacity: 1;
				}
				7.142857% {
					opacity: 0;
				}
			}
			@keyframes anim_1 {
				0% {
					opacity: 0;
				}
				14.285714% {
					opacity: 0;
				}
				7.142857% {
					opacity: 1;
				}
			}
			@keyframes anim_10 {
				0% {
					opacity: 0;
				}
				71.428571% {
					opacity: 1;
				}
				78.571429% {
					opacity: 0;
				}
			}
			@keyframes anim_11 {
				0% {
					opacity: 0;
				}
				78.571429% {
					opacity: 1;
				}
				85.714286% {
					opacity: 0;
				}
			}
			@keyframes anim_12 {
				0% {
					opacity: 0;
				}
				85.714286% {
					opacity: 1;
				}
				92.857143% {
					opacity: 0;
				}
			}
			@keyframes anim_13 {
				0% {
					opacity: 0;
				}
				100.000000% {
					opacity: 0;
				}
				92.857143% {
					opacity: 1;
				}
			}
			@keyframes anim_2 {
				0% {
					opacity: 0;
				}
				14.285714% {
					opacity: 1;
				}
				21.428571% {
					opacity: 0;
				}
			}
			@keyframes anim_3 {
				0% {
					opacity: 0;
				}
				21.428571% {
					opacity: 1;
				}
				28.571429% {
					opacity: 0;
				}
			}
			@keyframes anim_4 {
				0% {
					opacity: 0;
				}
				28.571429% {
					opacity: 1;
				}
				35.714286% {
					opacity: 0;
				}
			}
			@keyframes anim_5 {
				0% {
					opacity: 0;
				}
				35.714286% {
					opacity: 1;
				}
				42.857143% {
					opacity: 0;
				}
			}
			@keyframes anim_6 {
				0% {
					opacity: 0;
				}
				42.857143% {
					opacity: 1;
				}
				50.000000% {
					opacity: 0;
				}
			}
			@keyframes anim_7 {
				0% {
					opacity: 0;
				}
				50.000000% {
					opacity: 1;
				}
				57.142857% {
					opacity: 0;
				}
			}
			@keyframes anim_8 {
				0% {
					opacity: 0;
				}
				57.142857% {
					opacity: 1;
				}
				64.285714% {
					opacity: 0;
				}
			}
			@keyframes anim_9 {
				0% {
					opacity: 0;
				}
				64.285714% {
					opacity: 1;
				}
				71.428571% {
					opacity: 0;
				}
			}
		]]>
	</style>
	<svg class="animated" height="515.6" id="frame_0" viewBox="-270.0 -257.8 540.0 515.6" width="540.0" x="0.0" xmlns="http://www.w3.org/2000/svg" y="0.0">
		<g stroke="black" stroke-width="1px">
			<line x1="250.0" x2="202.3" y1="0.0" y2="146.9" />
			<line x1="202.3" x2="77.3" y1="146.9" y2="237.8" />
			<line x1="77.3" x2="-77.3" y1="237.8" y2="237.8" />
			<line x1="-77.3" x2="-202.3" y1="237.8" y2="146.9" />
			<line x1="-202.3" x2="-250.0" y1="146.9" y2="0.0" />
			<line x1="-250.0" x2="-202.3" y1="0.0" y2="-146.9" />
			<line x1="-202.3" x2="-77.3" y1="-146.9" y2="-237.8" />
			<line x1="-77.3" x2="77.3" y1="-237.8" y2="-237.8" />
			<line x1="77.3" x2="202.3" y1="-237.8" y2="-146.9" />
			<line x1="202.3" x2="250.0" y1="-146.9" y2="0.0" />
			<line x1="0.0" x2="0.0" y1="0.0" y2="0.0" />
			<line x1="0.0" x2="0.0" y1="0.0" y2="0.0" />
			<line x1="0.0" x2="0.0" y1="0.0" y2="0.0" />
			<line x1="0.0" x2="0.0" y1="0.0" y2="0.0" />
			<line x1="0.0" x2="0.0" y1="0.0" y2="0.0" />
			<line x1="0.0" x2="0.0" y1="0.0" y2="0.0" />
			<line x1="0.0" x2="0.0" y1="0.0" y2="0.0" />
			<line x1="0.0" x2="0.0" y1="0.0" y2="0.0" />
			<line x1="0.0" x2="0.0" y1="0.0" y2="0.0" />
			<line x1="0.0" x2="0.0" y1="0.0" y2="0.0" />
			<line x1="250.0" x2="0.0" y1="0.0" y2="0.0" />
			<line x1="202.3" x2="0.0" y1="146.9" y2="0.0" />
			<line x1="77.3" x2="0.0" y1="237.8" y2="0.0" />
			<line x1="-77.3" x2="0.0" y1="237.8" y2="0.0" />
			<line x1="-202.3" x2="0.0" y1="146.9" y2="0.0" />
			<line x1="-250.0" x2="0.0" y1="0.0" y2="0.0" />
			<line x1="-202.3" x2="0.0" y1="-146.9" y2="0.0" />
			<line x1="-77.3" x2="0.0" y1="-237.8" y2="0.0" />
			<line x1="77.3" x2="0.0" y1="-237.8" y2="0.0" />
			<line x1="202.3" x2="0.0" y1="-146.9" y2="0.0" />
		</g>
		<g>
			<circle cx="250.0" cy="0.0" r="10.0" />
			<circle cx="202.3" cy="146.9" r="10.0" />
			<circle cx="77.3" cy="237.8" r="10.0" />
			<circle cx="-77.3" cy="237.8" r="10.0" />
			<circle cx="-202.3" cy="146.9" r="10.0" />
			<circle cx="-250.0" cy="0.0" r="10.0" />
			<circle cx="-202.3" cy="-146.9" r="10.0" />
			<circle cx="-77.3" cy="-237.8" r="10.0" />
			<circle cx="77.3" cy="-237.8" r="10.0" />
			<circle cx="202.3" cy="-146.9" r="10.0" />
			<circle cx="0.0" cy="0.0" r="10.0" />
			<circle cx="0.0" cy="0.0" r="10.0" />
			<circle cx="0.0" cy="0.0" r="10.0" />
			<circle cx="0.0" cy="0.0" r="10.0" />
			<circle cx="0.0" cy="0.0" r="10.0" />
			<circle cx="0.0" cy="0.0" r="10.0" />
			<circle cx="0.0" cy="0.0" r="10.0" />
			<circle cx="0.0" cy="0.0" r="10.0" />
			<circle cx="0.0" cy="0.0" r="10.0" />
			<circle cx="0.0" cy="0.0" r="10.0" />
		</g>
	</svg>
	<svg class="animated" height="515.6" id="frame_1" viewBox="-270.0 -257.8 540.0 515.6" width="540.0" x="0.0" xmlns="http://www.w3.org/2000/svg" y="0.0">
		<g stroke="black" stroke-width="1px">
			<line x1="250.0" x2="202.3" y1="0.0" y2="146.9" />
			<line x1="202.3" x2="77.3" y1="146.9" y2="237.8" />
			<line x1="77.3" x2="-77.3" y1="237.8" y2="237.8" />
			<line x1="-77.3" x2="-202.3" y1="237.8" y2="146.9" />
			<line x1="-202.3" x2="-250.0" y1="146.9" y2="0.0" />
			<line x1="-250.0" x2="-202.3" y1="0.0" y2="-146.9" />
			<line x1="-202.3" x2="-77.3" y1="-146.9" y2="-237.8" />
			<line x1="-77.3" x2="77.3" y1="-237.8" y2="-237.8" />
			<line x1="77.3" x2="202.3" y1="-237.8" y2="-146.9" />
			<line x1="202.3" x2="250.0" y1="-146.9" y2="0.0" />
			<line x1="83.3" x2="95.2" y1="0.0" y2="49.0" />
			<line x1="95.2" x2="57.5" y1="49.0" y2="95.6" />
			<line x1="57.5" x2="-6.6" y1="95.6" y2="111.1" />
			<line x1="-6.6" x2="-69.6" y1="111.1" y2="86.0" />
			<line x1="-69.6" x2="-106.5" y1="86.0" y2="28.7" />
			<line x1="-106.5" x2="-102.9" y1="28.7" y2="-39.4" />
			<line x1="-102.9" x2="-60.1" y1="-39.4" y2="-92.4" />
			<line x1="-60.1" x2="5.7" y1="-92.4" y2="-110.1" />
			<line x1="5.7" x2="97.1" y1="-110.1" y2="-85.7" />
			<line x1="97.1" x2="83.3" y1="-85.7" y2="0.0" />
			<line x1="250.0" x2="83.3" y1="0.0" y2="0.0" />
			<line x1="202.3" x2="95.2" y1="146.9" y2="49.0" />
			<line x1="77.3" x2="57.5" y1="237.8" y2="95.6" />
			<line x1="-77.3" x2="-6.6" y1="237.8" y2="111.1" />
			<line x1="-202.3" x2="-69.6" y1="146.9" y2="86.0" />
			<line x1="-250.0" x2="-106.5" y1="0.0" y2="28.7" />
			<line x1="-202.3" x2="-102.9" y1="-146.9" y2="-39.4" />
			<line x1="-77.3" x2="-60.1" y1="-237.8" y2="-92.4" />
			<line x1="77.3" x2="5.7" y1="-237.8" y2="-110.1" />
			<line x1="202.3" x2="97.1" y1="-146.9" y2="-85.7" />
		</g>
		<g>
			<circle cx="250.0" cy="0.0" r="10.0" />
			<circle cx="202.3" cy="146.9" r="10.0" />
			<circle cx="77.3" cy="237.8" r="10.0" />
			<circle cx="-77.3" cy="237.8" r="10.0" />
			<circle cx="-202.3" cy="146.9" r="10.0" />
			<circle cx="-250.0" cy="0.0" r="10.0" />
			<circle cx="-202.3" cy="-146.9" r="10.0" />
			<circle cx="-77.3" cy="-237.8" r="10.0" />
			<circle cx="77.3" cy="-237.8" r="10.0" />
			<circle cx="202.3" cy="-146.9" r="10.0" />
			<circle cx="83.3" cy="0.0" r="10.0" />
			<circle cx="95.2" cy="49.0" r="10.0" />
			<circle cx="57.5" cy="95.6" r="10.0" />
			<circle cx="-6.6" cy="111.1" r="10.0" />
			<circle cx="-69.6" cy="86.0" r="10.0" />
			<circle cx="-106.5" cy="28.7" r="10.0" />
			<circle cx="-102.9" cy="-39.4" r="10.0" />
			<circle cx="-60.1" cy="-92.4" r="10.0" />
			<circle cx="5.7" cy="-110.1" r="10.0" />
			<circle cx="97.1" cy="-85.7" r="10.0" />
		</g>
	</svg>
	<svg class="animated" height="515.6" id="frame_2" viewBox="-270.0 -257.8 540.0 515.6" width="540.0" x="0.0" xmlns="http://www.w3.org/2000/svg" y="0.0">
		<g stroke="black" stroke-width="1px">
			<line x1="250.0" x2="202.3" y1="0.0" y2="146.9" />
			<line x1="202.3" x2="77.3" y1="146.9" y2="237.8" />
			<line x1="77.3" x2="-77.3" y1="237.8" y2="237.8" />
			<line x1="-77.3" x2="-202.3" y1="237.8" y2="146.9" />
			<line x1="-202.3" x2="-250.0" y1="146.9" y2="0.0" />
			<line x1="-250.0" x2="-202.3" y1="0.0" y2="-146.9" />
			<line x1="-202.3" x2="-77.3" y1="-146.9" y2="-237.8" />
			<line x1="-77.3" x2="77.3" y1="-237.8" y2="-237.8" />
			<line x1="77.3" x2="202.3" y1="-237.8" y2="-146.9" />
			<line x1="202.3" x2="250.0" y1="-146.9" y2="0.0" />
			<line x1="147.4" x2="135.7" y1="-12.2" y2="76.8" />
			<line x1="135.7" x2="68.8" y1="76.8" y2="141.9" />
			<line x1="68.8" x2="-26.0" y1="141.9" y2="155.2" />
			<line x1="-26.0" x2="-111.6" y1="155.2" y2="110.3" />
			<line x1="-111.6" x2="-154.8" y1="110.3" y2="23.6" />
			<line x1="-154.8" x2="-139.1" y1="23.6" y2="-71.9" />
			<line x1="-139.1" x2="-70.2" y1="-71.9" y2="-139.9" />
			<line x1="-70.2" x2="34.7" y1="-139.9" y2="-154.4" />
			<line x1="34.7" x2="128.1" y1="-154.4" y2="-104.5" />
			<line x1="128.1" x2="147.4" y1="-104.5" y2="-12.2" />
			<line x1="250.0" x2="147.4" y1="0.0" y2="-12.2" />
			<line x1="202.3" x2="135.7" y1="146.9" y2="76.8" />
			<line x1="77.3" x2="68.8" y1="237.8" y2="141.9" />
			<line x1="-77.3" x2="-26.0" y1="237.8" y2="155.2" />
			<line x1="-202.3" x2="-111.6" y1="146.9" y2="110.3" />
			<line x1="-250.0" x2="-154.8" y1="0.0" y2="23.6" />
			<line x1="-202.3" x2="-139.1" y1="-146.9" y2="-71.9" />
			<line x1="-77.3" x2="-70.2" y1="-237.8" y2="-139.9" />
			<line x1="77.3" x2="34.7" y1="-237.8" y2="-154.4" />
			<line x1="202.3" x2="128.1" y1="-146.9" y2="-104.5" />
		</g>
		<g>
			<circle cx="250.0" cy="0.0" r="10.0" />
			<circle cx="202.3" cy="146.9" r="10.0" />
			<circle cx="77.3" cy="237.8" r="10.0" />
			<circle cx="-77.3" cy="237.8" r="10.0" />
			<circle cx="-202.3" cy="146.9" r="10.0" />
			<circle cx="-250.0" cy="0.0" r="10.0" />
			<circle cx="-202.3" cy="-146.9" r="10.0" />
			<circle cx="-77.3" cy="-237.8" r="10.0" />
			<circle cx="77.3" cy="-237.8" r="10.0" />
			<circle cx="202.3" cy="-146.9" r="10.0" />
			<circle cx="147.4" cy="-12.2" r="10.0" />
			<circle cx="135.7" cy="76.8" r="10.0" />
			<circle cx="68.8" cy="141.9" r="10.0" />
			<circle cx="-26.0" cy="155.2" r="10.0" />
			<circle cx="-111.6" cy="110.3" r="10.0" />
			<circle cx="-154.8" cy="23.6" r="10.0" />
			<circle cx="-139.1" cy="-71.9" r="10.0" />
			<circle cx="-70.2" cy="-139.9" r="10.0" />
			<circle cx="34.7" cy="-154.4" r="10.0" />
			<circle cx="128.1" cy="-104.5" r="10.0" />
		</g>
	</svg>
	<svg class="animated" height="515.6" id="frame_3" viewBox="-270.0 -257.8 540.0 515.6" width="540.0" x="0.0" xmlns="http://www.w3.org/2000/svg" y="0.0">
		<g stroke="black" stroke-width="1px">
			<line x1="250.0" x2="202.3" y1="0.0" y2="146.9" />
			<line x1="202.3" x2="77.3" y1="146.9" y2="237.8" />
			<line x1="77.3" x2="-77.3" y1="237.8" y2="237.8" />
			<line x1="-77.3" x2="-202.3" y1="237.8" y2="146.9" />
			<line x1="-202.3" x2="-250.0" y1="146.9" y2="0.0" />
			<line x1="-250.0" x2="-202.3" y1="0.0" y2="-146.9" />
			<line x1="-202.3" x2="-77.3" y1="-146.9" y2="-237.8" />
			<line x1="-77.3" x2="77.3" y1="-237.8" y2="-237.8" />
			<line x1="77.3" x2="202.3" y1="-237.8" y2="-146.9" />
			<line x1="202.3" x2="250.0" y1="-146.9" y2="0.0" />
			<line x1="171.3" x2="147.4" y1="-9.3" y2="93.2" />
			<line x1="147.4" x2="66.2" y1="93.2" y2="162.1" />
			<line x1="66.2" x2="-40.9" y1="162.1" y2="170.0" />
			<line x1="-40.9" x2="-132.7" y1="170.0" y2="113.5" />
			<line x1="-132.7" x2="-173.9" y1="113.5" y2="13.9" />
			<line x1="-173.9" x2="-148.8" y1="13.9" y2="-91.0" />
			<line x1="-148.8" x2="-63.8" y1="-91.0" y2="-161.1" />
			<line x1="-63.8" x2="47.2" y1="-161.1" y2="-167.8" />
			<line x1="47.2" x2="140.2" y1="-167.8" y2="-108.0" />
			<line x1="140.2" x2="171.3" y1="-108.0" y2="-9.3" />
			<line x1="250.0" x2="171.3" y1="0.0" y2="-9.3" />
			<line x1="202.3" x2="147.4" y1="146.9" y2="93.2" />
			<line x1="77.3" x2="66.2" y1="237.8" y2="162.1" />
			<line x1="-77.3" x2="-40.9" y1="237.8" y2="170.0" />
			<line x1="-202.3" x2="-132.7" y1="146.9" y2="113.5" />
			<line x1="-250.0" x2="-173.9" y1="0.0" y2="13.9" />
			<line x1="-202.3" x2="-148.8" y1="-146.9" y2="-91.0" />
			<line x1="-77.3" x2="-63.8" y1="-237.8" y2="-161.1" />
			<line x1="77.3" x2="47.2" y1="-237.8" y2="-167.8" />
			<line x1="202.3" x2="140.2" y1="-146.9" y2="-108.0" />
		</g>
		<g>
			<circle cx="250.0" cy="0.0" r="10.0" />
			<circle cx="202.3" cy="146.9" r="10.0" />
			<circle cx="77.3" cy="237.8" r="10.0" />
			<circle cx="-77.3" cy="237.8" r="10.0" />
			<circle cx="-202.3" cy="146.9" r="10.0" />
			<circle cx="-250.0" cy="0.0" r="10.0" />
			<circle cx="-202.3" cy="-146.9" r="10.0" />
			<circle cx="-77.3" cy="-237.8" r="10.0" />
			<circle cx="77.3" cy="-237.8" r="10.0" />
			<circle cx="202.3" cy="-146.9" r="10.0" />
			<circle cx="171.3" cy="-9.3" r="10.0" />
			<circle cx="147.4" cy="93.2" r="10.0" />
			<circle cx="66.2" cy="162.1" r="10.0" />
			<circle cx="-40.9" cy="170.0" r="10.0" />
			<circle cx="-132.7" cy="113.5" r="10.0" />
			<circle cx="-173.9" cy="13.9" r="10.0" />
			<circle cx="-148.8" cy="-91.0" r="10.0" />
			<circle cx="-63.8" cy="-161.1" r="10.0" />
			<circle cx="47.2" cy="-167.8" r="10.0" />
			<circle cx="140.2" cy="-108.0" r="10.0" />
		</g>
	</svg>
	<svg class="animated" height="515.6" id="frame_4" viewBox="-270.0 -257.8 540.0 515.6" width="540.0" x="0.0" xmlns="http://www.w3.org/2000/svg" y="0.0">
		<g stroke="black" stroke-width="1px">
			<line x1="250.0" x2="202.3" y1="0.0" y2="146.9" />
			<line x1="202.3" x2="77.3" y1="146.9" y2="237.8" />
			<line x1="77.3" x2="-77.3" y1="237.8" y2="237.8" />
			<line x1="-77.3" x2="-202.3" y1="237.8" y2="146.9" />
			<line x1="-202.3" x2="-250.0" y1="146.9" y2="0.0" />
			<line x1="-250.0" x2="-202.3" y1="0.0" y2="-146.9" />
			<line x1="-202.3" x2="-77.3" y1="-146.9" y2="-237.8" />
			<line x1="-77.3" x2="77.3" y1="-237.8" y2="-237.8" />
			<line x1="77.3" x2="202.3" y1="-237.8" y2="-146.9" />
			<line x1="202.3" x2="250.0" y1="-146.9" y2="0.0" />
			<line x1="179.2" x2="149.2" y1="-4.9" y2="101.4" />
			<line x1="149.2" x2="61.9" y1="101.4" y2="169.7" />
			<line x1="61.9" x2="-49.3" y1="169.7" y2="173.7" />
			<line x1="-49.3" x2="-141.8" y1="173.7" y2="111.5" />
			<line x1="-141.8" x2="-180.2" y1="111.5" y2="6.8" />
			<line x1="-180.2" x2="-148.7" y1="6.8" y2="-100.4" />
			<line x1="-148.7" x2="-59.6" y1="-100.4" y2="-168.6" />
			<line x1="-59.6" x2="52.6" y1="-168.6" y2="-171.5" />
			<line x1="52.6" x2="144.7" y1="-171.5" y2="-107.8" />
			<line x1="144.7" x2="179.2" y1="-107.8" y2="-4.9" />
			<line x1="250.0" x2="179.2" y1="0.0" y2="-4.9" />
			<line x1="202.3" x2="149.2" y1="146.9" y2="101.4" />
			<line x1="77.3" x2="61.9" y1="237.8" y2="169.7" />
			<line x1="-77.3" x2="-49.3" y1="237.8" y2="173.7" />
			<line x1="-202.3" x2="-141.8" y1="146.9" y2="111.5" />
			<line x1="-250.0" x2="-180.2" y1="0.0" y2="6.8" />
			<line x1="-202.3" x2="-148.7" y1="-146.9" y2="-100.4" />
			<line x1="-77.3" x2="-59.6" y1="-237.8" y2="-168.6" />
			<line x1="77.3" x2="52.6" y1="-237.8" y2="-171.5" />
			<line x1="202.3" x2="144.7" y1="-146.9" y2="-107.8" />
		</g>
		<g>
			<circle cx="250.0" cy="0.0" r="10.0" />
			<circle cx="202.3" cy="146.9" r="10.0" />
			<circle cx="77.3" cy="237.8" r="10.0" />
			<circle cx="-77.3" cy="237.8" r="10.0" />
			<circle cx="-202.3" cy="146.9" r="10.0" />
			<circle cx="-250.0" cy="0.0" r="10.0" />
			<circle cx="-202.3" cy="-146.9" r="10.0" />
			<circle cx="-77.3" cy="-237.8" r="10.0" />
			<circle cx="77.3" cy="-237.8" r="10.0" />
			<circle cx="202.3" cy="-146.9" r="10.0" />
			<circle cx="179.2" cy="-4.9" r="10.0" />
			<circle cx="149.2" cy="101.4" r="10.0" />
			<circle cx="61.9" cy="169.7" r="10.0" />
			<circle cx="-49.3" cy="173.7" r="10.0" />
			<circle cx="-141.8" cy="111.5" r="10.0" />
			<circle cx="-180.2" cy="6.8" r="10.0" />
			<circle cx="-148.7" cy="-100.4" r="10.0" />
			<circle cx="-59.6" cy="-168.6" r="10.0" />
			<circle cx="52.6" cy="-171.5" r="10.0" />
			<circle cx="144.7" cy="-107.8" r="10.0" />
		</g>
	</svg>
	<svg class="animated" height="515.6" id="frame_5" viewBox="-270.0 -257.8 540.0 515.6" width="540.0" x="0.0" xmlns="http://www.w3.org/2000/svg" y="0.0">
		<g stroke="black" stroke-width="1px">
			<line x1="250.0" x2="202.3" y1="0.0" y2="146.9" />
			<line x1="202.3" x2="77.3" y1="146.9" y2="237.8" />
			<line x1="77.3" x2="-77.3" y1="237.8" y2="237.8" />
			<line x1="-77.3" x2="-202.3" y1="237.8" y2="146.9" />
			<line x1="-202.3" x2="-250.0" y1="146.9" y2="0.0" />
			<line x1="-250.0" x2="-202.3" y1="0.0" y2="-146.9" />
			<line x1="-202.3" x2="-77.3" y1="-146.9" y2="-237.8" />
			<line x1="-77.3" x2="77.3" y1="-237.8" y2="-237.8" />
			<line x1="77.3" x2="202.3" y1="-237.8" y2="-146.9" />
			<line x1="202.3" x2="250.0" y1="-146.9" y2="0.0" />
			<line x1="181.3" x2="148.5" y1="-2.1" y2="104.8" />
			<line x1="148.5" x2="58.8" y1="104.8" y2="172.1" />
			<line x1="58.8" x2="-53.4" y1="172.1" y2="173.8" />
			<line x1="-53.4" x2="-145.3" y1="173.8" y2="109.2" />
			<line x1="-145.3" x2="-181.3" y1="109.2" y2="2.9" />
			<line x1="-181.3" x2="-147.7" y1="2.9" y2="-104.2" />
			<line x1="-147.7" x2="-57.5" y1="-104.2" y2="-171.2" />
			<line x1="-57.5" x2="54.8" y1="-171.2" y2="-172.2" />
			<line x1="54.8" x2="146.1" y1="-172.2" y2="-107.1" />
			<line x1="146.1" x2="181.3" y1="-107.1" y2="-2.1" />
			<line x1="250.0" x2="181.3" y1="0.0" y2="-2.1" />
			<line x1="202.3" x2="148.5" y1="146.9" y2="104.8" />
			<line x1="77.3" x2="58.8" y1="237.8" y2="172.1" />
			<line x1="-77.3" x2="-53.4" y1="237.8" y2="173.8" />
			<line x1="-202.3" x2="-145.3" y1="146.9" y2="109.2" />
			<line x1="-250.0" x2="-181.3" y1="0.0" y2="2.9" />
			<line x1="-202.3" x2="-147.7" y1="-146.9" y2="-104.2" />
			<line x1="-77.3" x2="-57.5" y1="-237.8" y2="-171.2" />
			<line x1="77.3" x2="54.8" y1="-237.8" y2="-172.2" />
			<line x1="202.3" x2="146.1" y1="-146.9" y2="-107.1" />
		</g>
		<g>
			<circle cx="250.0" cy="0.0" r="10.0" />
			<circle cx="202.3" cy="146.9" r="10.0" />
			<circle cx="77.3" cy="237.8" r="10.0" />
			<circle cx="-77.3" cy="237.8" r="10.0" />
			<circle cx="-202.3" cy="146.9" r="10.0" />
			<circle cx="-250.0" cy="0.0" r="10.0" />
			<circle cx="-202.3" cy="-146.9" r="10.0" />
			<circle cx="-77.3" cy="-237.8" r="10.0" />
			<circle cx="77.3" cy="-237.8" r="10.0" />
			<circle cx="202.3" cy="-146.9" r="10.0" />
			<circle cx="181.3" cy="-2.1" r="10.0" />
			<circle cx="148.5" cy="104.8" r="10.0" />
			<circle cx="58.8" cy="172.1" r="10.0" />
			<circle cx="-53.4" cy="173.8" r="10.0" />
			<circle cx="-145.3" cy="109.2" r="10.0" />
			<circle cx="-181.3" cy="2.9" r="10.0" />
			<circle cx="-147.7" cy="-104.2" r="10.0" />
			<circle cx="-57.5" cy="-171.2" r="10.0" />
			<circle cx="54.8" cy="-172.2" r="10.0" />
			<circle cx="146.1" cy="-107.1" r="10.0" />
		</g>
	</svg>
	<svg class="animated" height="515.6" id="frame_6" viewBox="-270.0 -257.8 540.0 515.6" width="540.0" x="0.0" xmlns="http://www.w3.org/2000/svg" y="0.0">
		<g stroke="black" stroke-width="1px">
			<line x1="250.0" x2="202.3" y1="0.0" y2="146.9" />
			<line x1="202.3" x2="77.3" y1="146.9" y2="237.8" />
			<line x1="77.3" x2="-77.3" y1="237.8" y2="237.8" />
			<line x1="-77.3" x2="-202.3" y1="237.8" y2="146.9" />
			<line x1="-202.3" x2="-250.0" y1="146.9" y2="0.0" />
			<line x1="-250.0" x2="-202.3" y1="0.0" y2="-146.9" />
			<line x1="-202.3" x2="-77.3" y1="-146.9" y2="-237.8" />
			<line x1="-77.3" x2="77.3" y1="-237.8" y2="-237.8" />
			<line x1="77.3" x2="202.3" y1="-237.8" y2="-146.9" />
			<line x1="202.3" x2="250.0" y1="-146.9" y2="0.0" />
			<line x1="181.5" x2="147.5" y1="-0.8" y2="106.1" />
			<line x1="147.5" x2="57.1" y1="106.1" y2="172.5" />
			<line x1="57.1" x2="-55.1" y1="172.5" y2="173.2" />
			<line x1="-55.1" x2="-146.2" y1="173.2" y2="107.7" />
			<line x1="-146.2" x2="-181.3" y1="107.7" y2="1.2" />
			<line x1="-181.3" x2="-147.0" y1="1.2" y2="-105.6" />
			<line x1="-147.0" x2="-56.5" y1="-105.6" y2="-171.9" />
			<line x1="-56.5" x2="55.6" y1="-171.9" y2="-172.3" />
			<line x1="55.6" x2="146.5" y1="-172.3" y2="-106.7" />
			<line x1="146.5" x2="181.5" y1="-106.7" y2="-0.8" />
			<line x1="250.0" x2="181.5" y1="0.0" y2="-0.8" />
			<line x1="202.3" x2="147.5" y1="146.9" y2="106.1" />
			<line x1="77.3" x2="57.1" y1="237.8" y2="172.5" />
			<line x1="-77.3" x2="-55.1" y1="237.8" y2="173.2" />
			<line x1="-202.3" x2="-146.2" y1="146.9" y2="107.7" />
			<line x1="-250.0" x2="-181.3" y1="0.0" y2="1.2" />
			<line x1="-202.3" x2="-147.0" y1="-146.9" y2="-105.6" />
			<line x1="-77.3" x2="-56.5" y1="-237.8" y2="-171.9" />
			<line x1="77.3" x2="55.6" y1="-237.8" y2="-172.3" />
			<line x1="202.3" x2="146.5" y1="-146.9" y2="-106.7" />
		</g>
		<g>
			<circle cx="250.0" cy="0.0" r="10.0" />
			<circle cx="202.3" cy="146.9" r="10.0" />
			<circle cx="77.3" cy="237.8" r="10.0" />
			<circle cx="-77.3" cy="237.8" r="10.0" />
			<circle cx="-202.3" cy="146.9" r="10.0" />
			<circle cx="-250.0" cy="0.0" r="10.0" />
			<circle cx="-202.3" cy="-146.9" r="10.0" />
			<circle cx="-77.3" cy="-237.8" r="10.0" />
			<circle cx="77.3" cy="-237.8" r="10.0" />
			<circle cx="202.3" cy="-146.9" r="10.0" />
			<circle cx="181.5" cy="-0.8" r="10.0" />
			<circle cx="147.5" cy="106.1" r="10.0" />
			<circle cx="57.1" cy="172.5" r="10.0" />
			<circle cx="-55.1" cy="173.2" r="10.0" />
			<circle cx="-146.2" cy="107.7" r="10.0" />
			<circle cx="-181.3" cy="1.2" r="10.0" />
			<circle cx="-147.0" cy="-105.6" r="10.0" />
			<circle cx="-56.5" cy="-171.9" r="10.0" />
			<circle cx="55.6" cy="-172.3" r="10.0" />
			<circle cx="146.5" cy="-106.7" r="10.0" />
		</g>
	</svg>
	<svg class="animated" height="515.6" id="frame_7" viewBox="-270.0 -257.8 540.0 515.6" width="540.0" x="0.0" xmlns="http://www.w3.org/2000/svg" y="0.0">
		<g stroke="black" stroke-width="1px">
			<line x1="250.0" x2="202.3" y1="0.0" y2="146.9" />
			<line x1="202.3" x2="77.3" y1="146.9" y2="237.8" />
			<line x1="77.3" x2="-77.3" y1="237.8" y2="237.8" />
			<line x1="-77.3" x2="-202.3" y1="237.8" y2="146.9" />
			<line x1="-202.3" x2="-250.0" y1="146.9" y2="0.0" />
			<line x1="-250.0" x2="-202.3" y1="0.0" y2="-146.9" />
			<line x1="-202.3" x2="-77.3" y1="-146.9" y2="-237.8" />
			<line x1="-77.3" x2="77.3" y1="-237.8" y2="-237.8" />
			<line x1="77.3" x2="202.3" y1="-237.8" y2="-146.9" />
			<line x1="202.3" x2="250.0" y1="-146.9" y2="0.0" />
			<line x1="181.3" x2="146.9" y1="-0.2" y2="106.4" />
			<line x1="146.9" x2="56.3" y1="106.4" y2="172.5" />
			<line x1="56.3" x2="-55.7" y1="172.5" y2="172.6" />
			<line x1="-55.7" x2="-146.4" y1="172.6" y2="106.9" />
			<line x1="-146.4" x2="-181.1" y1="106.9" y2="0.4" />
			<line x1="-181.1" x2="-146.6" y1="0.4" y2="-106.1" />
			<line x1="-146.6" x2="-56.1" y1="-106.1" y2="-172.1" />
			<line x1="-56.1" x2="55.9" y1="-172.1" y2="-172.2" />
			<line x1="55.9" x2="146.5" y1="-172.2" y2="-106.4" />
			<line x1="146.5" x2="181.3" y1="-106.4" y2="-0.2" />
			<line x1="250.0" x2="181.3" y1="0.0" y2="-0.2" />
			<line x1="202.3" x2="146.9" y1="146.9" y2="106.4" />
			<line x1="77.3" x2="56.3" y1="237.8" y2="172.5" />
			<line x1="-77.3" x2="-55.7" y1="237.8" y2="172.6" />
			<line x1="-202.3" x2="-146.4" y1="146.9" y2="106.9" />
			<line x1="-250.0" x2="-181.1" y1="0.0" y2="0.4" />
			<line x1="-202.3" x2="-146.6" y1="-146.9" y2="-106.1" />
			<line x1="-77.3" x2="-56.1" y1="-237.8" y2="-172.1" />
			<line x1="77.3" x2="55.9" y1="-237.8" y2="-172.2" />
			<line x1="202.3" x2="146.5" y1="-146.9" y2="-106.4" />
		</g>
		<g>
			<circle cx="250.0" cy="0.0" r="10.0" />
			<circle cx="202.3" cy="146.9" r="10.0" />
			<circle cx="77.3" cy="237.8" r="10.0" />
			<circle cx="-77.3" cy="237.8" r="10.0" />
			<circle cx="-202.3" cy="146.9" r="10.0" />
			<circle cx="-250.0" cy="0.0" r="10.0" />
			<circle cx="-202.3" cy="-146.9" r="10.0" />
			<circle cx="-77.3" cy="-237.8" r="10.0" />
			<circle cx="77.3" cy="-237.8" r="10.0" />
			<circle cx="202.3" cy="-146.9" r="10.0" />
			<circle cx="181.3" cy="-0.2" r="10.0" />
			<circle cx="146.9" cy="106.4" r="10.0" />
			<circle cx="56.3" cy="172.5" r="10.0" />
			<circle cx="-55.7" cy="172.6" r="10.0" />
			<circle cx="-146.4" cy="106.9" r="10.0" />
			<circle cx="-181.1" cy="0.4" r="10.0" />
			<circle cx="-146.6" cy="-106.1" r="10.0" />
			<circle cx="-56.1" cy="-172.1" r="10.0" />
			<circle cx="55.9" cy="-172.2" r="10.0" />
			<circle cx="146.5" cy="-106.4" r="10.0" />
		</g>
	</svg>
	<svg class="animated" height="515.6" id="frame_8" viewBox="-270.0 -257.8 540.0 515.6" width="540.0" x="0.0" xmlns="http://www.w3.org/2000/svg" y="0.0">
		<g stroke="black" stroke-width="1px">
			<line x1="250.0" x2="202.3" y1="0.0" y2="146.9" />
			<line x1="202.3" x2="77.3" y1="146.9" y2="237.8" />
			<line x1="77.3" x2="-77.3" y1="237.8" y2="237.8" />
			<line x1="-77.3" x2="-202.3" y1="237.8" y2="146.9" />
			<line x1="-202.3" x2="-250.0" y1="146.9" y2="0.0" />
			<line x1="-250.0" x2="-202.3" y1="0.0" y2="-146.9" />
			<line x1="-202.3" x2="-77.3" y1="-146.9" y2="-237.8" />
			<line x1="-77.3" x2="77.3" y1="-237.8" y2="-237.8" />
			<line x1="77.3" x2="202.3" y1="-237.8" y2="-146.9" />
			<line x1="202.3" x2="250.0" y1="-146.9" y2="0.0" />
			<line x1="181.1" x2="146.6" y1="0.0" y2="106.5" />
			<line x1="146.6" x2="56.0" y1="106.5" y2="172.3" />
			<line x1="56.0" x2="-55.9" y1="172.3" y2="172.3" />
			<line x1="-55.9" x2="-146.4" y1="172.3" y2="106.6" />
			<line x1="-146.4" x2="-181.0" y1="106.6" y2="0.1" />
			<line x1="-181.0" x2="-146.5" y1="0.1" y2="-106.3" />
			<line x1="-146.5" x2="-55.9" y1="-106.3" y2="-172.1" />
			<line x1="-55.9" x2="55.9" y1="-172.1" y2="-172.1" />
			<line x1="55.9" x2="146.4" y1="-172.1" y2="-106.3" />
			<line x1="146.4" x2="181.1" y1="-106.3" y2="0.0" />
			<line x1="250.0" x2="181.1" y1="0.0" y2="0.0" />
			<line x1="202.3" x2="146.6" y1="146.9" y2="106.5" />
			<line x1="77.3" x2="56.0" y1="237.8" y2="172.3" />
			<line x1="-77.3" x2="-55.9" y1="237.8" y2="172.3" />
			<line x1="-202.3" x2="-146.4" y1="146.9" y2="106.6" />
			<line x1="-250.0" x2="-181.0" y1="0.0" y2="0.1" />
			<line x1="-202.3" x2="-146.5" y1="-146.9" y2="-106.3" />
			<line x1="-77.3" x2="-55.9" y1="-237.8" y2="-172.1" />
			<line x1="77.3" x2="55.9" y1="-237.8" y2="-172.1" />
			<line x1="202.3" x2="146.4" y1="-146.9" y2="-106.3" />
		</g>
		<g>
			<circle cx="250.0" cy="0.0" r="10.0" />
			<circle cx="202.3" cy="146.9" r="10.0" />
			<circle cx="77.3" cy="237.8" r="10.0" />
			<circle cx="-77.3" cy="237.8" r="10.0" />
			<circle cx="-202.3" cy="146.9" r="10.0" />
			<circle cx="-250.0" cy="0.0" r="10.0" />
			<circle cx="-202.3" cy="-146.9" r="10.0" />
			<circle cx="-77.3" cy="-237.8" r="10.0" />
			<circle cx="77.3" cy="-237.8" r="10.0" />
			<circle cx="202.3" cy="-146.9" r="10.0" />
			<circle cx="181.1" cy="0.0" r="10.0" />
			<circle cx="146.6" cy="106.5" r="10.0" />
			<circle cx="56.0" cy="172.3" r="10.0" />
			<circle cx="-55.9" cy="172.3" r="10.0" />
			<circle cx="-146.4" cy="106.6" r="10.0" />
			<circle cx="-181.0" cy="0.1" r="10.0" />
			<circle cx="-146.5" cy="-106.3" r="10.0" />
			<circle cx="-55.9" cy="-172.1" r="10.0" />
			<circle cx="55.9" cy="-172.1" r="10.0" />
			<circle cx="146.4" cy="-106.3" r="10.0" />
		</g>
	</svg>
	<svg class="animated" height="515.6" id="frame_9" viewBox="-270.0 -257.8 540.0 515.6" width="540.0" x="0.0" xmlns="http://www.w3.org/2000/svg" y="0.0">
		<g stroke="black" stroke-width="1px">
			<line x1="250.0" x2="202.3" y1="0.0" y2="146.9" />
			<line x1="202.3" x2="77.3" y1="146.9" y2="237.8" />
			<line x1="77.3" x2="-77.3" y1="237.8" y2="237.8" />
			<line x1="-77.3" x2="-202.3" y1="237.8" y2="146.9" />
			<line x1="-202.3" x2="-250.0" y1="146.9" y2="0.0" />
			<line x1="-250.0" x2="-202.3" y1="0.0" y2="-146.9" />
			<line x1="-202.3" x2="-77.3" y1="-146.9" y2="-237.8" />
			<line x1="-77.3" x2="77.3" y1="-237.8" y2="-237.8" />
			<line x1="77.3" x2="202.3" y1="-237.8" y2="-146.9" />
			<line x1="202.3" x2="250.0" y1="-146.9" y2="0.0" />
			<line x1="181.0" x2="146.4" y1="0.0" y2="106.4" />
			<line x1="146.4" x2="55.9" y1="106.4" y2="172.2" />
			<line x1="55.9" x2="-55.9" y1="172.2" y2="172.2" />
			<line x1="-55.9" x2="-146.4" y1="172.2" y2="106.4" />
			<line x1="-146.4" x2="-180.9" y1="106.4" y2="0.0" />
			<line x1="-180.9" x2="-146.4" y1="0.0" y2="-106.3" />
			<line x1="-146.4" x2="-55.9" y1="-106.3" y2="-172.1" />
			<line x1="-55.9" x2="55.9" y1="-172.1" y2="-172.1" />
			<line x1="55.9" x2="146.4" y1="-172.1" y2="-106.3" />
			<line x1="146.4" x2="181.0" y1="-106.3" y2="0.0" />
			<line x1="250.0" x2="181.0" y1="0.0" y2="0.0" />
			<line x1="202.3" x2="146.4" y1="146.9" y2="106.4" />
			<line x1="77.3" x2="55.9" y1="237.8" y2="172.2" />
			<line x1="-77.3" x2="-55.9" y1="237.8" y2="172.2" />
			<line x1="-202.3" x2="-146.4" y1="146.9" y2="106.4" />
			<line x1="-250.0" x2="-180.9" y1="0.0" y2="0.0" />
			<line x1="-202.3" x2="-146.4" y1="-146.9" y2="-106.3" />
			<line x1="-77.3" x2="-55.9" y1="-237.8" y2="-172.1" />
			<line x1="77.3" x2="55.9" y1="-237.8" y2="-172.1" />
			<line x1="202.3" x2="146.4" y1="-146.9" y2="-106.3" />
		</g>
		<g>
			<circle cx="250.0" cy="0.0" r="10.0" />
			<circle cx="202.3" cy="146.9" r="10.0" />
			<circle cx="77.3" cy="237.8" r="10.0" />
			<circle cx="-77.3" cy="237.8" r="10.0" />
			<circle cx="-202.3" cy="146.9" r="10.0" />
			<circle cx="-250.0" cy="0.0" r="10.0" />
			<circle cx="-202.3" cy="-146.9" r="10.0" />
			<circle cx="-77.3" cy="-237.8" r="10.0" />
			<circle cx="77.3" cy="-237.8" r="10.0" />
			<circle cx="202.3" cy="-146.9" r="10.0" />
			<circle cx="181.0" cy="0.0" r="10.0" />
			<circle cx="146.4" cy="106.4" r="10.0" />
			<circle cx="55.9" cy="172.2" r="10.0" />
			<circle cx="-55.9" cy="172.2" r="10.0" />
			<circle cx="-146.4" cy="106.4" r="10.0" />
			<circle cx="-180.9" cy="0.0" r="10.0" />
			<circle cx="-146.4" cy="-106.3" r="10.0" />
			<circle cx="-55.9" cy="-172.1" r="10.0" />
			<circle cx="55.9" cy="-172.1" r="10.0" />
			<circle cx="146.4" cy="-106.3" r="10.0" />
		</g>
	</svg>
	<svg class="animated" height="515.6" id="frame_10" viewBox="-270.0 -257.8 540.0 515.6" width="540.0" x="0.0" xmlns="http://www.w3.org/2000/svg" y="0.0">
		<g stroke="black" stroke-width="1px">
			<line x1="250.0" x2="202.3" y1="0.0" y2="146.9" />
			<line x1="202.3" x2="77.3" y1="146.9" y2="237.8" />
			<line x1="77.3" x2="-77.3" y1="237.8" y2="237.8" />
			<line x1="-77.3" x2="-202.3" y1="237.8" y2="146.9" />
			<line x1="-202.3" x2="-250.0" y1="146.9" y2="0.0" />
			<line x1="-250.0" x2="-202.3" y1="0.0" y2="-146.9" />
			<line x1="-202.3" x2="-77.3" y1="-146.9" y2="-237.8" />
			<line x1="-77.3" x2="77.3" y1="-237.8" y2="-237.8" />
			<line x1="77.3" x2="202.3" y1="-237.8" y2="-146.9" />
			<line x1="202.3" x2="250.0" y1="-146.9" y2="0.0" />
			<line x1="180.9" x2="146.4" y1="0.0" y2="106.4" />
			<line x1="146.4" x2="55.9" y1="106.4" y2="172.1" />
			<line x1="55.9" x2="-55.9" y1="172.1" y2="172.1" />
			<line x1="-55.9" x2="-146.4" y1="172.1" y2="106.4" />
			<line x1="-146.4" x2="-180.9" y1="106.4" y2="0.0" />
			<line x1="-180.9" x2="-146.4" y1="0.0" y2="-106.3" />
			<line x1="-146.4" x2="-55.9" y1="-106.3" y2="-172.0" />
			<line x1="-55.9" x2="55.9" y1="-172.0" y2="-172.0" />
			<line x1="55.9" x2="146.4" y1="-172.0" y2="-106.3" />
			<line x1="146.4" x2="180.9" y1="-106.3" y2="0.0" />
			<line x1="250.0" x2="180.9" y1="0.0" y2="0.0" />
			<line x1="202.3" x2="146.4" y1="146.9" y2="106.4" />
			<line x1="77.3" x2="55.9" y1="237.8" y2="172.1" />
			<line x1="-77.3" x2="-55.9" y1="237.8" y2="172.1" />
			<line x1="-202.3" x2="-146.4" y1="146.9" y2="106.4" />
			<line x1="-250.0" x2="-180.9" y1="0.0" y2="0.0" />
			<line x1="-202.3" x2="-146.4" y1="-146.9" y2="-106.3" />
			<line x1="-77.3" x2="-55.9" y1="-237.8" y2="-172.0" />
			<line x1="77.3" x2="55.9" y1="-237.8" y2="-172.0" />
			<line x1="202.3" x2="146.4" y1="-146.9" y2="-106.3" />
		</g>
		<g>
			<circle cx="250.0" cy="0.0" r="10.0" />
			<circle cx="202.3" cy="146.9" r="10.0" />
			<circle cx="77.3" cy="237.8" r="10.0" />
			<circle cx="-77.3" cy="237.8" r="10.0" />
			<circle cx="-202.3" cy="146.9" r="10.0" />
			<circle cx="-250.0" cy="0.0" r="10.0" />
			<circle cx="-202.3" cy="-146.9" r="10.0" />
			<circle cx="-77.3" cy="-237.8" r="10.0" />
			<circle cx="77.3" cy="-237.8" r="10.0" />
			<circle cx="202.3" cy="-146.9" r="10.0" />
			<circle cx="180.9" cy="0.0" r="10.0" />
			<circle cx="146.4" cy="106.4" r="10.0" />
			<circle cx="55.9" cy="172.1" r="10.0" />
			<circle cx="-55.9" cy="172.1" r="10.0" />
			<circle cx="-146.4" cy="106.4" r="10.0" />
			<circle cx="-180.9" cy="0.0" r="10.0" />
			<circle cx="-146.4" cy="-106.3" r="10.0" />
			<circle cx="-55.9" cy="-172.0" r="10.0" />
			<circle cx="55.9" cy="-172.0" r="10.0" />
			<circle cx="146.4" cy="-106.3" r="10.0" />
		</g>
	</svg>
	<svg class="animated" height="515.6" id="frame_11" viewBox="-270.0 -257.8 540.0 515.6" width="540.0" x="0.0" xmlns="http://www.w3.org/2000/svg" y="0.0">
		<g stroke="black" stroke-width="1px">
			<line x1="250.0" x2="202.3" y1="0.0" y2="146.9" />
			<line x1="202.3" x2="77.3" y1="146.9" y2="237.8" />
			<line x1="77.3" x2="-77.3" y1="237.8" y2="237.8" />
			<line x1="-77.3" x2="-202.3" y1="237.8" y2="146.9" />
			<line x1="-202.3" x2="-250.0" y1="146.9" y2="0.0" />
			<line x1="-250.0" x2="-202.3" y1="0.0" y2="-146.9" />
			<line x1="-202.3" x2="-77.3" y1="-146.9" y2="-237.8" />
			<line x1="-77.3" x2="77.3" y1="-237.8" y2="-237.8" />
			<line x1="77.3" x2="202.3" y1="-237.8" y2="-146.9" />
			<line x1="202.3" x2="250.0" y1="-146.9" y2="0.0" />
			<line x1="180.9" x2="146.4" y1="0.0" y2="106.4" />
			<line x1="146.4" x2="55.9" y1="106.4" y2="172.1" />
			<line x1="55.9" x2="-55.9" y1="172.1" y2="172.1" />
			<line x1="-55.9" x2="-146.4" y1="172.1" y2="106.3" />
			<line x1="-146.4" x2="-180.9" y1="106.3" y2="0.0" />
			<line x1="-180.9" x2="-146.4" y1="0.0" y2="-106.3" />
			<line x1="-146.4" x2="-55.9" y1="-106.3" y2="-172.0" />
			<line x1="-55.9" x2="55.9" y1="-172.0" y2="-172.0" />
			<line x1="55.9" x2="146.4" y1="-172.0" y2="-106.3" />
			<line x1="146.4" x2="180.9" y1="-106.3" y2="0.0" />
			<line x1="250.0" x2="180.9" y1="0.0" y2="0.0" />
			<line x1="202.3" x2="146.4" y1="146.9" y2="106.4" />
			<line x1="77.3" x2="55.9" y1="237.8" y2="172.1" />
			<line x1="-77.3" x2="-55.9" y1="237.8" y2="172.1" />
			<line x1="-202.3" x2="-146.4" y1="146.9" y2="106.3" />
			<line x1="-250.0" x2="-180.9" y1="0.0" y2="0.0" />
			<line x1="-202.3" x2="-146.4" y1="-146.9" y2="-106.3" />
			<line x1="-77.3" x2="-55.9" y1="-237.8" y2="-172.0" />
			<line x1="77.3" x2="55.9" y1="-237.8" y2="-172.0" />
			<line x1="202.3" x2="146.4" y1="-146.9" y2="-106.3" />
		</g>
		<g>
			<circle cx="250.0" cy="0.0" r="10.0" />
			<circle cx="202.3" cy="146.9" r="10.0" />
			<circle cx="77.3" cy="237.8" r="10.0" />
			<circle cx="-77.3" cy="237.8" r="10.0" />
			<circle cx="-202.3" cy="146.9" r="10.0" />
			<circle cx="-250.0" cy="0.0" r="10.0" />
			<circle cx="-202.3" cy="-146.9" r="10.0" />
			<circle cx="-77.3" cy="-237.8" r="10.0" />
			<circle cx="77.3" cy="-237.8" r="10.0" />
			<circle cx="202.3" cy="-146.9" r="10.0" />
			<circle cx="180.9" cy="0.0" r="10.0" />
			<circle cx="146.4" cy="106.4" r="10.0" />
			<circle cx="55.9" cy="172.1" r="10.0" />
			<circle cx="-55.9" cy="172.1" r="10.0" />
			<circle cx="-146.4" cy="106.3" r="10.0" />
			<circle cx="-180.9" cy="0.0" r="10.0" />
			<circle cx="-146.4" cy="-106.3" r="10.0" />
			<circle cx="-55.9" cy="-172.0" r="10.0" />
			<circle cx="55.9" cy="-172.0" r="10.0" />
			<circle cx="146.4" cy="-106.3" r="10.0" />
		</g>
	</svg>
	<svg class="animated" height="515.6" id="frame_12" viewBox="-270.0 -257.8 540.0 515.6" width="540.0" x="0.0" xmlns="http://www.w3.org/2000/svg" y="0.0">
		<g stroke="black" stroke-width="1px">
			<line x1="250.0" x2="202.3" y1="0.0" y2="146.9" />
			<line x1="202.3" x2="77.3" y1="146.9" y2="237.8" />
			<line x1="77.3" x2="-77.3" y1="237.8" y2="237.8" />
			<line x1="-77.3" x2="-202.3" y1="237.8" y2="146.9" />
			<line x1="-202.3" x2="-250.0" y1="146.9" y2="0.0" />
			<line x1="-250.0" x2="-202.3" y1="0.0" y2="-146.9" />
			<line x1="-202.3" x2="-77.3" y1="-146.9" y2="-237.8" />
			<line x1="-77.3" x2="77.3" y1="-237.8" y2="-237.8" />
			<line x1="77.3" x2="202.3" y1="-237.8" y2="-146.9" />
			<line x1="202.3" x2="250.0" y1="-146.9" y2="0.0" />
			<line x1="180.9" x2="146.4" y1="0.0" y2="106.3" />
			<line x1="146.4" x2="55.9" y1="106.3" y2="172.1" />
			<line x1="55.9" x2="-55.9" y1="172.1" y2="172.1" />
			<line x1="-55.9" x2="-146.4" y1="172.1" y2="106.3" />
			<line x1="-146.4" x2="-180.9" y1="106.3" y2="0.0" />
			<line x1="-180.9" x2="-146.4" y1="0.0" y2="-106.3" />
			<line x1="-146.4" x2="-55.9" y1="-106.3" y2="-172.0" />
			<line x1="-55.9" x2="55.9" y1="-172.0" y2="-172.0" />
			<line x1="55.9" x2="146.4" y1="-172.0" y2="-106.3" />
			<line x1="146.4" x2="180.9" y1="-106.3" y2="0.0" />
			<line x1="250.0" x2="180.9" y1="0.0" y2="0.0" />
			<line x1="202.3" x2="146.4" y1="146.9" y2="106.3" />
			<line x1="77.3" x2="55.9" y1="237.8" y2="172.1" />
			<line x1="-77.3" x2="-55.9" y1="237.8" y2="172.1" />
			<line x1="-202.3" x2="-146.4" y1="146.9" y2="106.3" />
			<line x1="-250.0" x2="-180.9" y1="0.0" y2="0.0" />
			<line x1="-202.3" x2="-146.4" y1="-146.9" y2="-106.3" />
			<line x1="-77.3" x2="-55.9" y1="-237.8" y2="-172.0" />
			<line x1="77.3" x2="55.9" y1="-237.8" y2="-172.0" />
			<line x1="202.3" x2="146.4" y1="-146.9" y2="-106.3" />
		</g>
		<g>
			<circle cx="250.0" cy="0.0" r="10.0" />
			<circle cx="202.3" cy="146.9" r="10.0" />
			<circle cx="77.3" cy="237.8" r="10.0" />
			<circle cx="-77.3" cy="237.8" r="10.0" />
			<circle cx="-202.3" cy="146.9" r="10.0" />
			<circle cx="-250.0" cy="0.0" r="10.0" />
			<circle cx="-202.3" cy="-146.9" r="10.0" />
			<circle cx="-77.3" cy="-237.8" r="10.0" />
			<circle cx="77.3" cy="-237.8" r="10.0" />
			<circle cx="202.3" cy="-146.9" r="10.0" />
			<circle cx="180.9" cy="0.0" r="10.0" />
			<circle cx="146.4" cy="106.3" r="10.0" />
			<circle cx="55.9" cy="172.1" r="10.0" />
			<circle cx="-55.9" cy="172.1" r="10.0" />
			<circle cx="-146.4" cy="106.3" r="10.0" />
			<circle cx="-180.9" cy="0.0" r="10.0" />
			<circle cx="-146.4" cy="-106.3" r="10.0" />
			<circle cx="-55.9" cy="-172.0" r="10.0" />
			<circle cx="55.9" cy="-172.0" r="10.0" />
			<circle cx="146.4" cy="-106.3" r="10.0" />
		</g>
	</svg>
	<svg class="animated" height="515.6" id="frame_13" viewBox="-270.0 -257.8 540.0 515.6" width="540.0" x="0.0" xmlns="http://www.w3.org/2000/svg" y="0.0">
		<g stroke="black" stroke-width="1px">
			<line x1="250.0" x2="202.3" y1="0.0" y2="146.9" />
			<line x1="202.3" x2="77.3" y1="146.9" y2="237.8" />
			<line x1="77.3" x2="-77.3" y1="237.8" y2="237.8" />
			<line x1="-77.3" x2="-202.3" y1="237.8" y2="146.9" />
			<line x1="-202.3" x2="-250.0" y1="146.9" y2="0.0" />
			<line x1="-250.0" x2="-202.3" y1="0.0" y2="-146.9" />
			<line x1="-202.3" x2="-77.3" y1="-146.9" y2="-237.8" />
			<line x1="-77.3" x2="77.3" y1="-237.8" y2="-237.8" />
			<line x1="77.3" x2="202.3" y1="-237.8" y2="-146.9" />
			<line x1="202.3" x2="250.0" y1="-146.9" y2="0.0" />
			<line x1="180.9" x2="146.4" y1="0.0" y2="106.3" />
			<line x1="146.4" x2="55.9" y1="106.3" y2="172.1" />
			<line x1="55.9" x2="-55.9" y1="172.1" y2="172.1" />
			<line x1="-55.9" x2="-146.4" y1="172.1" y2="106.3" />
			<line x1="-146.4" x2="-180.9" y1="106.3" y2="0.0" />
			<line x1="-180.9" x2="-146.4" y1="0.0" y2="-106.3" />
			<line x1="-146.4" x2="-55.9" y1="-106.3" y2="-172.0" />
			<line x1="-55.9" x2="55.9" y1="-172.0" y2="-172.0" />
			<line x1="55.9" x2="146.4" y1="-172.0" y2="-106.3" />
			<line x1="146.4" x2="180.9" y1="-106.3" y2="0.0" />
			<line x1="250.0" x2="180.9" y1="0.0" y2="0.0" />
			<line x1="202.3" x2="146.4" y1="146.9" y2="106.3" />
			<line x1="77.3" x2="55.9" y1="237.8" y2="172.1" />
			<line x1="-77.3" x2="-55.9" y1="237.8" y2="172.1" />
			<line x1="-202.3" x2="-146.4" y1="146.9" y2="106.3" />
			<line x1="-250.0" x2="-180.9" y1="0.0" y2="0.0" />
			<line x1="-202.3" x2="-146.4" y1="-146.9" y2="-106.3" />
			<line x1="-77.3" x2="-55.9" y1="-237.8" y2="-172.0" />
			<line x1="77.3" x2="55.9" y1="-237.8" y2="-172.0" />
			<line x1="202.3" x2="146.4" y1="-146.9" y2="-106.3" />
		</g>
		<g>
			<circle cx="250.0" cy="0.0" r="10.0" />
			<circle cx="202.3" cy="146.9" r="10.0" />
			<circle cx="77.3" cy="237.8" r="10.0" />
			<circle cx="-77.3" cy="237.8" r="10.0" />
			<circle cx="-202.3" cy="146.9" r="10.0" />
			<circle cx="-250.0" cy="0.0" r="10.0" />
			<circle cx="-202.3" cy="-146.9" r="10.0" />
			<circle cx="-77.3" cy="-237.8" r="10.0" />
			<circle cx="77.3" cy="-237.8" r="10.0" />
			<circle cx="202.3" cy="-146.9" r="10.0" />
			<circle cx="180.9" cy="0.0" r="10.0" />
			<circle cx="146.4" cy="106.3" r="10.0" />
			<circle cx="55.9" cy="172.1" r="10.0" />
			<circle cx="-55.9" cy="172.1" r="10.0" />
			<circle cx="-146.4" cy="106.3" r="10.0" />
			<circle cx="-180.9" cy="0.0" r="10.0" />
			<circle cx="-146.4" cy="-106.3" r="10.0" />
			<circle cx="-55.9" cy="-172.0" r="10.0" />
			<circle cx="55.9" cy="-172.0" r="10.0" />
			<circle cx="146.4" cy="-106.3" r="10.0" />
		</g>
	</svg>
</svg>