<svg height="600.8" viewBox="33.4 -49.9 674.4 600.8" width="674.4" xmlns="http://www.w3.org/2000/svg">
	<style type="text/css">
		<![CDATA[
		]]>
	</style>
	<g stroke="black" stroke-width="1px">
		<line x1="601.0" x2="581.4" y1="185.7" y2="347.6" />
		<line x1="601.0" x2="416.8" y1="185.7" y2="164.5" />
		<line x1="601.0" x2="53.4" y1="185.7" y2="319.1" />
		<line x1="601.0" x2="144.4" y1="185.7" y2="453.7" />
		<line x1="601.0" x2="339.7" y1="185.7" y2="-29.9" />
		<line x1="601.0" x2="185.5" y1="185.7" y2="7.4" />
		<line x1="601.0" x2="295.2" y1="185.7" y2="530.9" />
		<line x1="601.0" x2="207.8" y1="185.7" y2="213.5" />
		<line x1="601.0" x2="483.1" y1="185.7" y2="484.9" />
		<line x1="601.0" x2="354.9" y1="185.7" y2="370.9" />
		<line x1="601.0" x2="506.8" y1="185.7" y2="23.8" />
		<line x1="601.0" x2="61.7" y1="185.7" y2="133.0" />
		<line x1="581.4" x2="416.8" y1="347.6" y2="164.5" />
		<line x1="581.4" x2="53.4" y1="347.6" y2="319.1" />
		<line x1="581.4" x2="144.4" y1="347.6" y2="453.7" />
		<line x1="581.4" x2="339.7" y1="347.6" y2="-29.9" />
		<line x1="581.4" x2="185.5" y1="347.6" y2="7.4" />
		<line x1="581.4" x2="295.2" y1="347.6" y2="530.9" />
		<line x1="581.4" x2="207.8" y1="347.6" y2="213.5" />
		<line x1="581.4" x2="483.1" y1="347.6" y2="484.9" />
		<line x1="581.4" x2="354.9" y1="347.6" y2="370.9" />
		<line x1="581.4" x2="506.8" y1="347.6" y2="23.8" />
		<line x1="581.4" x2="61.7" y1="347.6" y2="133.0" />
		<line x1="416.8" x2="53.4" y1="164.5" y2="319.1" />
		<line x1="416.8" x2="144.4" y1="164.5" y2="453.7" />
		<line x1="416.8" x2="339.7" y1="164.5" y2="-29.9" />
		<line x1="416.8" x2="185.5" y1="164.5" y2="7.4" />
		<line x1="416.8" x2="295.2" y1="164.5" y2="530.9" />
		<line x1="416.8" x2="207.8" y1="164.5" y2="213.5" />
		<line x1="416.8" x2="483.1" y1="164.5" y2="484.9" />
		<line x1="416.8" x2="354.9" y1="164.5" y2="370.9" />
		<line x1="416.8" x2="506.8" y1="164.5" y2="23.8" />
		<line x1="416.8" x2="61.7" y1="164.5" y2="133.0" />
		<line x1="53.4" x2="144.4" y1="319.1" y2="453.7" />
		<line x1="53.4" x2="339.7" y1="319.1" y2="-29.9" />
		<line x1="53.4" x2="185.5" y1="319.1" y2="7.4" />
		<line x1="53.4" x2="295.2" y1="319.1" y2="530.9" />
		<line x1="53.4" x2="207.8" y1="319.1" y2="213.5" />
		<line x1="53.4" x2="483.1" y1="319.1" y2="484.9" />
		<line x1="53.4" x2="354.9" y1="319.1" y2="370.9" />
		<line x1="53.4" x2="506.8" y1="319.1" y2="23.8" />
		<line x1="53.4" x2="61.7" y1="319.1" y2="133.0" />
		<line x1="144.4" x2="339.7" y1="453.7" y2="-29.9" />
		<line x1="144.4" x2="185.5" y1="453.7" y2="7.4" />
		<line x1="144.4" x2="295.2" y1="453.7" y2="530.9" />
		<line x1="144.4" x2="207.8" y1="453.7" y2="213.5" />
		<line x1="144.4" x2="483.1" y1="453.7" y2="484.9" />
		<line x1="144.4" x2="354.9" y1="453.7" y2="370.9" />
		<line x1="144.4" x2="506.8" y1="453.7" y2="23.8" />
		<line x1="144.4" x2="61.7" y1="453.7" y2="133.0" />
		<line x1="339.7" x2="185.5" y1="-29.9" y2="7.4" />
		<line x1="339.7" x2="295.2" y1="-29.9" y2="530.9" />
		<line x1="339.7" x2="207.8" y1="-29.9" y2="213.5" />
		<line x1="339.7" x2="483.1" y1="-29.9" y2="484.9" />
		<line x1="339.7" x2="354.9" y1="-29.9" y2="370.9" />
		<line x1="339.7" x2="506.8" y1="-29.9" y2="23.8" />
		<line x1="339.7" x2="61.7" y1="-29.9" y2="133.0" />
		<line x1="185.5" x2="295.2" y1="7.4" y2="530.9" />
		<line x1="185.5" x2="207.8" y1="7.4" y2="213.5" />
		<line x1="185.5" x2="483.1" y1="7.4" y2="484.9" />
		<line x1="185.5" x2="354.9" y1="7.4" y2="370.9" />
		<line x1="185.5" x2="506.8" y1="7.4" y2="23.8" />
		<line x1="185.5" x2="61.7" y1="7.4" y2="133.0" />
		<line x1="295.2" x2="207.8" y1="530.9" y2="213.5" />
		<line x1="295.2" x2="483.1" y1="530.9" y2="484.9" />
		<line x1="295.2" x2="354.9" y1="530.9" y2="370.9" />
		<line x1="295.2" x2="506.8" y1="530.9" y2="23.8" />
		<line x1="295.2" x2="61.7" y1="530.9" y2="133.0" />
		<line x1="207.8" x2="483.1" y1="213.5" y2="484.9" />
		<line x1="207.8" x2="354.9" y1="213.5" y2="370.9" />
		<line x1="207.8" x2="506.8" y1="213.5" y2="23.8" />
		<line x1="207.8" x2="61.7" y1="213.5" y2="133.0" />
		<line x1="483.1" x2="354.9" y1="484.9" y2="370.9" />
		<line x1="483.1" x2="506.8" y1="484.9" y2="23.8" />
		<line x1="483.1" x2="61.7" y1="484.9" y2="133.0" />
		<line x1="354.9" x2="506.8" y1="370.9" y2="23.8" />
		<line x1="354.9" x2="61.7" y1="370.9" y2="133.0" />
		<line x1="506.8" x2="61.7" y1="23.8" y2="133.0" />
	</g>
	<g>
		<circle cx="601.0" cy="185.7" r="10.0" />
		<circle cx="581.4" cy="347.6" r="10.0" />
		<circle cx="416.8" cy="164.5" r="10.0" />
		<circle cx="53.4" cy="319.1" r="10.0" />
		<circle cx="144.4" cy="453.7" r="10.0" />
		<circle cx="339.7" cy="-29.9" r="10.0" />
		<circle cx="185.5" cy="7.4" r="10.0" />
		<circle cx="295.2" cy="530.9" r="10.0" />
		<circle cx="207.8" cy="213.5" r="10.0" />
		<circle cx="483.1" cy="484.9" r="10.0" />
		<circle cx="354.9" cy="370.9" r="10.0" />
		<circle cx="506.8" cy="23.8" r="10.0" />
		<circle cx="61.7" cy="133.0" r="10.0" />
	</g>
</svg>