<svg height="597.6" width="536.7" xmlns="http://www.w3.org/2000/svg">
	<style type="text/css">
		<![CDATA[
		]]>
	</style>
	<g stroke="black" stroke-width="1px">
		<line x1="491.4" x2="448.2" y1="202.3" y2="447.2" />
		<line x1="491.4" x2="25.3" y1="202.3" y2="373.2" />
		<line x1="491.4" x2="65.6" y1="202.3" y2="128.1" />
		<line x1="491.4" x2="300.1" y1="202.3" y2="43.4" />
		<line x1="491.4" x2="214.5" y1="202.3" y2="534.2" />
		<line x1="448.2" x2="25.3" y1="447.2" y2="373.2" />
		<line x1="448.2" x2="65.6" y1="447.2" y2="128.1" />
		<line x1="448.2" x2="300.1" y1="447.2" y2="43.4" />
		<line x1="448.2" x2="214.5" y1="447.2" y2="534.2" />
		<line x1="25.3" x2="65.6" y1="373.2" y2="128.1" />
		<line x1="25.3" x2="300.1" y1="373.2" y2="43.4" />
		<line x1="25.3" x2="214.5" y1="373.2" y2="534.2" />
		<line x1="65.6" x2="300.1" y1="128.1" y2="43.4" />
		<line x1="65.6" x2="214.5" y1="128.1" y2="534.2" />
		<line x1="300.1" x2="214.5" y1="43.4" y2="534.2" />
	</g>
	<g>
		<circle cx="491.4" cy="202.3" r="10.0" />
		<circle cx="448.2" cy="447.2" r="10.0" />
		<circle cx="25.3" cy="373.2" r="10.0" />
		<circle cx="65.6" cy="128.1" r="10.0" />
		<circle cx="300.1" cy="43.4" r="10.0" />
		<circle cx="214.5" cy="534.2" r="10.0" />
	</g>
</svg>