<svg height="563.8" width="598.6" xmlns="http://www.w3.org/2000/svg">
	<style type="text/css">
		<![CDATA[
		]]>
	</style>
	<g stroke="black" stroke-width="1px">
		<line x1="529.6" x2="421.2" y1="294.0" y2="481.8" />
		<line x1="529.6" x2="49.0" y1="294.0" y2="365.5" />
		<line x1="529.6" x2="62.3" y1="294.0" y2="148.7" />
		<line x1="529.6" x2="243.7" y1="294.0" y2="28.6" />
		<line x1="529.6" x2="205.8" y1="294.0" y2="515.2" />
		<line x1="529.6" x2="451.6" y1="294.0" y2="91.0" />
		<line x1="421.2" x2="49.0" y1="481.8" y2="365.5" />
		<line x1="421.2" x2="62.3" y1="481.8" y2="148.7" />
		<line x1="421.2" x2="243.7" y1="481.8" y2="28.6" />
		<line x1="421.2" x2="205.8" y1="481.8" y2="515.2" />
		<line x1="421.2" x2="451.6" y1="481.8" y2="91.0" />
		<line x1="49.0" x2="62.3" y1="365.5" y2="148.7" />
		<line x1="49.0" x2="243.7" y1="365.5" y2="28.6" />
		<line x1="49.0" x2="205.8" y1="365.5" y2="515.2" />
		<line x1="49.0" x2="451.6" y1="365.5" y2="91.0" />
		<line x1="62.3" x2="243.7" y1="148.7" y2="28.6" />
		<line x1="62.3" x2="205.8" y1="148.7" y2="515.2" />
		<line x1="62.3" x2="451.6" y1="148.7" y2="91.0" />
		<line x1="243.7" x2="205.8" y1="28.6" y2="515.2" />
		<line x1="243.7" x2="451.6" y1="28.6" y2="91.0" />
		<line x1="205.8" x2="451.6" y1="515.2" y2="91.0" />
	</g>
	<g>
		<circle cx="529.6" cy="294.0" r="10.0" />
		<circle cx="421.2" cy="481.8" r="10.0" />
		<circle cx="49.0" cy="365.5" r="10.0" />
		<circle cx="62.3" cy="148.7" r="10.0" />
		<circle cx="243.7" cy="28.6" r="10.0" />
		<circle cx="205.8" cy="515.2" r="10.0" />
		<circle cx="451.6" cy="91.0" r="10.0" />
	</g>
</svg>