<svg height="548.6" viewBox="32.7 -23.2 633.6 548.6" width="633.6" xmlns="http://www.w3.org/2000/svg">
	<style type="text/css">
		<![CDATA[
		]]>
	</style>
	<g stroke="black" stroke-width="1px">
		<line x1="560.9" x2="423.8" y1="341.2" y2="493.5" />
		<line x1="560.9" x2="69.9" y1="341.2" y2="373.7" />
		<line x1="560.9" x2="52.7" y1="341.2" y2="172.4" />
		<line x1="560.9" x2="183.5" y1="341.2" y2="15.0" />
		<line x1="560.9" x2="221.9" y1="341.2" y2="505.4" />
		<line x1="560.9" x2="313.9" y1="341.2" y2="245.9" />
		<line x1="560.9" x2="390.4" y1="341.2" y2="-3.2" />
		<line x1="560.9" x2="548.8" y1="341.2" y2="133.6" />
		<line x1="423.8" x2="69.9" y1="493.5" y2="373.7" />
		<line x1="423.8" x2="52.7" y1="493.5" y2="172.4" />
		<line x1="423.8" x2="183.5" y1="493.5" y2="15.0" />
		<line x1="423.8" x2="221.9" y1="493.5" y2="505.4" />
		<line x1="423.8" x2="313.9" y1="493.5" y2="245.9" />
		<line x1="423.8" x2="390.4" y1="493.5" y2="-3.2" />
		<line x1="423.8" x2="548.8" y1="493.5" y2="133.6" />
		<line x1="69.9" x2="52.7" y1="373.7" y2="172.4" />
		<line x1="69.9" x2="183.5" y1="373.7" y2="15.0" />
		<line x1="69.9" x2="221.9" y1="373.7" y2="505.4" />
		<line x1="69.9" x2="313.9" y1="373.7" y2="245.9" />
		<line x1="69.9" x2="390.4" y1="373.7" y2="-3.2" />
		<line x1="69.9" x2="548.8" y1="373.7" y2="133.6" />
		<line x1="52.7" x2="183.5" y1="172.4" y2="15.0" />
		<line x1="52.7" x2="221.9" y1="172.4" y2="505.4" />
		<line x1="52.7" x2="313.9" y1="172.4" y2="245.9" />
		<line x1="52.7" x2="390.4" y1="172.4" y2="-3.2" />
		<line x1="52.7" x2="548.8" y1="172.4" y2="133.6" />
		<line x1="183.5" x2="221.9" y1="15.0" y2="505.4" />
		<line x1="183.5" x2="313.9" y1="15.0" y2="245.9" />
		<line x1="183.5" x2="390.4" y1="15.0" y2="-3.2" />
		<line x1="183.5" x2="548.8" y1="15.0" y2="133.6" />
		<line x1="221.9" x2="313.9" y1="505.4" y2="245.9" />
		<line x1="221.9" x2="390.4" y1="505.4" y2="-3.2" />
		<line x1="221.9" x2="548.8" y1="505.4" y2="133.6" />
		<line x1="313.9" x2="390.4" y1="245.9" y2="-3.2" />
		<line x1="313.9" x2="548.8" y1="245.9" y2="133.6" />
		<line x1="390.4" x2="548.8" y1="-3.2" y2="133.6" />
	</g>
	<g>
		<circle cx="560.9" cy="341.2" r="10.0" />
		<circle cx="423.8" cy="493.5" r="10.0" />
		<circle cx="69.9" cy="373.7" r="10.0" />
		<circle cx="52.7" cy="172.4" r="10.0" />
		<circle cx="183.5" cy="15.0" r="10.0" />
		<circle cx="221.9" cy="505.4" r="10.0" />
		<circle cx="313.9" cy="245.9" r="10.0" />
		<circle cx="390.4" cy="-3.2" r="10.0" />
		<circle cx="548.8" cy="133.6" r="10.0" />
	</g>
</svg>