<svg viewBox="0 0 540.000000 540.000000" xmlns="http://www.w3.org/2000/svg">
	<style type="text/css">
		<![CDATA[
			#frame_0 {
				animation-name: anim_0;
			}
			#frame_1 {
				animation-name: anim_1;
			}
			#frame_10 {
				animation-name: anim_10;
			}
			#frame_11 {
				animation-name: anim_11;
			}
			#frame_2 {
				animation-name: anim_2;
			}
			#frame_3 {
				animation-name: anim_3;
			}
			#frame_4 {
				animation-name: anim_4;
			}
			#frame_5 {
				animation-name: anim_5;
			}
			#frame_6 {
				animation-name: anim_6;
			}
			#frame_7 {
				animation-name: anim_7;
			}
			#frame_8 {
				animation-name: anim_8;
			}
			#frame_9 {
				animation-name: anim_9;
			}
			svg.animated {
				animation-duration: 4.000000s;
				animation-iteration-count: infinite;
				animation-timing-function: step-end;
				opacity: 0;
			}
			@keyframes anim_0 {
				0% {
					opacity: 0;
				}
				0.000000% {
					opacity: 1;
				}
				8.333333% {
					opacity: 0;
				}
			}
			@keyframes anim_1 {
				0% {
					opacity: 0;
				}
				16.666667% {
					opacity: 0;
				}
				8.333333% {
					opacity: 1;
				}
			}
			@keyframes anim_10 {
				0% {
					opacity: 0;
				}
				83.333333% {
					opacity: 1;
				}
				91.666667% {
					opacity: 0;
				}
			}
			@keyframes anim_11 {
				0% {
					opacity: 0;
				}
				100.000000% {
					opacity: 0;
				}
				91.666667% {
					opacity: 1;
				}
			}
			@keyframes anim_2 {
				0% {
					opacity: 0;
				}
				16.666667% {
					opacity: 1;
				}
				25.000000% {
					opacity: 0;
				}
			}
			@keyframes anim_3 {
				0% {
					opacity: 0;
				}
				25.000000% {
					opacity: 1;
				}
				33.333333% {
					opacity: 0;
				}
			}
			@keyframes anim_4 {
				0% {
					opacity: 0;
				}
				33.333333% {
					opacity: 1;
				}
				41.666667% {
					opacity: 0;
				}
			}
			@keyframes anim_5 {
				0% {
					opacity: 0;
				}
				41.666667% {
					opacity: 1;
				}
				50.000000% {
					opacity: 0;
				}
			}
			@keyframes anim_6 {
				0% {
					opacity: 0;
				}
				50.000000% {
					opacity: 1;
				}
				58.333333% {
					opacity: 0;
				}
			}
			@keyframes anim_7 {
				0% {
					opacity: 0;
				}
				58.333333% {
					opacity: 1;
				}
				66.666667% {
					opacity: 0;
				}
			}
			@keyframes anim_8 {
				0% {
					opacity: 0;
				}
				66.666667% {
					opacity: 1;
				}
				75.000000% {
					opacity: 0;
				}
			}
			@keyframes anim_9 {
				0% {
					opacity: 0;
				}
				75.000000% {
					opacity: 1;
				}
				83.333333% {
					opacity: 0;
				}
			}
		]]>
	</style>
	<svg class="animated" height="540.0" id="frame_0" viewBox="-270.0 -270.0 540.0 540.0" width="540.0" x="0.0" xmlns="http://www.w3.org/2000/svg" y="0.0">
		<g stroke="black" stroke-width="1px">
			<line x1="250.0" x2="0.0" y1="0.0" y2="250.0" />
			<line x1="0.0" x2="-250.0" y1="250.0" y2="0.0" />
			<line x1="-250.0" x2="-0.0" y1="0.0" y2="-250.0" />
			<line x1="250.0" x2="-0.0" y1="0.0" y2="-250.0" />
			<line x1="250.0" x2="0.0" y1="0.0" y2="0.0" />
			<line x1="0.0" x2="0.0" y1="250.0" y2="0.0" />
			<line x1="-250.0" x2="0.0" y1="0.0" y2="0.0" />
			<line x1="-0.0" x2="0.0" y1="-250.0" y2="0.0" />
			<line x1="0.0" x2="0.0" y1="0.0" y2="0.0" />
			<line x1="0.0" x2="0.0" y1="0.0" y2="0.0" />
			<line x1="0.0" x2="0.0" y1="0.0" y2="0.0" />
			<line x1="0.0" x2="0.0" y1="0.0" y2="0.0" />
		</g>
		<g>
			<circle cx="250.0" cy="0.0" r="10.0" />
			<circle cx="0.0" cy="250.0" r="10.0" />
			<circle cx="-250.0" cy="0.0" r="10.0" />
			<circle cx="-0.0" cy="-250.0" r="10.0" />
			<circle cx="0.0" cy="0.0" r="10.0" />
			<circle cx="0.0" cy="0.0" r="10.0" />
			<circle cx="0.0" cy="0.0" r="10.0" />
			<circle cx="0.0" cy="0.0" r="10.0" />
		</g>
	</svg>
	<svg class="animated" height="540.0" id="frame_1" viewBox="-270.0 -270.0 540.0 540.0" width="540.0" x="0.0" xmlns="http://www.w3.org/2000/svg" y="0.0">
		<g stroke="black" stroke-width="1px">
			<line x1="250.0" x2="0.0" y1="0.0" y2="250.0" />
			<line x1="0.0" x2="-250.0" y1="250.0" y2="0.0" />
			<line x1="-250.0" x2="-0.0" y1="0.0" y2="-250.0" />
			<line x1="250.0" x2="-0.0" y1="0.0" y2="-250.0" />
			<line x1="250.0" x2="83.3" y1="0.0" y2="0.0" />
			<line x1="0.0" x2="27.8" y1="250.0" y2="83.3" />
			<line x1="-250.0" x2="-74.1" y1="0.0" y2="27.8" />
			<line x1="-0.0" x2="3.1" y1="-250.0" y2="-74.1" />
			<line x1="83.3" x2="27.8" y1="0.0" y2="83.3" />
			<line x1="27.8" x2="-74.1" y1="83.3" y2="27.8" />
			<line x1="-74.1" x2="3.1" y1="27.8" y2="-74.1" />
			<line x1="3.1" x2="83.3" y1="-74.1" y2="0.0" />
		</g>
		<g>
			<circle cx="250.0" cy="0.0" r="10.0" />
			<circle cx="0.0" cy="250.0" r="10.0" />
			<circle cx="-250.0" cy="0.0" r="10.0" />
			<circle cx="-0.0" cy="-250.0" r="10.0" />
			<circle cx="83.3" cy="0.0" r="10.0" />
			<circle cx="27.8" cy="83.3" r="10.0" />
			<circle cx="-74.1" cy="27.8" r="10.0" />
			<circle cx="3.1" cy="-74.1" r="10.0" />
		</g>
	</svg>
	<svg class="animated" height="540.0" id="frame_2" viewBox="-270.0 -270.0 540.0 540.0" width="540.0" x="0.0" xmlns="http://www.w3.org/2000/svg" y="0.0">
		<g stroke="black" stroke-width="1px">
			<line x1="250.0" x2="0.0" y1="0.0" y2="250.0" />
			<line x1="0.0" x2="-250.0" y1="250.0" y2="0.0" />
			<line x1="-250.0" x2="-0.0" y1="0.0" y2="-250.0" />
			<line x1="250.0" x2="-0.0" y1="0.0" y2="-250.0" />
			<line x1="250.0" x2="93.6" y1="0.0" y2="3.1" />
			<line x1="0.0" x2="6.5" y1="250.0" y2="93.6" />
			<line x1="-250.0" x2="-80.1" y1="0.0" y2="6.5" />
			<line x1="-0.0" x2="4.5" y1="-250.0" y2="-80.1" />
			<line x1="93.6" x2="6.5" y1="3.1" y2="93.6" />
			<line x1="6.5" x2="-80.1" y1="93.6" y2="6.5" />
			<line x1="-80.1" x2="4.5" y1="6.5" y2="-80.1" />
			<line x1="4.5" x2="93.6" y1="-80.1" y2="3.1" />
		</g>
		<g>
			<circle cx="250.0" cy="0.0" r="10.0" />
			<circle cx="0.0" cy="250.0" r="10.0" />
			<circle cx="-250.0" cy="0.0" r="10.0" />
			<circle cx="-0.0" cy="-250.0" r="10.0" />
			<circle cx="93.6" cy="3.1" r="10.0" />
			<circle cx="6.5" cy="93.6" r="10.0" />
			<circle cx="-80.1" cy="6.5" r="10.0" />
			<circle cx="4.5" cy="-80.1" r="10.0" />
		</g>
	</svg>
	<svg class="animated" height="540.0" id="frame_3" viewBox="-270.0 -270.0 540.0 540.0" width="540.0" x="0.0" xmlns="http://www.w3.org/2000/svg" y="0.0">
		<g stroke="black" stroke-width="1px">
			<line x1="250.0" x2="0.0" y1="0.0" y2="250.0" />
			<line x1="0.0" x2="-250.0" y1="250.0" y2="0.0" />
			<line x1="-250.0" x2="-0.0" y1="0.0" y2="-250.0" />
			<line x1="250.0" x2="-0.0" y1="0.0" y2="-250.0" />
			<line x1="250.0" x2="87.0" y1="0.0" y2="4.5" />
			<line x1="0.0" x2="2.3" y1="250.0" y2="87.0" />
			<line x1="-250.0" x2="-81.1" y1="0.0" y2="2.3" />
			<line x1="-0.0" x2="2.0" y1="-250.0" y2="-81.1" />
			<line x1="87.0" x2="2.3" y1="4.5" y2="87.0" />
			<line x1="2.3" x2="-81.1" y1="87.0" y2="2.3" />
			<line x1="-81.1" x2="2.0" y1="2.3" y2="-81.1" />
			<line x1="2.0" x2="87.0" y1="-81.1" y2="4.5" />
		</g>
		<g>
			<circle cx="250.0" cy="0.0" r="10.0" />
			<circle cx="0.0" cy="250.0" r="10.0" />
			<circle cx="-250.0" cy="0.0" r="10.0" />
			<circle cx="-0.0" cy="-250.0" r="10.0" />
			<circle cx="87.0" cy="4.5" r="10.0" />
			<circle cx="2.3" cy="87.0" r="10.0" />
			<circle cx="-81.1" cy="2.3" r="10.0" />
			<circle cx="2.0" cy="-81.1" r="10.0" />
		</g>
	</svg>
	<svg class="animated" height="540.0" id="frame_4" viewBox="-270.0 -270.0 540.0 540.0" width="540.0" x="0.0" xmlns="http://www.w3.org/2000/svg" y="0.0">
		<g stroke="black" stroke-width="1px">
			<line x1="250.0" x2="0.0" y1="0.0" y2="250.0" />
			<line x1="0.0" x2="-250.0" y1="250.0" y2="0.0" />
			<line x1="-250.0" x2="-0.0" y1="0.0" y2="-250.0" />
			<line x1="250.0" x2="-0.0" y1="0.0" y2="-250.0" />
			<line x1="250.0" x2="84.8" y1="0.0" y2="2.0" />
			<line x1="0.0" x2="1.2" y1="250.0" y2="84.8" />
			<line x1="-250.0" x2="-82.3" y1="0.0" y2="1.2" />
			<line x1="-0.0" x2="0.8" y1="-250.0" y2="-82.3" />
			<line x1="84.8" x2="1.2" y1="2.0" y2="84.8" />
			<line x1="1.2" x2="-82.3" y1="84.8" y2="1.2" />
			<line x1="-82.3" x2="0.8" y1="1.2" y2="-82.3" />
			<line x1="0.8" x2="84.8" y1="-82.3" y2="2.0" />
		</g>
		<g>
			<circle cx="250.0" cy="0.0" r="10.0" />
			<circle cx="0.0" cy="250.0" r="10.0" />
			<circle cx="-250.0" cy="0.0" r="10.0" />
			<circle cx="-0.0" cy="-250.0" r="10.0" />
			<circle cx="84.8" cy="2.0" r="10.0" />
			<circle cx="1.2" cy="84.8" r="10.0" />
			<circle cx="-82.3" cy="1.2" r="10.0" />
			<circle cx="0.8" cy="-82.3" r="10.0" />
		</g>
	</svg>
	<svg class="animated" height="540.0" id="frame_5" viewBox="-270.0 -270.0 540.0 540.0" width="540.0" x="0.0" xmlns="http://www.w3.org/2000/svg" y="0.0">
		<g stroke="black" stroke-width="1px">
			<line x1="250.0" x2="0.0" y1="0.0" y2="250.0" />
			<line x1="0.0" x2="-250.0" y1="250.0" y2="0.0" />
			<line x1="-250.0" x2="-0.0" y1="0.0" y2="-250.0" />
			<line x1="250.0" x2="-0.0" y1="0.0" y2="-250.0" />
			<line x1="250.0" x2="84.0" y1="0.0" y2="0.8" />
			<line x1="0.0" x2="0.6" y1="250.0" y2="84.0" />
			<line x1="-250.0" x2="-82.9" y1="0.0" y2="0.6" />
			<line x1="-0.0" x2="0.4" y1="-250.0" y2="-82.9" />
			<line x1="84.0" x2="0.6" y1="0.8" y2="84.0" />
			<line x1="0.6" x2="-82.9" y1="84.0" y2="0.6" />
			<line x1="-82.9" x2="0.4" y1="0.6" y2="-82.9" />
			<line x1="0.4" x2="84.0" y1="-82.9" y2="0.8" />
		</g>
		<g>
			<circle cx="250.0" cy="0.0" r="10.0" />
			<circle cx="0.0" cy="250.0" r="10.0" />
			<circle cx="-250.0" cy="0.0" r="10.0" />
			<circle cx="-0.0" cy="-250.0" r="10.0" />
			<circle cx="84.0" cy="0.8" r="10.0" />
			<circle cx="0.6" cy="84.0" r="10.0" />
			<circle cx="-82.9" cy="0.6" r="10.0" />
			<circle cx="0.4" cy="-82.9" r="10.0" />
		</g>
	</svg>
	<svg class="animated" height="540.0" id="frame_6" viewBox="-270.0 -270.0 540.0 540.0" width="540.0" x="0.0" xmlns="http://www.w3.org/2000/svg" y="0.0">
		<g stroke="black" stroke-width="1px">
			<line x1="250.0" x2="0.0" y1="0.0" y2="250.0" />
			<line x1="0.0" x2="-250.0" y1="250.0" y2="0.0" />
			<line x1="-250.0" x2="-0.0" y1="0.0" y2="-250.0" />
			<line x1="250.0" x2="-0.0" y1="0.0" y2="-250.0" />
			<line x1="250.0" x2="83.7" y1="0.0" y2="0.4" />
			<line x1="0.0" x2="0.3" y1="250.0" y2="83.7" />
			<line x1="-250.0" x2="-83.1" y1="0.0" y2="0.3" />
			<line x1="-0.0" x2="0.2" y1="-250.0" y2="-83.1" />
			<line x1="83.7" x2="0.3" y1="0.4" y2="83.7" />
			<line x1="0.3" x2="-83.1" y1="83.7" y2="0.3" />
			<line x1="-83.1" x2="0.2" y1="0.3" y2="-83.1" />
			<line x1="0.2" x2="83.7" y1="-83.1" y2="0.4" />
		</g>
		<g>
			<circle cx="250.0" cy="0.0" r="10.0" />
			<circle cx="0.0" cy="250.0" r="10.0" />
			<circle cx="-250.0" cy="0.0" r="10.0" />
			<circle cx="-0.0" cy="-250.0" r="10.0" />
			<circle cx="83.7" cy="0.4" r="10.0" />
			<circle cx="0.3" cy="83.7" r="10.0" />
			<circle cx="-83.1" cy="0.3" r="10.0" />
			<circle cx="0.2" cy="-83.1" r="10.0" />
		</g>
	</svg>
	<svg class="animated" height="540.0" id="frame_7" viewBox="-270.0 -270.0 540.0 540.0" width="540.0" x="0.0" xmlns="http://www.w3.org/2000/svg" y="0.0">
		<g stroke="black" stroke-width="1px">
			<line x1="250.0" x2="0.0" y1="0.0" y2="250.0" />
			<line x1="0.0" x2="-250.0" y1="250.0" y2="0.0" />
			<line x1="-250.0" x2="-0.0" y1="0.0" y2="-250.0" />
			<line x1="250.0" x2="-0.0" y1="0.0" y2="-250.0" />
			<line x1="250.0" x2="83.5" y1="0.0" y2="0.2" />
			<line x1="0.0" x2="0.1" y1="250.0" y2="83.5" />
			<line x1="-250.0" x2="-83.2" y1="0.0" y2="0.1" />
			<line x1="-0.0" x2="0.1" y1="-250.0" y2="-83.2" />
			<line x1="83.5" x2="0.1" y1="0.2" y2="83.5" />
			<line x1="0.1" x2="-83.2" y1="83.5" y2="0.1" />
			<line x1="-83.2" x2="0.1" y1="0.1" y2="-83.2" />
			<line x1="0.1" x2="83.5" y1="-83.2" y2="0.2" />
		</g>
		<g>
			<circle cx="250.0" cy="0.0" r="10.0" />
			<circle cx="0.0" cy="250.0" r="10.0" />
			<circle cx="-250.0" cy="0.0" r="10.0" />
			<circle cx="-0.0" cy="-250.0" r="10.0" />
			<circle cx="83.5" cy="0.2" r="10.0" />
			<circle cx="0.1" cy="83.5" r="10.0" />
			<circle cx="-83.2" cy="0.1" r="10.0" />
			<circle cx="0.1" cy="-83.2" r="10.0" />
		</g>
	</svg>
	<svg class="animated" height="540.0" id="frame_8" viewBox="-270.0 -270.0 540.0 540.0" width="540.0" x="0.0" xmlns="http://www.w3.org/2000/svg" y="0.0">
		<g stroke="black" stroke-width="1px">
			<line x1="250.0" x2="0.0" y1="0.0" y2="250.0" />
			<line x1="0.0" x2="-250.0" y1="250.0" y2="0.0" />
			<line x1="-250.0" x2="-0.0" y1="0.0" y2="-250.0" />
			<line x1="250.0" x2="-0.0" y1="0.0" y2="-250.0" />
			<line x1="250.0" x2="83.4" y1="0.0" y2="0.1" />
			<line x1="0.0" x2="0.1" y1="250.0" y2="83.4" />
			<line x1="-250.0" x2="-83.3" y1="0.0" y2="0.1" />
			<line x1="-0.0" x2="0.0" y1="-250.0" y2="-83.3" />
			<line x1="83.4" x2="0.1" y1="0.1" y2="83.4" />
			<line x1="0.1" x2="-83.3" y1="83.4" y2="0.1" />
			<line x1="-83.3" x2="0.0" y1="0.1" y2="-83.3" />
			<line x1="0.0" x2="83.4" y1="-83.3" y2="0.1" />
		</g>
		<g>
			<circle cx="250.0" cy="0.0" r="10.0" />
			<circle cx="0.0" cy="250.0" r="10.0" />
			<circle cx="-250.0" cy="0.0" r="10.0" />
			<circle cx="-0.0" cy="-250.0" r="10.0" />
			<circle cx="83.4" cy="0.1" r="10.0" />
			<circle cx="0.1" cy="83.4" r="10.0" />
			<circle cx="-83.3" cy="0.1" r="10.0" />
			<circle cx="0.0" cy="-83.3" r="10.0" />
		</g>
	</svg>
	<svg class="animated" height="540.0" id="frame_9" viewBox="-270.0 -270.0 540.0 540.0" width="540.0" x="0.0" xmlns="http://www.w3.org/2000/svg" y="0.0">
		<g stroke="black" stroke-width="1px">
			<line x1="250.0" x2="0.0" y1="0.0" y2="250.0" />
			<line x1="0.0" x2="-250.0" y1="250.0" y2="0.0" />
			<line x1="-250.0" x2="-0.0" y1="0.0" y2="-250.0" />
			<line x1="250.0" x2="-0.0" y1="0.0" y2="-250.0" />
			<line x1="250.0" x2="83.4" y1="0.0" y2="0.0" />
			<line x1="0.0" x2="0.0" y1="250.0" y2="83.4" />
			<line x1="-250.0" x2="-83.3" y1="0.0" y2="0.0" />
			<line x1="-0.0" x2="0.0" y1="-250.0" y2="-83.3" />
			<line x1="83.4" x2="0.0" y1="0.0" y2="83.4" />
			<line x1="0.0" x2="-83.3" y1="83.4" y2="0.0" />
			<line x1="-83.3" x2="0.0" y1="0.0" y2="-83.3" />
			<line x1="0.0" x2="83.4" y1="-83.3" y2="0.0" />
		</g>
		<g>
			<circle cx="250.0" cy="0.0" r="10.0" />
			<circle cx="0.0" cy="250.0" r="10.0" />
			<circle cx="-250.0" cy="0.0" r="10.0" />
			<circle cx="-0.0" cy="-250.0" r="10.0" />
			<circle cx="83.4" cy="0.0" r="10.0" />
			<circle cx="0.0" cy="83.4" r="10.0" />
			<circle cx="-83.3" cy="0.0" r="10.0" />
			<circle cx="0.0" cy="-83.3" r="10.0" />
		</g>
	</svg>
	<svg class="animated" height="540.0" id="frame_10" viewBox="-270.0 -270.0 540.0 540.0" width="540.0" x="0.0" xmlns="http://www.w3.org/2000/svg" y="0.0">
		<g stroke="black" stroke-width="1px">
			<line x1="250.0" x2="0.0" y1="0.0" y2="250.0" />
			<line x1="0.0" x2="-250.0" y1="250.0" y2="0.0" />
			<line x1="-250.0" x2="-0.0" y1="0.0" y2="-250.0" />
			<line x1="250.0" x2="-0.0" y1="0.0" y2="-250.0" />
			<line x1="250.0" x2="83.3" y1="0.0" y2="0.0" />
			<line x1="0.0" x2="0.0" y1="250.0" y2="83.3" />
			<line x1="-250.0" x2="-83.3" y1="0.0" y2="0.0" />
			<line x1="-0.0" x2="0.0" y1="-250.0" y2="-83.3" />
			<line x1="83.3" x2="0.0" y1="0.0" y2="83.3" />
			<line x1="0.0" x2="-83.3" y1="83.3" y2="0.0" />
			<line x1="-83.3" x2="0.0" y1="0.0" y2="-83.3" />
			<line x1="0.0" x2="83.3" y1="-83.3" y2="0.0" />
		</g>
		<g>
			<circle cx="250.0" cy="0.0" r="10.0" />
			<circle cx="0.0" cy="250.0" r="10.0" />
			<circle cx="-250.0" cy="0.0" r="10.0" />
			<circle cx="-0.0" cy="-250.0" r="10.0" />
			<circle cx="83.3" cy="0.0" r="10.0" />
			<circle cx="0.0" cy="83.3" r="10.0" />
			<circle cx="-83.3" cy="0.0" r="10.0" />
			<circle cx="0.0" cy="-83.3" r="10.0" />
		</g>
	</svg>
	<svg class="animated" height="540.0" id="frame_11" viewBox="-270.0 -270.0 540.0 540.0" width="540.0" x="0.0" xmlns="http://www.w3.org/2000/svg" y="0.0">
		<g stroke="black" stroke-width="1px">
			<line x1="250.0" x2="0.0" y1="0.0" y2="250.0" />
			<line x1="0.0" x2="-250.0" y1="250.0" y2="0.0" />
			<line x1="-250.0" x2="-0.0" y1="0.0" y2="-250.0" />
			<line x1="250.0" x2="-0.0" y1="0.0" y2="-250.0" />
			<line x1="250.0" x2="83.3" y1="0.0" y2="0.0" />
			<line x1="0.0" x2="0.0" y1="250.0" y2="83.3" />
			<line x1="-250.0" x2="-83.3" y1="0.0" y2="0.0" />
			<line x1="-0.0" x2="0.0" y1="-250.0" y2="-83.3" />
			<line x1="83.3" x2="0.0" y1="0.0" y2="83.3" />
			<line x1="0.0" x2="-83.3" y1="83.3" y2="0.0" />
			<line x1="-83.3" x2="0.0" y1="0.0" y2="-83.3" />
			<line x1="0.0" x2="83.3" y1="-83.3" y2="0.0" />
		</g>
		<g>
			<circle cx="250.0" cy="0.0" r="10.0" />
			<circle cx="0.0" cy="250.0" r="10.0" />
			<circle cx="-250.0" cy="0.0" r="10.0" />
			<circle cx="-0.0" cy="-250.0" r="10.0" />
			<circle cx="83.3" cy="0.0" r="10.0" />
			<circle cx="0.0" cy="83.3" r="10.0" />
			<circle cx="-83.3" cy="0.0" r="10.0" />
			<circle cx="0.0" cy="-83.3" r="10.0" />
		</g>
	</svg>
</svg>