<svg viewBox="0 0 559.700012 779.799988" xmlns="http://www.w3.org/2000/svg">
	<style type="text/css">
		<![CDATA[
			#frame_0 {
				animation-name: anim_0;
			}
			#frame_1 {
				animation-name: anim_1;
			}
			#frame_2 {
				animation-name: anim_2;
			}
			#frame_3 {
				animation-name: anim_3;
			}
			#frame_4 {
				animation-name: anim_4;
			}
			#frame_5 {
				animation-name: anim_5;
			}
			#frame_6 {
				animation-name: anim_6;
			}
			#frame_7 {
				animation-name: anim_7;
			}
			#frame_8 {
				animation-name: anim_8;
			}
			#frame_9 {
				animation-name: anim_9;
			}
			svg.animated {
				animation-duration: 2.000000s;
				animation-iteration-count: infinite;
				animation-timing-function: step-end;
				opacity: 0;
			}
			@keyframes anim_0 {
				0% {
					opacity: 0;
				}
				0.000000% {
					opacity: 1;
				}
				10.000000% {
					opacity: 0;
				}
			}
			@keyframes anim_1 {
				0% {
					opacity: 0;
				}
				10.000000% {
					opacity: 1;
				}
				20.000000% {
					opacity: 0;
				}
			}
			@keyframes anim_2 {
				0% {
					opacity: 0;
				}
				20.000000% {
					opacity: 1;
				}
				30.000000% {
					opacity: 0;
				}
			}
			@keyframes anim_3 {
				0% {
					opacity: 0;
				}
				30.000000% {
					opacity: 1;
				}
				40.000000% {
					opacity: 0;
				}
			}
			@keyframes anim_4 {
				0% {
					opacity: 0;
				}
				40.000000% {
					opacity: 1;
				}
				50.000000% {
					opacity: 0;
				}
			}
			@keyframes anim_5 {
				0% {
					opacity: 0;
				}
				50.000000% {
					opacity: 1;
				}
				60.000000% {
					opacity: 0;
				}
			}
			@keyframes anim_6 {
				0% {
					opacity: 0;
				}
				60.000000% {
					opacity: 1;
				}
				70.000000% {
					opacity: 0;
				}
			}
			@keyframes anim_7 {
				0% {
					opacity: 0;
				}
				70.000000% {
					opacity: 1;
				}
				80.000000% {
					opacity: 0;
				}
			}
			@keyframes anim_8 {
				0% {
					opacity: 0;
				}
				80.000000% {
					opacity: 1;
				}
				90.000000% {
					opacity: 0;
				}
			}
			@keyframes anim_9 {
				0% {
					opacity: 0;
				}
				100.000000% {
					opacity: 0;
				}
				90.000000% {
					opacity: 1;
				}
			}
		]]>
	</style>
	<svg class="animated" height="725.5" id="frame_0" width="559.7" x="0.0" xmlns="http://www.w3.org/2000/svg" y="27.1">
		<g stroke="black" stroke-width="1px">
			<line x1="49.7" x2="449.8" y1="384.4" y2="137.3" />
			<line x1="49.7" x2="181.7" y1="384.4" y2="204.2" />
			<line x1="49.7" x2="127.5" y1="384.4" y2="568.2" />
			<line x1="49.7" x2="490.0" y1="384.4" y2="487.7" />
			<line x1="449.8" x2="49.7" y1="137.3" y2="384.4" />
			<line x1="449.8" x2="181.7" y1="137.3" y2="204.2" />
			<line x1="449.8" x2="127.5" y1="137.3" y2="568.2" />
			<line x1="449.8" x2="490.0" y1="137.3" y2="487.7" />
			<line x1="181.7" x2="49.7" y1="204.2" y2="384.4" />
			<line x1="181.7" x2="449.8" y1="204.2" y2="137.3" />
			<line x1="181.7" x2="127.5" y1="204.2" y2="568.2" />
			<line x1="181.7" x2="490.0" y1="204.2" y2="487.7" />
			<line x1="127.5" x2="49.7" y1="568.2" y2="384.4" />
			<line x1="127.5" x2="449.8" y1="568.2" y2="137.3" />
			<line x1="127.5" x2="181.7" y1="568.2" y2="204.2" />
			<line x1="127.5" x2="490.0" y1="568.2" y2="487.7" />
			<line x1="490.0" x2="49.7" y1="487.7" y2="384.4" />
			<line x1="490.0" x2="449.8" y1="487.7" y2="137.3" />
			<line x1="490.0" x2="181.7" y1="487.7" y2="204.2" />
			<line x1="490.0" x2="127.5" y1="487.7" y2="568.2" />
		</g>
		<g>
			<circle cx="49.7" cy="384.4" r="10.0" />
			<circle cx="449.8" cy="137.3" r="10.0" />
			<circle cx="181.7" cy="204.2" r="10.0" />
			<circle cx="127.5" cy="568.2" r="10.0" />
			<circle cx="490.0" cy="487.7" r="10.0" />
		</g>
	</svg>
	<svg class="animated" height="762.0" id="frame_1" width="539.0" x="10.4" xmlns="http://www.w3.org/2000/svg" y="8.9">
		<g stroke="black" stroke-width="1px">
			<line x1="35.3" x2="444.2" y1="371.0" y2="151.4" />
			<line x1="35.3" x2="182.3" y1="371.0" y2="177.9" />
			<line x1="35.3" x2="153.2" y1="371.0" y2="590.6" />
			<line x1="35.3" x2="483.7" y1="371.0" y2="490.9" />
			<line x1="444.2" x2="35.3" y1="151.4" y2="371.0" />
			<line x1="444.2" x2="182.3" y1="151.4" y2="177.9" />
			<line x1="444.2" x2="153.2" y1="151.4" y2="590.6" />
			<line x1="444.2" x2="483.7" y1="151.4" y2="490.9" />
			<line x1="182.3" x2="35.3" y1="177.9" y2="371.0" />
			<line x1="182.3" x2="444.2" y1="177.9" y2="151.4" />
			<line x1="182.3" x2="153.2" y1="177.9" y2="590.6" />
			<line x1="182.3" x2="483.7" y1="177.9" y2="490.9" />
			<line x1="153.2" x2="35.3" y1="590.6" y2="371.0" />
			<line x1="153.2" x2="444.2" y1="590.6" y2="151.4" />
			<line x1="153.2" x2="182.3" y1="590.6" y2="177.9" />
			<line x1="153.2" x2="483.7" y1="590.6" y2="490.9" />
			<line x1="483.7" x2="35.3" y1="490.9" y2="371.0" />
			<line x1="483.7" x2="444.2" y1="490.9" y2="151.4" />
			<line x1="483.7" x2="182.3" y1="490.9" y2="177.9" />
			<line x1="483.7" x2="153.2" y1="490.9" y2="590.6" />
		</g>
		<g>
			<circle cx="35.3" cy="371.0" r="10.0" />
			<circle cx="444.2" cy="151.4" r="10.0" />
			<circle cx="182.3" cy="177.9" r="10.0" />
			<circle cx="153.2" cy="590.6" r="10.0" />
			<circle cx="483.7" cy="490.9" r="10.0" />
		</g>
	</svg>
	<svg class="animated" height="779.8" id="frame_2" width="524.1" x="17.8" xmlns="http://www.w3.org/2000/svg" y="0.0">
		<g stroke="black" stroke-width="1px">
			<line x1="25.7" x2="444.8" y1="366.7" y2="164.3" />
			<line x1="25.7" x2="178.7" y1="366.7" y2="163.4" />
			<line x1="25.7" x2="171.2" y1="366.7" y2="596.4" />
			<line x1="25.7" x2="478.4" y1="366.7" y2="491.0" />
			<line x1="444.8" x2="25.7" y1="164.3" y2="366.7" />
			<line x1="444.8" x2="178.7" y1="164.3" y2="163.4" />
			<line x1="444.8" x2="171.2" y1="164.3" y2="596.4" />
			<line x1="444.8" x2="478.4" y1="164.3" y2="491.0" />
			<line x1="178.7" x2="25.7" y1="163.4" y2="366.7" />
			<line x1="178.7" x2="444.8" y1="163.4" y2="164.3" />
			<line x1="178.7" x2="171.2" y1="163.4" y2="596.4" />
			<line x1="178.7" x2="478.4" y1="163.4" y2="491.0" />
			<line x1="171.2" x2="25.7" y1="596.4" y2="366.7" />
			<line x1="171.2" x2="444.8" y1="596.4" y2="164.3" />
			<line x1="171.2" x2="178.7" y1="596.4" y2="163.4" />
			<line x1="171.2" x2="478.4" y1="596.4" y2="491.0" />
			<line x1="478.4" x2="25.7" y1="491.0" y2="366.7" />
			<line x1="478.4" x2="444.8" y1="491.0" y2="164.3" />
			<line x1="478.4" x2="178.7" y1="491.0" y2="163.4" />
			<line x1="478.4" x2="171.2" y1="491.0" y2="596.4" />
		</g>
		<g>
			<circle cx="25.7" cy="366.7" r="10.0" />
			<circle cx="444.8" cy="164.3" r="10.0" />
			<circle cx="178.7" cy="163.4" r="10.0" />
			<circle cx="171.2" cy="596.4" r="10.0" />
			<circle cx="478.4" cy="491.0" r="10.0" />
		</g>
	</svg>
	<svg class="animated" height="770.6" id="frame_3" viewBox="-0.4 133.1 514.3 770.6" width="514.3" x="22.7" xmlns="http://www.w3.org/2000/svg" y="4.6">
		<g stroke="black" stroke-width="1px">
			<line x1="19.6" x2="446.4" y1="366.3" y2="174.7" />
			<line x1="19.6" x2="175.3" y1="366.3" y2="153.1" />
			<line x1="19.6" x2="182.7" y1="366.3" y2="597.5" />
			<line x1="19.6" x2="474.7" y1="366.3" y2="490.2" />
			<line x1="446.4" x2="19.6" y1="174.7" y2="366.3" />
			<line x1="446.4" x2="175.3" y1="174.7" y2="153.1" />
			<line x1="446.4" x2="182.7" y1="174.7" y2="597.5" />
			<line x1="446.4" x2="474.7" y1="174.7" y2="490.2" />
			<line x1="175.3" x2="19.6" y1="153.1" y2="366.3" />
			<line x1="175.3" x2="446.4" y1="153.1" y2="174.7" />
			<line x1="175.3" x2="182.7" y1="153.1" y2="597.5" />
			<line x1="175.3" x2="474.7" y1="153.1" y2="490.2" />
			<line x1="182.7" x2="19.6" y1="597.5" y2="366.3" />
			<line x1="182.7" x2="446.4" y1="597.5" y2="174.7" />
			<line x1="182.7" x2="175.3" y1="597.5" y2="153.1" />
			<line x1="182.7" x2="474.7" y1="597.5" y2="490.2" />
			<line x1="474.7" x2="19.6" y1="490.2" y2="366.3" />
			<line x1="474.7" x2="446.4" y1="490.2" y2="174.7" />
			<line x1="474.7" x2="175.3" y1="490.2" y2="153.1" />
			<line x1="474.7" x2="182.7" y1="490.2" y2="597.5" />
		</g>
		<g>
			<circle cx="19.6" cy="366.3" r="10.0" />
			<circle cx="446.4" cy="174.7" r="10.0" />
			<circle cx="175.3" cy="153.1" r="10.0" />
			<circle cx="182.7" cy="597.5" r="10.0" />
			<circle cx="474.7" cy="490.2" r="10.0" />
		</g>
	</svg>
	<svg class="animated" height="762.8" id="frame_4" viewBox="-3.7 125.6 508.6 762.8" width="508.6" x="25.6" xmlns="http://www.w3.org/2000/svg" y="8.5">
		<g stroke="black" stroke-width="1px">
			<line x1="16.3" x2="447.6" y1="367.4" y2="182.4" />
			<line x1="16.3" x2="172.7" y1="367.4" y2="145.6" />
			<line x1="16.3" x2="189.7" y1="367.4" y2="597.2" />
			<line x1="16.3" x2="472.3" y1="367.4" y2="489.3" />
			<line x1="447.6" x2="16.3" y1="182.4" y2="367.4" />
			<line x1="447.6" x2="172.7" y1="182.4" y2="145.6" />
			<line x1="447.6" x2="189.7" y1="182.4" y2="597.2" />
			<line x1="447.6" x2="472.3" y1="182.4" y2="489.3" />
			<line x1="172.7" x2="16.3" y1="145.6" y2="367.4" />
			<line x1="172.7" x2="447.6" y1="145.6" y2="182.4" />
			<line x1="172.7" x2="189.7" y1="145.6" y2="597.2" />
			<line x1="172.7" x2="472.3" y1="145.6" y2="489.3" />
			<line x1="189.7" x2="16.3" y1="597.2" y2="367.4" />
			<line x1="189.7" x2="447.6" y1="597.2" y2="182.4" />
			<line x1="189.7" x2="172.7" y1="597.2" y2="145.6" />
			<line x1="189.7" x2="472.3" y1="597.2" y2="489.3" />
			<line x1="472.3" x2="16.3" y1="489.3" y2="367.4" />
			<line x1="472.3" x2="447.6" y1="489.3" y2="182.4" />
			<line x1="472.3" x2="172.7" y1="489.3" y2="145.6" />
			<line x1="472.3" x2="189.7" y1="489.3" y2="597.2" />
		</g>
		<g>
			<circle cx="16.3" cy="367.4" r="10.0" />
			<circle cx="447.6" cy="182.4" r="10.0" />
			<circle cx="172.7" cy="145.6" r="10.0" />
			<circle cx="189.7" cy="597.2" r="10.0" />
			<circle cx="472.3" cy="489.3" r="10.0" />
		</g>
	</svg>
	<svg class="animated" height="756.9" id="frame_5" viewBox="-5.4 120.2 505.3 756.9" width="505.3" x="27.2" xmlns="http://www.w3.org/2000/svg" y="11.4">
		<g stroke="black" stroke-width="1px">
			<line x1="14.6" x2="448.4" y1="368.8" y2="187.8" />
			<line x1="14.6" x2="171.0" y1="368.8" y2="140.2" />
			<line x1="14.6" x2="194.0" y1="368.8" y2="596.7" />
			<line x1="14.6" x2="470.7" y1="368.8" y2="488.6" />
			<line x1="448.4" x2="14.6" y1="187.8" y2="368.8" />
			<line x1="448.4" x2="171.0" y1="187.8" y2="140.2" />
			<line x1="448.4" x2="194.0" y1="187.8" y2="596.7" />
			<line x1="448.4" x2="470.7" y1="187.8" y2="488.6" />
			<line x1="171.0" x2="14.6" y1="140.2" y2="368.8" />
			<line x1="171.0" x2="448.4" y1="140.2" y2="187.8" />
			<line x1="171.0" x2="194.0" y1="140.2" y2="596.7" />
			<line x1="171.0" x2="470.7" y1="140.2" y2="488.6" />
			<line x1="194.0" x2="14.6" y1="596.7" y2="368.8" />
			<line x1="194.0" x2="448.4" y1="596.7" y2="187.8" />
			<line x1="194.0" x2="171.0" y1="596.7" y2="140.2" />
			<line x1="194.0" x2="470.7" y1="596.7" y2="488.6" />
			<line x1="470.7" x2="14.6" y1="488.6" y2="368.8" />
			<line x1="470.7" x2="448.4" y1="488.6" y2="187.8" />
			<line x1="470.7" x2="171.0" y1="488.6" y2="140.2" />
			<line x1="470.7" x2="194.0" y1="488.6" y2="596.7" />
		</g>
		<g>
			<circle cx="14.6" cy="368.8" r="10.0" />
			<circle cx="448.4" cy="187.8" r="10.0" />
			<circle cx="171.0" cy="140.2" r="10.0" />
			<circle cx="194.0" cy="596.7" r="10.0" />
			<circle cx="470.7" cy="488.6" r="10.0" />
		</g>
	</svg>
	<svg class="animated" height="752.5" id="frame_6" viewBox="-6.1 116.3 503.6 752.5" width="503.6" x="28.1" xmlns="http://www.w3.org/2000/svg" y="13.6">
		<g stroke="black" stroke-width="1px">
			<line x1="13.9" x2="448.8" y1="370.0" y2="191.4" />
			<line x1="13.9" x2="169.8" y1="370.0" y2="136.3" />
			<line x1="13.9" x2="196.5" y1="370.0" y2="596.2" />
			<line x1="13.9" x2="469.7" y1="370.0" y2="488.0" />
			<line x1="448.8" x2="13.9" y1="191.4" y2="370.0" />
			<line x1="448.8" x2="169.8" y1="191.4" y2="136.3" />
			<line x1="448.8" x2="196.5" y1="191.4" y2="596.2" />
			<line x1="448.8" x2="469.7" y1="191.4" y2="488.0" />
			<line x1="169.8" x2="13.9" y1="136.3" y2="370.0" />
			<line x1="169.8" x2="448.8" y1="136.3" y2="191.4" />
			<line x1="169.8" x2="196.5" y1="136.3" y2="596.2" />
			<line x1="169.8" x2="469.7" y1="136.3" y2="488.0" />
			<line x1="196.5" x2="13.9" y1="596.2" y2="370.0" />
			<line x1="196.5" x2="448.8" y1="596.2" y2="191.4" />
			<line x1="196.5" x2="169.8" y1="596.2" y2="136.3" />
			<line x1="196.5" x2="469.7" y1="596.2" y2="488.0" />
			<line x1="469.7" x2="13.9" y1="488.0" y2="370.0" />
			<line x1="469.7" x2="448.8" y1="488.0" y2="191.4" />
			<line x1="469.7" x2="169.8" y1="488.0" y2="136.3" />
			<line x1="469.7" x2="196.5" y1="488.0" y2="596.2" />
		</g>
		<g>
			<circle cx="13.9" cy="370.0" r="10.0" />
			<circle cx="448.8" cy="191.4" r="10.0" />
			<circle cx="169.8" cy="136.3" r="10.0" />
			<circle cx="196.5" cy="596.2" r="10.0" />
			<circle cx="469.7" cy="488.0" r="10.0" />
		</g>
	</svg>
	<svg class="animated" height="749.4" id="frame_7" viewBox="-6.4 113.6 502.7 749.4" width="502.7" x="28.5" xmlns="http://www.w3.org/2000/svg" y="15.2">
		<g stroke="black" stroke-width="1px">
			<line x1="13.6" x2="448.9" y1="371.0" y2="193.8" />
			<line x1="13.6" x2="169.1" y1="371.0" y2="133.6" />
			<line x1="13.6" x2="197.9" y1="371.0" y2="595.8" />
			<line x1="13.6" x2="469.1" y1="371.0" y2="487.7" />
			<line x1="448.9" x2="13.6" y1="193.8" y2="371.0" />
			<line x1="448.9" x2="169.1" y1="193.8" y2="133.6" />
			<line x1="448.9" x2="197.9" y1="193.8" y2="595.8" />
			<line x1="448.9" x2="469.1" y1="193.8" y2="487.7" />
			<line x1="169.1" x2="13.6" y1="133.6" y2="371.0" />
			<line x1="169.1" x2="448.9" y1="133.6" y2="193.8" />
			<line x1="169.1" x2="197.9" y1="133.6" y2="595.8" />
			<line x1="169.1" x2="469.1" y1="133.6" y2="487.7" />
			<line x1="197.9" x2="13.6" y1="595.8" y2="371.0" />
			<line x1="197.9" x2="448.9" y1="595.8" y2="193.8" />
			<line x1="197.9" x2="169.1" y1="595.8" y2="133.6" />
			<line x1="197.9" x2="469.1" y1="595.8" y2="487.7" />
			<line x1="469.1" x2="13.6" y1="487.7" y2="371.0" />
			<line x1="469.1" x2="448.9" y1="487.7" y2="193.8" />
			<line x1="469.1" x2="169.1" y1="487.7" y2="133.6" />
			<line x1="469.1" x2="197.9" y1="487.7" y2="595.8" />
		</g>
		<g>
			<circle cx="13.6" cy="371.0" r="10.0" />
			<circle cx="448.9" cy="193.8" r="10.0" />
			<circle cx="169.1" cy="133.6" r="10.0" />
			<circle cx="197.9" cy="595.8" r="10.0" />
			<circle cx="469.1" cy="487.7" r="10.0" />
		</g>
	</svg>
	<svg class="animated" height="747.3" id="frame_8" viewBox="-6.4 111.7 502.3 747.3" width="502.3" x="28.7" xmlns="http://www.w3.org/2000/svg" y="16.3">
		<g stroke="black" stroke-width="1px">
			<line x1="13.6" x2="448.9" y1="371.8" y2="195.4" />
			<line x1="13.6" x2="168.7" y1="371.8" y2="131.7" />
			<line x1="13.6" x2="198.7" y1="371.8" y2="595.6" />
			<line x1="13.6" x2="468.7" y1="371.8" y2="487.4" />
			<line x1="448.9" x2="13.6" y1="195.4" y2="371.8" />
			<line x1="448.9" x2="168.7" y1="195.4" y2="131.7" />
			<line x1="448.9" x2="198.7" y1="195.4" y2="595.6" />
			<line x1="448.9" x2="468.7" y1="195.4" y2="487.4" />
			<line x1="168.7" x2="13.6" y1="131.7" y2="371.8" />
			<line x1="168.7" x2="448.9" y1="131.7" y2="195.4" />
			<line x1="168.7" x2="198.7" y1="131.7" y2="595.6" />
			<line x1="168.7" x2="468.7" y1="131.7" y2="487.4" />
			<line x1="198.7" x2="13.6" y1="595.6" y2="371.8" />
			<line x1="198.7" x2="448.9" y1="595.6" y2="195.4" />
			<line x1="198.7" x2="168.7" y1="595.6" y2="131.7" />
			<line x1="198.7" x2="468.7" y1="595.6" y2="487.4" />
			<line x1="468.7" x2="13.6" y1="487.4" y2="371.8" />
			<line x1="468.7" x2="448.9" y1="487.4" y2="195.4" />
			<line x1="468.7" x2="168.7" y1="487.4" y2="131.7" />
			<line x1="468.7" x2="198.7" y1="487.4" y2="595.6" />
		</g>
		<g>
			<circle cx="13.6" cy="371.8" r="10.0" />
			<circle cx="448.9" cy="195.4" r="10.0" />
			<circle cx="168.7" cy="131.7" r="10.0" />
			<circle cx="198.7" cy="595.6" r="10.0" />
			<circle cx="468.7" cy="487.4" r="10.0" />
		</g>
	</svg>
	<svg class="animated" height="745.9" id="frame_9" viewBox="-6.3 110.5 502.2 745.9" width="502.2" x="28.8" xmlns="http://www.w3.org/2000/svg" y="16.9">
		<g stroke="black" stroke-width="1px">
			<line x1="13.7" x2="448.9" y1="372.3" y2="196.4" />
			<line x1="13.7" x2="168.4" y1="372.3" y2="130.5" />
			<line x1="13.7" x2="199.2" y1="372.3" y2="595.4" />
			<line x1="13.7" x2="468.5" y1="372.3" y2="487.3" />
			<line x1="448.9" x2="13.7" y1="196.4" y2="372.3" />
			<line x1="448.9" x2="168.4" y1="196.4" y2="130.5" />
			<line x1="448.9" x2="199.2" y1="196.4" y2="595.4" />
			<line x1="448.9" x2="468.5" y1="196.4" y2="487.3" />
			<line x1="168.4" x2="13.7" y1="130.5" y2="372.3" />
			<line x1="168.4" x2="448.9" y1="130.5" y2="196.4" />
			<line x1="168.4" x2="199.2" y1="130.5" y2="595.4" />
			<line x1="168.4" x2="468.5" y1="130.5" y2="487.3" />
			<line x1="199.2" x2="13.7" y1="595.4" y2="372.3" />
			<line x1="199.2" x2="448.9" y1="595.4" y2="196.4" />
			<line x1="199.2" x2="168.4" y1="595.4" y2="130.5" />
			<line x1="199.2" x2="468.5" y1="595.4" y2="487.3" />
			<line x1="468.5" x2="13.7" y1="487.3" y2="372.3" />
			<line x1="468.5" x2="448.9" y1="487.3" y2="196.4" />
			<line x1="468.5" x2="168.4" y1="487.3" y2="130.5" />
			<line x1="468.5" x2="199.2" y1="487.3" y2="595.4" />
		</g>
		<g>
			<circle cx="13.7" cy="372.3" r="10.0" />
			<circle cx="448.9" cy="196.4" r="10.0" />
			<circle cx="168.4" cy="130.5" r="10.0" />
			<circle cx="199.2" cy="595.4" r="10.0" />
			<circle cx="468.5" cy="487.3" r="10.0" />
		</g>
	</svg>
</svg>