<svg viewBox="0 0 492.299988 515.599976" xmlns="http://www.w3.org/2000/svg">
	<style type="text/css">
		<![CDATA[
			#frame_0 {
				animation-name: anim_0;
			}
			#frame_1 {
				animation-name: anim_1;
			}
			#frame_10 {
				animation-name: anim_10;
			}
			#frame_11 {
				animation-name: anim_11;
			}
			#frame_2 {
				animation-name: anim_2;
			}
			#frame_3 {
				animation-name: anim_3;
			}
			#frame_4 {
				animation-name: anim_4;
			}
			#frame_5 {
				animation-name: anim_5;
			}
			#frame_6 {
				animation-name: anim_6;
			}
			#frame_7 {
				animation-name: anim_7;
			}
			#frame_8 {
				animation-name: anim_8;
			}
			#frame_9 {
				animation-name: anim_9;
			}
			svg.animated {
				animation-duration: 6.000000s;
				animation-iteration-count: infinite;
				animation-timing-function: step-end;
				opacity: 0;
			}
			@keyframes anim_0 {
				0% {
					opacity: 0;
				}
				0.000000% {
					opacity: 1;
				}
				8.333333% {
					opacity: 0;
				}
			}
			@keyframes anim_1 {
				0% {
					opacity: 0;
				}
				16.666667% {
					opacity: 0;
				}
				8.333333% {
					opacity: 1;
				}
			}
			@keyframes anim_10 {
				0% {
					opacity: 0;
				}
				83.333333% {
					opacity: 1;
				}
				91.666667% {
					opacity: 0;
				}
			}
			@keyframes anim_11 {
				0% {
					opacity: 0;
				}
				100.000000% {
					opacity: 0;
				}
				91.666667% {
					opacity: 1;
				}
			}
			@keyframes anim_2 {
				0% {
					opacity: 0;
				}
				16.666667% {
					opacity: 1;
				}
				25.000000% {
					opacity: 0;
				}
			}
			@keyframes anim_3 {
				0% {
					opacity: 0;
				}
				25.000000% {
					opacity: 1;
				}
				33.333333% {
					opacity: 0;
				}
			}
			@keyframes anim_4 {
				0% {
					opacity: 0;
				}
				33.333333% {
					opacity: 1;
				}
				41.666667% {
					opacity: 0;
				}
			}
			@keyframes anim_5 {
				0% {
					opacity: 0;
				}
				41.666667% {
					opacity: 1;
				}
				50.000000% {
					opacity: 0;
				}
			}
			@keyframes anim_6 {
				0% {
					opacity: 0;
				}
				50.000000% {
					opacity: 1;
				}
				58.333333% {
					opacity: 0;
				}
			}
			@keyframes anim_7 {
				0% {
					opacity: 0;
				}
				58.333333% {
					opacity: 1;
				}
				66.666667% {
					opacity: 0;
				}
			}
			@keyframes anim_8 {
				0% {
					opacity: 0;
				}
				66.666667% {
					opacity: 1;
				}
				75.000000% {
					opacity: 0;
				}
			}
			@keyframes anim_9 {
				0% {
					opacity: 0;
				}
				75.000000% {
					opacity: 1;
				}
				83.333333% {
					opacity: 0;
				}
			}
		]]>
	</style>
	<svg class="animated" height="515.6" id="frame_0" viewBox="-222.3 -257.8 492.3 515.6" width="492.3" x="0.0" xmlns="http://www.w3.org/2000/svg" y="0.0">
		<g stroke="black" stroke-width="1px">
			<line x1="250.0" x2="77.3" y1="0.0" y2="237.8" />
			<line x1="77.3" x2="-202.3" y1="237.8" y2="146.9" />
			<line x1="-202.3" x2="-202.3" y1="146.9" y2="-146.9" />
			<line x1="-202.3" x2="77.3" y1="-146.9" y2="-237.8" />
			<line x1="77.3" x2="250.0" y1="-237.8" y2="0.0" />
			<line x1="250.0" x2="0.0" y1="0.0" y2="0.0" />
			<line x1="77.3" x2="0.0" y1="237.8" y2="0.0" />
			<line x1="-202.3" x2="0.0" y1="146.9" y2="0.0" />
			<line x1="-202.3" x2="0.0" y1="-146.9" y2="0.0" />
			<line x1="77.3" x2="0.0" y1="-237.8" y2="0.0" />
			<line x1="0.0" x2="0.0" y1="0.0" y2="0.0" />
			<line x1="0.0" x2="0.0" y1="0.0" y2="0.0" />
			<line x1="0.0" x2="0.0" y1="0.0" y2="0.0" />
			<line x1="0.0" x2="0.0" y1="0.0" y2="0.0" />
			<line x1="0.0" x2="0.0" y1="0.0" y2="0.0" />
		</g>
		<g>
			<circle cx="250.0" cy="0.0" r="10.0" />
			<circle cx="77.3" cy="237.8" r="10.0" />
			<circle cx="-202.3" cy="146.9" r="10.0" />
			<circle cx="-202.3" cy="-146.9" r="10.0" />
			<circle cx="77.3" cy="-237.8" r="10.0" />
			<circle cx="0.0" cy="0.0" r="10.0" />
			<circle cx="0.0" cy="0.0" r="10.0" />
			<circle cx="0.0" cy="0.0" r="10.0" />
			<circle cx="0.0" cy="0.0" r="10.0" />
			<circle cx="0.0" cy="0.0" r="10.0" />
		</g>
	</svg>
	<svg class="animated" height="515.6" id="frame_1" viewBox="-222.3 -257.8 492.3 515.6" width="492.3" x="0.0" xmlns="http://www.w3.org/2000/svg" y="0.0">
		<g stroke="black" stroke-width="1px">
			<line x1="250.0" x2="77.3" y1="0.0" y2="237.8" />
			<line x1="77.3" x2="-202.3" y1="237.8" y2="146.9" />
			<line x1="-202.3" x2="-202.3" y1="146.9" y2="-146.9" />
			<line x1="-202.3" x2="77.3" y1="-146.9" y2="-237.8" />
			<line x1="77.3" x2="250.0" y1="-237.8" y2="0.0" />
			<line x1="250.0" x2="83.3" y1="0.0" y2="0.0" />
			<line x1="77.3" x2="25.8" y1="237.8" y2="79.3" />
			<line x1="-202.3" x2="-39.6" y1="146.9" y2="49.0" />
			<line x1="-202.3" x2="-31.1" y1="-146.9" y2="-22.6" />
			<line x1="77.3" x2="21.1" y1="-237.8" y2="-36.5" />
			<line x1="83.3" x2="-39.6" y1="0.0" y2="49.0" />
			<line x1="83.3" x2="-31.1" y1="0.0" y2="-22.6" />
			<line x1="25.8" x2="-31.1" y1="79.3" y2="-22.6" />
			<line x1="25.8" x2="21.1" y1="79.3" y2="-36.5" />
			<line x1="-39.6" x2="21.1" y1="49.0" y2="-36.5" />
		</g>
		<g>
			<circle cx="250.0" cy="0.0" r="10.0" />
			<circle cx="77.3" cy="237.8" r="10.0" />
			<circle cx="-202.3" cy="146.9" r="10.0" />
			<circle cx="-202.3" cy="-146.9" r="10.0" />
			<circle cx="77.3" cy="-237.8" r="10.0" />
			<circle cx="83.3" cy="0.0" r="10.0" />
			<circle cx="25.8" cy="79.3" r="10.0" />
			<circle cx="-39.6" cy="49.0" r="10.0" />
			<circle cx="-31.1" cy="-22.6" r="10.0" />
			<circle cx="21.1" cy="-36.5" r="10.0" />
		</g>
	</svg>
	<svg class="animated" height="515.6" id="frame_2" viewBox="-222.3 -257.8 492.3 515.6" width="492.3" x="0.0" xmlns="http://www.w3.org/2000/svg" y="0.0">
		<g stroke="black" stroke-width="1px">
			<line x1="250.0" x2="77.3" y1="0.0" y2="237.8" />
			<line x1="77.3" x2="-202.3" y1="237.8" y2="146.9" />
			<line x1="-202.3" x2="-202.3" y1="146.9" y2="-146.9" />
			<line x1="-202.3" x2="77.3" y1="-146.9" y2="-237.8" />
			<line x1="77.3" x2="250.0" y1="-237.8" y2="0.0" />
			<line x1="250.0" x2="59.8" y1="0.0" y2="8.8" />
			<line x1="77.3" x2="22.4" y1="237.8" y2="59.6" />
			<line x1="-202.3" x2="-40.5" y1="146.9" y2="39.7" />
			<line x1="-202.3" x2="-40.0" y1="-146.9" y2="-26.2" />
			<line x1="77.3" x2="19.7" y1="-237.8" y2="-46.2" />
			<line x1="59.8" x2="-40.5" y1="8.8" y2="39.7" />
			<line x1="59.8" x2="-40.0" y1="8.8" y2="-26.2" />
			<line x1="22.4" x2="-40.0" y1="59.6" y2="-26.2" />
			<line x1="22.4" x2="19.7" y1="59.6" y2="-46.2" />
			<line x1="-40.5" x2="19.7" y1="39.7" y2="-46.2" />
		</g>
		<g>
			<circle cx="250.0" cy="0.0" r="10.0" />
			<circle cx="77.3" cy="237.8" r="10.0" />
			<circle cx="-202.3" cy="146.9" r="10.0" />
			<circle cx="-202.3" cy="-146.9" r="10.0" />
			<circle cx="77.3" cy="-237.8" r="10.0" />
			<circle cx="59.8" cy="8.8" r="10.0" />
			<circle cx="22.4" cy="59.6" r="10.0" />
			<circle cx="-40.5" cy="39.7" r="10.0" />
			<circle cx="-40.0" cy="-26.2" r="10.0" />
			<circle cx="19.7" cy="-46.2" r="10.0" />
		</g>
	</svg>
	<svg class="animated" height="515.6" id="frame_3" viewBox="-222.3 -257.8 492.3 515.6" width="492.3" x="0.0" xmlns="http://www.w3.org/2000/svg" y="0.0">
		<g stroke="black" stroke-width="1px">
			<line x1="250.0" x2="77.3" y1="0.0" y2="237.8" />
			<line x1="77.3" x2="-202.3" y1="237.8" y2="146.9" />
			<line x1="-202.3" x2="-202.3" y1="146.9" y2="-146.9" />
			<line x1="-202.3" x2="77.3" y1="-146.9" y2="-237.8" />
			<line x1="77.3" x2="250.0" y1="-237.8" y2="0.0" />
			<line x1="250.0" x2="56.5" y1="0.0" y2="4.5" />
			<line x1="77.3" x2="19.0" y1="237.8" y2="55.1" />
			<line x1="-202.3" x2="-42.0" y1="146.9" y2="35.1" />
			<line x1="-202.3" x2="-42.2" y1="-146.9" y2="-29.1" />
			<line x1="77.3" x2="18.1" y1="-237.8" y2="-49.2" />
			<line x1="56.5" x2="-42.0" y1="4.5" y2="35.1" />
			<line x1="56.5" x2="-42.2" y1="4.5" y2="-29.1" />
			<line x1="19.0" x2="-42.2" y1="55.1" y2="-29.1" />
			<line x1="19.0" x2="18.1" y1="55.1" y2="-49.2" />
			<line x1="-42.0" x2="18.1" y1="35.1" y2="-49.2" />
		</g>
		<g>
			<circle cx="250.0" cy="0.0" r="10.0" />
			<circle cx="77.3" cy="237.8" r="10.0" />
			<circle cx="-202.3" cy="146.9" r="10.0" />
			<circle cx="-202.3" cy="-146.9" r="10.0" />
			<circle cx="77.3" cy="-237.8" r="10.0" />
			<circle cx="56.5" cy="4.5" r="10.0" />
			<circle cx="19.0" cy="55.1" r="10.0" />
			<circle cx="-42.0" cy="35.1" r="10.0" />
			<circle cx="-42.2" cy="-29.1" r="10.0" />
			<circle cx="18.1" cy="-49.2" r="10.0" />
		</g>
	</svg>
	<svg class="animated" height="515.6" id="frame_4" viewBox="-222.3 -257.8 492.3 515.6" width="492.3" x="0.0" xmlns="http://www.w3.org/2000/svg" y="0.0">
		<g stroke="black" stroke-width="1px">
			<line x1="250.0" x2="77.3" y1="0.0" y2="237.8" />
			<line x1="77.3" x2="-202.3" y1="237.8" y2="146.9" />
			<line x1="-202.3" x2="-202.3" y1="146.9" y2="-146.9" />
			<line x1="-202.3" x2="77.3" y1="-146.9" y2="-237.8" />
			<line x1="77.3" x2="250.0" y1="-237.8" y2="0.0" />
			<line x1="250.0" x2="55.3" y1="0.0" y2="2.0" />
			<line x1="77.3" x2="17.7" y1="237.8" y2="53.2" />
			<line x1="-202.3" x2="-43.0" y1="146.9" y2="33.3" />
			<line x1="-202.3" x2="-43.1" y1="-146.9" y2="-30.6" />
			<line x1="77.3" x2="17.3" y1="-237.8" y2="-50.4" />
			<line x1="55.3" x2="-43.0" y1="2.0" y2="33.3" />
			<line x1="55.3" x2="-43.1" y1="2.0" y2="-30.6" />
			<line x1="17.7" x2="-43.1" y1="53.2" y2="-30.6" />
			<line x1="17.7" x2="17.3" y1="53.2" y2="-50.4" />
			<line x1="-43.0" x2="17.3" y1="33.3" y2="-50.4" />
		</g>
		<g>
			<circle cx="250.0" cy="0.0" r="10.0" />
			<circle cx="77.3" cy="237.8" r="10.0" />
			<circle cx="-202.3" cy="146.9" r="10.0" />
			<circle cx="-202.3" cy="-146.9" r="10.0" />
			<circle cx="77.3" cy="-237.8" r="10.0" />
			<circle cx="55.3" cy="2.0" r="10.0" />
			<circle cx="17.7" cy="53.2" r="10.0" />
			<circle cx="-43.0" cy="33.3" r="10.0" />
			<circle cx="-43.1" cy="-30.6" r="10.0" />
			<circle cx="17.3" cy="-50.4" r="10.0" />
		</g>
	</svg>
	<svg class="animated" height="515.6" id="frame_5" viewBox="-222.3 -257.8 492.3 515.6" width="492.3" x="0.0" xmlns="http://www.w3.org/2000/svg" y="0.0">
		<g stroke="black" stroke-width="1px">
			<line x1="250.0" x2="77.3" y1="0.0" y2="237.8" />
			<line x1="77.3" x2="-202.3" y1="237.8" y2="146.9" />
			<line x1="-202.3" x2="-202.3" y1="146.9" y2="-146.9" />
			<line x1="-202.3" x2="77.3" y1="-146.9" y2="-237.8" />
			<line x1="77.3" x2="250.0" y1="-237.8" y2="0.0" />
			<line x1="250.0" x2="54.6" y1="0.0" y2="0.9" />
			<line x1="77.3" x2="17.2" y1="237.8" y2="52.2" />
			<line x1="-202.3" x2="-43.4" y1="146.9" y2="32.5" />
			<line x1="-202.3" x2="-43.5" y1="-146.9" y2="-31.3" />
			<line x1="77.3" x2="17.0" y1="-237.8" y2="-51.0" />
			<line x1="54.6" x2="-43.4" y1="0.9" y2="32.5" />
			<line x1="54.6" x2="-43.5" y1="0.9" y2="-31.3" />
			<line x1="17.2" x2="-43.5" y1="52.2" y2="-31.3" />
			<line x1="17.2" x2="17.0" y1="52.2" y2="-51.0" />
			<line x1="-43.4" x2="17.0" y1="32.5" y2="-51.0" />
		</g>
		<g>
			<circle cx="250.0" cy="0.0" r="10.0" />
			<circle cx="77.3" cy="237.8" r="10.0" />
			<circle cx="-202.3" cy="146.9" r="10.0" />
			<circle cx="-202.3" cy="-146.9" r="10.0" />
			<circle cx="77.3" cy="-237.8" r="10.0" />
			<circle cx="54.6" cy="0.9" r="10.0" />
			<circle cx="17.2" cy="52.2" r="10.0" />
			<circle cx="-43.4" cy="32.5" r="10.0" />
			<circle cx="-43.5" cy="-31.3" r="10.0" />
			<circle cx="17.0" cy="-51.0" r="10.0" />
		</g>
	</svg>
	<svg class="animated" height="515.6" id="frame_6" viewBox="-222.3 -257.8 492.3 515.6" width="492.3" x="0.0" xmlns="http://www.w3.org/2000/svg" y="0.0">
		<g stroke="black" stroke-width="1px">
			<line x1="250.0" x2="77.3" y1="0.0" y2="237.8" />
			<line x1="77.3" x2="-202.3" y1="237.8" y2="146.9" />
			<line x1="-202.3" x2="-202.3" y1="146.9" y2="-146.9" />
			<line x1="-202.3" x2="77.3" y1="-146.9" y2="-237.8" />
			<line x1="77.3" x2="250.0" y1="-237.8" y2="0.0" />
			<line x1="250.0" x2="54.4" y1="0.0" y2="0.4" />
			<line x1="77.3" x2="16.9" y1="237.8" y2="51.8" />
			<line x1="-202.3" x2="-43.6" y1="146.9" y2="32.1" />
			<line x1="-202.3" x2="-43.7" y1="-146.9" y2="-31.6" />
			<line x1="77.3" x2="16.8" y1="-237.8" y2="-51.3" />
			<line x1="54.4" x2="-43.6" y1="0.4" y2="32.1" />
			<line x1="54.4" x2="-43.7" y1="0.4" y2="-31.6" />
			<line x1="16.9" x2="-43.7" y1="51.8" y2="-31.6" />
			<line x1="16.9" x2="16.8" y1="51.8" y2="-51.3" />
			<line x1="-43.6" x2="16.8" y1="32.1" y2="-51.3" />
		</g>
		<g>
			<circle cx="250.0" cy="0.0" r="10.0" />
			<circle cx="77.3" cy="237.8" r="10.0" />
			<circle cx="-202.3" cy="146.9" r="10.0" />
			<circle cx="-202.3" cy="-146.9" r="10.0" />
			<circle cx="77.3" cy="-237.8" r="10.0" />
			<circle cx="54.4" cy="0.4" r="10.0" />
			<circle cx="16.9" cy="51.8" r="10.0" />
			<circle cx="-43.6" cy="32.1" r="10.0" />
			<circle cx="-43.7" cy="-31.6" r="10.0" />
			<circle cx="16.8" cy="-51.3" r="10.0" />
		</g>
	</svg>
	<svg class="animated" height="515.6" id="frame_7" viewBox="-222.3 -257.8 492.3 515.6" width="492.3" x="0.0" xmlns="http://www.w3.org/2000/svg" y="0.0">
		<g stroke="black" stroke-width="1px">
			<line x1="250.0" x2="77.3" y1="0.0" y2="237.8" />
			<line x1="77.3" x2="-202.3" y1="237.8" y2="146.9" />
			<line x1="-202.3" x2="-202.3" y1="146.9" y2="-146.9" />
			<line x1="-202.3" x2="77.3" y1="-146.9" y2="-237.8" />
			<line x1="77.3" x2="250.0" y1="-237.8" y2="0.0" />
			<line x1="250.0" x2="54.2" y1="0.0" y2="0.2" />
			<line x1="77.3" x2="16.8" y1="237.8" y2="51.6" />
			<line x1="-202.3" x2="-43.7" y1="146.9" y2="31.9" />
			<line x1="-202.3" x2="-43.7" y1="-146.9" y2="-31.7" />
			<line x1="77.3" x2="16.8" y1="-237.8" y2="-51.4" />
			<line x1="54.2" x2="-43.7" y1="0.2" y2="31.9" />
			<line x1="54.2" x2="-43.7" y1="0.2" y2="-31.7" />
			<line x1="16.8" x2="-43.7" y1="51.6" y2="-31.7" />
			<line x1="16.8" x2="16.8" y1="51.6" y2="-51.4" />
			<line x1="-43.7" x2="16.8" y1="31.9" y2="-51.4" />
		</g>
		<g>
			<circle cx="250.0" cy="0.0" r="10.0" />
			<circle cx="77.3" cy="237.8" r="10.0" />
			<circle cx="-202.3" cy="146.9" r="10.0" />
			<circle cx="-202.3" cy="-146.9" r="10.0" />
			<circle cx="77.3" cy="-237.8" r="10.0" />
			<circle cx="54.2" cy="0.2" r="10.0" />
			<circle cx="16.8" cy="51.6" r="10.0" />
			<circle cx="-43.7" cy="31.9" r="10.0" />
			<circle cx="-43.7" cy="-31.7" r="10.0" />
			<circle cx="16.8" cy="-51.4" r="10.0" />
		</g>
	</svg>
	<svg class="animated" height="515.6" id="frame_8" viewBox="-222.3 -257.8 492.3 515.6" width="492.3" x="0.0" xmlns="http://www.w3.org/2000/svg" y="0.0">
		<g stroke="black" stroke-width="1px">
			<line x1="250.0" x2="77.3" y1="0.0" y2="237.8" />
			<line x1="77.3" x2="-202.3" y1="237.8" y2="146.9" />
			<line x1="-202.3" x2="-202.3" y1="146.9" y2="-146.9" />
			<line x1="-202.3" x2="77.3" y1="-146.9" y2="-237.8" />
			<line x1="77.3" x2="250.0" y1="-237.8" y2="0.0" />
			<line x1="250.0" x2="54.2" y1="0.0" y2="0.1" />
			<line x1="77.3" x2="16.8" y1="237.8" y2="51.6" />
			<line x1="-202.3" x2="-43.8" y1="146.9" y2="31.9" />
			<line x1="-202.3" x2="-43.8" y1="-146.9" y2="-31.8" />
			<line x1="77.3" x2="16.8" y1="-237.8" y2="-51.4" />
			<line x1="54.2" x2="-43.8" y1="0.1" y2="31.9" />
			<line x1="54.2" x2="-43.8" y1="0.1" y2="-31.8" />
			<line x1="16.8" x2="-43.8" y1="51.6" y2="-31.8" />
			<line x1="16.8" x2="16.8" y1="51.6" y2="-51.4" />
			<line x1="-43.8" x2="16.8" y1="31.9" y2="-51.4" />
		</g>
		<g>
			<circle cx="250.0" cy="0.0" r="10.0" />
			<circle cx="77.3" cy="237.8" r="10.0" />
			<circle cx="-202.3" cy="146.9" r="10.0" />
			<circle cx="-202.3" cy="-146.9" r="10.0" />
			<circle cx="77.3" cy="-237.8" r="10.0" />
			<circle cx="54.2" cy="0.1" r="10.0" />
			<circle cx="16.8" cy="51.6" r="10.0" />
			<circle cx="-43.8" cy="31.9" r="10.0" />
			<circle cx="-43.8" cy="-31.8" r="10.0" />
			<circle cx="16.8" cy="-51.4" r="10.0" />
		</g>
	</svg>
	<svg class="animated" height="515.6" id="frame_9" viewBox="-222.3 -257.8 492.3 515.6" width="492.3" x="0.0" xmlns="http://www.w3.org/2000/svg" y="0.0">
		<g stroke="black" stroke-width="1px">
			<line x1="250.0" x2="77.3" y1="0.0" y2="237.8" />
			<line x1="77.3" x2="-202.3" y1="237.8" y2="146.9" />
			<line x1="-202.3" x2="-202.3" y1="146.9" y2="-146.9" />
			<line x1="-202.3" x2="77.3" y1="-146.9" y2="-237.8" />
			<line x1="77.3" x2="250.0" y1="-237.8" y2="0.0" />
			<line x1="250.0" x2="54.2" y1="0.0" y2="0.0" />
			<line x1="77.3" x2="16.7" y1="237.8" y2="51.5" />
			<line x1="-202.3" x2="-43.8" y1="146.9" y2="31.8" />
			<line x1="-202.3" x2="-43.8" y1="-146.9" y2="-31.8" />
			<line x1="77.3" x2="16.7" y1="-237.8" y2="-51.5" />
			<line x1="54.2" x2="-43.8" y1="0.0" y2="31.8" />
			<line x1="54.2" x2="-43.8" y1="0.0" y2="-31.8" />
			<line x1="16.7" x2="-43.8" y1="51.5" y2="-31.8" />
			<line x1="16.7" x2="16.7" y1="51.5" y2="-51.5" />
			<line x1="-43.8" x2="16.7" y1="31.8" y2="-51.5" />
		</g>
		<g>
			<circle cx="250.0" cy="0.0" r="10.0" />
			<circle cx="77.3" cy="237.8" r="10.0" />
			<circle cx="-202.3" cy="146.9" r="10.0" />
			<circle cx="-202.3" cy="-146.9" r="10.0" />
			<circle cx="77.3" cy="-237.8" r="10.0" />
			<circle cx="54.2" cy="0.0" r="10.0" />
			<circle cx="16.7" cy="51.5" r="10.0" />
			<circle cx="-43.8" cy="31.8" r="10.0" />
			<circle cx="-43.8" cy="-31.8" r="10.0" />
			<circle cx="16.7" cy="-51.5" r="10.0" />
		</g>
	</svg>
	<svg class="animated" height="515.6" id="frame_10" viewBox="-222.3 -257.8 492.3 515.6" width="492.3" x="0.0" xmlns="http://www.w3.org/2000/svg" y="0.0">
		<g stroke="black" stroke-width="1px">
			<line x1="250.0" x2="77.3" y1="0.0" y2="237.8" />
			<line x1="77.3" x2="-202.3" y1="237.8" y2="146.9" />
			<line x1="-202.3" x2="-202.3" y1="146.9" y2="-146.9" />
			<line x1="-202.3" x2="77.3" y1="-146.9" y2="-237.8" />
			<line x1="77.3" x2="250.0" y1="-237.8" y2="0.0" />
			<line x1="250.0" x2="54.1" y1="0.0" y2="0.0" />
			<line x1="77.3" x2="16.7" y1="237.8" y2="51.5" />
			<line x1="-202.3" x2="-43.8" y1="146.9" y2="31.8" />
			<line x1="-202.3" x2="-43.8" y1="-146.9" y2="-31.8" />
			<line x1="77.3" x2="16.7" y1="-237.8" y2="-51.5" />
			<line x1="54.1" x2="-43.8" y1="0.0" y2="31.8" />
			<line x1="54.1" x2="-43.8" y1="0.0" y2="-31.8" />
			<line x1="16.7" x2="-43.8" y1="51.5" y2="-31.8" />
			<line x1="16.7" x2="16.7" y1="51.5" y2="-51.5" />
			<line x1="-43.8" x2="16.7" y1="31.8" y2="-51.5" />
		</g>
		<g>
			<circle cx="250.0" cy="0.0" r="10.0" />
			<circle cx="77.3" cy="237.8" r="10.0" />
			<circle cx="-202.3" cy="146.9" r="10.0" />
			<circle cx="-202.3" cy="-146.9" r="10.0" />
			<circle cx="77.3" cy="-237.8" r="10.0" />
			<circle cx="54.1" cy="0.0" r="10.0" />
			<circle cx="16.7" cy="51.5" r="10.0" />
			<circle cx="-43.8" cy="31.8" r="10.0" />
			<circle cx="-43.8" cy="-31.8" r="10.0" />
			<circle cx="16.7" cy="-51.5" r="10.0" />
		</g>
	</svg>
	<svg class="animated" height="515.6" id="frame_11" viewBox="-222.3 -257.8 492.3 515.6" width="492.3" x="0.0" xmlns="http://www.w3.org/2000/svg" y="0.0">
		<g stroke="black" stroke-width="1px">
			<line x1="250.0" x2="77.3" y1="0.0" y2="237.8" />
			<line x1="77.3" x2="-202.3" y1="237.8" y2="146.9" />
			<line x1="-202.3" x2="-202.3" y1="146.9" y2="-146.9" />
			<line x1="-202.3" x2="77.3" y1="-146.9" y2="-237.8" />
			<line x1="77.3" x2="250.0" y1="-237.8" y2="0.0" />
			<line x1="250.0" x2="54.1" y1="0.0" y2="0.0" />
			<line x1="77.3" x2="16.7" y1="237.8" y2="51.5" />
			<line x1="-202.3" x2="-43.8" y1="146.9" y2="31.8" />
			<line x1="-202.3" x2="-43.8" y1="-146.9" y2="-31.8" />
			<line x1="77.3" x2="16.7" y1="-237.8" y2="-51.5" />
			<line x1="54.1" x2="-43.8" y1="0.0" y2="31.8" />
			<line x1="54.1" x2="-43.8" y1="0.0" y2="-31.8" />
			<line x1="16.7" x2="-43.8" y1="51.5" y2="-31.8" />
			<line x1="16.7" x2="16.7" y1="51.5" y2="-51.5" />
			<line x1="-43.8" x2="16.7" y1="31.8" y2="-51.5" />
		</g>
		<g>
			<circle cx="250.0" cy="0.0" r="10.0" />
			<circle cx="77.3" cy="237.8" r="10.0" />
			<circle cx="-202.3" cy="146.9" r="10.0" />
			<circle cx="-202.3" cy="-146.9" r="10.0" />
			<circle cx="77.3" cy="-237.8" r="10.0" />
			<circle cx="54.1" cy="0.0" r="10.0" />
			<circle cx="16.7" cy="51.5" r="10.0" />
			<circle cx="-43.8" cy="31.8" r="10.0" />
			<circle cx="-43.8" cy="-31.8" r="10.0" />
			<circle cx="16.7" cy="-51.5" r="10.0" />
		</g>
	</svg>
</svg>