<svg viewBox="0 0 540.000000 473.000000" xmlns="http://www.w3.org/2000/svg">
	<style type="text/css">
		<![CDATA[
			#frame_0 {
				animation-name: anim_0;
			}
			#frame_1 {
				animation-name: anim_1;
			}
			#frame_10 {
				animation-name: anim_10;
			}
			#frame_11 {
				animation-name: anim_11;
			}
			#frame_12 {
				animation-name: anim_12;
			}
			#frame_2 {
				animation-name: anim_2;
			}
			#frame_3 {
				animation-name: anim_3;
			}
			#frame_4 {
				animation-name: anim_4;
			}
			#frame_5 {
				animation-name: anim_5;
			}
			#frame_6 {
				animation-name: anim_6;
			}
			#frame_7 {
				animation-name: anim_7;
			}
			#frame_8 {
				animation-name: anim_8;
			}
			#frame_9 {
				animation-name: anim_9;
			}
			svg.animated {
				animation-duration: 4.333333s;
				animation-iteration-count: infinite;
				animation-timing-function: step-end;
				opacity: 0;
			}
			@keyframes anim_0 {
				0% {
					opacity: 0;
				}
				0.000000% {
					opacity: 1;
				}
				7.692308% {
					opacity: 0;
				}
			}
			@keyframes anim_1 {
				0% {
					opacity: 0;
				}
				15.384615% {
					opacity: 0;
				}
				7.692308% {
					opacity: 1;
				}
			}
			@keyframes anim_10 {
				0% {
					opacity: 0;
				}
				76.923077% {
					opacity: 1;
				}
				84.615385% {
					opacity: 0;
				}
			}
			@keyframes anim_11 {
				0% {
					opacity: 0;
				}
				84.615385% {
					opacity: 1;
				}
				92.307692% {
					opacity: 0;
				}
			}
			@keyframes anim_12 {
				0% {
					opacity: 0;
				}
				100.000000% {
					opacity: 0;
				}
				92.307692% {
					opacity: 1;
				}
			}
			@keyframes anim_2 {
				0% {
					opacity: 0;
				}
				15.384615% {
					opacity: 1;
				}
				23.076923% {
					opacity: 0;
				}
			}
			@keyframes anim_3 {
				0% {
					opacity: 0;
				}
				23.076923% {
					opacity: 1;
				}
				30.769231% {
					opacity: 0;
				}
			}
			@keyframes anim_4 {
				0% {
					opacity: 0;
				}
				30.769231% {
					opacity: 1;
				}
				38.461538% {
					opacity: 0;
				}
			}
			@keyframes anim_5 {
				0% {
					opacity: 0;
				}
				38.461538% {
					opacity: 1;
				}
				46.153846% {
					opacity: 0;
				}
			}
			@keyframes anim_6 {
				0% {
					opacity: 0;
				}
				46.153846% {
					opacity: 1;
				}
				53.846154% {
					opacity: 0;
				}
			}
			@keyframes anim_7 {
				0% {
					opacity: 0;
				}
				53.846154% {
					opacity: 1;
				}
				61.538462% {
					opacity: 0;
				}
			}
			@keyframes anim_8 {
				0% {
					opacity: 0;
				}
				61.538462% {
					opacity: 1;
				}
				69.230769% {
					opacity: 0;
				}
			}
			@keyframes anim_9 {
				0% {
					opacity: 0;
				}
				69.230769% {
					opacity: 1;
				}
				76.923077% {
					opacity: 0;
				}
			}
		]]>
	</style>
	<svg class="animated" height="473.0" id="frame_0" viewBox="-270.0 -236.5 540.0 473.0" width="540.0" x="0.0" xmlns="http://www.w3.org/2000/svg" y="0.0">
		<g stroke="black" stroke-width="1px">
			<line x1="250.0" x2="125.0" y1="0.0" y2="216.5" />
			<line x1="125.0" x2="-125.0" y1="216.5" y2="216.5" />
			<line x1="-125.0" x2="-250.0" y1="216.5" y2="0.0" />
			<line x1="-250.0" x2="-125.0" y1="0.0" y2="-216.5" />
			<line x1="-125.0" x2="125.0" y1="-216.5" y2="-216.5" />
			<line x1="125.0" x2="250.0" y1="-216.5" y2="0.0" />
			<line x1="0.0" x2="0.0" y1="0.0" y2="0.0" />
			<line x1="0.0" x2="0.0" y1="0.0" y2="0.0" />
			<line x1="0.0" x2="0.0" y1="0.0" y2="0.0" />
			<line x1="0.0" x2="0.0" y1="0.0" y2="0.0" />
			<line x1="0.0" x2="0.0" y1="0.0" y2="0.0" />
			<line x1="0.0" x2="0.0" y1="0.0" y2="0.0" />
			<line x1="250.0" x2="0.0" y1="0.0" y2="0.0" />
			<line x1="125.0" x2="0.0" y1="216.5" y2="0.0" />
			<line x1="-125.0" x2="0.0" y1="216.5" y2="0.0" />
			<line x1="-250.0" x2="0.0" y1="0.0" y2="0.0" />
			<line x1="-125.0" x2="0.0" y1="-216.5" y2="0.0" />
			<line x1="125.0" x2="0.0" y1="-216.5" y2="0.0" />
		</g>
		<g>
			<circle cx="250.0" cy="0.0" r="10.0" />
			<circle cx="125.0" cy="216.5" r="10.0" />
			<circle cx="-125.0" cy="216.5" r="10.0" />
			<circle cx="-250.0" cy="0.0" r="10.0" />
			<circle cx="-125.0" cy="-216.5" r="10.0" />
			<circle cx="125.0" cy="-216.5" r="10.0" />
			<circle cx="0.0" cy="0.0" r="10.0" />
			<circle cx="0.0" cy="0.0" r="10.0" />
			<circle cx="0.0" cy="0.0" r="10.0" />
			<circle cx="0.0" cy="0.0" r="10.0" />
			<circle cx="0.0" cy="0.0" r="10.0" />
			<circle cx="0.0" cy="0.0" r="10.0" />
		</g>
	</svg>
	<svg class="animated" height="473.0" id="frame_1" viewBox="-270.0 -236.5 540.0 473.0" width="540.0" x="0.0" xmlns="http://www.w3.org/2000/svg" y="0.0">
		<g stroke="black" stroke-width="1px">
			<line x1="250.0" x2="125.0" y1="0.0" y2="216.5" />
			<line x1="125.0" x2="-125.0" y1="216.5" y2="216.5" />
			<line x1="-125.0" x2="-250.0" y1="216.5" y2="0.0" />
			<line x1="-250.0" x2="-125.0" y1="0.0" y2="-216.5" />
			<line x1="-125.0" x2="125.0" y1="-216.5" y2="-216.5" />
			<line x1="125.0" x2="250.0" y1="-216.5" y2="0.0" />
			<line x1="83.3" x2="69.4" y1="0.0" y2="72.2" />
			<line x1="69.4" x2="-18.5" y1="72.2" y2="96.2" />
			<line x1="-18.5" x2="-89.5" y1="96.2" y2="32.1" />
			<line x1="-89.5" x2="-71.5" y1="32.1" y2="-61.5" />
			<line x1="-71.5" x2="45.6" y1="-61.5" y2="-92.7" />
			<line x1="45.6" x2="83.3" y1="-92.7" y2="0.0" />
			<line x1="250.0" x2="83.3" y1="0.0" y2="0.0" />
			<line x1="125.0" x2="69.4" y1="216.5" y2="72.2" />
			<line x1="-125.0" x2="-18.5" y1="216.5" y2="96.2" />
			<line x1="-250.0" x2="-89.5" y1="0.0" y2="32.1" />
			<line x1="-125.0" x2="-71.5" y1="-216.5" y2="-61.5" />
			<line x1="125.0" x2="45.6" y1="-216.5" y2="-92.7" />
		</g>
		<g>
			<circle cx="250.0" cy="0.0" r="10.0" />
			<circle cx="125.0" cy="216.5" r="10.0" />
			<circle cx="-125.0" cy="216.5" r="10.0" />
			<circle cx="-250.0" cy="0.0" r="10.0" />
			<circle cx="-125.0" cy="-216.5" r="10.0" />
			<circle cx="125.0" cy="-216.5" r="10.0" />
			<circle cx="83.3" cy="0.0" r="10.0" />
			<circle cx="69.4" cy="72.2" r="10.0" />
			<circle cx="-18.5" cy="96.2" r="10.0" />
			<circle cx="-89.5" cy="32.1" r="10.0" />
			<circle cx="-71.5" cy="-61.5" r="10.0" />
			<circle cx="45.6" cy="-92.7" r="10.0" />
		</g>
	</svg>
	<svg class="animated" height="473.0" id="frame_2" viewBox="-270.0 -236.5 540.0 473.0" width="540.0" x="0.0" xmlns="http://www.w3.org/2000/svg" y="0.0">
		<g stroke="black" stroke-width="1px">
			<line x1="250.0" x2="125.0" y1="0.0" y2="216.5" />
			<line x1="125.0" x2="-125.0" y1="216.5" y2="216.5" />
			<line x1="-125.0" x2="-250.0" y1="216.5" y2="0.0" />
			<line x1="-250.0" x2="-125.0" y1="0.0" y2="-216.5" />
			<line x1="-125.0" x2="125.0" y1="-216.5" y2="-216.5" />
			<line x1="125.0" x2="250.0" y1="-216.5" y2="0.0" />
			<line x1="121.7" x2="76.1" y1="-6.8" y2="102.0" />
			<line x1="76.1" x2="-46.2" y1="102.0" y2="116.8" />
			<line x1="-46.2" x2="-122.6" y1="116.8" y2="18.5" />
			<line x1="-122.6" x2="-67.3" y1="18.5" y2="-96.9" />
			<line x1="-67.3" x2="59.8" y1="-96.9" y2="-106.7" />
			<line x1="59.8" x2="121.7" y1="-106.7" y2="-6.8" />
			<line x1="250.0" x2="121.7" y1="0.0" y2="-6.8" />
			<line x1="125.0" x2="76.1" y1="216.5" y2="102.0" />
			<line x1="-125.0" x2="-46.2" y1="216.5" y2="116.8" />
			<line x1="-250.0" x2="-122.6" y1="0.0" y2="18.5" />
			<line x1="-125.0" x2="-67.3" y1="-216.5" y2="-96.9" />
			<line x1="125.0" x2="59.8" y1="-216.5" y2="-106.7" />
		</g>
		<g>
			<circle cx="250.0" cy="0.0" r="10.0" />
			<circle cx="125.0" cy="216.5" r="10.0" />
			<circle cx="-125.0" cy="216.5" r="10.0" />
			<circle cx="-250.0" cy="0.0" r="10.0" />
			<circle cx="-125.0" cy="-216.5" r="10.0" />
			<circle cx="125.0" cy="-216.5" r="10.0" />
			<circle cx="121.7" cy="-6.8" r="10.0" />
			<circle cx="76.1" cy="102.0" r="10.0" />
			<circle cx="-46.2" cy="116.8" r="10.0" />
			<circle cx="-122.6" cy="18.5" r="10.0" />
			<circle cx="-67.3" cy="-96.9" r="10.0" />
			<circle cx="59.8" cy="-106.7" r="10.0" />
		</g>
	</svg>
	<svg class="animated" height="473.0" id="frame_3" viewBox="-270.0 -236.5 540.0 473.0" width="540.0" x="0.0" xmlns="http://www.w3.org/2000/svg" y="0.0">
		<g stroke="black" stroke-width="1px">
			<line x1="250.0" x2="125.0" y1="0.0" y2="216.5" />
			<line x1="125.0" x2="-125.0" y1="216.5" y2="216.5" />
			<line x1="-125.0" x2="-250.0" y1="216.5" y2="0.0" />
			<line x1="-250.0" x2="-125.0" y1="0.0" y2="-216.5" />
			<line x1="-125.0" x2="125.0" y1="-216.5" y2="-216.5" />
			<line x1="125.0" x2="250.0" y1="-216.5" y2="0.0" />
			<line x1="128.6" x2="69.2" y1="-1.6" y2="110.6" />
			<line x1="69.2" x2="-59.5" y1="110.6" y2="115.2" />
			<line x1="-59.5" x2="-125.6" y1="115.2" y2="6.1" />
			<line x1="-125.6" x2="-63.6" y1="6.1" y2="-105.7" />
			<line x1="-63.6" x2="63.3" y1="-105.7" y2="-107.9" />
			<line x1="63.3" x2="128.6" y1="-107.9" y2="-1.6" />
			<line x1="250.0" x2="128.6" y1="0.0" y2="-1.6" />
			<line x1="125.0" x2="69.2" y1="216.5" y2="110.6" />
			<line x1="-125.0" x2="-59.5" y1="216.5" y2="115.2" />
			<line x1="-250.0" x2="-125.6" y1="0.0" y2="6.1" />
			<line x1="-125.0" x2="-63.6" y1="-216.5" y2="-105.7" />
			<line x1="125.0" x2="63.3" y1="-216.5" y2="-107.9" />
		</g>
		<g>
			<circle cx="250.0" cy="0.0" r="10.0" />
			<circle cx="125.0" cy="216.5" r="10.0" />
			<circle cx="-125.0" cy="216.5" r="10.0" />
			<circle cx="-250.0" cy="0.0" r="10.0" />
			<circle cx="-125.0" cy="-216.5" r="10.0" />
			<circle cx="125.0" cy="-216.5" r="10.0" />
			<circle cx="128.6" cy="-1.6" r="10.0" />
			<circle cx="69.2" cy="110.6" r="10.0" />
			<circle cx="-59.5" cy="115.2" r="10.0" />
			<circle cx="-125.6" cy="6.1" r="10.0" />
			<circle cx="-63.6" cy="-105.7" r="10.0" />
			<circle cx="63.3" cy="-107.9" r="10.0" />
		</g>
	</svg>
	<svg class="animated" height="473.0" id="frame_4" viewBox="-270.0 -236.5 540.0 473.0" width="540.0" x="0.0" xmlns="http://www.w3.org/2000/svg" y="0.0">
		<g stroke="black" stroke-width="1px">
			<line x1="250.0" x2="125.0" y1="0.0" y2="216.5" />
			<line x1="125.0" x2="-125.0" y1="216.5" y2="216.5" />
			<line x1="-125.0" x2="-250.0" y1="216.5" y2="0.0" />
			<line x1="-250.0" x2="-125.0" y1="0.0" y2="-216.5" />
			<line x1="-125.0" x2="125.0" y1="-216.5" y2="-216.5" />
			<line x1="125.0" x2="250.0" y1="-216.5" y2="0.0" />
			<line x1="127.5" x2="64.3" y1="0.9" y2="110.9" />
			<line x1="64.3" x2="-62.1" y1="110.9" y2="111.2" />
			<line x1="-62.1" x2="-125.2" y1="111.2" y2="1.8" />
			<line x1="-125.2" x2="-62.3" y1="1.8" y2="-107.5" />
			<line x1="-62.3" x2="63.4" y1="-107.5" y2="-107.7" />
			<line x1="63.4" x2="127.5" y1="-107.7" y2="0.9" />
			<line x1="250.0" x2="127.5" y1="0.0" y2="0.9" />
			<line x1="125.0" x2="64.3" y1="216.5" y2="110.9" />
			<line x1="-125.0" x2="-62.1" y1="216.5" y2="111.2" />
			<line x1="-250.0" x2="-125.2" y1="0.0" y2="1.8" />
			<line x1="-125.0" x2="-62.3" y1="-216.5" y2="-107.5" />
			<line x1="125.0" x2="63.4" y1="-216.5" y2="-107.7" />
		</g>
		<g>
			<circle cx="250.0" cy="0.0" r="10.0" />
			<circle cx="125.0" cy="216.5" r="10.0" />
			<circle cx="-125.0" cy="216.5" r="10.0" />
			<circle cx="-250.0" cy="0.0" r="10.0" />
			<circle cx="-125.0" cy="-216.5" r="10.0" />
			<circle cx="125.0" cy="-216.5" r="10.0" />
			<circle cx="127.5" cy="0.9" r="10.0" />
			<circle cx="64.3" cy="110.9" r="10.0" />
			<circle cx="-62.1" cy="111.2" r="10.0" />
			<circle cx="-125.2" cy="1.8" r="10.0" />
			<circle cx="-62.3" cy="-107.5" r="10.0" />
			<circle cx="63.4" cy="-107.7" r="10.0" />
		</g>
	</svg>
	<svg class="animated" height="473.0" id="frame_5" viewBox="-270.0 -236.5 540.0 473.0" width="540.0" x="0.0" xmlns="http://www.w3.org/2000/svg" y="0.0">
		<g stroke="black" stroke-width="1px">
			<line x1="250.0" x2="125.0" y1="0.0" y2="216.5" />
			<line x1="125.0" x2="-125.0" y1="216.5" y2="216.5" />
			<line x1="-125.0" x2="-250.0" y1="216.5" y2="0.0" />
			<line x1="-250.0" x2="-125.0" y1="0.0" y2="-216.5" />
			<line x1="-125.0" x2="125.0" y1="-216.5" y2="-216.5" />
			<line x1="125.0" x2="250.0" y1="-216.5" y2="0.0" />
			<line x1="125.9" x2="62.9" y1="1.0" y2="109.6" />
			<line x1="62.9" x2="-62.4" y1="109.6" y2="109.3" />
			<line x1="-62.4" x2="-124.9" y1="109.3" y2="0.6" />
			<line x1="-124.9" x2="-62.2" y1="0.6" y2="-107.9" />
			<line x1="-62.2" x2="62.9" y1="-107.9" y2="-107.8" />
			<line x1="62.9" x2="125.9" y1="-107.8" y2="1.0" />
			<line x1="250.0" x2="125.9" y1="0.0" y2="1.0" />
			<line x1="125.0" x2="62.9" y1="216.5" y2="109.6" />
			<line x1="-125.0" x2="-62.4" y1="216.5" y2="109.3" />
			<line x1="-250.0" x2="-124.9" y1="0.0" y2="0.6" />
			<line x1="-125.0" x2="-62.2" y1="-216.5" y2="-107.9" />
			<line x1="125.0" x2="62.9" y1="-216.5" y2="-107.8" />
		</g>
		<g>
			<circle cx="250.0" cy="0.0" r="10.0" />
			<circle cx="125.0" cy="216.5" r="10.0" />
			<circle cx="-125.0" cy="216.5" r="10.0" />
			<circle cx="-250.0" cy="0.0" r="10.0" />
			<circle cx="-125.0" cy="-216.5" r="10.0" />
			<circle cx="125.0" cy="-216.5" r="10.0" />
			<circle cx="125.9" cy="1.0" r="10.0" />
			<circle cx="62.9" cy="109.6" r="10.0" />
			<circle cx="-62.4" cy="109.3" r="10.0" />
			<circle cx="-124.9" cy="0.6" r="10.0" />
			<circle cx="-62.2" cy="-107.9" r="10.0" />
			<circle cx="62.9" cy="-107.8" r="10.0" />
		</g>
	</svg>
	<svg class="animated" height="473.0" id="frame_6" viewBox="-270.0 -236.5 540.0 473.0" width="540.0" x="0.0" xmlns="http://www.w3.org/2000/svg" y="0.0">
		<g stroke="black" stroke-width="1px">
			<line x1="250.0" x2="125.0" y1="0.0" y2="216.5" />
			<line x1="125.0" x2="-125.0" y1="216.5" y2="216.5" />
			<line x1="-125.0" x2="-250.0" y1="216.5" y2="0.0" />
			<line x1="-250.0" x2="-125.0" y1="0.0" y2="-216.5" />
			<line x1="-125.0" x2="125.0" y1="-216.5" y2="-216.5" />
			<line x1="125.0" x2="250.0" y1="-216.5" y2="0.0" />
			<line x1="125.3" x2="62.6" y1="0.6" y2="108.8" />
			<line x1="62.6" x2="-62.4" y1="108.8" y2="108.6" />
			<line x1="-62.4" x2="-124.9" y1="108.6" y2="0.2" />
			<line x1="-124.9" x2="-62.3" y1="0.2" y2="-108.0" />
			<line x1="-62.3" x2="62.7" y1="-108.0" y2="-108.0" />
			<line x1="62.7" x2="125.3" y1="-108.0" y2="0.6" />
			<line x1="250.0" x2="125.3" y1="0.0" y2="0.6" />
			<line x1="125.0" x2="62.6" y1="216.5" y2="108.8" />
			<line x1="-125.0" x2="-62.4" y1="216.5" y2="108.6" />
			<line x1="-250.0" x2="-124.9" y1="0.0" y2="0.2" />
			<line x1="-125.0" x2="-62.3" y1="-216.5" y2="-108.0" />
			<line x1="125.0" x2="62.7" y1="-216.5" y2="-108.0" />
		</g>
		<g>
			<circle cx="250.0" cy="0.0" r="10.0" />
			<circle cx="125.0" cy="216.5" r="10.0" />
			<circle cx="-125.0" cy="216.5" r="10.0" />
			<circle cx="-250.0" cy="0.0" r="10.0" />
			<circle cx="-125.0" cy="-216.5" r="10.0" />
			<circle cx="125.0" cy="-216.5" r="10.0" />
			<circle cx="125.3" cy="0.6" r="10.0" />
			<circle cx="62.6" cy="108.8" r="10.0" />
			<circle cx="-62.4" cy="108.6" r="10.0" />
			<circle cx="-124.9" cy="0.2" r="10.0" />
			<circle cx="-62.3" cy="-108.0" r="10.0" />
			<circle cx="62.7" cy="-108.0" r="10.0" />
		</g>
	</svg>
	<svg class="animated" height="473.0" id="frame_7" viewBox="-270.0 -236.5 540.0 473.0" width="540.0" x="0.0" xmlns="http://www.w3.org/2000/svg" y="0.0">
		<g stroke="black" stroke-width="1px">
			<line x1="250.0" x2="125.0" y1="0.0" y2="216.5" />
			<line x1="125.0" x2="-125.0" y1="216.5" y2="216.5" />
			<line x1="-125.0" x2="-250.0" y1="216.5" y2="0.0" />
			<line x1="-250.0" x2="-125.0" y1="0.0" y2="-216.5" />
			<line x1="-125.0" x2="125.0" y1="-216.5" y2="-216.5" />
			<line x1="125.0" x2="250.0" y1="-216.5" y2="0.0" />
			<line x1="125.1" x2="62.6" y1="0.3" y2="108.5" />
			<line x1="62.6" x2="-62.4" y1="108.5" y2="108.4" />
			<line x1="-62.4" x2="-124.9" y1="108.4" y2="0.1" />
			<line x1="-124.9" x2="-62.4" y1="0.1" y2="-108.1" />
			<line x1="-62.4" x2="62.6" y1="-108.1" y2="-108.1" />
			<line x1="62.6" x2="125.1" y1="-108.1" y2="0.3" />
			<line x1="250.0" x2="125.1" y1="0.0" y2="0.3" />
			<line x1="125.0" x2="62.6" y1="216.5" y2="108.5" />
			<line x1="-125.0" x2="-62.4" y1="216.5" y2="108.4" />
			<line x1="-250.0" x2="-124.9" y1="0.0" y2="0.1" />
			<line x1="-125.0" x2="-62.4" y1="-216.5" y2="-108.1" />
			<line x1="125.0" x2="62.6" y1="-216.5" y2="-108.1" />
		</g>
		<g>
			<circle cx="250.0" cy="0.0" r="10.0" />
			<circle cx="125.0" cy="216.5" r="10.0" />
			<circle cx="-125.0" cy="216.5" r="10.0" />
			<circle cx="-250.0" cy="0.0" r="10.0" />
			<circle cx="-125.0" cy="-216.5" r="10.0" />
			<circle cx="125.0" cy="-216.5" r="10.0" />
			<circle cx="125.1" cy="0.3" r="10.0" />
			<circle cx="62.6" cy="108.5" r="10.0" />
			<circle cx="-62.4" cy="108.4" r="10.0" />
			<circle cx="-124.9" cy="0.1" r="10.0" />
			<circle cx="-62.4" cy="-108.1" r="10.0" />
			<circle cx="62.6" cy="-108.1" r="10.0" />
		</g>
	</svg>
	<svg class="animated" height="473.0" id="frame_8" viewBox="-270.0 -236.5 540.0 473.0" width="540.0" x="0.0" xmlns="http://www.w3.org/2000/svg" y="0.0">
		<g stroke="black" stroke-width="1px">
			<line x1="250.0" x2="125.0" y1="0.0" y2="216.5" />
			<line x1="125.0" x2="-125.0" y1="216.5" y2="216.5" />
			<line x1="-125.0" x2="-250.0" y1="216.5" y2="0.0" />
			<line x1="-250.0" x2="-125.0" y1="0.0" y2="-216.5" />
			<line x1="-125.0" x2="125.0" y1="-216.5" y2="-216.5" />
			<line x1="125.0" x2="250.0" y1="-216.5" y2="0.0" />
			<line x1="125.0" x2="62.5" y1="0.1" y2="108.3" />
			<line x1="62.5" x2="-62.5" y1="108.3" y2="108.3" />
			<line x1="-62.5" x2="-125.0" y1="108.3" y2="0.1" />
			<line x1="-125.0" x2="-62.5" y1="0.1" y2="-108.2" />
			<line x1="-62.5" x2="62.5" y1="-108.2" y2="-108.2" />
			<line x1="62.5" x2="125.0" y1="-108.2" y2="0.1" />
			<line x1="250.0" x2="125.0" y1="0.0" y2="0.1" />
			<line x1="125.0" x2="62.5" y1="216.5" y2="108.3" />
			<line x1="-125.0" x2="-62.5" y1="216.5" y2="108.3" />
			<line x1="-250.0" x2="-125.0" y1="0.0" y2="0.1" />
			<line x1="-125.0" x2="-62.5" y1="-216.5" y2="-108.2" />
			<line x1="125.0" x2="62.5" y1="-216.5" y2="-108.2" />
		</g>
		<g>
			<circle cx="250.0" cy="0.0" r="10.0" />
			<circle cx="125.0" cy="216.5" r="10.0" />
			<circle cx="-125.0" cy="216.5" r="10.0" />
			<circle cx="-250.0" cy="0.0" r="10.0" />
			<circle cx="-125.0" cy="-216.5" r="10.0" />
			<circle cx="125.0" cy="-216.5" r="10.0" />
			<circle cx="125.0" cy="0.1" r="10.0" />
			<circle cx="62.5" cy="108.3" r="10.0" />
			<circle cx="-62.5" cy="108.3" r="10.0" />
			<circle cx="-125.0" cy="0.1" r="10.0" />
			<circle cx="-62.5" cy="-108.2" r="10.0" />
			<circle cx="62.5" cy="-108.2" r="10.0" />
		</g>
	</svg>
	<svg class="animated" height="473.0" id="frame_9" viewBox="-270.0 -236.5 540.0 473.0" width="540.0" x="0.0" xmlns="http://www.w3.org/2000/svg" y="0.0">
		<g stroke="black" stroke-width="1px">
			<line x1="250.0" x2="125.0" y1="0.0" y2="216.5" />
			<line x1="125.0" x2="-125.0" y1="216.5" y2="216.5" />
			<line x1="-125.0" x2="-250.0" y1="216.5" y2="0.0" />
			<line x1="-250.0" x2="-125.0" y1="0.0" y2="-216.5" />
			<line x1="-125.0" x2="125.0" y1="-216.5" y2="-216.5" />
			<line x1="125.0" x2="250.0" y1="-216.5" y2="0.0" />
			<line x1="125.0" x2="62.5" y1="0.1" y2="108.3" />
			<line x1="62.5" x2="-62.5" y1="108.3" y2="108.3" />
			<line x1="-62.5" x2="-125.0" y1="108.3" y2="0.0" />
			<line x1="-125.0" x2="-62.5" y1="0.0" y2="-108.2" />
			<line x1="-62.5" x2="62.5" y1="-108.2" y2="-108.2" />
			<line x1="62.5" x2="125.0" y1="-108.2" y2="0.1" />
			<line x1="250.0" x2="125.0" y1="0.0" y2="0.1" />
			<line x1="125.0" x2="62.5" y1="216.5" y2="108.3" />
			<line x1="-125.0" x2="-62.5" y1="216.5" y2="108.3" />
			<line x1="-250.0" x2="-125.0" y1="0.0" y2="0.0" />
			<line x1="-125.0" x2="-62.5" y1="-216.5" y2="-108.2" />
			<line x1="125.0" x2="62.5" y1="-216.5" y2="-108.2" />
		</g>
		<g>
			<circle cx="250.0" cy="0.0" r="10.0" />
			<circle cx="125.0" cy="216.5" r="10.0" />
			<circle cx="-125.0" cy="216.5" r="10.0" />
			<circle cx="-250.0" cy="0.0" r="10.0" />
			<circle cx="-125.0" cy="-216.5" r="10.0" />
			<circle cx="125.0" cy="-216.5" r="10.0" />
			<circle cx="125.0" cy="0.1" r="10.0" />
			<circle cx="62.5" cy="108.3" r="10.0" />
			<circle cx="-62.5" cy="108.3" r="10.0" />
			<circle cx="-125.0" cy="0.0" r="10.0" />
			<circle cx="-62.5" cy="-108.2" r="10.0" />
			<circle cx="62.5" cy="-108.2" r="10.0" />
		</g>
	</svg>
	<svg class="animated" height="473.0" id="frame_10" viewBox="-270.0 -236.5 540.0 473.0" width="540.0" x="0.0" xmlns="http://www.w3.org/2000/svg" y="0.0">
		<g stroke="black" stroke-width="1px">
			<line x1="250.0" x2="125.0" y1="0.0" y2="216.5" />
			<line x1="125.0" x2="-125.0" y1="216.5" y2="216.5" />
			<line x1="-125.0" x2="-250.0" y1="216.5" y2="0.0" />
			<line x1="-250.0" x2="-125.0" y1="0.0" y2="-216.5" />
			<line x1="-125.0" x2="125.0" y1="-216.5" y2="-216.5" />
			<line x1="125.0" x2="250.0" y1="-216.5" y2="0.0" />
			<line x1="125.0" x2="62.5" y1="0.0" y2="108.3" />
			<line x1="62.5" x2="-62.5" y1="108.3" y2="108.3" />
			<line x1="-62.5" x2="-125.0" y1="108.3" y2="0.0" />
			<line x1="-125.0" x2="-62.5" y1="0.0" y2="-108.2" />
			<line x1="-62.5" x2="62.5" y1="-108.2" y2="-108.2" />
			<line x1="62.5" x2="125.0" y1="-108.2" y2="0.0" />
			<line x1="250.0" x2="125.0" y1="0.0" y2="0.0" />
			<line x1="125.0" x2="62.5" y1="216.5" y2="108.3" />
			<line x1="-125.0" x2="-62.5" y1="216.5" y2="108.3" />
			<line x1="-250.0" x2="-125.0" y1="0.0" y2="0.0" />
			<line x1="-125.0" x2="-62.5" y1="-216.5" y2="-108.2" />
			<line x1="125.0" x2="62.5" y1="-216.5" y2="-108.2" />
		</g>
		<g>
			<circle cx="250.0" cy="0.0" r="10.0" />
			<circle cx="125.0" cy="216.5" r="10.0" />
			<circle cx="-125.0" cy="216.5" r="10.0" />
			<circle cx="-250.0" cy="0.0" r="10.0" />
			<circle cx="-125.0" cy="-216.5" r="10.0" />
			<circle cx="125.0" cy="-216.5" r="10.0" />
			<circle cx="125.0" cy="0.0" r="10.0" />
			<circle cx="62.5" cy="108.3" r="10.0" />
			<circle cx="-62.5" cy="108.3" r="10.0" />
			<circle cx="-125.0" cy="0.0" r="10.0" />
			<circle cx="-62.5" cy="-108.2" r="10.0" />
			<circle cx="62.5" cy="-108.2" r="10.0" />
		</g>
	</svg>
	<svg class="animated" height="473.0" id="frame_11" viewBox="-270.0 -236.5 540.0 473.0" width="540.0" x="0.0" xmlns="http://www.w3.org/2000/svg" y="0.0">
		<g stroke="black" stroke-width="1px">
			<line x1="250.0" x2="125.0" y1="0.0" y2="216.5" />
			<line x1="125.0" x2="-125.0" y1="216.5" y2="216.5" />
			<line x1="-125.0" x2="-250.0" y1="216.5" y2="0.0" />
			<line x1="-250.0" x2="-125.0" y1="0.0" y2="-216.5" />
			<line x1="-125.0" x2="125.0" y1="-216.5" y2="-216.5" />
			<line x1="125.0" x2="250.0" y1="-216.5" y2="0.0" />
			<line x1="125.0" x2="62.5" y1="0.0" y2="108.3" />
			<line x1="62.5" x2="-62.5" y1="108.3" y2="108.3" />
			<line x1="-62.5" x2="-125.0" y1="108.3" y2="0.0" />
			<line x1="-125.0" x2="-62.5" y1="0.0" y2="-108.2" />
			<line x1="-62.5" x2="62.5" y1="-108.2" y2="-108.2" />
			<line x1="62.5" x2="125.0" y1="-108.2" y2="0.0" />
			<line x1="250.0" x2="125.0" y1="0.0" y2="0.0" />
			<line x1="125.0" x2="62.5" y1="216.5" y2="108.3" />
			<line x1="-125.0" x2="-62.5" y1="216.5" y2="108.3" />
			<line x1="-250.0" x2="-125.0" y1="0.0" y2="0.0" />
			<line x1="-125.0" x2="-62.5" y1="-216.5" y2="-108.2" />
			<line x1="125.0" x2="62.5" y1="-216.5" y2="-108.2" />
		</g>
		<g>
			<circle cx="250.0" cy="0.0" r="10.0" />
			<circle cx="125.0" cy="216.5" r="10.0" />
			<circle cx="-125.0" cy="216.5" r="10.0" />
			<circle cx="-250.0" cy="0.0" r="10.0" />
			<circle cx="-125.0" cy="-216.5" r="10.0" />
			<circle cx="125.0" cy="-216.5" r="10.0" />
			<circle cx="125.0" cy="0.0" r="10.0" />
			<circle cx="62.5" cy="108.3" r="10.0" />
			<circle cx="-62.5" cy="108.3" r="10.0" />
			<circle cx="-125.0" cy="0.0" r="10.0" />
			<circle cx="-62.5" cy="-108.2" r="10.0" />
			<circle cx="62.5" cy="-108.2" r="10.0" />
		</g>
	</svg>
	<svg class="animated" height="473.0" id="frame_12" viewBox="-270.0 -236.5 540.0 473.0" width="540.0" x="0.0" xmlns="http://www.w3.org/2000/svg" y="0.0">
		<g stroke="black" stroke-width="1px">
			<line x1="250.0" x2="125.0" y1="0.0" y2="216.5" />
			<line x1="125.0" x2="-125.0" y1="216.5" y2="216.5" />
			<line x1="-125.0" x2="-250.0" y1="216.5" y2="0.0" />
			<line x1="-250.0" x2="-125.0" y1="0.0" y2="-216.5" />
			<line x1="-125.0" x2="125.0" y1="-216.5" y2="-216.5" />
			<line x1="125.0" x2="250.0" y1="-216.5" y2="0.0" />
			<line x1="125.0" x2="62.5" y1="0.0" y2="108.3" />
			<line x1="62.5" x2="-62.5" y1="108.3" y2="108.3" />
			<line x1="-62.5" x2="-125.0" y1="108.3" y2="0.0" />
			<line x1="-125.0" x2="-62.5" y1="0.0" y2="-108.2" />
			<line x1="-62.5" x2="62.5" y1="-108.2" y2="-108.3" />
			<line x1="62.5" x2="125.0" y1="-108.3" y2="0.0" />
			<line x1="250.0" x2="125.0" y1="0.0" y2="0.0" />
			<line x1="125.0" x2="62.5" y1="216.5" y2="108.3" />
			<line x1="-125.0" x2="-62.5" y1="216.5" y2="108.3" />
			<line x1="-250.0" x2="-125.0" y1="0.0" y2="0.0" />
			<line x1="-125.0" x2="-62.5" y1="-216.5" y2="-108.2" />
			<line x1="125.0" x2="62.5" y1="-216.5" y2="-108.3" />
		</g>
		<g>
			<circle cx="250.0" cy="0.0" r="10.0" />
			<circle cx="125.0" cy="216.5" r="10.0" />
			<circle cx="-125.0" cy="216.5" r="10.0" />
			<circle cx="-250.0" cy="0.0" r="10.0" />
			<circle cx="-125.0" cy="-216.5" r="10.0" />
			<circle cx="125.0" cy="-216.5" r="10.0" />
			<circle cx="125.0" cy="0.0" r="10.0" />
			<circle cx="62.5" cy="108.3" r="10.0" />
			<circle cx="-62.5" cy="108.3" r="10.0" />
			<circle cx="-125.0" cy="0.0" r="10.0" />
			<circle cx="-62.5" cy="-108.2" r="10.0" />
			<circle cx="62.5" cy="-108.3" r="10.0" />
		</g>
	</svg>
</svg>