<svg height="540.0" viewBox="-270.0 -270.0 540.0 540.0" width="540.0" xmlns="http://www.w3.org/2000/svg">
	<style type="text/css">
		<![CDATA[
		]]>
	</style>
	<g stroke="black" stroke-width="1px">
		<line x1="250.0" x2="241.5" y1="0.0" y2="64.7" />
		<line x1="250.0" x2="241.5" y1="0.0" y2="-64.7" />
		<line x1="250.0" x2="100.7" y1="0.0" y2="0.0" />
		<line x1="241.5" x2="216.5" y1="64.7" y2="125.0" />
		<line x1="241.5" x2="97.3" y1="64.7" y2="26.1" />
		<line x1="216.5" x2="176.8" y1="125.0" y2="176.8" />
		<line x1="216.5" x2="87.2" y1="125.0" y2="50.4" />
		<line x1="176.8" x2="125.0" y1="176.8" y2="216.5" />
		<line x1="176.8" x2="71.2" y1="176.8" y2="71.2" />
		<line x1="125.0" x2="64.7" y1="216.5" y2="241.5" />
		<line x1="125.0" x2="50.4" y1="216.5" y2="87.2" />
		<line x1="64.7" x2="0.0" y1="241.5" y2="250.0" />
		<line x1="64.7" x2="26.1" y1="241.5" y2="97.3" />
		<line x1="0.0" x2="-64.7" y1="250.0" y2="241.5" />
		<line x1="0.0" x2="0.0" y1="250.0" y2="100.7" />
		<line x1="-64.7" x2="-125.0" y1="241.5" y2="216.5" />
		<line x1="-64.7" x2="-26.1" y1="241.5" y2="97.3" />
		<line x1="-125.0" x2="-176.8" y1="216.5" y2="176.8" />
		<line x1="-125.0" x2="-50.4" y1="216.5" y2="87.2" />
		<line x1="-176.8" x2="-216.5" y1="176.8" y2="125.0" />
		<line x1="-176.8" x2="-71.2" y1="176.8" y2="71.2" />
		<line x1="-216.5" x2="-241.5" y1="125.0" y2="64.7" />
		<line x1="-216.5" x2="-87.2" y1="125.0" y2="50.4" />
		<line x1="-241.5" x2="-250.0" y1="64.7" y2="0.0" />
		<line x1="-241.5" x2="-97.3" y1="64.7" y2="26.1" />
		<line x1="-250.0" x2="-241.5" y1="0.0" y2="-64.7" />
		<line x1="-250.0" x2="-100.7" y1="0.0" y2="0.0" />
		<line x1="-241.5" x2="-216.5" y1="-64.7" y2="-125.0" />
		<line x1="-241.5" x2="-97.3" y1="-64.7" y2="-26.1" />
		<line x1="-216.5" x2="-176.8" y1="-125.0" y2="-176.8" />
		<line x1="-216.5" x2="-87.2" y1="-125.0" y2="-50.4" />
		<line x1="-176.8" x2="-125.0" y1="-176.8" y2="-216.5" />
		<line x1="-176.8" x2="-71.2" y1="-176.8" y2="-71.2" />
		<line x1="-125.0" x2="-64.7" y1="-216.5" y2="-241.5" />
		<line x1="-125.0" x2="-50.4" y1="-216.5" y2="-87.2" />
		<line x1="-64.7" x2="-0.0" y1="-241.5" y2="-250.0" />
		<line x1="-64.7" x2="-26.1" y1="-241.5" y2="-97.3" />
		<line x1="-0.0" x2="64.7" y1="-250.0" y2="-241.5" />
		<line x1="-0.0" x2="-0.0" y1="-250.0" y2="-100.7" />
		<line x1="64.7" x2="125.0" y1="-241.5" y2="-216.5" />
		<line x1="64.7" x2="26.1" y1="-241.5" y2="-97.3" />
		<line x1="125.0" x2="176.8" y1="-216.5" y2="-176.8" />
		<line x1="125.0" x2="50.4" y1="-216.5" y2="-87.2" />
		<line x1="176.8" x2="216.5" y1="-176.8" y2="-125.0" />
		<line x1="176.8" x2="71.2" y1="-176.8" y2="-71.2" />
		<line x1="216.5" x2="241.5" y1="-125.0" y2="-64.7" />
		<line x1="216.5" x2="87.2" y1="-125.0" y2="-50.4" />
		<line x1="241.5" x2="97.3" y1="-64.7" y2="-26.1" />
		<line x1="100.7" x2="26.1" y1="0.0" y2="97.3" />
		<line x1="100.7" x2="26.1" y1="0.0" y2="-97.3" />
		<line x1="97.3" x2="0.0" y1="26.1" y2="100.7" />
		<line x1="97.3" x2="50.4" y1="26.1" y2="-87.2" />
		<line x1="87.2" x2="-26.1" y1="50.4" y2="97.3" />
		<line x1="87.2" x2="71.2" y1="50.4" y2="-71.2" />
		<line x1="71.2" x2="-50.4" y1="71.2" y2="87.2" />
		<line x1="71.2" x2="87.2" y1="71.2" y2="-50.4" />
		<line x1="50.4" x2="-71.2" y1="87.2" y2="71.2" />
		<line x1="50.4" x2="97.3" y1="87.2" y2="-26.1" />
		<line x1="26.1" x2="-87.2" y1="97.3" y2="50.4" />
		<line x1="0.0" x2="-97.3" y1="100.7" y2="26.1" />
		<line x1="-26.1" x2="-100.7" y1="97.3" y2="0.0" />
		<line x1="-50.4" x2="-97.3" y1="87.2" y2="-26.1" />
		<line x1="-71.2" x2="-87.2" y1="71.2" y2="-50.4" />
		<line x1="-87.2" x2="-71.2" y1="50.4" y2="-71.2" />
		<line x1="-97.3" x2="-50.4" y1="26.1" y2="-87.2" />
		<line x1="-100.7" x2="-26.1" y1="0.0" y2="-97.3" />
		<line x1="-97.3" x2="-0.0" y1="-26.1" y2="-100.7" />
		<line x1="-87.2" x2="26.1" y1="-50.4" y2="-97.3" />
		<line x1="-71.2" x2="50.4" y1="-71.2" y2="-87.2" />
		<line x1="-50.4" x2="71.2" y1="-87.2" y2="-71.2" />
		<line x1="-26.1" x2="87.2" y1="-97.3" y2="-50.4" />
		<line x1="-0.0" x2="97.3" y1="-100.7" y2="-26.1" />
	</g>
	<g>
		<circle cx="250.0" cy="0.0" r="10.0" />
		<circle cx="241.5" cy="64.7" r="10.0" />
		<circle cx="216.5" cy="125.0" r="10.0" />
		<circle cx="176.8" cy="176.8" r="10.0" />
		<circle cx="125.0" cy="216.5" r="10.0" />
		<circle cx="64.7" cy="241.5" r="10.0" />
		<circle cx="0.0" cy="250.0" r="10.0" />
		<circle cx="-64.7" cy="241.5" r="10.0" />
		<circle cx="-125.0" cy="216.5" r="10.0" />
		<circle cx="-176.8" cy="176.8" r="10.0" />
		<circle cx="-216.5" cy="125.0" r="10.0" />
		<circle cx="-241.5" cy="64.7" r="10.0" />
		<circle cx="-250.0" cy="0.0" r="10.0" />
		<circle cx="-241.5" cy="-64.7" r="10.0" />
		<circle cx="-216.5" cy="-125.0" r="10.0" />
		<circle cx="-176.8" cy="-176.8" r="10.0" />
		<circle cx="-125.0" cy="-216.5" r="10.0" />
		<circle cx="-64.7" cy="-241.5" r="10.0" />
		<circle cx="-0.0" cy="-250.0" r="10.0" />
		<circle cx="64.7" cy="-241.5" r="10.0" />
		<circle cx="125.0" cy="-216.5" r="10.0" />
		<circle cx="176.8" cy="-176.8" r="10.0" />
		<circle cx="216.5" cy="-125.0" r="10.0" />
		<circle cx="241.5" cy="-64.7" r="10.0" />
		<circle cx="100.7" cy="0.0" r="10.0" />
		<circle cx="97.3" cy="26.1" r="10.0" />
		<circle cx="87.2" cy="50.4" r="10.0" />
		<circle cx="71.2" cy="71.2" r="10.0" />
		<circle cx="50.4" cy="87.2" r="10.0" />
		<circle cx="26.1" cy="97.3" r="10.0" />
		<circle cx="0.0" cy="100.7" r="10.0" />
		<circle cx="-26.1" cy="97.3" r="10.0" />
		<circle cx="-50.4" cy="87.2" r="10.0" />
		<circle cx="-71.2" cy="71.2" r="10.0" />
		<circle cx="-87.2" cy="50.4" r="10.0" />
		<circle cx="-97.3" cy="26.1" r="10.0" />
		<circle cx="-100.7" cy="0.0" r="10.0" />
		<circle cx="-97.3" cy="-26.1" r="10.0" />
		<circle cx="-87.2" cy="-50.4" r="10.0" />
		<circle cx="-71.2" cy="-71.2" r="10.0" />
		<circle cx="-50.4" cy="-87.2" r="10.0" />
		<circle cx="-26.1" cy="-97.3" r="10.0" />
		<circle cx="-0.0" cy="-100.7" r="10.0" />
		<circle cx="26.1" cy="-97.3" r="10.0" />
		<circle cx="50.4" cy="-87.2" r="10.0" />
		<circle cx="71.2" cy="-71.2" r="10.0" />
		<circle cx="87.2" cy="-50.4" r="10.0" />
		<circle cx="97.3" cy="-26.1" r="10.0" />
	</g>
</svg>