<svg height="473.0" viewBox="-270.0 -236.5 540.0 473.0" width="540.0" xmlns="http://www.w3.org/2000/svg">
	<style type="text/css">
		<![CDATA[
		]]>
	</style>
	<g stroke="black" stroke-width="1px">
		<line x1="250.0" x2="125.0" y1="0.0" y2="216.5" />
		<line x1="250.0" x2="125.0" y1="0.0" y2="-216.5" />
		<line x1="250.0" x2="62.5" y1="0.0" y2="0.0" />
		<line x1="125.0" x2="-125.0" y1="216.5" y2="216.5" />
		<line x1="125.0" x2="31.2" y1="216.5" y2="54.1" />
		<line x1="-125.0" x2="-250.0" y1="216.5" y2="0.0" />
		<line x1="-125.0" x2="-31.3" y1="216.5" y2="54.1" />
		<line x1="-250.0" x2="-125.0" y1="0.0" y2="-216.5" />
		<line x1="-250.0" x2="-62.5" y1="0.0" y2="0.0" />
		<line x1="-125.0" x2="125.0" y1="-216.5" y2="-216.5" />
		<line x1="-125.0" x2="-31.3" y1="-216.5" y2="-54.1" />
		<line x1="125.0" x2="31.2" y1="-216.5" y2="-54.1" />
		<line x1="62.5" x2="-31.3" y1="0.0" y2="54.1" />
		<line x1="62.5" x2="-31.3" y1="0.0" y2="-54.1" />
		<line x1="31.2" x2="-62.5" y1="54.1" y2="0.0" />
		<line x1="31.2" x2="31.2" y1="54.1" y2="-54.1" />
		<line x1="-31.3" x2="-31.3" y1="54.1" y2="-54.1" />
		<line x1="-62.5" x2="31.2" y1="0.0" y2="-54.1" />
	</g>
	<g>
		<circle cx="250.0" cy="0.0" r="10.0" />
		<circle cx="125.0" cy="216.5" r="10.0" />
		<circle cx="-125.0" cy="216.5" r="10.0" />
		<circle cx="-250.0" cy="0.0" r="10.0" />
		<circle cx="-125.0" cy="-216.5" r="10.0" />
		<circle cx="125.0" cy="-216.5" r="10.0" />
		<circle cx="62.5" cy="0.0" r="10.0" />
		<circle cx="31.2" cy="54.1" r="10.0" />
		<circle cx="-31.3" cy="54.1" r="10.0" />
		<circle cx="-62.5" cy="0.0" r="10.0" />
		<circle cx="-31.3" cy="-54.1" r="10.0" />
		<circle cx="31.2" cy="-54.1" r="10.0" />
	</g>
</svg>